<svg preserveAspectRatio="none" width="100%" height="100%" overflow="visible" style="display: block;" viewBox="0 0 64.0005 65" fill="none" xmlns="http://www.w3.org/2000/svg">
<g id="Brand mark">
<g id="Vector">
</g>
<path id="Vector_2" d="M43.8676 42.15C41.7984 43.9808 39.2167 46.2594 34.522 46.2594H31.7225C28.3289 46.2594 25.2434 45.0315 23.0354 42.8027C20.8785 40.6261 19.6905 37.6462 19.6905 34.4116V30.5884C19.6905 27.3538 20.8785 24.3739 23.0354 22.1973C25.2434 19.9685 28.3289 18.7406 31.7225 18.7406H34.522C39.2167 18.7406 41.796 21.0192 43.8676 22.85C46.016 24.7488 47.8722 26.388 52.8164 26.388C53.5706 26.3882 54.3237 26.3281 55.0682 26.2084C55.0682 26.1939 55.0585 26.1805 55.0524 26.166C54.7559 25.4328 54.4082 24.7213 54.0117 24.0366L50.7058 18.3281C49.2153 15.7549 47.0716 13.6181 44.4902 12.1324C41.9088 10.6467 38.9805 9.8644 35.9997 9.86411H29.3867C26.4059 9.8644 23.4776 10.6467 20.8962 12.1324C18.3148 13.6181 16.1711 15.7549 14.6806 18.3281L11.3747 24.0366C9.88439 26.6099 9.09983 29.5288 9.09983 32.5C9.09983 35.4712 9.88439 38.3901 11.3747 40.9634L14.6806 46.6719C16.1711 49.2449 18.3149 51.3815 20.8963 52.8671C23.4777 54.3526 26.406 55.1346 29.3867 55.1347H35.9997C38.9804 55.1346 41.9086 54.3526 44.4901 52.8671C47.0715 51.3815 49.2152 49.2449 50.7058 46.6719L54.0117 40.9634C54.4082 40.2787 54.7559 39.5672 55.0524 38.834C55.0524 38.8195 55.0634 38.8061 55.0682 38.7916C54.3237 38.6719 53.5706 38.6118 52.8164 38.612C47.8722 38.612 46.016 40.2512 43.8676 42.15Z" fill="var(--fill-0, #830B0D)"/>
<path id="Vector_3" d="M34.522 22.2033H31.7225C26.5591 22.2033 23.1656 25.8796 23.1656 30.586V34.4091C23.1656 39.1155 26.5591 42.7918 31.7225 42.7918H34.522C42.0467 42.7918 41.46 35.148 52.8164 35.148C53.8931 35.1471 54.9675 35.245 56.0262 35.4404C56.3706 33.4956 56.3706 31.5056 56.0262 29.5608C54.9676 29.7572 53.8931 29.8555 52.8164 29.8544C41.4564 29.8532 42.0467 22.2033 34.522 22.2033Z" fill="var(--fill-0, #830B0D)"/>
<path id="Vector_4" d="M62.5528 38.2347C60.617 36.8243 58.3855 35.8702 56.0262 35.4441C56.0262 35.4635 56.0201 35.4829 56.0164 35.5011C55.8139 36.6289 55.4962 37.7331 55.0682 38.7964C57.0175 39.097 58.867 39.8556 60.4641 41.0095C60.4641 41.0265 60.4543 41.0434 60.4482 41.0616C59.5431 43.9916 58.1753 46.7591 56.3962 49.2599C54.6375 51.7375 52.5021 53.9267 50.0668 55.7486C44.1716 60.1693 36.8132 62.1956 29.4774 61.4183C22.1416 60.641 15.375 57.118 10.5438 51.5607C5.71269 46.0035 3.17695 38.8259 3.44863 31.4774C3.72032 24.1289 6.7792 17.1569 12.0076 11.9692C15.5595 8.43128 19.9682 5.86819 24.8063 4.52841C29.6444 3.18864 34.7476 3.11762 39.6213 4.32226C44.495 5.5269 48.9738 7.96632 52.6234 11.404C56.273 14.8417 58.9697 19.161 60.4519 23.9432C60.458 23.9614 60.4628 23.9784 60.4677 23.9954C58.8695 25.1494 57.0187 25.9075 55.0682 26.2072C55.4961 27.2715 55.8142 28.3765 56.0176 29.505C56.0176 29.5232 56.0177 29.5414 56.0262 29.5584C58.3858 29.1333 60.6176 28.1791 62.5528 26.7678C64.4138 25.3955 64.0536 23.8449 63.7699 22.9277C59.6692 9.64814 47.2672 0 32.6037 0C14.5978 0 0 14.5511 0 32.4994C0 50.4477 14.5978 65 32.6037 65C47.2672 65 59.6692 55.3519 63.7639 42.076C64.0536 41.1587 64.4138 39.6081 62.5528 38.2347Z" fill="var(--fill-0, #830B0D)"/>
<path id="Vector_5" d="M55.0683 26.2072C54.3237 26.3269 53.5707 26.387 52.8164 26.3868C47.8722 26.3868 46.016 24.7476 43.8676 22.8488C41.7984 21.018 39.2167 18.7394 34.522 18.7394H31.7225C28.329 18.7394 25.2434 19.9672 23.0354 22.1961C20.8785 24.3727 19.6905 27.3526 19.6905 30.5872V34.4103C19.6905 37.645 20.8785 40.6248 23.0354 42.8015C25.2434 45.0303 28.329 46.2582 31.7225 46.2582H34.522C39.2167 46.2582 41.796 43.9796 43.8676 42.1488C46.016 40.2499 47.8722 38.6108 52.8164 38.6108C53.5707 38.6106 54.3237 38.6707 55.0683 38.7903C55.4962 37.727 55.8139 36.6228 56.0164 35.495C56.0164 35.4768 56.0237 35.4574 56.0262 35.438C54.9675 35.2426 53.8931 35.1447 52.8164 35.1456C41.4564 35.1456 42.0467 42.7894 34.522 42.7894H31.7225C26.5592 42.7894 23.1656 39.1131 23.1656 34.4067V30.5885C23.1656 25.8821 26.5592 22.2058 31.7225 22.2058H34.522C42.0467 22.2058 41.46 29.8496 52.8164 29.8496C53.8932 29.8506 54.9677 29.7523 56.0262 29.5559C56.0262 29.5389 56.0262 29.5207 56.0177 29.5025C55.814 28.3749 55.4959 27.2708 55.0683 26.2072Z" fill="var(--fill-0, #E25F33)"/>
<path id="Vector_6" d="M55.0683 26.2072C54.3237 26.3269 53.5707 26.387 52.8164 26.3868C47.8722 26.3868 46.016 24.7476 43.8676 22.8488C41.7984 21.018 39.2167 18.7394 34.522 18.7394H31.7225C28.329 18.7394 25.2434 19.9672 23.0354 22.1961C20.8785 24.3727 19.6905 27.3526 19.6905 30.5872V34.4103C19.6905 37.645 20.8785 40.6248 23.0354 42.8015C25.2434 45.0303 28.329 46.2582 31.7225 46.2582H34.522C39.2167 46.2582 41.796 43.9796 43.8676 42.1488C46.016 40.2499 47.8722 38.6108 52.8164 38.6108C53.5707 38.6106 54.3237 38.6707 55.0683 38.7903C55.4962 37.727 55.8139 36.6228 56.0164 35.495C56.0164 35.4768 56.0237 35.4574 56.0262 35.438C54.9675 35.2426 53.8931 35.1447 52.8164 35.1456C41.4564 35.1456 42.0467 42.7894 34.522 42.7894H31.7225C26.5592 42.7894 23.1656 39.1131 23.1656 34.4067V30.5885C23.1656 25.8821 26.5592 22.2058 31.7225 22.2058H34.522C42.0467 22.2058 41.46 29.8496 52.8164 29.8496C53.8932 29.8506 54.9677 29.7523 56.0262 29.5559C56.0262 29.5389 56.0262 29.5207 56.0177 29.5025C55.814 28.3749 55.4959 27.2708 55.0683 26.2072Z" fill="var(--fill-0, #E25F33)"/>
</g>
</svg>
