<svg preserveAspectRatio="none" width="100%" height="100%" overflow="visible" style="display: block;" viewBox="0 0 64.9843 64.9781" fill="none" xmlns="http://www.w3.org/2000/svg">
<path id="Vector" d="M45.675 0H19.8469C8.7 0 0 8.7 0 19.575V45.4031C0 56.2781 8.7 64.9781 19.575 64.9781H45.4031C56.2781 64.9781 64.9781 56.2781 64.9781 45.4031V19.575C65.25 8.7 56.55 0 45.675 0ZM58.9969 45.675C58.9969 53.0156 53.0156 59.2687 45.4031 59.2687H19.575C12.2344 59.2687 5.98125 53.2875 5.98125 45.675V19.8469C5.98125 12.5063 11.9625 6.25313 19.575 6.25313H45.4031C52.7437 6.25313 58.9969 12.2344 58.9969 19.8469V45.675Z" fill="var(--fill-0, #830B0D)"/>
</svg>
