<svg preserveAspectRatio="none" width="100%" height="100%" overflow="visible" style="display: block;" viewBox="0 0 70.7826 64.613" fill="none" xmlns="http://www.w3.org/2000/svg">
<path id="Vector" fill-rule="evenodd" clip-rule="evenodd" d="M70.6464 7.70642C71.665 2.74072 66.7877 -1.38587 62.0593 0.441043L4.09886 22.8349C-1.18152 24.875 -1.4168 32.2589 3.72295 34.6309L16.3451 40.4567L22.3497 61.4724C22.6615 62.564 23.5278 63.4093 24.6268 63.6941C25.7258 63.9787 26.8934 63.6608 27.6962 62.8578L36.9455 53.6084L49.9022 63.326C53.6632 66.1466 59.0801 64.0921 60.0247 59.4868L70.6464 7.70642ZM6.40841 28.8125L64.3689 6.4187L53.7471 58.1993L38.5675 46.8144C37.2919 45.8576 35.5069 45.9845 34.3793 47.112L30.4177 51.0736L31.6081 44.5272L54.9314 21.204C56.0666 20.0689 56.1865 18.2691 55.2121 16.9934C54.2377 15.7177 52.47 15.3599 51.0762 16.1564L18.8659 34.562L6.40841 28.8125ZM22.7933 39.6986L24.7362 46.4991L25.4822 42.3962C25.5988 41.755 25.9082 41.1645 26.369 40.7037L33.4819 33.5912L22.7933 39.6986Z" fill="var(--fill-0, #830B0D)"/>
</svg>
