<svg preserveAspectRatio="none" width="100%" height="100%" overflow="visible" style="display: block;" viewBox="0 0 7.607 7.77607" fill="none" xmlns="http://www.w3.org/2000/svg">
<g id="Group">
<path id="Vector" fill-rule="evenodd" clip-rule="evenodd" d="M3.0428 0C3.44776 0.0532705 3.83563 0.0532705 4.20623 0C4.45305 0.0843748 4.70659 0.173755 4.96693 0.26814C5.01713 0.221484 5.07683 0.19172 5.14591 0.17876C5.42317 0.304339 5.7066 0.423483 5.99611 0.536281C6.06708 0.497758 6.14172 0.467905 6.21984 0.446901C6.39794 0.682506 6.57693 0.920794 6.75681 1.16194C6.80066 1.27751 6.81588 1.39674 6.80156 1.51946C6.89105 1.51946 6.98055 1.51946 7.07004 1.51946C7.08615 1.83524 7.20518 2.10338 7.42802 2.32388C7.39848 2.3835 7.36805 2.44303 7.33852 2.50264C7.48977 3.07575 7.57926 3.64179 7.607 4.20087C7.55689 4.37113 7.46739 4.52004 7.33852 4.64777C7.377 4.71864 7.40654 4.79319 7.42802 4.87122C7.29288 5.03916 7.23292 5.23285 7.24903 5.45219C7.13 5.45219 7.01008 5.45219 6.89105 5.45219C6.86062 5.814 6.80066 6.17152 6.71206 6.52475C6.54113 6.52368 6.36214 6.55344 6.1751 6.61413C6.06672 6.78592 5.94742 6.94975 5.81712 7.10572C5.69783 7.10572 5.57844 7.10572 5.45914 7.10572C5.56358 7.35893 5.48895 7.43348 5.23541 7.32917C5.19236 7.50596 5.08801 7.62511 4.92218 7.68669C4.34593 7.4644 3.77916 7.4644 3.22179 7.68669C2.99161 7.5511 2.78282 7.58086 2.59533 7.77607C2.03188 7.38289 1.5248 6.92115 1.07393 6.39068C0.873463 6.30335 0.664673 6.25866 0.447471 6.25661C0.479868 5.73016 0.360483 5.25349 0.0894942 4.82653C0.117953 4.72401 0.177556 4.64946 0.268483 4.60308C0.107661 4.4606 0.0181673 4.28184 0 4.06679C0.0872568 3.73412 0.0872568 3.42129 0 3.1283C0.264455 2.90164 0.368895 2.6335 0.31323 2.32388C0.479599 2.05324 0.658588 1.7851 0.850195 1.51946C0.894405 1.37341 0.909261 1.22442 0.894942 1.07256C1.04413 1.07256 1.19323 1.07256 1.34241 1.07256C1.44265 0.663558 1.71113 0.469961 2.14786 0.491591C2.4414 0.30139 2.73968 0.137467 3.0428 0Z" fill="var(--fill-0, #830B0D)"/>
</g>
</svg>
