<svg preserveAspectRatio="none" width="100%" height="100%" overflow="visible" style="display: block;" viewBox="0 0 18.6158 10.0267" fill="none" xmlns="http://www.w3.org/2000/svg">
<g id="Group">
<path id="Vector" fill-rule="evenodd" clip-rule="evenodd" d="M2.77432 0C2.86381 0 2.95331 0 3.0428 0C3.0428 0.0893801 3.0428 0.17876 3.0428 0.26814C3.13695 0.254823 3.22644 0.26966 3.31128 0.31283C3.47228 0.668831 3.74077 0.862429 4.11673 0.893801C4.15512 1.20878 4.28937 1.47692 4.51946 1.69822C4.54192 1.87099 4.58667 2.03483 4.6537 2.18981C4.6128 2.22682 4.58291 2.27151 4.5642 2.32388C4.7269 2.43775 4.87609 2.57182 5.01167 2.72609C4.98187 2.75586 4.95198 2.78571 4.92218 2.81547C5.04147 2.99423 5.16086 3.17299 5.28016 3.35175C5.21232 3.47367 5.25707 3.57797 5.4144 3.66458C5.45825 3.78015 5.47319 3.89939 5.45914 4.0221C5.54864 4.0221 5.63813 4.0221 5.72763 4.0221C5.70749 4.22017 5.78204 4.36917 5.95136 4.46901C6.07272 4.39035 6.20696 4.3605 6.35409 4.37962C6.3327 4.55544 6.3625 4.71936 6.44358 4.87122C6.93911 5.213 7.49102 5.43646 8.09922 5.54157C8.39035 5.30498 8.68863 5.30498 8.99416 5.54157C9.49784 5.44629 9.99005 5.31222 10.4708 5.13936C10.6842 5.01333 10.8333 4.83457 10.9183 4.60308C11.2429 4.55266 11.5262 4.41859 11.7685 4.20086C11.8681 4.3091 11.9725 4.3091 12.0817 4.20086C12.1341 3.98948 12.2385 3.81072 12.3949 3.66458C12.432 3.70543 12.4767 3.73528 12.5292 3.75396C12.8729 3.5904 13.022 3.32226 12.9767 2.94954C13.1593 2.98118 13.3234 2.98118 13.4689 2.94954C13.74 2.6402 13.9042 2.28268 13.9611 1.87698C14.084 1.89101 14.2033 1.87609 14.3191 1.83229C14.4854 1.68106 14.6644 1.54699 14.856 1.43008C15.2054 0.971115 15.5634 0.583831 15.93 0.26814C16.0578 0.396401 16.2069 0.485781 16.3774 0.536281C16.7739 0.468888 17.1915 0.453962 17.6303 0.491591C17.9454 0.736671 18.2139 1.01974 18.4358 1.3407C18.3866 1.45439 18.357 1.57363 18.3463 1.69822C18.4125 1.97834 18.502 2.24648 18.6148 2.50264C18.6246 2.67014 18.5647 2.80421 18.4358 2.90485C18.502 3.0644 18.562 3.22823 18.6148 3.39644C18.5414 3.54044 18.4224 3.60005 18.2568 3.5752C18.0993 4.22518 17.8908 4.85084 17.6303 5.45219C17.4216 5.5118 17.2127 5.57133 17.0039 5.63095C17.0039 5.80971 17.0039 5.98847 17.0039 6.16723C16.9144 6.16723 16.8249 6.16723 16.7354 6.16723C16.7466 6.51563 16.5974 6.6497 16.2879 6.56944C16.1819 6.75329 16.0924 6.93205 16.0195 7.10572C15.8602 7.01821 15.7111 7.04798 15.572 7.1951C15.6913 7.31424 15.6913 7.43347 15.572 7.55262C15.4408 7.60937 15.3214 7.68392 15.214 7.77607C15.0432 7.70027 14.8642 7.67042 14.677 7.68669C14.6472 7.86545 14.6173 8.04421 14.5875 8.22297C14.1735 8.15147 13.8304 8.2707 13.5584 8.58049C13.3956 9.0719 13.0525 9.25066 12.5292 9.11677C12.5292 9.23591 12.5292 9.35542 12.5292 9.47429C12.4109 9.48949 12.3064 9.45999 12.216 9.38491C12.144 9.5011 12.0396 9.56099 11.9027 9.56367C11.6813 9.49485 11.4576 9.43496 11.2315 9.38491C10.4183 9.88097 9.52334 10.0892 8.54669 10.0106C8.20366 9.99538 7.86054 9.98108 7.51751 9.96588C7.31248 9.79785 7.13349 9.81304 6.98054 10.0106C6.68146 9.98108 6.44286 9.84701 6.26459 9.60836C5.88496 9.60836 5.52698 9.53418 5.19066 9.38491C5.11969 9.42334 5.04505 9.45284 4.96693 9.47429C4.824 9.35095 4.65996 9.29106 4.47471 9.29553C4.47471 9.17639 4.47471 9.05715 4.47471 8.93801C4.28749 8.93256 4.15325 8.84318 4.07198 8.66987C3.9781 8.8135 3.84386 8.87303 3.66926 8.84863C3.68734 8.43346 3.50835 8.26963 3.1323 8.35704C3.013 8.2379 3.013 8.11866 3.1323 7.99952C3.0036 7.97994 2.88431 7.93525 2.77432 7.86545C2.54879 7.41694 2.22062 7.07426 1.78988 6.83758C1.81968 6.80781 1.84958 6.77796 1.87938 6.7482C1.71533 6.70351 1.61089 6.5992 1.56615 6.43537C1.46493 6.17214 1.39038 5.904 1.34241 5.63095C1.2241 5.64614 1.11966 5.61638 1.02918 5.54157C1.0239 5.24536 0.919553 4.99206 0.715953 4.78184C0.72893 4.71283 0.758731 4.65322 0.805447 4.60308C0.695549 4.53345 0.606054 4.44407 0.536965 4.33493C0.565603 4.1248 0.595405 3.91628 0.626459 3.70927C0.488101 3.50754 0.339004 3.31386 0.178988 3.1283C0.258012 3.03463 0.317704 2.93033 0.357977 2.81547C0.218992 2.63242 0.0996965 2.43874 0 2.2345C0.144712 1.86778 0.21935 1.48049 0.223735 1.07256C0.404424 0.785472 0.658051 0.636565 0.984436 0.625661C1.02211 0.410255 1.14141 0.246421 1.34241 0.13407C1.6833 0.0815147 2.01147 0.126205 2.32685 0.26814C2.55488 0.289145 2.70398 0.199765 2.77432 0Z" fill="var(--fill-0, #830B0D)"/>
</g>
</svg>
