<svg preserveAspectRatio="none" width="100%" height="100%" overflow="visible" style="display: block;" viewBox="0 0 19.5097 9.9156" fill="none" xmlns="http://www.w3.org/2000/svg">
<g id="Group">
<path id="Vector" fill-rule="evenodd" clip-rule="evenodd" d="M0.447471 3.03333C0.0232685 2.97603 -0.00715953 2.84196 0.357977 2.63112C0.272957 2.45638 0.153035 2.30738 0 2.18422C0.160195 2.06713 0.324864 2.02244 0.492218 2.05015C0.528016 1.92752 0.572763 1.80837 0.626459 1.69262C0.478794 1.63471 0.359766 1.54533 0.268482 1.42448C0.522646 1.06679 0.701634 0.709265 0.805447 0.351923C1.3272 -0.0472484 1.8937 -0.106865 2.50584 0.173163C2.68035 0.105592 2.84412 0.075828 2.99805 0.0837829C3.71043 0.438175 4.1579 1.00431 4.34047 1.782C4.4049 1.697 4.47918 1.68217 4.5642 1.73731C4.47292 1.83107 4.4586 1.93538 4.51945 2.05015C4.67786 2.12201 4.8121 2.22631 4.92218 2.36298C4.85237 2.45888 4.86759 2.56319 4.96693 2.67581C5.08595 2.73542 5.20587 2.79495 5.3249 2.85457C5.3249 2.97371 5.3249 3.09294 5.3249 3.21209C5.47973 3.27903 5.6444 3.32372 5.81712 3.34616C5.86992 3.54994 5.9442 3.74363 6.04086 3.92713C6.09097 3.88047 6.15093 3.85071 6.21984 3.83775C6.33619 3.94563 6.47043 4.00525 6.62257 4.01651C6.55813 4.36965 6.67716 4.48888 6.98054 4.37403C7.12284 4.41961 7.22665 4.50899 7.29377 4.64217C7.38416 4.56736 7.48887 4.53759 7.607 4.55279C7.6079 4.85337 7.75735 5.04706 8.05447 5.13376C8.5091 5.17183 8.95657 5.24638 9.39689 5.35721C9.5714 5.23646 9.7656 5.17684 9.9786 5.17845C10.4207 5.24066 10.8539 5.24066 11.2763 5.17845C11.5644 5.0181 11.8625 4.88403 12.1712 4.77624C12.2956 4.67157 12.3708 4.5375 12.3949 4.37403C12.4943 4.26579 12.599 4.26579 12.7082 4.37403C12.8057 4.02929 13.0142 3.93991 13.3346 4.10589C13.5279 4.06138 13.6774 3.95716 13.7821 3.79306C13.8975 3.74926 14.0175 3.73433 14.1401 3.74837C14.1258 3.59651 14.141 3.44751 14.1848 3.30147C14.575 3.15024 14.8435 2.8821 14.9903 2.49705C15.0502 2.61619 15.1093 2.61619 15.1693 2.49705C15.3035 2.24383 15.4377 1.99053 15.572 1.73731C15.9389 1.80015 16.2674 1.69584 16.5564 1.42448C16.6271 1.46301 16.7023 1.49286 16.7802 1.51386C16.9162 1.42386 17.0656 1.36433 17.2276 1.3351C17.7145 1.58447 18.2371 1.74831 18.7938 1.8267C18.9423 2.20039 19.1517 2.54299 19.4202 2.85457C19.3773 2.94198 19.3182 3.01643 19.2412 3.07802C19.3477 3.16909 19.4372 3.2734 19.5097 3.39085C19.3433 3.93464 19.15 4.47092 18.928 4.99969C18.4617 5.39546 18.1485 5.90198 17.9883 6.51915C17.9221 6.58949 17.8469 6.64902 17.7646 6.69791C17.5265 6.59119 17.4227 6.68057 17.4514 6.96605C17.2992 6.95175 17.1498 6.96659 17.0039 7.01074C16.909 7.22579 16.7891 7.41948 16.6459 7.59171C16.4732 7.50054 16.2942 7.48562 16.1089 7.54702C15.6409 7.9066 15.223 8.30881 14.856 8.75365C14.7513 8.7162 14.6618 8.65668 14.5875 8.57489C14.0076 8.82695 13.4411 9.09509 12.8872 9.37931C12.7807 9.35608 12.676 9.32658 12.5739 9.28993C12.1712 9.56344 11.7389 9.65282 11.2763 9.55807C10.7661 9.78599 10.2435 9.90576 9.71012 9.91559C9.61525 9.90398 9.54097 9.85929 9.48638 9.78152C8.82949 9.73147 8.17261 9.67248 7.51751 9.60276C7.37163 9.55003 7.23739 9.47584 7.11479 9.37931C6.85436 9.64477 6.66015 9.60008 6.53307 9.24524C6.3523 9.1362 6.17331 9.1219 5.99611 9.20055C5.70525 8.93411 5.3777 8.82981 5.01167 8.88772C4.69486 8.62504 4.39685 8.34197 4.11673 8.03861C3.7856 7.96094 3.54665 7.76725 3.40078 7.45764C3.17346 7.36004 2.93451 7.30042 2.68482 7.27888C2.5658 7.15974 2.5658 7.0405 2.68482 6.92136C2.4763 6.83198 2.32685 6.68298 2.23735 6.47446C2.09148 6.43031 1.94202 6.41547 1.78988 6.42977C1.81852 5.92629 1.61 5.5837 1.16342 5.4019C1.0614 5.33567 1.0614 5.26113 1.16342 5.17845C1.05066 5.09962 0.945953 5.01024 0.850194 4.91031C0.733852 4.29564 0.599611 3.66998 0.447471 3.03333Z" fill="var(--fill-0, #830B0D)"/>
</g>
</svg>
