<svg preserveAspectRatio="none" width="100%" height="100%" overflow="visible" style="display: block;" viewBox="0 0 140.506 134.964" fill="none" xmlns="http://www.w3.org/2000/svg">
<g id="Group">
<path id="Vector" fill-rule="evenodd" clip-rule="evenodd" d="M50.0272 5.1394e-05C50.2152 -0.00200435 50.3792 0.0576122 50.5195 0.178812C50.6791 0.106503 50.8432 0.0468866 51.0117 5.1394e-05C51.1609 0.0596679 51.31 0.119195 51.4591 0.178812C51.6571 0.084605 51.8361 0.129295 51.9961 0.312882C52.4354 0.33916 52.853 0.443466 53.249 0.625712C53.4238 0.567079 53.6028 0.537315 53.786 0.536332C53.7785 1.00057 53.9575 1.08995 54.323 0.804472C54.5801 1.03436 54.7591 1.31742 54.8599 1.65358C55.0042 1.71794 55.1384 1.7031 55.2626 1.60889C55.4324 1.74439 55.6263 1.80401 55.8444 1.78765C55.8682 2.45193 56.2112 2.80945 56.8735 2.86021C57.0234 3.17492 57.1277 3.50259 57.1868 3.8434C57.3682 3.82892 57.5472 3.84384 57.7237 3.88809C57.878 4.191 58.0123 4.50383 58.1265 4.82658C58.3061 4.93106 58.4999 4.99059 58.7082 5.00534C58.6302 5.41693 58.7943 5.65531 59.2004 5.72038C59.2268 6.14654 59.3908 6.50406 59.6926 6.79294C59.6187 6.87794 59.6038 6.96732 59.6479 7.06108C59.8056 7.19014 59.9846 7.27952 60.1848 7.32922C60.2296 7.55267 60.2743 7.77612 60.3191 7.99957C60.6974 8.41304 60.9211 8.90463 60.9903 9.47434C61.1065 9.51599 61.2408 9.51599 61.393 9.47434C61.3646 9.74892 61.3944 10.0171 61.4825 10.2788C61.7723 10.7094 61.9363 11.1861 61.9747 11.7088C62.074 11.8646 62.2083 11.9838 62.3774 12.0664C62.4157 12.3115 62.5202 12.5201 62.6907 12.692C62.6961 12.9942 62.8005 13.2474 63.0039 13.4518C63.057 13.7334 63.1017 14.0165 63.1381 14.3009C63.2194 14.4742 63.3536 14.5636 63.5409 14.569C63.5265 14.7209 63.5414 14.8699 63.5856 15.0159C63.7916 15.4828 64.0154 15.9447 64.2568 16.4013C64.2159 16.4383 64.186 16.483 64.1673 16.5354C64.3334 16.7954 64.4826 17.0635 64.6148 17.3398C64.5721 17.4272 64.5125 17.5017 64.4358 17.5632C64.6765 17.8466 64.8555 18.1594 64.9728 18.5017C64.8786 18.4884 64.7891 18.5033 64.7043 18.5464C64.8748 18.7136 65.0687 18.8476 65.286 18.9486C65.3129 19.5463 65.4771 20.0974 65.7782 20.6022C65.7652 20.6712 65.7354 20.7308 65.6887 20.7809C65.9542 21.3411 66.2525 21.8774 66.5837 22.3898C66.6028 22.7164 66.6028 23.044 66.5837 23.373C66.9703 23.5348 67.1197 23.803 67.0311 24.1774C67.4517 25.3181 67.8393 26.4801 68.1946 27.6632C68.1149 27.852 68.1149 28.0456 68.1946 28.2442C68.284 28.2442 68.3735 28.2442 68.463 28.2442C68.4791 28.4311 68.4496 28.6098 68.3735 28.7804C68.463 28.8401 68.5525 28.8996 68.642 28.9592C68.7217 29.4015 68.8407 29.8334 69 30.2552C69.0456 30.3597 69.1199 30.4342 69.2237 30.4787C69.3633 31.0873 69.4824 31.6832 69.5817 32.2663C69.9173 32.3744 70.022 32.583 69.8949 32.8919C70.0247 33.5037 70.2484 34.0698 70.5661 34.5902C70.6028 34.9273 70.6771 35.2551 70.7899 35.5733C70.7711 35.6257 70.7416 35.6704 70.7004 35.7074C70.8812 35.9381 71.0154 36.1913 71.1031 36.4671C71.1837 36.3598 71.2884 36.2852 71.4163 36.2437C71.3456 36.1467 71.2857 36.0424 71.2374 35.9309C71.4038 35.8022 71.5533 35.6533 71.6848 35.484C71.7081 35.0063 71.8871 34.6041 72.2218 34.2773C72.1717 34.2125 72.1421 34.1381 72.1323 34.0539C72.271 33.8392 72.331 33.6009 72.3113 33.3388C72.4303 33.3388 72.5502 33.3388 72.6693 33.3388C72.6719 32.8699 72.791 32.4379 73.0272 32.0428C72.936 31.9491 72.9216 31.8448 72.9825 31.73C73.4067 31.2697 73.7647 30.7632 74.0564 30.2105C74.1388 29.8271 74.1835 29.4398 74.1907 29.0486C74.3097 29.0486 74.4296 29.0486 74.5486 29.0486C74.5307 28.8797 74.5898 28.7456 74.7276 28.6464C74.6095 28.4696 74.6542 28.3355 74.8619 28.2442C74.9066 28.0678 74.9209 27.8891 74.9066 27.7079C75.0006 27.7212 75.0901 27.7064 75.1751 27.6632C75.5071 27.2547 75.7604 26.793 75.9358 26.2778C76.1237 26.061 76.2875 25.8226 76.428 25.5628C76.3537 25.4778 76.3394 25.3884 76.3833 25.2946C76.5819 24.9036 76.8647 24.5758 77.2335 24.3114C77.2854 24.0107 77.3444 23.7128 77.4124 23.4176C77.6568 23.3561 77.8653 23.2369 78.0389 23.0601C78.2734 22.7097 78.4076 22.3225 78.4416 21.8982C78.5902 21.6159 78.8139 21.4073 79.1128 21.2725C79.0296 21.1592 79.0153 21.04 79.0681 20.915C79.2695 20.8666 79.4341 20.7622 79.5603 20.6022C79.5138 20.552 79.4833 20.4924 79.4708 20.4234C79.6149 20.2909 79.7044 20.1271 79.7393 19.9318C79.946 19.8878 80.1546 19.858 80.3658 19.8424C80.3505 19.6644 80.4105 19.5155 80.5447 19.3955C80.4579 19.2649 80.4875 19.1457 80.6342 19.038C80.56 18.953 80.5456 18.8636 80.5895 18.7699C81.0898 18.6586 81.3287 18.3607 81.3054 17.8761C81.4048 17.7387 81.539 17.6792 81.7082 17.6973C81.7386 17.4277 81.8433 17.1895 82.0214 16.9823C82.1109 16.8631 82.2004 16.8631 82.2899 16.9823C82.3194 16.8035 82.3498 16.6248 82.3794 16.446C82.6353 16.2715 82.9181 16.1672 83.2296 16.1332C83.5464 15.6729 83.7853 15.1814 83.9455 14.6584C84.0977 14.6727 84.2471 14.6579 84.393 14.6137C84.5791 14.3567 84.7134 14.0737 84.7957 13.7646C85.0812 13.6009 85.364 13.4519 85.6459 13.3177C85.6459 13.1092 85.6459 12.9006 85.6459 12.692C86.0817 12.7779 86.3807 12.6141 86.5409 12.2004C86.6545 12.1728 86.7583 12.1281 86.8541 12.0664C86.8765 11.8936 86.9212 11.7298 86.9883 11.5748C87.6837 11.4611 88.1016 11.0589 88.2412 10.3681C88.3307 10.3681 88.4202 10.3681 88.5097 10.3681C88.5097 10.2788 88.5097 10.1894 88.5097 10.1C88.8185 10.1665 88.9679 10.0473 88.9572 9.74248C89.1147 9.7297 89.2642 9.75955 89.4047 9.83186C89.8611 9.5547 90.1895 9.16741 90.3891 8.66992C90.7113 8.57786 90.9493 8.38417 91.1051 8.08895C91.199 8.04498 91.2885 8.05981 91.3735 8.13364C91.4416 8.03282 91.5015 7.92851 91.5525 7.82081C91.7593 7.77639 91.9678 7.76155 92.179 7.77612C92.1575 7.60031 92.187 7.43639 92.2685 7.28453C92.6542 7.10836 92.9826 6.91468 93.2529 6.70356C93.3379 6.74709 93.4274 6.77685 93.5214 6.79294C93.7818 6.52802 94.0798 6.39395 94.4163 6.39073C94.402 5.85302 94.641 5.68918 95.1323 5.89914C95.3238 5.78849 95.4428 5.62465 95.4903 5.40755C95.7238 5.45474 95.9628 5.42498 96.2062 5.31817C96.4828 5.13646 96.7808 4.98755 97.1012 4.87127C97.2569 4.77206 97.3768 4.63799 97.4591 4.46906C97.767 4.6193 98.0203 4.55969 98.2198 4.2903C98.4167 4.39264 98.6109 4.39264 98.8016 4.2903C98.9385 4.13942 99.1023 4.02028 99.2938 3.93278C99.3367 3.84804 99.3519 3.75866 99.3385 3.66464C99.5372 3.63586 99.7019 3.69547 99.8307 3.8434C99.8621 3.69324 99.9516 3.60386 100.099 3.57526C100.349 3.66616 100.602 3.68108 100.86 3.61995C101.31 3.46246 101.773 3.32839 102.247 3.21774C102.349 3.10306 102.468 3.01368 102.605 2.9496C102.923 3.08295 103.251 3.17233 103.589 3.21774C104 2.96193 104.417 2.93217 104.842 3.12836C105.075 2.83572 105.329 2.80596 105.603 3.03898C105.753 2.89722 105.932 2.8376 106.14 2.86021C106.14 2.9496 106.14 3.03898 106.14 3.12836C106.443 3.10664 106.726 3.16625 106.99 3.30712C107.055 3.25715 107.13 3.22739 107.214 3.21774C107.635 3.41598 108.082 3.52029 108.556 3.53057C108.688 3.58732 108.807 3.66187 108.914 3.75402C109.115 3.51171 109.294 3.52663 109.451 3.79871C109.422 3.82847 109.391 3.85832 109.362 3.88809C109.595 4.10903 109.819 4.12396 110.033 3.93278C110.243 4.00929 110.378 4.15828 110.436 4.37968C110.575 4.46477 110.723 4.49453 110.883 4.46906C110.867 4.68679 110.926 4.88047 111.062 5.05003C111.435 5.06495 111.779 5.16917 112.091 5.36286C112.203 5.80922 112.397 6.21143 112.673 6.56949C112.829 6.62768 112.977 6.61284 113.121 6.5248C113.208 6.56743 113.283 6.62696 113.344 6.70356C113.385 7.0054 113.445 7.30339 113.523 7.59736C113.748 7.79167 113.941 8.01512 114.105 8.26771C114.084 8.34574 114.054 8.42028 114.016 8.49116C114.159 8.73579 114.234 9.00394 114.239 9.29558C114.376 9.47988 114.555 9.59912 114.776 9.6531C114.891 9.90927 114.905 10.1626 114.821 10.4128C114.903 10.4463 114.978 10.491 115.045 10.5469C115.224 11.0126 115.388 11.4892 115.537 11.977C115.381 12.1641 115.321 12.3577 115.358 12.558C115.526 12.7322 115.646 12.9409 115.716 13.1836C115.693 13.2963 115.633 13.3857 115.537 13.4518C115.803 13.6444 115.832 13.853 115.626 14.0774C115.846 14.3397 115.846 14.6078 115.626 14.8818C115.669 15.0505 115.758 15.1846 115.895 15.2841C115.826 15.8413 115.796 16.4372 115.805 17.0717C116.061 17.3975 116.03 17.6954 115.716 17.9655C115.795 18.0591 115.855 18.1634 115.895 18.2783C115.853 18.6047 115.763 18.9175 115.626 19.2168C115.635 19.652 115.635 20.084 115.626 20.5128C115.541 20.8366 115.422 21.1494 115.268 21.4513C115.221 21.8558 115.221 22.2432 115.268 22.6132C115.145 22.9538 115.026 23.2965 114.911 23.6411C115.054 23.8165 115.023 23.9505 114.821 24.0433C114.697 24.326 114.666 24.6091 114.732 24.8924C114.337 25.355 114.173 25.8763 114.239 26.4566C113.861 26.6166 113.726 26.8848 113.837 27.261C113.742 27.4631 113.622 27.6418 113.479 27.7973C113.447 28.151 113.298 28.4341 113.031 28.6464C113.127 28.7124 113.187 28.8018 113.21 28.9145C113.098 29.1962 112.949 29.4495 112.763 29.6742C112.846 29.7876 112.86 29.9067 112.807 30.0318C112.494 30.6745 112.181 31.3151 111.868 31.9534C111.894 32.2269 111.863 32.5099 111.778 32.8026C111.631 32.7834 111.497 32.8133 111.375 32.8919C111.335 33.1938 111.275 33.4918 111.196 33.7857C111.107 33.9049 111.018 33.9049 110.928 33.7857C110.746 34.1913 110.538 34.5786 110.302 34.9477C110.233 35.2736 110.173 35.6014 110.123 35.9309C109.805 36.1792 109.552 36.4771 109.362 36.8247C109.184 37.0317 109.094 37.2699 109.093 37.5397C109.004 37.5397 108.914 37.5397 108.825 37.5397C108.771 37.9961 108.577 38.3834 108.243 38.7016C108.096 39.0929 107.992 39.4952 107.93 39.9083C107.814 40.0268 107.695 40.146 107.572 40.2658C107.442 40.2423 107.323 40.2572 107.214 40.3105C107.297 40.4238 107.312 40.543 107.259 40.668C107.109 40.817 106.961 40.9659 106.811 41.1149C106.452 41.8959 106.109 42.6706 105.782 43.4388C105.489 43.4328 105.355 43.5817 105.379 43.8857C105.289 43.9605 105.184 43.9903 105.066 43.9751C105.048 44.4008 104.84 44.6689 104.44 44.7795C104.28 45.1281 104.146 45.4856 104.037 45.852C103.947 45.8818 103.858 45.9117 103.768 45.9414C103.739 46.0904 103.709 46.2393 103.679 46.3883C103.448 46.7422 103.224 47.0997 103.008 47.4609C102.88 47.4679 102.761 47.4382 102.65 47.3715C102.562 47.6026 102.533 47.841 102.56 48.0865C102.381 48.0865 102.202 48.0865 102.023 48.0865C102.031 48.2144 102.001 48.3336 101.934 48.4441C101.996 48.6417 102.1 48.6715 102.247 48.5334C102.55 48.5859 102.848 48.6455 103.142 48.7122C103.372 48.4656 103.566 48.4954 103.724 48.8016C103.946 48.7364 104.169 48.6768 104.395 48.6228C104.707 48.7379 105.021 48.7379 105.335 48.6228C105.474 48.6427 105.593 48.7023 105.693 48.8016C106.257 48.6963 106.824 48.6963 107.393 48.8016C107.641 48.6394 107.894 48.5798 108.154 48.6228C108.469 48.8229 108.812 48.9421 109.183 48.9803C109.408 48.9701 109.587 48.8807 109.72 48.7122C109.821 48.824 109.94 48.9134 110.078 48.9803C110.629 49.0645 111.166 49.1836 111.689 49.3379C111.972 49.301 112.255 49.2712 112.539 49.2485C112.662 49.4007 112.811 49.5198 112.986 49.606C113.264 49.5183 113.532 49.5481 113.792 49.6954C114.026 49.5847 114.265 49.5847 114.508 49.6954C114.892 49.4175 115.205 49.477 115.447 49.8741C115.66 49.7609 115.855 49.7907 116.029 49.9635C116.447 49.8325 116.76 49.9516 116.969 50.321C117.137 50.3741 117.302 50.4337 117.461 50.4998C117.662 50.3475 117.885 50.2581 118.132 50.2317C118.1 50.4472 118.19 50.5812 118.401 50.6339C119.063 50.7889 119.72 50.9676 120.37 51.1702C120.498 51.2117 120.602 51.2863 120.683 51.3936C120.733 51.347 120.793 51.3172 120.862 51.3042C120.981 51.3638 121.101 51.4234 121.22 51.483C121.339 51.4234 121.459 51.3638 121.578 51.3042C121.759 51.3518 121.833 51.4709 121.802 51.6618C121.979 51.6513 122.128 51.7109 122.249 51.8405C122.542 51.7781 122.84 51.7781 123.144 51.8405C123.158 52.1654 123.262 52.1952 123.457 51.9299C123.647 52.1634 123.856 52.372 124.084 52.5556C124.159 52.4209 124.263 52.3762 124.397 52.4215C124.519 52.5631 124.579 52.727 124.576 52.9131C124.735 52.8875 124.884 52.8279 125.023 52.7343C125.263 52.7529 125.323 52.8572 125.202 53.0471C125.403 53.1345 125.611 53.1792 125.829 53.1812C125.829 53.2706 125.829 53.36 125.829 53.4494C126.126 53.4607 126.394 53.5501 126.634 53.7175C126.832 53.585 126.981 53.6297 127.082 53.8516C127.406 53.8177 127.6 53.9518 127.663 54.2538C127.753 54.1942 127.842 54.1346 127.932 54.075C128.106 54.4431 128.361 54.7411 128.693 54.9688C128.813 54.8343 128.962 54.7747 129.14 54.7901C129.14 54.9092 129.14 55.0284 129.14 55.1476C129.405 55.2798 129.673 55.4138 129.946 55.5498C130.098 55.8344 130.336 55.9833 130.661 55.9967C130.767 56.3318 130.976 56.4509 131.288 56.3542C131.352 56.5318 131.442 56.6957 131.556 56.8458C131.675 56.7267 131.795 56.7267 131.914 56.8458C131.947 57.101 132.007 57.3691 132.093 57.6502C132.527 57.732 132.944 57.881 133.346 58.0971C133.413 58.2076 133.443 58.3268 133.436 58.4546C133.525 58.4546 133.615 58.4546 133.704 58.4546C133.704 58.5738 133.704 58.693 133.704 58.8122C133.854 58.8122 134.002 58.8122 134.152 58.8122C134.127 59.0615 134.187 59.285 134.331 59.4825C134.422 59.677 134.571 59.7813 134.778 59.7953C134.799 59.9681 134.873 60.1171 135.002 60.2422C135.226 60.4061 135.449 60.57 135.673 60.7338C135.42 60.9702 135.449 61.0447 135.763 60.9573C136.638 62.0584 137.369 63.2502 137.955 64.5325C138.231 64.7323 138.365 65.0005 138.358 65.3369C138.476 65.3217 138.581 65.3515 138.671 65.4263C138.753 65.7389 138.902 66.007 139.119 66.2307C139.157 66.5947 139.261 66.9373 139.432 67.2586C139.419 67.3276 139.389 67.3872 139.342 67.4373C139.425 67.4708 139.499 67.5155 139.566 67.5714C139.666 67.8 139.682 68.0237 139.611 68.2418C139.827 68.6574 140.006 69.09 140.148 69.5378C140.097 69.7031 140.066 69.8676 140.058 70.0294C140.245 70.2689 140.304 70.5227 140.237 70.7891C140.462 71.0599 140.462 71.3281 140.237 71.5935C140.372 71.6606 140.462 71.7651 140.506 71.9063C140.466 72.1226 140.45 72.3461 140.461 72.5767C140.387 72.6509 140.312 72.726 140.237 72.8001C140.341 73.0182 140.341 73.2417 140.237 73.4705C140.304 73.6081 140.394 73.727 140.506 73.828C140.469 74.0434 140.38 74.2669 140.237 74.4984C140.291 74.5931 140.321 74.6977 140.327 74.8112C140.18 75.3082 140.075 75.8149 140.014 76.3307C139.801 76.8491 139.622 77.3853 139.477 77.9395C139.152 78.6152 138.794 79.2704 138.403 79.9059C138.324 80.208 138.234 80.5065 138.134 80.7997C138.044 80.8747 137.939 80.9042 137.821 80.889C137.835 81.041 137.82 81.1903 137.776 81.3359C137.657 81.4548 137.537 81.4548 137.418 81.3359C137.358 81.4548 137.299 81.5746 137.239 81.6935C136.776 81.9303 136.507 82.3182 136.434 82.8554C136.27 82.909 136.106 82.9689 135.942 83.0342C135.878 83.2406 135.789 83.4346 135.673 83.6151C135.5 83.6813 135.336 83.667 135.181 83.5704C135.024 83.7483 134.935 83.9566 134.912 84.1961C134.793 84.315 134.673 84.315 134.554 84.1961C134.511 84.3114 134.495 84.4312 134.51 84.5536C134.331 84.5536 134.152 84.5536 133.973 84.5536C133.973 84.6725 133.973 84.7923 133.973 84.9112C133.815 84.9237 133.666 84.8942 133.525 84.8218C133.155 85.0783 132.857 85.3911 132.63 85.7603C132.263 85.872 131.949 86.0659 131.691 86.3412C131.54 86.2501 131.392 86.1607 131.243 86.0731C131.13 86.166 131.025 86.2697 130.93 86.3859C130.845 86.4413 130.771 86.4261 130.706 86.3412C130.567 86.5441 130.373 86.6478 130.125 86.6541C129.971 86.7774 129.852 86.9258 129.767 87.101C129.196 87.1921 128.629 87.311 128.066 87.4585C127.85 87.6426 127.657 87.8366 127.484 88.0395C127.235 87.9483 126.981 87.934 126.724 87.9948C126.534 88.3585 126.281 88.4032 125.963 88.1288C125.737 88.1843 125.527 88.2736 125.337 88.397C125.259 88.3755 125.184 88.346 125.113 88.3076C124.99 88.4157 124.856 88.5051 124.71 88.5757C124.509 88.4452 124.375 88.5042 124.307 88.7545C124.196 88.7062 124.092 88.6463 123.994 88.5757C123.48 88.7062 122.959 88.8099 122.428 88.8886C122.266 89.1549 122.072 89.1701 121.846 88.9333C121.584 89.1773 121.286 89.2371 120.951 89.112C120.737 89.348 120.529 89.348 120.325 89.112C120.067 89.3247 119.799 89.3247 119.519 89.112C119.325 89.2872 119.117 89.3176 118.893 89.2014C118.434 89.2416 117.986 89.331 117.551 89.4695C117.113 89.2845 116.665 89.2845 116.208 89.4695C116.041 89.4186 115.877 89.3596 115.716 89.2908C115.121 89.3542 114.525 89.4132 113.926 89.4695C113.789 89.4669 113.684 89.407 113.613 89.2908C113.33 89.4177 113.062 89.3882 112.807 89.2014C112.172 89.2658 111.53 89.2952 110.883 89.2908C110.464 89.0495 110.046 89.0191 109.63 89.2014C109.323 88.9815 109.01 88.8626 108.691 88.8439C108.495 88.8242 108.285 88.8546 108.064 88.9333C107.738 88.7554 107.424 88.7554 107.125 88.9333C106.956 88.8948 106.822 88.8054 106.722 88.6651C106.494 88.7205 106.271 88.75 106.051 88.7545C105.491 88.3728 104.879 88.1941 104.216 88.2182C104.101 88.178 103.997 88.1181 103.903 88.0395C103.832 88.1163 103.862 88.1905 103.992 88.2629C104.198 88.3854 104.407 88.43 104.619 88.397C104.738 88.4864 104.738 88.5757 104.619 88.6651C105.05 88.75 105.244 88.9878 105.2 89.3802C105.372 89.508 105.566 89.5974 105.782 89.6483C105.944 89.8977 106.094 90.1506 106.23 90.408C106.375 90.4518 106.525 90.467 106.677 90.4527C106.663 90.5752 106.678 90.6949 106.722 90.8102C106.983 91.0971 107.192 91.4252 107.348 91.7934C107.47 91.8721 107.604 91.9016 107.751 91.8828C107.751 92.0321 107.751 92.1804 107.751 92.3297C107.869 92.3145 107.974 92.344 108.064 92.4191C108.124 92.6577 108.183 92.8955 108.243 93.1341C108.393 93.194 108.541 93.253 108.691 93.3129C108.723 93.6516 108.857 93.935 109.093 94.162C109.081 94.2308 109.05 94.2907 109.004 94.3408C109.372 94.4668 109.581 94.7197 109.63 95.1005C110.004 95.0406 110.123 95.1747 109.988 95.5027C110.225 95.9684 110.508 96.4001 110.839 96.7987C110.803 97.0105 110.817 97.2197 110.883 97.4244C110.952 97.5325 111.027 97.5325 111.107 97.4244C111.36 97.6335 111.465 97.9017 111.42 98.2288C111.57 98.2288 111.718 98.2288 111.868 98.2288C111.834 98.5935 111.923 98.9206 112.136 99.212C112.107 99.2719 112.076 99.3308 112.047 99.3907C112.18 99.4569 112.314 99.5168 112.449 99.5695C112.387 99.8385 112.416 100.107 112.539 100.374C112.69 100.619 112.824 100.873 112.942 101.134C112.817 101.36 112.862 101.554 113.076 101.715C113.094 102.228 113.303 102.645 113.702 102.966C113.706 103.331 113.78 103.673 113.926 103.994C113.786 104.183 113.83 104.317 114.06 104.396C114.193 104.791 114.297 105.193 114.374 105.603C114.361 105.671 114.331 105.731 114.284 105.781C114.459 105.975 114.519 106.184 114.463 106.407C114.543 106.761 114.663 107.103 114.821 107.435C114.767 107.647 114.737 107.855 114.732 108.061C114.94 108.226 114.97 108.42 114.821 108.642C114.959 109.078 115.078 109.525 115.179 109.982C115.166 110.051 115.136 110.111 115.089 110.161C115.16 110.436 115.205 110.719 115.224 111.01C115.285 111.058 115.33 111.117 115.358 111.189C115.233 111.31 115.174 111.459 115.179 111.636C115.223 112.105 115.312 112.582 115.447 113.066C115.383 113.274 115.294 113.468 115.179 113.647C115.245 113.838 115.335 114.017 115.447 114.183C115.371 114.343 115.281 114.507 115.179 114.675C115.239 114.764 115.298 114.853 115.358 114.943C115.239 115.062 115.239 115.182 115.358 115.3C115.315 115.388 115.256 115.462 115.179 115.524C115.185 116.098 115.185 116.694 115.179 117.311C114.934 118.138 114.77 118.987 114.687 119.859C114.394 120.144 114.305 120.471 114.418 120.842C114.198 121.583 113.915 122.298 113.568 122.987C113.631 123.191 113.616 123.399 113.523 123.613C113.352 123.826 113.217 124.065 113.121 124.328C112.994 124.394 112.875 124.469 112.763 124.551C112.792 124.581 112.823 124.611 112.852 124.641C112.728 124.745 112.653 124.879 112.628 125.043C112.324 125.13 112.279 125.264 112.494 125.445C112.214 125.963 111.886 126.44 111.51 126.875C111.58 127.033 111.564 127.197 111.465 127.367C111.235 127.412 111.026 127.502 110.839 127.635C110.619 127.873 110.485 128.157 110.436 128.484C110.28 128.542 110.132 128.527 109.988 128.439C109.533 128.716 109.264 129.119 109.183 129.646C108.955 129.695 108.776 129.815 108.646 130.003C108.333 130.05 108.004 130.079 107.661 130.093C107.58 130.245 107.551 130.408 107.572 130.584C107.378 130.6 107.199 130.66 107.035 130.763C106.829 130.683 106.621 130.668 106.409 130.718C106.151 130.962 105.912 131.215 105.693 131.478C105.574 131.389 105.454 131.299 105.335 131.21C105.162 131.289 104.998 131.378 104.842 131.478C104.74 131.442 104.636 131.412 104.529 131.389C104.21 131.624 103.882 131.773 103.545 131.836C103.387 131.779 103.253 131.69 103.142 131.568C102.94 131.706 102.746 131.854 102.56 132.014C102.471 131.955 102.381 131.896 102.292 131.836C101.689 131.771 101.092 131.771 100.502 131.836C99.8102 131.484 99.1237 131.425 98.4436 131.657C98.4668 131.525 98.4373 131.406 98.3541 131.299C98.0051 131.257 97.6471 131.257 97.2802 131.299C97.2802 131.21 97.2802 131.121 97.2802 131.031C97.0681 131.063 96.8595 131.078 96.6537 131.076C96.5857 130.941 96.4962 130.821 96.3852 130.718C95.6818 130.47 95.0106 130.157 94.3716 129.78C94.3054 129.876 94.2159 129.935 94.1031 129.959C93.9349 129.824 93.7407 129.764 93.5214 129.78C93.5241 129.453 93.3746 129.215 93.0739 129.065C92.8708 128.993 92.6623 128.948 92.4475 128.931C92.3195 128.736 92.17 128.557 92 128.395C91.8156 128.367 91.6367 128.367 91.463 128.395C91.208 128.044 90.9252 127.731 90.6128 127.456C90.4938 127.575 90.3739 127.575 90.2549 127.456C89.9882 126.847 89.5559 126.401 88.9572 126.115C88.8731 126.125 88.7979 126.155 88.7335 126.205C88.6296 126.045 88.5697 125.866 88.5545 125.668C88.3925 125.471 88.243 125.262 88.107 125.043C87.937 125.179 87.7437 125.238 87.5253 125.222C87.4958 125.043 87.4653 124.864 87.4358 124.685C87.0599 124.713 86.8809 124.534 86.8988 124.149C86.7762 124.163 86.6563 124.148 86.5409 124.104C86.4997 123.951 86.4845 123.787 86.4961 123.613C86.2813 123.421 86.0281 123.318 85.7354 123.3C85.6307 123.136 85.4965 123.002 85.3327 122.898C85.2897 122.813 85.2745 122.723 85.2879 122.63C85.032 122.629 84.9425 122.524 85.0195 122.317C84.8924 122.129 84.7724 121.935 84.6615 121.736C84.5058 121.686 84.3572 121.656 84.214 121.646C83.9017 121.142 83.5884 120.635 83.2743 120.127C83.2314 120.042 83.2161 119.953 83.2296 119.859C83.0282 119.693 82.7902 119.603 82.5136 119.591C82.425 119.221 82.2908 118.863 82.1109 118.518C81.9981 118.317 81.8344 118.198 81.6187 118.161C81.6088 117.957 81.5346 117.778 81.3949 117.624C81.1488 117.408 80.8803 117.229 80.5895 117.088C80.611 116.756 80.4767 116.518 80.1868 116.373C80.1125 116.135 80.0373 115.897 79.963 115.658C79.7053 115.374 79.4225 115.12 79.1128 114.898C78.9938 114.363 78.7405 113.901 78.3521 113.513C78.2904 113.117 78.0819 112.849 77.7257 112.708C77.612 112.249 77.4626 111.802 77.2782 111.368C77.1431 111.3 77.0231 111.21 76.9202 111.1C76.7108 110.65 76.5023 110.203 76.2938 109.759C75.8991 109.589 75.7058 109.291 75.7121 108.865C75.2879 108.906 75.1984 108.772 75.4436 108.463C75.1939 108.146 74.9845 107.804 74.8171 107.435C74.8046 107.31 74.8046 107.176 74.8171 107.033C74.6265 106.883 74.5075 106.69 74.4591 106.452C74.3473 106.403 74.2435 106.344 74.1459 106.273C74.12 106.01 74.0153 105.787 73.8327 105.603C73.8452 105.534 73.8756 105.474 73.9222 105.424C73.685 105.396 73.626 105.292 73.7432 105.111C73.6975 104.856 73.5481 104.737 73.2957 104.754C73.2214 104.552 73.2214 104.358 73.2957 104.173C73.0827 103.96 72.9485 103.707 72.893 103.413C72.8026 103.338 72.6979 103.308 72.5798 103.323C72.4044 102.984 72.2549 102.626 72.1323 102.251C72.1511 102.198 72.1806 102.153 72.2218 102.117C71.9712 101.719 71.7323 101.317 71.5058 100.91C71.5354 100.85 71.5658 100.791 71.5953 100.731C71.4942 100.664 71.3904 100.604 71.2821 100.553C71.2606 100.297 71.1559 100.088 70.9689 99.927C71.215 99.6991 71.155 99.6097 70.7899 99.6589C70.6861 99.9735 70.5375 100.271 70.3424 100.553C70.4024 100.642 70.4614 100.731 70.5214 100.821C70.3263 100.978 70.1768 101.172 70.0739 101.402C70.1348 101.611 70.1044 101.82 69.9844 102.027C70.0784 102.152 70.0936 102.286 70.0292 102.43C69.9057 102.62 69.8162 102.829 69.7607 103.055C69.6936 103.112 69.6193 103.156 69.537 103.189C69.6667 103.412 69.6068 103.576 69.358 103.681C69.3875 103.741 69.4179 103.8 69.4475 103.86C69.3114 104.043 69.2372 104.251 69.2237 104.485C68.8389 105.168 68.4514 105.854 68.0603 106.541C67.9135 107.007 67.824 107.484 67.7918 107.971C67.6352 108.157 67.4714 108.336 67.2996 108.508C67.2271 108.648 67.1976 108.797 67.2101 108.954C67.1206 108.954 67.0311 108.954 66.9416 108.954C66.7251 109.407 66.5312 109.883 66.3599 110.384C66.2694 110.46 66.165 110.489 66.0467 110.474C65.9973 110.637 65.9973 110.787 66.0467 110.921C65.9201 111.021 65.7859 111.11 65.644 111.189C65.5623 111.524 65.5325 111.852 65.5545 112.172C65.4331 112.251 65.2989 112.28 65.1517 112.261C64.9767 112.731 64.753 113.178 64.4805 113.602C64.3901 113.677 64.2856 113.707 64.1673 113.692C64.1784 114.391 63.8951 114.928 63.3171 115.3C63.2512 115.761 63.0274 116.118 62.6459 116.373C62.5677 116.574 62.5378 116.782 62.5564 116.999C62.2886 117.033 62.05 117.137 61.8405 117.311C61.8814 117.348 61.9113 117.393 61.93 117.446C61.7281 117.754 61.5789 118.082 61.4825 118.429C61.3642 118.414 61.2597 118.443 61.1693 118.518C61.2149 118.686 61.2 118.85 61.1245 119.01C61.0096 119.07 60.9052 119.056 60.8113 118.965C60.773 119.298 60.6537 119.596 60.4533 119.859C60.3638 119.978 60.2743 119.978 60.1848 119.859C60.1025 120.091 60.0428 120.33 60.0058 120.574C59.4267 120.63 59.1582 120.957 59.2004 121.557C59.0371 121.611 58.8729 121.671 58.7082 121.736C58.5352 122.111 58.2966 122.438 57.9922 122.719C58.0947 122.843 58.0947 122.962 57.9922 123.076C57.882 123.134 57.7627 123.149 57.6342 123.121C57.523 123.224 57.4335 123.344 57.3658 123.479C57.2225 123.503 57.0882 123.547 56.963 123.613C56.7524 124.13 56.5286 124.636 56.2918 125.132C55.8908 125.084 55.7715 125.233 55.9339 125.579C55.7847 125.579 55.6356 125.579 55.4864 125.579C55.4864 125.728 55.4864 125.877 55.4864 126.026C55.1874 125.967 55.0084 126.087 54.9494 126.384C54.7602 126.431 54.5961 126.52 54.4572 126.652C54.5028 126.82 54.4879 126.983 54.4125 127.143C54.1989 127.112 53.9901 127.127 53.786 127.188C53.6704 127.437 53.5062 127.646 53.2938 127.814C53.2925 128.118 53.1732 128.356 52.9358 128.529C52.7525 128.324 52.5586 128.31 52.3541 128.484C51.9239 128.867 51.6255 129.329 51.4591 129.869C51.2802 129.869 51.1012 129.869 50.9222 129.869C50.9222 129.959 50.9222 130.048 50.9222 130.137C50.817 130.118 50.7275 130.147 50.6537 130.227C50.5955 130.66 50.3718 130.81 49.9825 130.674C49.9386 130.789 49.9237 130.909 49.9377 131.031C49.7506 131.015 49.5716 131.045 49.4008 131.121C49.24 131.386 49.061 131.639 48.8638 131.88C48.7699 131.924 48.6804 131.91 48.5953 131.836C48.3777 131.995 48.1689 132.159 47.9689 132.327C47.7848 132.355 47.6058 132.355 47.4319 132.327C47.3508 132.479 47.321 132.643 47.3424 132.819C47.1953 132.838 47.061 132.808 46.9397 132.73C46.8958 132.845 46.8809 132.965 46.8949 133.087C46.6829 133.056 46.474 133.041 46.2685 133.042C46.1247 133.136 46.0651 133.27 46.0895 133.445C45.8117 133.325 45.5581 133.354 45.3288 133.534C45.2856 133.619 45.2707 133.708 45.284 133.802C45.0131 133.788 44.7595 133.848 44.5233 133.981C44.3945 133.923 44.2602 133.893 44.1206 133.891C44.1578 134.11 44.0683 134.229 43.8521 134.249C43.6706 134.074 43.4617 134.074 43.2257 134.249C43.1416 134.388 43.0372 134.507 42.9125 134.606C42.7932 134.547 42.6738 134.488 42.5545 134.428C42.0576 134.499 41.5654 134.589 41.0778 134.696C41.0778 134.785 41.0778 134.875 41.0778 134.964C40.8254 134.901 40.5868 134.812 40.3619 134.696C39.8441 134.686 39.322 134.716 38.7957 134.785C37.9334 134.573 37.0683 134.365 36.2004 134.16C36.0223 134.447 35.7986 134.492 35.5292 134.294C35.4239 134.053 35.2748 133.845 35.0817 133.668C34.9166 133.738 34.7376 133.768 34.5447 133.757C34.5086 133.535 34.3743 133.341 34.142 133.176C33.8617 133.436 33.6679 133.377 33.5603 132.998C33.4208 132.947 33.2865 132.887 33.1576 132.819C33.1204 132.659 33.031 132.54 32.8891 132.461C32.8593 132.312 32.8294 132.164 32.7996 132.014C32.2074 131.587 31.6705 131.081 31.1887 130.495C30.969 129.937 30.7005 129.401 30.3833 128.886C30.264 129.005 30.1446 129.005 30.0253 128.886C29.9571 128.339 29.7931 127.833 29.5331 127.367C29.5518 127.314 29.5817 127.269 29.6226 127.233C29.5087 127.116 29.4192 126.981 29.3541 126.83C29.201 126.248 29.0071 125.682 28.7724 125.132C28.7854 124.569 28.6811 124.033 28.4591 123.523C28.431 123.022 28.431 122.516 28.4591 122.004C28.4377 121.79 28.3482 121.612 28.1907 121.468C28.4077 121.09 28.4077 120.719 28.1907 120.35C28.4276 120.029 28.4276 119.701 28.1907 119.367C28.2206 119.173 28.31 119.009 28.4591 118.876C28.1263 118.554 28.1263 118.226 28.4591 117.892C28.3305 117.662 28.3603 117.453 28.5486 117.267C28.4889 117.177 28.4293 117.088 28.3696 116.999C28.5182 116.706 28.5481 116.409 28.4591 116.105C28.543 115.833 28.6624 115.58 28.8171 115.345C28.6712 115.129 28.701 114.95 28.9066 114.809C28.6679 114.69 28.6679 114.57 28.9066 114.451C28.7691 114.352 28.7095 114.218 28.7276 114.049C28.9378 114.053 29.0571 113.949 29.0856 113.736C29.0646 113.372 29.0646 113.014 29.0856 112.664C29.3308 112.064 29.5397 111.469 29.7121 110.876C29.4507 110.614 29.5104 110.48 29.891 110.474C29.891 110.206 29.891 109.938 29.891 109.669C29.9805 109.669 30.07 109.669 30.1595 109.669C29.9583 109.312 30.0478 109.059 30.428 108.91C30.3813 108.86 30.3515 108.8 30.3385 108.731C30.4248 108.367 30.5739 108.01 30.786 107.658C30.7562 107.629 30.7263 107.599 30.6965 107.569C30.9168 107.155 31.1555 106.753 31.4125 106.362C31.3739 106.292 31.344 106.217 31.323 106.139C31.4341 105.991 31.5087 105.828 31.5467 105.647C31.8324 105.569 31.907 105.405 31.7704 105.156C32.0022 104.826 32.1513 104.453 32.2179 104.039C32.3676 103.815 32.5318 103.607 32.7101 103.413C32.7399 103.174 32.7698 102.936 32.7996 102.698C33.0803 102.478 33.3637 102.254 33.6498 102.027C33.6087 101.694 33.6087 101.352 33.6498 101C33.9336 100.921 34.1871 100.772 34.4105 100.553C34.553 100.237 34.6724 99.9091 34.7685 99.5695C35.2151 99.2745 35.4836 98.8571 35.5739 98.3182C35.6644 98.2431 35.7688 98.2136 35.8872 98.2288C35.9099 97.8999 36.059 97.6469 36.3346 97.4691C36.4195 97.4262 36.509 97.411 36.6031 97.4244C36.6413 97.167 36.701 96.914 36.7821 96.6646C36.7523 96.62 36.7224 96.5753 36.6926 96.5306C36.5655 96.6843 36.4462 96.8479 36.3346 97.0222C36.1775 97.0347 36.0284 96.99 35.8872 96.8881C35.6316 97.0686 35.4228 97.2921 35.2607 97.5584C35.1223 97.5879 35.003 97.5432 34.9027 97.4244C34.4244 97.739 33.9172 97.9919 33.3813 98.1841C33.3026 98.3057 33.2727 98.4397 33.2918 98.5863C33.0217 98.572 32.7533 98.5863 32.4864 98.631C32.3671 98.6909 32.2776 98.7803 32.2179 98.8991C32.103 98.9599 31.9985 98.9456 31.9047 98.8545C31.2043 99.1378 30.5331 99.4801 29.891 99.8823C29.8161 99.9726 29.7863 100.077 29.8016 100.195C29.4122 100.285 29.0243 100.301 28.6381 100.24C28.2368 100.432 27.9235 100.714 27.6984 101.089C27.4318 100.844 27.1783 100.859 26.9377 101.134C26.5824 101.248 26.2244 101.367 25.8638 101.491C25.6927 101.598 25.5734 101.748 25.5058 101.938C25.3388 102.002 25.2045 101.957 25.1031 101.804C24.935 101.942 24.8008 102.106 24.7004 102.296C24.4491 102.378 24.2552 102.304 24.1187 102.072C23.9546 102.177 23.8204 102.311 23.716 102.474C23.4552 102.486 23.2464 102.591 23.0895 102.787C22.7886 102.625 22.6395 102.714 22.642 103.055C22.4674 103.079 22.3332 103.02 22.2393 102.877C22.133 102.971 22.0882 103.091 22.1051 103.234C21.8733 103.225 21.6645 103.284 21.4786 103.413C21.1411 103.153 20.9025 103.227 20.7626 103.636C20.5956 103.7 20.4613 103.655 20.3599 103.502C20.1631 103.861 19.8797 103.95 19.5097 103.77C19.0851 103.954 18.6376 104.073 18.1673 104.128C17.9873 104.292 17.7934 104.442 17.5856 104.575C17.442 104.435 17.2779 104.391 17.0934 104.441C17.0517 104.63 16.9472 104.764 16.7802 104.843C16.6552 104.763 16.521 104.703 16.3774 104.664C15.9376 104.625 15.5199 104.729 15.1245 104.977C14.8858 105.006 14.6472 105.037 14.4086 105.066C14.2711 105.242 14.1071 105.376 13.9163 105.469C13.4603 105.25 13.0426 105.309 12.6634 105.647C12.5094 105.523 12.3304 105.463 12.1265 105.469C11.6659 105.503 11.2333 105.623 10.8288 105.826C10.6437 105.784 10.4647 105.725 10.2918 105.647C10.1521 105.723 10.0179 105.693 9.8891 105.558C9.67888 105.678 9.47 105.797 9.26265 105.915C8.87657 105.776 8.47384 105.687 8.05447 105.647C7.82788 105.684 7.60414 105.714 7.38327 105.737C7.08123 105.614 6.768 105.525 6.44358 105.469C6.34979 105.547 6.24535 105.607 6.13035 105.647C5.88585 105.473 5.63232 105.309 5.36965 105.156C5.08264 105.118 4.81416 105.149 4.5642 105.245C4.52321 105.031 4.40383 104.882 4.20623 104.798C3.96844 104.783 3.72976 104.797 3.49027 104.843C3.50361 104.749 3.48875 104.66 3.44553 104.575C3.12764 104.706 2.97854 104.587 2.99805 104.217C2.79633 103.978 2.5726 103.769 2.32685 103.592C2.24756 103.518 2.21775 103.429 2.23735 103.323C1.90918 103.205 1.58109 103.085 1.25292 102.966C1.2676 102.726 1.25265 102.488 1.20817 102.251C1.0486 102.041 0.959109 101.803 0.939689 101.536C0.849479 101.493 0.745039 101.478 0.626459 101.491C0.479152 101.353 0.44935 101.203 0.536965 101.044C0.472887 100.638 0.353502 100.251 0.178988 99.8823C0.191965 99.8135 0.221767 99.7536 0.268482 99.7036C0.162253 99.6124 0.0727588 99.5078 0 99.3907C0.106946 99.2593 0.106946 99.1253 0 98.9885C0.0902996 98.8839 0.179794 98.7803 0.268482 98.6757C0.19465 98.5961 0.105156 98.5666 0 98.5863C0.046358 97.9508 0.046358 97.3252 0 96.7093C0.229374 96.4412 0.288977 96.1427 0.178988 95.8155C0.386257 95.2435 0.520498 94.6473 0.581712 94.0279C0.887245 93.5658 1.12593 93.0599 1.29767 92.5085C1.37928 91.906 1.57322 91.3251 1.87938 90.7655C1.85835 90.6878 1.82846 90.6127 1.78988 90.5421C1.92332 90.4071 2.08736 90.3178 2.2821 90.274C2.38198 89.6715 2.57591 89.1058 2.86381 88.5757C3.09014 88.4363 3.17964 88.2272 3.1323 87.9501C3.25159 87.9501 3.37098 87.9501 3.49027 87.9501C3.67445 87.555 3.80869 87.1376 3.893 86.6988C4.01811 86.6496 4.13749 86.6201 4.25097 86.6094C4.35165 86.3162 4.44115 86.0177 4.51946 85.7156C4.64081 85.6369 4.77505 85.6074 4.92218 85.6262C4.91565 85.1998 5.10958 84.9022 5.50389 84.7324C5.60484 84.567 5.64959 84.3883 5.63813 84.1961C5.95745 84.1729 6.07674 83.9941 5.99611 83.6598C6.27721 83.8198 6.51589 83.7751 6.71206 83.5258C6.66535 83.4757 6.63554 83.4158 6.62257 83.347C6.72799 82.9993 6.87709 82.6713 7.07004 82.3638C7.18495 82.303 7.28939 82.3173 7.38327 82.4085C7.56431 82.2056 7.63886 81.967 7.607 81.6935C7.7263 81.6935 7.84568 81.6935 7.96498 81.6935C7.88399 81.2591 8.06298 81.0204 8.50195 80.9784C8.63001 80.6459 8.86869 80.4377 9.2179 80.3528C9.45506 80.0712 9.70868 79.8031 9.9786 79.5483C9.97949 78.8914 10.2927 78.6376 10.9183 78.7886C11.0377 78.6018 11.2017 78.4677 11.4105 78.3864C11.4944 78.104 11.6286 77.851 11.8132 77.6267C11.7281 77.5623 11.7133 77.4881 11.7685 77.4032C11.8878 77.2843 12.0072 77.1646 12.1265 77.0457C12.3054 77.1646 12.4844 77.1646 12.6634 77.0457C12.7257 76.7793 12.7705 76.5112 12.7977 76.2413C12.9791 76.2556 13.1581 76.2413 13.3346 76.1966C13.4134 76.075 13.4433 75.941 13.4241 75.7944C13.7709 75.8507 13.935 75.7014 13.9163 75.3475C14.0868 75.2885 14.2211 75.1848 14.3191 75.0346C14.5299 75.0203 14.7387 75.0203 14.9455 75.0346C15.0139 74.8496 15.0586 74.6557 15.0798 74.4537C15.1702 74.3786 15.2747 74.3491 15.393 74.3643C15.3778 74.2463 15.4076 74.1417 15.4825 74.0515C15.7805 74.0148 16.049 73.9102 16.2879 73.7386C16.3731 73.6001 16.4029 73.4517 16.3774 73.2917C16.5564 73.2622 16.7354 73.2319 16.9144 73.2024C16.9818 72.8144 17.1906 72.5311 17.5409 72.3532C17.7817 72.4239 18.0204 72.3944 18.2568 72.2639C18.2205 72.103 18.2652 71.9385 18.3911 71.7723C18.5103 71.6534 18.6297 71.6534 18.749 71.7723C19.0961 71.5747 19.3496 71.2914 19.5097 70.9232C19.7621 71.0045 20.0008 70.9598 20.2257 70.7891C20.3207 70.5004 20.5147 70.3216 20.8074 70.2528C20.9568 70.1035 21.0313 69.9248 21.0311 69.7165C21.2387 69.7764 21.4475 69.7907 21.6576 69.7612C21.7325 69.6709 21.7623 69.5664 21.7471 69.4484C21.8963 69.4484 22.0454 69.4484 22.1946 69.4484C22.1722 69.1803 22.2915 69.0158 22.5525 68.9568C22.6253 68.7959 22.7297 68.6618 22.8658 68.5546C22.9786 68.5778 23.0681 68.6377 23.1342 68.7334C23.2279 68.4652 23.4218 68.3311 23.716 68.3311C23.8889 68.156 24.038 67.962 24.1634 67.7502C24.34 67.6759 24.519 67.661 24.7004 67.7055C24.8033 67.4854 24.9226 67.2768 25.0584 67.0798C25.1836 67.0266 25.3029 67.0416 25.4163 67.1245C25.4845 67.0237 25.5442 66.9194 25.5953 66.8117C25.7146 66.8117 25.834 66.8117 25.9533 66.8117C26.1966 66.6248 26.3755 66.3864 26.4903 66.0966C26.6933 66.0289 26.8873 66.0438 27.072 66.1413C27.1162 65.9953 27.131 65.8463 27.1167 65.6944C27.5431 65.6201 27.9607 65.5307 28.3696 65.4263C28.3696 65.2773 28.3696 65.1284 28.3696 64.9794C28.5472 64.9689 28.6963 65.0285 28.8171 65.1581C28.9804 64.9408 29.2041 64.8215 29.4883 64.8006C29.6823 64.6368 29.8761 64.4729 30.07 64.309C30.1549 64.2659 30.2444 64.251 30.3385 64.2643C30.3077 63.8393 30.4867 63.7202 30.8755 63.9068C31.2361 63.6961 31.2958 63.4279 31.0545 63.1024C30.9439 63.1691 30.8245 63.1988 30.6965 63.1918C30.426 62.5261 29.9189 62.1536 29.1751 62.0745C28.876 61.8056 28.6075 61.5076 28.3696 61.1807C28.0972 61.0552 27.8287 60.9212 27.5642 60.7785C27.4236 60.8508 27.2744 60.8807 27.1167 60.8679C27.1308 60.7452 27.1158 60.626 27.072 60.5104C26.9815 60.5852 26.8771 60.615 26.7588 60.5998C26.7721 60.5057 26.7572 60.4164 26.714 60.3316C26.3942 60.0128 26.1107 59.6702 25.8638 59.3038C25.2493 59.4574 24.8018 59.2489 24.5214 58.6781C24.4057 58.6343 24.2863 58.6194 24.1634 58.6334C24.1634 58.5143 24.1634 58.395 24.1634 58.2759C24.0441 58.2759 23.9247 58.2759 23.8054 58.2759C23.8054 58.1567 23.8054 58.0375 23.8054 57.9184C23.5598 57.9297 23.3808 57.8254 23.2685 57.6055C23.1222 57.5614 22.9731 57.5465 22.821 57.5608C22.8691 57.1603 22.7199 57.0412 22.3735 57.2033C22.3735 57.0842 22.3735 56.9649 22.3735 56.8458C22.2542 56.8458 22.1349 56.8458 22.0156 56.8458C22.0397 56.3665 21.8309 56.2175 21.3891 56.3989C21.4019 56.2414 21.372 56.0924 21.2996 55.952C21.0955 55.8825 20.9015 55.7932 20.7179 55.6839C20.4847 55.2428 20.2162 54.8256 19.9125 54.4325C19.7359 54.2781 19.5718 54.1143 19.4202 53.9409C19.2114 53.9112 19.0026 53.8813 18.7938 53.8516C18.715 53.7304 18.6851 53.5963 18.7043 53.4494C18.5551 53.4494 18.406 53.4494 18.2568 53.4494C18.2568 53.3302 18.2568 53.211 18.2568 53.0918C18.1385 53.107 18.0341 53.0773 17.9436 53.0025C17.9138 52.8535 17.8839 52.7045 17.8541 52.5556C17.6918 52.3535 17.5576 52.1449 17.4514 51.9299C17.2163 51.877 16.9776 51.8472 16.7354 51.8405C16.7469 51.6479 16.7021 51.4691 16.6012 51.3042C16.5641 51.3451 16.5194 51.3749 16.4669 51.3936C16.4003 51.0538 16.2959 50.726 16.1537 50.4104C15.9861 50.4631 15.8369 50.4035 15.7062 50.2317C15.645 50.1169 15.66 50.0126 15.751 49.9188C15.6397 49.8157 15.5502 49.6965 15.4825 49.5613C15.3086 49.5886 15.1296 49.5886 14.9455 49.5613C14.8262 49.4719 14.8262 49.3826 14.9455 49.2932C14.7818 49.2688 14.6476 49.1942 14.5428 49.0697C14.2393 48.2322 13.7919 47.4873 13.2004 46.8352C13.3081 46.5733 13.2186 46.3945 12.9319 46.2989C12.8607 45.9534 12.6817 45.7746 12.3949 45.7627C12.3356 45.3914 12.2313 45.0339 12.0817 44.6901C11.9468 44.4944 11.7679 44.3751 11.5447 44.3326C11.5266 44.1637 11.5862 44.0296 11.7237 43.9304C11.5288 43.7312 11.2901 43.6269 11.0078 43.6175C10.9928 43.1104 10.8287 42.6635 10.5156 42.2768C10.3555 41.9865 10.2511 41.6737 10.2023 41.3384C9.90396 41.1025 9.73983 40.7896 9.71012 40.3999C9.42973 40.2288 9.41479 40.0351 9.66537 39.8189C9.55932 39.698 9.43993 39.5937 9.30739 39.5061C9.19463 39.3404 9.19463 39.1766 9.30739 39.0145C9.02298 38.9302 8.93349 38.7663 9.03891 38.5229C8.96937 38.3489 8.87988 38.185 8.77043 38.0313C8.83093 37.3956 8.63699 36.8445 8.18872 36.3778C8.13323 35.9856 8.05868 35.5982 7.96498 35.2158C7.98368 35.1634 8.01358 35.1187 8.05447 35.0817C7.87074 34.684 7.7067 34.2818 7.56226 33.8751C7.47768 33.1948 7.34344 32.5244 7.15953 31.8641C7.11872 31.3044 7.11872 30.7383 7.15953 30.1658C7.10065 29.9583 7.01115 29.7647 6.89105 29.5849C6.89365 29.4482 6.95334 29.3439 7.07004 29.272C6.95334 29.2002 6.89365 29.0959 6.89105 28.9592C6.99012 28.8198 6.99012 28.6857 6.89105 28.557C6.93132 28.4421 6.99102 28.3378 7.07004 28.2442C6.99621 28.165 6.90671 28.1352 6.80156 28.1548C6.99451 27.3846 7.02431 26.6249 6.89105 25.8756C6.91387 25.7571 6.97356 25.6677 7.07004 25.6075C7.00712 25.2789 6.97732 24.9511 6.98054 24.6243C7.07004 24.4157 7.15953 24.2071 7.24903 23.9986C7.11693 23.6771 7.17654 23.394 7.42802 23.1495C7.38443 23.0649 7.35463 22.9756 7.33852 22.8814C7.60879 22.5255 7.71323 22.1382 7.65175 21.7194C7.73972 21.5453 7.84416 21.3814 7.96498 21.2278C7.99219 20.9163 7.99219 20.6035 7.96498 20.2893C8.11211 20.3085 8.24635 20.2786 8.3677 20.2C8.47993 19.6782 8.68872 19.2014 8.99416 18.7699C9.06773 18.536 9.11247 18.2976 9.1284 18.0548C9.2179 18.0548 9.30739 18.0548 9.39689 18.0548C9.39689 17.9357 9.39689 17.8165 9.39689 17.6973C9.48638 17.6973 9.57588 17.6973 9.66537 17.6973C9.65418 17.3489 9.80337 17.2148 10.1128 17.2951C10.3489 17.0468 10.5279 16.7638 10.6498 16.446C10.9689 16.4377 11.2672 16.3184 11.5447 16.0885C11.7159 15.8957 11.865 15.6871 11.9922 15.4628C12.2407 15.4102 12.4495 15.291 12.6187 15.1053C12.7363 15.178 12.8407 15.2673 12.9319 15.3734C13.0127 15.2661 13.1171 15.1915 13.2451 15.15C14.809 14.7665 16.3751 14.7218 17.9436 15.0159C18.0731 15.0557 18.1924 15.1153 18.3016 15.1947C18.4471 15.1241 18.5813 15.0348 18.7043 14.9265C18.8839 15.0613 19.0331 15.2252 19.1518 15.4181C19.4247 15.4788 19.6932 15.5533 19.9572 15.6416C20.0467 15.582 20.1362 15.5224 20.2257 15.4628C20.6861 15.6918 21.0739 16.0046 21.3891 16.4013C21.7385 16.5162 22.0667 16.6801 22.3735 16.8929C22.4586 16.8191 22.5481 16.8042 22.642 16.8482C22.9052 17.2636 23.2632 17.5765 23.716 17.7867C23.859 17.6987 24.0082 17.6838 24.1634 17.742C24.2592 17.9871 24.3934 18.2105 24.5661 18.4124C24.7182 18.3314 24.8823 18.3016 25.0584 18.323C25.048 18.6278 25.1971 18.747 25.5058 18.6805C25.4925 18.7745 25.5074 18.8639 25.5506 18.9486C25.6148 18.8636 25.6894 18.8488 25.7743 18.9039C25.834 19.0231 25.8936 19.1423 25.9533 19.2615C26.3544 19.3435 26.6229 19.567 26.7588 19.9318C26.982 19.9943 27.1908 20.0837 27.3852 20.2C27.4871 20.7039 27.7854 21.0167 28.2802 21.1384C28.3782 21.4347 28.587 21.5837 28.9066 21.5853C28.9685 21.6807 29.0132 21.785 29.0409 21.8982C29.1829 21.7885 29.3023 21.8183 29.3988 21.9876C29.4131 22.6161 29.7263 22.8842 30.3385 22.792C30.4413 23.2679 30.7246 23.5658 31.1887 23.6858C31.1826 24.0773 31.3766 24.2858 31.7704 24.3114C31.863 24.5745 31.9972 24.8129 32.1732 25.0265C32.3223 24.9073 32.4714 24.9073 32.6206 25.0265C32.7231 25.2885 32.7976 25.5567 32.8444 25.8309C33.1451 25.7674 33.3091 25.8867 33.3366 26.1884C33.6327 26.0833 33.767 26.2025 33.7393 26.5459C33.9921 26.5085 34.186 26.5979 34.321 26.8141C34.6505 27.1947 34.9488 27.6117 35.216 28.0654C35.3373 27.9868 35.4715 27.9569 35.6187 27.976C35.7184 28.4397 35.9272 28.8569 36.2451 29.2273C36.3857 29.155 36.5349 29.1252 36.6926 29.138C36.6715 29.3816 36.746 29.5901 36.9163 29.7636C37.0468 29.6522 37.1811 29.6522 37.3191 29.7636C37.4364 30.1403 37.6303 30.4679 37.9008 30.7468C38.0221 30.6682 38.1564 30.6383 38.3035 30.6574C38.4223 30.9127 38.5118 31.1808 38.572 31.4618C38.931 31.4071 39.11 31.5561 39.1089 31.9088C39.4406 31.9329 39.5599 32.0967 39.4669 32.4003C39.5347 32.5355 39.6242 32.6547 39.7354 32.7579C40.0051 32.8391 40.2735 32.9136 40.5409 32.9813C40.4602 33.3157 40.5795 33.4944 40.8988 33.5176C41.0288 33.8479 41.178 34.1757 41.3463 34.5008C41.3761 34.4858 41.406 34.471 41.4358 34.4561C41.3614 34.0281 41.2869 33.5962 41.2121 33.1601C41.1562 32.9586 41.0369 32.8096 40.8541 32.7132C40.8782 32.4278 40.7888 32.1596 40.5856 31.9088C40.5558 31.5215 40.5259 31.1341 40.4961 30.7468C40.2663 30.5946 40.2215 30.401 40.3619 30.1658C40.0331 29.5533 39.8839 28.9127 39.9144 28.2442C39.9074 27.9783 39.8179 27.7548 39.6459 27.5738C39.7884 27.183 39.7138 26.8404 39.4222 26.5459C39.3662 26.3481 39.3811 26.1545 39.4669 25.965C39.2889 25.8211 39.2591 25.6572 39.3774 25.4734C39.3177 25.4138 39.2581 25.3542 39.1984 25.2946C39.1219 24.4014 39.1219 23.4928 39.1984 22.5685C39.0613 22.3344 38.9718 22.0811 38.93 21.8088C39.0382 21.5681 39.0382 21.3298 38.93 21.0938C39.0027 20.9763 39.0922 20.872 39.1984 20.7809C39.1358 20.56 39.0463 20.3515 38.93 20.1553C38.9773 20.0159 39.037 19.8819 39.1089 19.7531C39.0155 19.6527 38.9559 19.5335 38.93 19.3955C38.9897 19.1274 39.0493 18.8593 39.1089 18.5911C39.098 18.1647 39.0681 17.7625 39.0195 17.3845C39.0426 17.2718 39.1023 17.1824 39.1984 17.1163C39.1388 17.027 39.0791 16.9376 39.0195 16.8482C39.2139 16.6815 39.2438 16.4879 39.1089 16.2672C39.4098 16.0543 39.4396 15.816 39.1984 15.5522C39.3161 15.0465 39.4354 14.54 39.5564 14.0327C39.3928 13.7633 39.4525 13.5697 39.7354 13.4518C39.6567 13.3306 39.6268 13.1965 39.6459 13.0495C39.7511 13.0691 39.8406 13.0394 39.9144 12.9602C39.8325 12.8862 39.7729 12.7968 39.7354 12.692C39.8577 12.5249 39.9621 12.3461 40.0486 12.1557C39.978 11.7964 40.0079 11.4389 40.1381 11.0832C40.3087 10.7775 40.4728 10.4647 40.6303 10.1447C40.5707 9.78574 40.6602 9.45799 40.8988 9.16151C40.7665 8.69039 40.9305 8.37756 41.391 8.22302C41.61 7.79453 41.7889 7.34763 41.928 6.88232C42.1371 6.81153 42.1818 6.69239 42.0623 6.5248C42.3016 6.43551 42.3613 6.28651 42.2412 6.0779C42.3695 5.82468 42.4292 5.55654 42.4202 5.27348C42.5674 5.25435 42.7016 5.2842 42.823 5.36286C42.9366 5.03734 43.041 4.70967 43.1362 4.37968C43.3395 4.24087 43.4588 4.04727 43.4942 3.79871C43.6719 3.86967 43.8359 3.82498 43.9864 3.66464C44.0876 3.40141 44.1621 3.13327 44.2101 2.86021C44.333 2.87425 44.4524 2.85932 44.5681 2.81552C44.7067 2.43861 44.9454 2.1407 45.284 1.92172C45.4655 1.96623 45.6444 1.95131 45.821 1.87703C46.2203 1.59942 46.5485 1.25683 46.8054 0.849162C46.9734 0.797679 47.1376 0.812606 47.2977 0.893852C47.5377 0.698736 47.7614 0.490123 47.9689 0.268192C48.0799 0.316189 48.1844 0.375805 48.2821 0.446952C48.7038 0.341662 49.1214 0.222518 49.535 0.0894315C49.7413 0.233333 49.9053 0.20357 50.0272 5.1394e-05ZM71.8638 44.5113C71.9766 44.5475 72.0804 44.6071 72.177 44.6901C72.3354 44.6246 72.4992 44.5947 72.6693 44.6007C72.6845 44.1167 72.9234 43.938 73.3852 44.0644C73.6116 43.5788 73.7763 43.0724 73.8774 42.545C73.9374 42.4854 73.9965 42.4258 74.0564 42.3662C74.0707 41.9359 74.1754 41.5336 74.3696 41.1596C74.3571 41.0906 74.3267 41.031 74.2802 40.9808C74.3652 40.6988 74.5137 40.4605 74.7276 40.2658C74.622 40.0732 74.6516 39.8944 74.8171 39.7295C74.7196 39.545 74.7044 39.3513 74.7724 39.1485C74.9245 38.9778 75.0588 38.7991 75.1751 38.6123C75.1259 38.4661 75.0963 38.3172 75.0856 38.1654C75.1796 38.1787 75.2691 38.1638 75.3541 38.1207C75.4597 37.971 75.5787 37.837 75.7121 37.7185C75.6825 37.6588 75.6521 37.5993 75.6226 37.5397C75.6861 37.3363 75.7309 37.1277 75.7568 36.914C76.0047 36.7176 76.079 36.4792 75.9805 36.199C76.1631 36.0194 76.3421 35.8407 76.5175 35.6627C76.5766 35.3672 76.6213 35.0693 76.6517 34.7689C76.7305 34.5473 76.8647 34.3686 77.0545 34.2326C76.9874 34.1222 76.9578 34.0029 76.965 33.8751C77.084 33.8751 77.2039 33.8751 77.323 33.8751C77.4357 33.4205 77.57 32.9736 77.7257 32.5344C78.0139 31.9584 78.2967 31.3924 78.5759 30.8362C78.6654 30.8362 78.7549 30.8362 78.8444 30.8362C78.8631 30.6892 78.8336 30.5552 78.7549 30.434C78.9929 30.2323 79.2319 30.0387 79.4708 29.853C79.3697 29.4642 79.4896 29.1514 79.8288 28.9145C79.6086 28.7215 79.6686 28.6471 80.0078 28.6911C80.023 28.5729 79.9935 28.4686 79.9183 28.3782C80.1035 28.092 80.2378 27.7792 80.321 27.4397C80.4812 27.2852 80.6754 27.2256 80.9027 27.261C80.858 26.9336 80.9922 26.725 81.3054 26.6353C81.3171 26.2405 81.4665 25.9128 81.7529 25.6521C81.8209 25.1838 82.0751 24.8859 82.5136 24.7583C82.5709 24.1503 82.8394 23.6587 83.3191 23.2836C83.3065 23.2146 83.2761 23.155 83.2296 23.1048C83.3423 23.0223 83.4614 22.9478 83.5875 22.8814C83.7907 22.4704 84.0592 22.1129 84.393 21.8088C84.5568 21.8787 84.691 21.8192 84.7957 21.63C84.8566 21.5153 84.8423 21.411 84.751 21.3172C85.194 20.9979 85.4624 20.5658 85.5564 20.0212C85.8267 20.0565 85.9162 19.9671 85.8249 19.7531C86.0826 19.6561 86.2616 19.4773 86.3619 19.2168C86.5247 19.1053 86.7037 19.0457 86.8988 19.038C86.9328 18.748 87.0375 18.4798 87.2121 18.2336C87.3723 18.0791 87.5665 18.0194 87.7938 18.0548C87.8233 17.8761 87.8537 17.6973 87.8833 17.5186C88.0023 17.5186 88.1222 17.5186 88.2412 17.5186C88.2412 17.4292 88.2412 17.3398 88.2412 17.2504C88.3307 17.2504 88.4202 17.2504 88.5097 17.2504C88.4498 16.8929 88.5992 16.7439 88.9572 16.8035C88.9303 16.1984 89.1988 15.9153 89.7626 15.9544C89.9031 15.7912 89.9783 15.5975 89.9864 15.3734C90.0463 15.3138 90.1054 15.2543 90.1654 15.1947C90.2844 15.3138 90.4043 15.3138 90.5233 15.1947C90.5529 15.0159 90.5833 14.8371 90.6128 14.6584C90.7865 14.5027 90.9359 14.3239 91.0603 14.1221C91.2563 13.9398 91.48 13.8205 91.7315 13.7646C91.7315 13.6752 91.7315 13.5858 91.7315 13.4964C91.9696 13.4176 92.1933 13.2985 92.4027 13.1389C92.5244 13.2176 92.6587 13.2474 92.8054 13.2283C92.7822 13.0962 92.8117 12.9771 92.8949 12.8708C93.1894 12.7398 93.4731 12.5908 93.7451 12.4239C93.8006 11.8831 94.0834 11.6895 94.5953 11.8429C94.6419 11.581 94.7618 11.3576 94.9533 11.1726C95.3184 10.9286 95.706 10.72 96.1167 10.5469C96.4586 10.6986 96.6224 10.5793 96.6089 10.1894C96.9213 9.78637 97.2945 9.68206 97.7276 9.87655C97.793 9.75151 97.8377 9.61744 97.8619 9.47434C97.8968 9.55729 97.9558 9.6169 98.0409 9.6531C98.1903 9.51322 98.3389 9.36432 98.4883 9.2062C98.7622 9.35189 98.9116 9.26251 98.9358 8.93806C99.0575 9.01672 99.1917 9.04657 99.3385 9.02744C99.3385 8.9083 99.3385 8.78907 99.3385 8.66992C99.6043 8.74402 99.8728 8.75885 100.144 8.71461C100.248 8.42377 100.456 8.25994 100.77 8.22302C100.935 8.3511 101.114 8.39579 101.307 8.35709C101.38 8.19594 101.485 8.06187 101.621 7.95488C102.053 7.88409 102.486 7.80964 102.918 7.73143C102.975 7.6644 103.019 7.58985 103.053 7.50798C103.495 7.61193 103.942 7.61193 104.395 7.50798C104.599 7.50253 104.778 7.56206 104.932 7.68674C105.051 7.62712 105.171 7.5676 105.29 7.50798C105.484 7.68835 105.693 7.71811 105.916 7.59736C106.227 7.88221 106.585 7.94183 106.99 7.77612C107.299 7.83091 107.463 8.00967 107.482 8.3124C107.87 8.23956 108.079 8.38855 108.109 8.7593C108.278 8.77745 108.412 8.71792 108.512 8.58054C108.602 8.65535 108.707 8.68512 108.825 8.66992C108.945 8.9268 109.05 9.19494 109.138 9.47434C109.257 9.59349 109.377 9.59349 109.496 9.47434C109.592 9.71942 109.726 9.94287 109.899 10.1447C109.814 10.2089 109.799 10.2833 109.854 10.3681C110.107 10.681 110.362 10.9938 110.615 11.3066C110.375 11.5453 110.405 11.7538 110.704 11.9323C110.767 12.2119 110.812 12.4949 110.839 12.7814C110.921 13.0158 111.026 13.2392 111.152 13.4518C111.053 13.6664 111.038 13.8898 111.107 14.1221C111.348 14.3728 111.363 14.626 111.152 14.8818C111.263 15.0477 111.263 15.2116 111.152 15.3734C111.218 15.7338 111.307 16.0913 111.42 16.446C111.202 16.6869 111.231 16.9103 111.51 17.1163C111.236 17.3868 111.176 17.6996 111.331 18.0548C111.094 18.266 111.094 18.4746 111.331 18.6805C111.266 18.8886 111.177 19.0823 111.062 19.2615C111.106 19.3921 111.137 19.5262 111.152 19.6637C110.97 20.0203 110.851 20.3778 110.794 20.7362C110.93 21.0707 110.87 21.3686 110.615 21.63C110.676 21.8972 110.645 22.1653 110.525 22.4345C110.409 22.4872 110.335 22.5766 110.302 22.7026C110.169 23.3827 110.049 24.068 109.944 24.7583C109.76 25.0226 109.596 25.3057 109.451 25.6075C109.464 25.6765 109.494 25.7361 109.541 25.7862C109.16 26.3438 108.877 26.9546 108.691 27.6185C108.642 27.7646 108.687 27.8838 108.825 27.976C108.763 28.3441 108.555 28.5229 108.198 28.5123C108.112 28.9605 108.008 29.4074 107.885 29.853C107.795 29.9278 107.69 29.9576 107.572 29.9424C107.574 30.1301 107.515 30.2939 107.393 30.434C107.414 30.512 107.444 30.5866 107.482 30.6574C107.24 30.9777 107.031 31.3204 106.856 31.6853C106.903 31.7354 106.933 31.7951 106.946 31.8641C106.807 32.0998 106.702 32.3531 106.632 32.6238C106.424 32.7728 106.214 32.9217 106.006 33.0707C105.974 33.5354 105.81 33.9376 105.514 34.2773C105.718 34.4098 105.718 34.5588 105.514 34.7242C105.4 34.7518 105.296 34.7965 105.2 34.8583C104.981 35.2155 104.833 35.6029 104.753 36.0202C104.586 35.9676 104.436 36.0272 104.305 36.199C104.369 36.4084 104.339 36.6169 104.216 36.8247C103.894 37.147 103.641 37.5194 103.455 37.9419C103.407 38.6152 103.064 39.0472 102.426 39.2379C102.381 39.4143 102.367 39.593 102.381 39.7742C102.292 39.7742 102.202 39.7742 102.113 39.7742C102.127 39.8969 102.112 40.0162 102.068 40.1317C101.8 40.266 101.605 40.4745 101.486 40.7574C101.436 40.9125 101.407 41.0615 101.397 41.2043C101.264 41.2708 101.129 41.3303 100.994 41.383C101.048 41.6239 101.003 41.8623 100.86 42.0981C100.739 42.1891 100.65 42.3082 100.591 42.4556C100.482 42.3474 100.378 42.3474 100.278 42.4556C100.318 42.8914 100.139 43.1893 99.7412 43.3494C99.641 43.8193 99.3868 44.1768 98.9805 44.422C98.9582 44.8261 98.7496 45.0048 98.3541 44.9582C98.3765 45.2103 98.3317 45.4486 98.2198 45.6733C98.1142 45.5633 98.0095 45.5633 97.9066 45.6733C97.8565 45.8837 97.7965 46.0922 97.7276 46.2989C97.5925 46.4618 97.4735 46.6406 97.3696 46.8352C97.1173 47.0386 96.8631 47.2471 96.6089 47.4609C96.4058 47.8858 96.1373 48.2731 95.8035 48.6228C95.6818 48.5442 95.5475 48.5143 95.4008 48.5334C95.4053 49.0588 95.1672 49.4163 94.6848 49.606C94.5273 49.7905 94.4978 49.9842 94.5953 50.187C94.4826 50.5443 94.3635 50.9018 94.2374 51.2595C94.3465 51.4133 94.436 51.5771 94.5058 51.7511C94.4665 51.8945 94.4065 52.0286 94.3268 52.1533C94.4235 52.2759 94.4978 52.41 94.5506 52.5556C94.6401 52.6747 94.7296 52.6747 94.8191 52.5556C94.7931 52.9006 94.9274 53.0198 95.2218 52.9131C95.2871 53.0412 95.3766 53.1455 95.4903 53.2259C95.9431 53.3125 96.3754 53.4466 96.7879 53.6281C97.0403 53.5182 97.2945 53.5182 97.5486 53.6281C97.6945 53.5943 97.8288 53.5348 97.9514 53.4494C98.3389 53.4791 98.7273 53.509 99.1148 53.5387C99.811 53.3546 100.527 53.2355 101.263 53.1812C101.612 53.3079 101.94 53.2781 102.247 53.0918C103.025 53.1089 103.801 53.1387 104.574 53.1812C104.909 52.9991 105.222 53.0587 105.514 53.36C106.096 53.1018 106.648 53.1615 107.169 53.5387C107.289 53.4488 107.408 53.3594 107.527 53.2706C107.772 53.3014 108.025 53.3163 108.288 53.3153C108.684 53.6744 109.118 53.7191 109.586 53.4494C109.738 53.5303 109.902 53.5601 110.078 53.5387C110.073 53.7255 110.163 53.8447 110.346 53.8963C110.531 53.7092 110.754 53.59 111.018 53.5387C111.062 53.5834 111.107 53.6281 111.152 53.6728C111.798 53.8481 112.454 53.9672 113.121 54.0303C113.403 54.0966 113.641 54.2307 113.837 54.4325C114.367 54.2061 114.89 54.2359 115.403 54.5219C115.629 54.3683 115.793 54.413 115.895 54.656C116.475 54.6402 116.953 54.8488 117.327 55.2816C117.441 55.3428 117.546 55.3279 117.64 55.237C117.79 55.3769 117.969 55.4663 118.177 55.5051C118.356 55.3904 118.55 55.301 118.759 55.237C119.274 55.468 119.782 55.7213 120.28 55.9967C120.348 56.1318 120.438 56.2511 120.549 56.3542C120.905 56.3376 121.263 56.3376 121.623 56.3542C121.971 56.6284 122.329 56.8817 122.696 57.1139C122.799 57.0855 122.874 57.026 122.92 56.9352C123.018 57.1365 123.182 57.2556 123.412 57.2927C123.464 57.4269 123.54 57.5461 123.636 57.6502C123.898 57.4283 124.167 57.4283 124.442 57.6502C124.837 57.9297 125.24 58.1979 125.65 58.4546C125.718 58.5555 125.778 58.6598 125.829 58.7675C126.196 58.6212 126.494 58.7106 126.724 59.0356C126.605 59.125 126.605 59.2144 126.724 59.3038C126.868 59.3681 127.002 59.3533 127.126 59.2591C127.156 59.3782 127.186 59.4974 127.216 59.6166C127.506 59.7423 127.76 59.9211 127.977 60.1529C128.185 60.2125 128.395 60.272 128.603 60.3316C128.661 60.476 128.706 60.625 128.737 60.7785C128.907 60.8373 129.042 60.9416 129.14 61.0914C129.255 61.1525 129.359 61.1376 129.453 61.0467C129.551 61.1175 129.655 61.1772 129.767 61.2254C129.822 61.4451 129.956 61.594 130.169 61.6723C130.284 61.8705 130.373 62.0791 130.438 62.298C130.568 62.4094 130.703 62.4094 130.84 62.298C130.904 62.5238 130.964 62.7473 131.019 62.9683C131.255 62.9779 131.479 62.9927 131.691 63.013C131.711 63.2168 131.786 63.3956 131.914 63.5493C131.84 63.6343 131.826 63.7237 131.87 63.8174C132.044 63.872 132.208 63.9464 132.362 64.0409C132.283 64.1621 132.254 64.2962 132.272 64.4431C132.391 64.4431 132.511 64.4431 132.63 64.4431C132.63 64.5921 132.63 64.741 132.63 64.89C132.72 64.89 132.809 64.89 132.899 64.89C132.883 65.1429 133.003 65.2919 133.257 65.3369C133.353 65.5361 133.413 65.7447 133.436 65.9626C133.558 65.9485 133.678 65.9635 133.794 66.0073C134.272 66.5832 134.511 67.2536 134.51 68.0183C134.599 68.0183 134.689 68.0183 134.778 68.0183C134.94 68.5814 135.104 69.1481 135.27 69.7165C135.641 70.066 135.775 70.4834 135.673 70.9679C135.713 71.27 135.802 71.5533 135.942 71.817C135.846 71.8831 135.786 71.9725 135.763 72.0851C135.994 72.4712 135.994 72.8582 135.763 73.247C135.808 73.5813 135.867 73.9094 135.942 74.2302C135.67 74.4805 135.611 74.779 135.763 75.124C135.53 75.2072 135.396 75.3716 135.36 75.6156C135.33 75.8838 135.3 76.1519 135.27 76.42C134.922 76.6855 134.743 77.043 134.733 77.4926C134.599 77.5668 134.495 77.6714 134.42 77.8054C134.292 77.7777 134.172 77.7929 134.062 77.8501C133.975 78.0816 133.945 78.3194 133.973 78.5652C133.794 78.5652 133.615 78.5652 133.436 78.5652C133.436 78.8038 133.436 79.0416 133.436 79.2802C133.25 79.3285 133.071 79.4035 132.899 79.5037C132.462 79.8513 132.074 80.2536 131.735 80.7103C131.589 80.8158 131.44 80.8158 131.288 80.7103C131.162 80.8274 131.012 80.9016 130.84 80.9337C130.721 81.1125 130.602 81.2913 130.482 81.47C130.303 81.47 130.125 81.47 129.946 81.47C129.884 81.5657 129.839 81.6693 129.811 81.7828C129.537 82.0331 129.224 82.2119 128.872 82.3191C128.751 82.1895 128.601 82.1296 128.424 82.1404C128.412 82.4166 128.322 82.6543 128.156 82.8554C127.882 82.9537 127.629 82.8938 127.395 82.6766C127.275 82.7991 127.156 82.918 127.037 83.0342C126.905 82.96 126.771 82.9448 126.634 82.9895C126.585 83.1539 126.496 83.288 126.366 83.3917C126.094 83.3291 125.825 83.2996 125.56 83.3023C125.314 83.3434 125.12 83.4623 124.979 83.6598C124.845 83.5481 124.711 83.5481 124.576 83.6598C124.437 83.9441 124.228 84.0334 123.949 83.928C123.54 84.138 123.107 84.2873 122.652 84.3749C122.502 84.2855 122.354 84.1961 122.204 84.1067C122.055 84.2462 121.906 84.3954 121.757 84.5536C121.626 84.4419 121.492 84.4419 121.354 84.5536C121.072 84.3087 120.818 84.3382 120.593 84.643C120.529 84.593 120.454 84.5635 120.37 84.5536C119.926 84.6725 119.478 84.7923 119.027 84.9112C118.584 84.5563 118.137 84.5563 117.685 84.9112C117.477 84.576 117.238 84.5608 116.969 84.8665C116.589 84.9487 116.231 84.904 115.895 84.7324C115.285 85.0202 114.688 85.0202 114.105 84.7324C113.962 84.7717 113.828 84.8316 113.702 84.9112C113.372 84.8638 113.059 84.7744 112.763 84.643C112.575 84.7404 112.381 84.8298 112.181 84.9112C111.691 84.803 111.214 84.6537 110.749 84.4643C110.464 84.5179 110.181 84.5778 109.899 84.643C109.658 84.6385 109.539 84.5197 109.541 84.2855C109.338 84.3052 109.143 84.3641 108.959 84.4643C108.746 84.3963 108.567 84.2774 108.422 84.1067C108.337 84.1532 108.263 84.2131 108.198 84.2855C107.781 84.256 107.363 84.2256 106.946 84.1961C105.818 83.9146 104.685 83.6616 103.545 83.4364C103.485 83.347 103.426 83.2576 103.366 83.1682C103.187 83.1682 103.008 83.1682 102.829 83.1682C102.77 83.0351 102.68 82.9314 102.56 82.8554C102.461 82.9546 102.342 83.0145 102.202 83.0342C101.857 82.9216 101.514 82.8027 101.173 82.6766C101.104 82.6892 101.044 82.7196 100.994 82.766C100.915 82.5113 100.766 82.4523 100.547 82.5873C100.037 82.27 99.4853 82.1216 98.891 82.1404C98.891 82.051 98.891 81.9616 98.891 81.8722C98.4615 81.8392 98.0444 81.7498 97.6381 81.6041C97.5307 81.3887 97.3813 81.2099 97.1907 81.0678C97.0412 81.1277 96.8926 81.1867 96.7432 81.2466C96.6752 81.1456 96.6152 81.0419 96.5642 80.9337C96.0067 80.864 95.5592 80.6111 95.2218 80.174C95.1046 80.2464 94.9998 80.3358 94.9086 80.4421C94.5515 80.1803 94.1783 79.9273 93.7899 79.6824C93.6521 79.5832 93.593 79.4491 93.6109 79.2802C93.4319 79.2802 93.2529 79.2802 93.0739 79.2802C93.0891 79.1622 93.0596 79.0576 92.9844 78.9674C92.7813 78.8994 92.5871 78.9146 92.4027 79.0121C92.1235 78.7421 91.855 78.474 91.5973 78.2076C91.5078 78.2675 91.4183 78.3265 91.3288 78.3864C91.2196 78.3069 91.1006 78.2479 90.9708 78.2076C90.7059 78.1209 90.4526 78.0906 90.2101 78.1183C89.802 78.2228 89.4145 78.3122 89.0467 78.3864C89.0995 78.5026 89.189 78.5768 89.3152 78.6099C89.0172 78.8324 88.7934 79.1157 88.644 79.459C88.5151 79.5814 88.3656 79.6708 88.1965 79.7271C88.2448 80.0936 88.2744 80.4511 88.286 80.7997C88.5598 81.3073 88.754 81.8436 88.8677 82.4085C89.0574 82.6704 89.2964 82.7303 89.5837 82.5873C89.7313 82.657 89.8503 82.7607 89.9416 82.9001C90.0267 82.943 90.1161 82.9582 90.2101 82.9448C90.203 83.0726 90.2325 83.1915 90.2996 83.3023C90.7695 83.3988 91.1274 83.6518 91.3735 84.062C91.4675 84.1058 91.557 84.0915 91.642 84.0174C91.7628 84.147 91.9123 84.2068 92.0895 84.1961C92.0895 84.2855 92.0895 84.3749 92.0895 84.4643C92.4331 84.6394 92.7911 84.803 93.1634 84.9558C93.38 85.1873 93.5286 85.4555 93.6109 85.7603C93.8445 85.8925 94.0834 85.9971 94.3268 86.0731C94.3116 86.3716 94.4307 86.4762 94.6848 86.3859C94.7958 86.4887 94.8853 86.6085 94.9533 86.7434C95.1063 86.7613 95.2549 86.7613 95.4008 86.7434C95.4661 86.8686 95.5109 87.0026 95.535 87.1457C95.7051 87.2046 95.8393 87.3083 95.9377 87.4585C96.2572 87.3968 96.4953 87.5309 96.6537 87.8607C96.8828 87.9626 97.1217 88.0368 97.3696 88.0841C97.2649 88.2513 97.2793 88.4149 97.4144 88.5757C97.8493 88.5185 98.0426 88.7277 97.9961 89.2014C98.1912 89.2363 98.3559 89.3256 98.4883 89.4695C98.5572 89.457 98.6172 89.4266 98.6673 89.3802C98.7112 89.5258 98.7264 89.6751 98.7121 89.8271C98.8588 89.8458 98.9931 89.8163 99.1148 89.7377C99.2508 89.9826 99.445 90.1613 99.6965 90.274C99.6294 90.3848 99.5998 90.5037 99.607 90.6315C99.8191 90.6905 99.9981 90.8102 100.144 90.989C100.261 90.9032 100.381 90.9184 100.502 91.0337C100.587 91.2089 100.707 91.3572 100.86 91.4806C100.83 91.5101 100.8 91.5405 100.77 91.57C100.832 91.6656 100.877 91.7693 100.905 91.8828C101.024 92.0017 101.144 92.0017 101.263 91.8828C101.36 92.1071 101.465 92.3306 101.576 92.5532C101.748 92.5415 101.927 92.5263 102.113 92.5085C102.173 92.8061 102.232 93.1046 102.292 93.4023C102.444 93.3603 102.578 93.3603 102.695 93.4023C102.782 93.6025 102.827 93.8107 102.829 94.0279C102.948 94.0279 103.068 94.0279 103.187 94.0279C103.133 94.4659 103.327 94.7045 103.768 94.743C103.812 94.8887 103.828 95.0379 103.813 95.1899C104.083 95.1827 104.277 95.3025 104.395 95.5474C104.426 95.652 104.412 95.7565 104.35 95.8602C104.681 96.0944 104.89 96.4072 104.977 96.7987C105.365 96.7674 105.589 96.9462 105.648 97.335C105.769 97.4708 105.903 97.5897 106.051 97.6925C106.021 97.7524 105.991 97.8114 105.961 97.8713C106.196 98.1099 106.3 98.3781 106.274 98.6757C106.365 98.7508 106.469 98.7803 106.588 98.7651C106.443 99.1289 106.577 99.338 106.99 99.3907C107.134 99.7179 107.284 100.046 107.438 100.374C107.528 100.449 107.633 100.478 107.751 100.463C107.781 101.104 108.005 101.67 108.422 102.162C108.548 102.48 108.638 102.807 108.691 103.145C108.846 103.39 109.011 103.628 109.183 103.86C109.067 104.097 109.112 104.305 109.317 104.485C109.354 105.054 109.518 105.575 109.809 106.05C109.716 106.301 109.776 106.524 109.988 106.72C109.934 107.145 110.023 107.548 110.257 107.927C110.156 108.132 110.186 108.325 110.346 108.508C110.27 108.863 110.285 109.221 110.391 109.58C110.572 109.747 110.676 109.956 110.704 110.206C110.651 110.467 110.622 110.72 110.615 110.965C110.634 111.133 110.693 111.281 110.794 111.412C110.627 111.625 110.567 111.849 110.615 112.083C110.859 112.289 110.889 112.497 110.704 112.708C110.88 112.829 110.895 112.948 110.749 113.066C110.73 113.319 110.715 113.557 110.704 113.781C110.929 113.968 110.899 114.131 110.615 114.273C110.711 114.39 110.771 114.524 110.794 114.675C110.654 115.09 110.565 115.522 110.525 115.971C110.567 116.273 110.597 116.57 110.615 116.865C110.558 117.074 110.469 117.268 110.346 117.446C110.578 117.692 110.564 117.931 110.302 118.161C110.197 118.682 110.093 119.204 109.988 119.725C109.964 119.869 109.89 119.972 109.765 120.038C109.7 120.181 109.715 120.316 109.809 120.44C109.727 120.473 109.653 120.518 109.586 120.574C109.594 120.854 109.579 121.123 109.541 121.378C109.394 121.359 109.26 121.389 109.138 121.468C109.033 121.833 108.973 122.191 108.959 122.54C108.878 122.614 108.818 122.704 108.78 122.808C108.661 122.689 108.541 122.689 108.422 122.808C108.378 122.954 108.363 123.103 108.377 123.255C108.288 123.255 108.198 123.255 108.109 123.255C108.109 123.374 108.109 123.494 108.109 123.613C108.019 123.613 107.93 123.613 107.84 123.613C107.84 123.851 107.84 124.089 107.84 124.328C107.612 124.551 107.329 124.7 106.99 124.775C106.926 124.919 106.941 125.053 107.035 125.177C106.826 125.266 106.677 125.416 106.588 125.624C106.446 125.663 106.327 125.737 106.23 125.847C106.086 125.76 105.938 125.744 105.782 125.803C105.732 126.003 105.642 126.182 105.514 126.339C105.32 126.42 105.141 126.525 104.977 126.652C104.671 126.375 104.492 126.435 104.44 126.83C103.67 127.107 102.895 127.285 102.113 127.367C101.411 127.324 100.695 127.249 99.965 127.143C99.6276 126.959 99.2696 126.855 98.891 126.83C98.891 126.712 98.891 126.592 98.891 126.473C98.7219 126.455 98.5877 126.514 98.4883 126.652C98.312 126.306 98.0435 126.187 97.6829 126.294C97.5701 125.962 97.3616 125.872 97.0564 126.026C96.9499 125.931 96.9052 125.811 96.9222 125.668C96.5078 125.709 96.1794 125.575 95.9377 125.266C95.6809 125.136 95.4124 125.032 95.1323 124.953C95.092 124.768 95.0025 124.62 94.8638 124.507C94.7233 124.579 94.5738 124.608 94.4163 124.596C94.4235 124.468 94.394 124.349 94.3268 124.238C94.1505 124.164 93.9716 124.149 93.7899 124.194C93.661 124.036 93.5715 123.858 93.5214 123.657C93.1894 123.61 92.9361 123.446 92.7607 123.166C92.7312 123.195 92.7007 123.226 92.6712 123.255C92.6488 123.083 92.6041 122.918 92.537 122.764C92.3275 122.814 92.119 122.798 91.9105 122.719C91.7745 122.448 91.6402 122.18 91.5078 121.915C91.4183 121.974 91.3288 122.033 91.2393 122.093C91.1579 121.9 91.0827 121.706 91.0156 121.512C90.8294 121.495 90.6504 121.451 90.4786 121.378C90.3802 121.197 90.2316 121.077 90.0311 121.021C89.8002 120.567 89.487 120.18 89.0914 119.859C89.0189 119.685 88.9742 119.507 88.9572 119.322C88.4542 119.306 88.2153 119.037 88.2412 118.518C87.9209 118.658 87.6524 118.583 87.4358 118.295C87.5575 118.121 87.528 117.973 87.3463 117.848C87.4779 117.53 87.3588 117.381 86.9883 117.401C86.8541 117.267 86.7198 117.133 86.5856 116.999C86.5561 116.82 86.5256 116.641 86.4961 116.462C86.2956 116.412 86.1167 116.323 85.9591 116.194C85.6898 115.863 85.4956 115.505 85.3774 115.122C85.2548 115.136 85.1349 115.121 85.0195 115.077C85.049 115.047 85.0794 115.017 85.1089 114.988C84.844 114.836 84.6651 114.612 84.572 114.317C84.6463 114.232 84.6606 114.143 84.6167 114.049C84.4386 113.985 84.2749 113.895 84.1245 113.781C84.035 113.543 83.9008 113.334 83.7218 113.155C83.6618 113.274 83.6028 113.274 83.5428 113.155C83.4139 112.546 83.2206 111.979 82.9611 111.457C82.8421 111.457 82.7221 111.457 82.6031 111.457C82.6031 111.308 82.6031 111.159 82.6031 111.01C82.2774 111.036 82.0232 110.917 81.8424 110.653C81.7449 110.221 81.641 109.774 81.5292 109.312C81.2097 109.289 81.0907 109.11 81.1712 108.776C81.0772 108.789 80.9877 108.774 80.9027 108.731C80.8347 108.546 80.79 108.352 80.7685 108.15C80.6781 108.075 80.5734 108.045 80.4553 108.061C80.4973 107.603 80.304 107.305 79.8735 107.167C79.7912 106.934 79.7312 106.696 79.6946 106.452C79.4332 106.228 79.3142 105.96 79.3366 105.647C79.2149 105.569 79.0806 105.539 78.9339 105.558C78.9177 105.315 78.873 105.077 78.7996 104.843C78.5616 104.621 78.3969 104.353 78.3074 104.039C78.0917 104.071 77.9575 103.981 77.9047 103.77C77.8062 103.148 77.5977 102.582 77.2782 102.072C77.2335 101.896 77.2191 101.717 77.2335 101.536C77.1395 101.549 77.05 101.534 76.965 101.491C76.897 101.356 76.8075 101.236 76.6965 101.134C76.7753 101.012 76.8048 100.878 76.786 100.731C76.6804 100.751 76.5909 100.722 76.5175 100.642C76.4289 100.339 76.3242 100.041 76.2043 99.7483C76.1139 99.6732 76.0092 99.6437 75.891 99.6589C75.9394 99.3273 75.7899 99.1038 75.4436 98.9885C75.5787 98.9134 75.6235 98.8098 75.5778 98.6757C75.4337 98.6176 75.2995 98.5434 75.1751 98.4522C75.2046 98.4227 75.2351 98.3924 75.2646 98.3629C75.074 98.1966 75.0292 98.0036 75.1303 97.7819C74.699 97.5352 74.52 97.1777 74.5934 96.7093C74.3696 96.4582 74.2506 96.1596 74.2354 95.8155C74.0743 95.7431 73.9401 95.6386 73.8327 95.5027C73.7629 95.2095 73.6734 94.9262 73.5642 94.6536C73.4747 94.6536 73.3852 94.6536 73.2957 94.6536C73.2214 94.2737 73.1463 93.9162 73.072 93.581C72.7811 93.3817 72.6021 93.1136 72.535 92.7766C72.4751 92.8365 72.416 92.8955 72.356 92.9554C72.2889 92.6524 72.3032 92.3538 72.4008 92.0616C72.246 91.9069 72.1269 91.7282 72.0428 91.5253C71.9694 91.4457 71.8799 91.4162 71.7743 91.4359C71.7743 91.2571 71.7743 91.0784 71.7743 90.8996C71.5631 90.9139 71.3546 90.8996 71.1479 90.8549C70.9295 90.551 70.7505 90.2382 70.6109 89.9164C70.2905 89.9835 69.9773 90.0729 69.6712 90.1846C69.4153 90.1372 69.1772 90.0478 68.9553 89.9164C68.7226 90.0684 68.4693 90.1578 68.1946 90.1846C68.1946 90.274 68.1946 90.3633 68.1946 90.4527C68.0156 90.4527 67.8366 90.4527 67.6576 90.4527C67.6871 90.7209 67.5681 90.8397 67.2996 90.8102C67.2817 90.9792 67.3408 91.1132 67.4786 91.2124C67.3846 91.2562 67.2951 91.2419 67.2101 91.1678C67.1108 91.2768 67.0956 91.3966 67.1654 91.5253C67.2477 91.5637 67.322 91.5932 67.3891 91.6147C67.1967 91.8882 67.0177 92.1715 66.8521 92.4638C66.9121 92.7918 66.9712 93.1189 67.0311 93.447C66.9407 93.8465 66.9407 94.2487 67.0311 94.6536C67.0052 94.8726 66.9452 95.0817 66.8521 95.2792C66.8896 95.3838 66.9497 95.4732 67.0311 95.5474C66.7922 95.8915 66.7326 96.2633 66.8521 96.6646C66.5899 96.8327 66.5303 97.0561 66.6732 97.335C66.4495 97.6836 66.3451 98.0715 66.3599 98.4969C66.1724 98.7141 66.1277 98.9528 66.2257 99.212C66.1583 99.4131 66.039 99.5775 65.8677 99.7036C65.9444 99.7652 66.004 99.8394 66.0467 99.927C65.8092 100.179 65.6749 100.477 65.644 100.821C65.3553 101.087 65.2508 101.4 65.3307 101.759C65.2255 101.909 65.1061 102.043 64.9728 102.162C65.1083 102.579 64.9591 102.907 64.5253 103.145C64.4549 103.444 64.3802 103.742 64.3016 104.039C64.055 104.241 63.9357 104.51 63.9436 104.843C63.577 105.303 63.3831 105.809 63.3619 106.362C63.2522 106.571 63.0732 106.674 62.8249 106.675C62.7836 106.829 62.7687 106.993 62.7802 107.167C62.6897 107.242 62.5852 107.271 62.4669 107.256C62.4669 107.435 62.4669 107.614 62.4669 107.792C62.1224 107.81 62.0329 107.974 62.1984 108.284C62.0938 108.464 62.0342 108.657 62.0195 108.865C61.93 108.865 61.8405 108.865 61.751 108.865C61.7358 108.983 61.7656 109.088 61.8405 109.178C61.7142 109.361 61.5651 109.525 61.393 109.669C61.1771 110.12 60.9534 110.567 60.7218 111.01C60.5577 111.234 60.3638 111.428 60.1401 111.591C60.1699 111.621 60.1998 111.651 60.2296 111.68C60.0356 111.815 59.8418 111.949 59.6479 112.083C59.3105 112.786 58.9972 113.501 58.7082 114.228C58.559 114.228 58.4099 114.228 58.2607 114.228C58.2435 114.505 58.1839 114.773 58.0817 115.032C57.6938 115.434 57.3209 115.852 56.963 116.284C56.8343 116.442 56.7448 116.621 56.6946 116.82C56.3343 117.196 56.0211 117.673 55.7549 118.25C55.52 118.483 55.2515 118.662 54.9494 118.786C54.9181 119.087 54.7987 119.339 54.5914 119.546C54.6963 119.713 54.6814 119.877 54.5467 120.038C54.3068 120.08 54.0682 120.111 53.8307 120.127C53.7864 120.303 53.7715 120.482 53.786 120.663C53.5772 120.723 53.3683 120.782 53.1595 120.842C53.2168 121.365 53.0229 121.752 52.5778 122.004C52.5346 122.089 52.5197 122.178 52.5331 122.272C52.4102 122.258 52.2908 122.273 52.1751 122.317C52.0558 122.406 52.0558 122.495 52.1751 122.585C51.9769 122.678 51.7681 122.738 51.5486 122.764C51.4221 123.037 51.3177 123.32 51.2354 123.613C51.095 123.581 50.9309 123.567 50.7432 123.568C50.7699 123.834 50.6953 124.087 50.5195 124.328C50.3946 124.411 50.2604 124.411 50.1167 124.328C49.9776 124.347 49.8582 124.407 49.7588 124.507C49.6208 124.882 49.412 125.21 49.1323 125.49C48.9602 125.64 48.7514 125.669 48.5058 125.579C48.5058 125.698 48.5058 125.818 48.5058 125.937C48.3566 125.937 48.2076 125.937 48.0584 125.937C48.1369 126.485 47.9282 126.663 47.4319 126.473C47.446 126.595 47.431 126.715 47.3872 126.83C47.0056 127.245 46.5431 127.528 46 127.68C45.8722 127.874 45.723 128.053 45.5525 128.216C44.8744 128.651 44.1734 129.024 43.4494 129.333C43.3833 129.237 43.2938 129.178 43.1809 129.154C43.0371 129.396 42.8432 129.59 42.5992 129.735C42.2374 129.795 41.8944 129.9 41.57 130.048C41.2783 129.898 41.0396 129.957 40.8541 130.227C40.8039 130.18 40.7442 130.15 40.6751 130.137C40.5196 130.238 40.3555 130.327 40.1829 130.406C39.8305 130.203 39.4576 130.173 39.0642 130.316C38.8079 130.27 38.614 130.136 38.4825 129.914C38.2788 129.887 38.0849 129.932 37.9008 130.048C37.4415 129.967 37.0985 129.729 36.8716 129.333C36.5901 129.389 36.3217 129.33 36.0661 129.154C35.9698 128.955 35.9101 128.747 35.8872 128.529C35.4409 128.56 35.3216 128.381 35.5292 127.992C35.4397 127.992 35.3502 127.992 35.2607 127.992C35.2621 127.655 35.113 127.566 34.8132 127.724C34.6359 127.67 34.606 127.58 34.7237 127.456C34.2906 126.77 33.9027 126.055 33.5603 125.311C33.603 125.223 33.6626 125.149 33.7393 125.088C33.6648 125.013 33.5901 124.938 33.5156 124.864C33.3888 124.409 33.2396 123.962 33.0681 123.523C33.0138 123.282 33.0287 123.043 33.1128 122.808C32.774 122.245 32.7143 121.649 32.9339 121.021C32.9351 120.832 32.8755 120.669 32.7549 120.529C32.9926 120.292 32.9926 120.055 32.7549 119.814C32.9824 119.629 32.9824 119.435 32.7549 119.233C32.797 118.569 32.8865 117.914 33.0233 117.267C33.0252 117.079 32.9953 116.885 32.9339 116.686C32.9436 116.313 33.063 115.956 33.2918 115.613C33.2686 115.501 33.209 115.411 33.1128 115.345C33.3671 115.204 33.4566 115.01 33.3813 114.764C33.441 114.675 33.5006 114.585 33.5603 114.496C33.4685 113.846 33.6177 113.25 34.0078 112.708C33.9247 112.595 33.9098 112.476 33.963 112.351C34.0632 112.079 34.2123 111.84 34.4105 111.636C34.4974 111.056 34.6167 110.46 34.7685 109.848C35.0242 109.573 35.1584 109.246 35.1712 108.865C35.2607 108.865 35.3502 108.865 35.4397 108.865C35.4591 108.501 35.5039 108.113 35.5739 107.703C35.6717 107.418 35.8357 107.18 36.0661 106.988C35.9581 106.466 36.1669 106.109 36.6926 105.915C36.7791 105.746 36.8089 105.567 36.7821 105.379C36.9014 105.379 37.0208 105.379 37.1401 105.379C37.1112 105.005 37.2007 104.661 37.4086 104.351C37.4934 104.308 37.5829 104.293 37.677 104.307C37.6836 103.793 37.8626 103.346 38.214 102.966C38.2869 102.763 38.3316 102.555 38.3482 102.34C38.6191 102.187 38.8728 102.009 39.1089 101.804C39.2645 101.446 39.4435 101.103 39.6459 100.776C39.7616 100.732 39.881 100.717 40.0039 100.731C39.9894 100.55 40.0043 100.371 40.0486 100.195C40.3821 99.7724 40.6804 99.3255 40.9436 98.8545C41.0852 98.8553 41.2343 98.825 41.391 98.7651C41.4353 98.6194 41.4501 98.4701 41.4358 98.3182C41.5551 98.3182 41.6745 98.3182 41.7938 98.3182C41.8352 98.0518 41.865 97.7837 41.8833 97.5138C42.0623 97.4843 42.2412 97.4539 42.4202 97.4244C42.4202 97.335 42.4202 97.2456 42.4202 97.1562C42.5395 97.1562 42.6589 97.1562 42.7782 97.1562C42.7506 96.9399 42.7805 96.7308 42.8677 96.5306C43.0081 96.4224 43.0827 96.2732 43.0914 96.0837C43.5493 95.8486 43.8625 95.4911 44.0311 95.0111C44.1253 95.0245 44.2148 95.0093 44.2996 94.9664C44.4708 94.8064 44.62 94.6277 44.7471 94.4301C44.8933 94.3863 45.0425 94.3711 45.1946 94.3854C45.1946 94.2961 45.1946 94.2067 45.1946 94.1173C45.284 94.1173 45.3735 94.1173 45.463 94.1173C45.463 93.968 45.463 93.8197 45.463 93.6704C45.6357 93.6945 45.7848 93.6499 45.9105 93.5363C45.8807 93.5068 45.8508 93.4765 45.821 93.447C45.9171 93.2271 46.0066 93.0036 46.0895 92.7766C46.3017 92.731 46.5105 92.7006 46.716 92.6872C46.9135 92.1393 47.2565 91.7228 47.7451 91.4359C47.7822 91.477 47.8269 91.5065 47.8794 91.5253C47.9941 91.3751 48.0836 91.2116 48.1479 91.0337C48.6318 90.9532 48.8704 90.6699 48.8638 90.1846C49.0159 90.1989 49.165 90.1837 49.3113 90.1399C49.4306 90.0505 49.4306 89.9611 49.3113 89.8717C49.4845 89.7993 49.6635 89.7547 49.8482 89.7377C49.8474 89.5759 49.8922 89.4266 49.9825 89.2908C50.3157 89.1067 50.5544 88.8385 50.6984 88.4864C50.9478 88.3496 51.2013 88.2307 51.4591 88.1288C51.4458 88.035 51.4607 87.9456 51.5039 87.8607C51.8807 87.4871 52.179 87.0697 52.3988 86.6094C52.4427 86.4941 52.4576 86.3743 52.4436 86.2519C52.3243 86.2519 52.2049 86.2519 52.0856 86.2519C52.1554 86.0195 52.3045 85.8407 52.5331 85.7156C52.4814 85.5323 52.3621 85.443 52.1751 85.4474C52.1611 85.2177 52.191 84.9943 52.2646 84.7771C52.0686 84.5429 51.9492 84.2748 51.9066 83.9727C51.4563 83.9968 51.0238 83.8922 50.6089 83.6598C50.3037 83.7036 50.0054 83.7626 49.714 83.8386C49.4806 83.5356 49.1972 83.4909 48.8638 83.7045C48.5849 83.919 48.2866 84.113 47.9689 84.2855C47.7516 84.6788 47.4235 84.9022 46.9844 84.9558C46.7289 85.4188 46.3858 85.7915 45.9553 86.0731C45.8157 86.0257 45.6815 85.9658 45.5525 85.8943C45.389 86.0731 45.2398 86.267 45.1051 86.4753C44.9595 86.4574 44.8104 86.4574 44.6576 86.4753C44.5565 86.9186 44.288 87.202 43.8521 87.3244C43.7646 87.2815 43.6901 87.2225 43.6284 87.1457C43.0699 87.4058 42.6224 87.7928 42.286 88.3076C42.2428 88.3925 42.2279 88.4819 42.2412 88.5757C42.0941 88.557 41.9599 88.5865 41.8385 88.6651C41.7073 88.5024 41.5433 88.4578 41.3463 88.531C41.1183 88.7491 40.8498 88.8984 40.5409 88.9779C40.3994 89.1415 40.28 89.3203 40.1829 89.5142C39.8885 89.5929 39.5902 89.6528 39.2879 89.693C39.1984 89.8423 39.1089 89.9906 39.0195 90.1399C38.838 90.0952 38.6591 90.1104 38.4825 90.1846C38.4303 90.3186 38.3558 90.4375 38.2588 90.5421C38.1374 90.4634 38.0032 90.4339 37.856 90.4527C37.8268 90.7218 37.7074 90.9452 37.4981 91.1231C37.2564 91.1454 37.0177 91.1454 36.7821 91.1231C36.5207 91.7246 36.0732 91.9927 35.4397 91.9275C35.3907 92.0097 35.3311 92.0848 35.2607 92.1509C35.1177 92.0634 34.9685 92.0482 34.8132 92.1063C34.5693 92.3118 34.3008 92.4754 34.0078 92.5978C33.9426 92.7489 33.8531 92.883 33.7393 93.0001C33.6054 93.0456 33.501 93.001 33.4261 92.866C33.2471 93.0447 33.0681 93.2235 32.8891 93.4023C32.6467 93.2941 32.4976 93.3835 32.4416 93.6704C32.3203 93.5918 32.186 93.5623 32.0389 93.581C32.0389 93.7303 32.0389 93.8787 32.0389 94.0279C31.7216 94.0968 31.4083 94.0968 31.0992 94.0279C30.9199 94.3408 30.6662 94.5794 30.3385 94.743C30.2322 94.6232 30.098 94.5633 29.9358 94.5642C29.7237 94.7162 29.5298 94.8949 29.3541 95.1005C28.98 94.8833 28.7265 95.0031 28.5934 95.458C28.4865 95.3749 28.3672 95.315 28.2354 95.2792C28.0596 95.3999 27.8657 95.475 27.6537 95.5027C27.5576 95.7851 27.3786 95.9934 27.1167 96.1284C26.8924 96.1364 26.6984 96.2115 26.535 96.3518C26.4061 96.2839 26.2718 96.224 26.1323 96.1731C25.9871 96.6334 25.6889 96.7969 25.2374 96.6646C25.1777 96.7835 25.1181 96.9033 25.0584 97.0222C24.8167 97.0445 24.578 97.0445 24.3424 97.0222C24.2878 97.1965 24.2133 97.36 24.1187 97.5138C24.0685 97.4673 24.0088 97.4369 23.9397 97.4244C23.4466 97.5879 22.9544 97.7667 22.463 97.9607C22.1951 97.7059 22.0161 97.7658 21.9261 98.1394C21.6332 97.9026 21.4245 97.9767 21.2996 98.3629C20.666 98.5693 20.0545 98.8223 19.465 99.1226C19.2815 99.0073 19.0876 98.9626 18.8833 98.9885C18.8113 99.1467 18.7069 99.2808 18.57 99.3907C18.3355 99.0216 18.1565 99.0511 18.0331 99.4801C17.9829 99.4336 17.9232 99.4032 17.8541 99.3907C17.6951 99.5731 17.5011 99.7071 17.2724 99.7929C17.0326 99.7786 16.7939 99.734 16.5564 99.6589C16.5809 99.8332 16.5212 99.9672 16.3774 100.061C15.7354 100.268 15.0791 100.357 14.4086 100.329C14.3489 100.419 14.2893 100.508 14.2296 100.597C14.0303 100.608 13.8662 100.682 13.7374 100.821C13.5579 100.615 13.364 100.615 13.1556 100.821C13.0619 100.742 12.9574 100.682 12.8424 100.642C12.7237 100.758 12.6044 100.877 12.4844 101C12.4474 100.958 12.4026 100.929 12.3502 100.91C12.0984 101.142 11.8448 101.142 11.5895 100.91C11.4766 100.933 11.3871 100.993 11.321 101.089C11.1443 100.855 10.9803 100.87 10.8288 101.134C10.585 101.158 10.3463 101.202 10.1128 101.268C10.0233 101.208 9.93385 101.149 9.84436 101.089C9.75057 101.168 9.64613 101.227 9.53113 101.268C9.31097 101.169 9.08724 101.08 8.85992 101C8.65462 101.108 8.44583 101.197 8.23346 101.268C8.22174 100.897 8.0875 100.837 7.83074 101.089C7.7357 100.964 7.6164 100.874 7.47276 100.821C7.32358 100.91 7.17448 101 7.02529 101.089C6.66866 100.899 6.29574 100.75 5.90661 100.642C5.83833 100.175 5.56985 99.9967 5.10117 100.106C4.97337 99.7974 4.89882 99.4703 4.87743 99.1226C4.66837 99.052 4.62363 98.9322 4.74319 98.7651C4.54818 98.606 4.54818 98.4272 4.74319 98.2288C4.47865 97.5701 4.53825 96.9149 4.92218 96.2624C4.90124 95.9308 4.90124 95.6037 4.92218 95.2792C5.0515 95.0183 5.21563 94.7805 5.4144 94.5642C5.56886 93.8563 5.7628 93.1708 5.99611 92.5085C6.0856 92.5085 6.1751 92.5085 6.26459 92.5085C6.43553 91.9847 6.67421 91.4788 6.98054 90.989C6.8813 90.8585 6.92604 90.7691 7.11479 90.7209C7.16786 90.3785 7.3617 90.1998 7.6965 90.1846C7.6147 89.8074 7.734 89.4803 8.05447 89.2014C8.13761 89.095 8.16742 88.9762 8.14397 88.8439C8.23346 88.8439 8.32296 88.8439 8.41245 88.8439C8.50195 88.6052 8.59144 88.3675 8.68093 88.1288C9.07542 88.1682 9.22461 87.9894 9.1284 87.5926C9.24672 87.6077 9.35116 87.5783 9.44163 87.5032C9.56791 86.9892 9.86628 86.6013 10.3366 86.3412C10.3664 86.2224 10.3963 86.1026 10.4261 85.9837C10.526 85.9685 10.6305 85.939 10.7393 85.8943C10.7511 85.5484 10.9152 85.3107 11.2315 85.1793C11.3086 84.7896 11.5323 84.5215 11.9027 84.3749C11.9624 84.2256 12.022 84.0772 12.0817 83.928C12.2773 83.8636 12.4713 83.8037 12.6634 83.7492C12.5865 83.2129 12.8103 82.9752 13.3346 83.0342C13.3826 82.8134 13.4273 82.6051 13.4689 82.4085C13.6777 82.2297 13.8865 82.051 14.0953 81.8722C14.4196 81.3905 14.7775 80.9436 15.1693 80.5315C15.4733 80.3715 15.7865 80.2527 16.1089 80.174C16.2156 79.9005 16.3499 79.6324 16.5117 79.3696C16.6724 79.4831 16.8364 79.4831 17.0039 79.3696C17.1347 78.8682 17.433 78.5106 17.8988 78.297C17.9781 78.2237 18.0079 78.1344 17.9883 78.0289C18.3094 77.8367 18.6674 77.7026 19.0623 77.6267C19.1689 77.456 19.2584 77.2772 19.3307 77.0904C19.7558 77.2182 19.9646 77.0537 19.9572 76.5988C20.0801 76.6131 20.1995 76.5979 20.3152 76.5541C20.4683 76.3226 20.6324 76.0992 20.8074 75.8838C21.1072 76.126 21.2564 76.0366 21.2549 75.6156C21.5877 75.3832 21.8711 75.1008 22.1051 74.7665C22.3428 74.7513 22.5815 74.7656 22.821 74.8112C22.821 74.7218 22.821 74.6324 22.821 74.5431C23.0592 74.3125 23.3574 74.1632 23.716 74.0962C23.7884 73.9558 23.8182 73.8066 23.8054 73.6493C24.0835 73.6627 24.352 73.618 24.6109 73.5152C24.9594 73.1309 25.3174 72.7581 25.6848 72.3979C25.8056 72.5275 25.9547 72.5874 26.1323 72.5767C26.1323 72.4873 26.1323 72.3979 26.1323 72.3086C26.2218 72.3086 26.3113 72.3086 26.4008 72.3086C26.4284 71.775 26.6969 71.5658 27.2062 71.6829C27.3587 71.4729 27.5675 71.3835 27.8327 71.4148C27.7887 71.076 27.8632 71.0161 28.0564 71.236C28.1444 71.0617 28.2488 70.8981 28.3696 70.7444C28.5152 70.7623 28.6644 70.7623 28.8171 70.7444C28.9364 70.5656 29.0558 70.3869 29.1751 70.2081C29.4986 70.0544 29.7969 69.8604 30.07 69.6272C30.403 69.7916 30.6118 69.7022 30.6965 69.359C30.984 69.309 31.2525 69.2044 31.5019 69.0462C31.6624 68.7959 31.8563 68.5725 32.0837 68.3758C32.1868 68.5546 32.3211 68.5841 32.4864 68.4652C32.6385 68.3249 32.7579 68.1613 32.8444 67.9736C33.0545 67.9423 33.2185 67.8384 33.3366 67.6608C33.5441 67.8785 33.7678 67.8932 34.0078 67.7055C34.3886 67.2773 34.8062 66.8899 35.2607 66.5435C35.9705 66.5899 36.4179 66.2622 36.6031 65.5604C36.8098 65.5159 37.0186 65.5011 37.2296 65.5157C37.3443 65.1084 37.5531 64.7508 37.856 64.4431C37.9696 64.2469 37.9696 64.0533 37.856 63.8621C37.9512 63.756 38.0705 63.7113 38.214 63.7281C38.1347 63.5295 38.1347 63.3359 38.214 63.1471C38.1388 63.0424 38.0643 62.9381 37.9903 62.8343C37.9772 62.3878 37.9026 61.9557 37.7665 61.5383C37.5006 61.3469 37.2321 61.1681 36.9611 61.002C36.6648 61.0212 36.3665 61.0212 36.0661 61.002C35.9133 60.8194 35.7343 60.6704 35.5292 60.5551C35.0069 60.4195 34.619 60.1216 34.3658 59.6613C34.2215 59.5969 34.0873 59.6118 33.963 59.706C33.6738 59.5251 33.3606 59.3911 33.0233 59.3038C32.8097 59.0481 32.6606 58.7651 32.5759 58.4546C32.1716 58.3993 31.8435 58.2056 31.5914 57.8737C31.3749 57.8123 31.1809 57.857 31.0097 58.0077C30.9853 57.8443 30.9107 57.7102 30.786 57.6055C30.8609 57.5152 30.8907 57.4109 30.8755 57.2927C30.7572 57.2775 30.6527 57.3073 30.5623 57.3821C30.3421 57.2699 30.2377 57.0911 30.249 56.8458C30.121 56.8387 30.0017 56.8685 29.891 56.9352C29.7275 56.8194 29.5485 56.7301 29.3541 56.667C29.0773 56.2806 28.779 55.923 28.4591 55.5945C28.3128 55.4889 28.1636 55.4889 28.0117 55.5945C27.8155 55.473 27.6663 55.3092 27.5642 55.1029C27.4794 55.0597 27.3899 55.0449 27.2957 55.0582C27.33 54.7935 27.2405 54.7041 27.0272 54.7901C26.9619 54.6255 26.9022 54.4616 26.8482 54.2985C26.6587 54.2752 26.5096 54.1858 26.4008 54.0303C26.2565 53.966 26.1223 53.9808 25.9981 54.075C25.9704 53.9619 25.9257 53.8576 25.8638 53.7622C25.6866 53.5688 25.4778 53.4347 25.2374 53.36C25.2374 53.211 25.2374 53.0621 25.2374 52.9131C25.0559 52.9276 24.877 52.9126 24.7004 52.8684C24.5614 52.6311 24.457 52.3779 24.3872 52.1087C24.2679 51.9895 24.1485 51.9895 24.0292 52.1087C23.9848 51.7771 23.8207 51.6579 23.537 51.7511C23.0027 51.634 22.7939 51.3063 22.9105 50.768C22.7315 50.768 22.5525 50.768 22.3735 50.768C22.291 50.5332 22.2015 50.2949 22.1051 50.0529C21.7132 49.8573 21.3254 49.6636 20.9416 49.4719C21.0013 49.4123 21.0609 49.3528 21.1206 49.2932C20.8214 49.1239 20.702 48.8707 20.7626 48.5334C20.3306 48.5932 20.0471 48.4144 19.9125 47.9972C19.3634 47.6758 19.0352 47.1992 18.928 46.5671C18.6007 46.3295 18.3024 46.0614 18.0331 45.7627C17.9276 45.4417 17.7635 45.1586 17.5409 44.9136C17.5876 44.8634 17.6174 44.8038 17.6303 44.7348C17.483 44.5751 17.3189 44.4708 17.1381 44.422C17.0943 44.3064 17.0793 44.1872 17.0934 44.0644C16.9882 44.084 16.8987 44.0543 16.8249 43.9751C16.6805 43.5173 16.412 43.1449 16.0195 42.8578C16.1105 42.7641 16.1254 42.6597 16.0642 42.545C15.661 42.1867 15.4224 41.7398 15.3482 41.2043C15.2528 41.1425 15.1483 41.0978 15.035 41.0702C15.0759 41.0332 15.1058 40.9885 15.1245 40.9361C14.9372 40.7748 14.8328 40.5663 14.8113 40.3105C14.544 40.2411 14.4694 40.0921 14.5875 39.8636C14.4456 39.714 14.3859 39.5353 14.4086 39.3273C14.138 39.3626 14.0485 39.2732 14.1401 39.0592C14.0031 38.9597 13.9136 38.8256 13.8716 38.6569C13.8013 38.497 13.8013 38.348 13.8716 38.21C13.5971 37.7761 13.3734 37.3143 13.2004 36.8247C13.3063 36.5062 13.2169 36.2381 12.9319 36.0202C12.7586 35.5222 12.5646 35.0306 12.3502 34.5455C12.4836 34.3647 12.4538 34.2158 12.2607 34.0986C12.3107 34.0338 12.3405 33.9593 12.3502 33.8751C12.2373 33.5563 12.1627 33.2285 12.1265 32.8919C12.022 32.7876 11.9177 32.6834 11.8132 32.5791C11.9723 32.3805 11.9873 32.1869 11.858 31.9981C11.7918 31.4924 11.7321 30.9859 11.679 30.4787C11.6161 30.2749 11.5117 30.0961 11.3658 29.9424C11.4944 29.8064 11.5541 29.6425 11.5447 29.4508C11.437 29.1221 11.437 28.7943 11.5447 28.4676C11.3755 28.1113 11.3755 27.7388 11.5447 27.3504C11.4978 27.2885 11.4381 27.2438 11.3658 27.2163C11.4618 27.1046 11.4618 26.9853 11.3658 26.8588C11.4458 26.734 11.5055 26.5999 11.5447 26.4566C11.4851 26.3076 11.4255 26.1587 11.3658 26.0097C11.479 25.4933 11.6282 24.9868 11.8132 24.4902C11.8165 24.2087 11.7867 23.9258 11.7237 23.6411C11.8057 23.6077 11.8803 23.563 11.9475 23.507C12.177 22.9286 12.356 22.3327 12.4844 21.7194C12.7692 21.4692 12.9781 21.1713 13.1109 20.8256C13.2168 20.9356 13.3211 20.9356 13.4241 20.8256C13.6213 20.6652 13.7256 20.4566 13.7374 20.2C13.8016 20.285 13.8762 20.2998 13.9611 20.2446C14.0837 20.1158 14.1732 19.9669 14.2296 19.7977C14.3548 19.7446 14.4741 19.7595 14.5875 19.8424C14.7211 19.6944 14.8702 19.5604 15.035 19.4402C15.2164 19.3957 15.3954 19.4106 15.572 19.4849C15.752 19.365 15.9459 19.2756 16.1537 19.2168C16.7817 19.4715 17.4231 19.6652 18.0778 19.7977C18.3555 19.9122 18.5941 20.0761 18.7938 20.2893C18.8535 20.2596 18.9131 20.2297 18.9728 20.2C19.1267 20.7311 19.4399 20.8502 19.9125 20.5575C20.1585 20.774 20.427 20.9528 20.7179 21.0938C20.8819 21.3619 21.0461 21.63 21.2101 21.8982C21.4497 21.9495 21.6883 22.0091 21.9261 22.0769C21.9985 22.2174 22.0284 22.3664 22.0156 22.5238C22.4322 22.3723 22.6708 22.5212 22.7315 22.9707C22.821 22.9707 22.9105 22.9707 23 22.9707C22.9804 23.0758 23.0102 23.1651 23.0895 23.2389C23.6885 23.33 24.1061 23.6578 24.3424 24.2221C24.9337 24.3505 25.3513 24.6932 25.5953 25.2499C25.6802 25.2931 25.7697 25.3079 25.8638 25.2946C25.8367 25.5706 25.956 25.7195 26.2218 25.7415C26.22 25.8884 26.2797 26.0075 26.4008 26.099C26.5741 26.1579 26.7382 26.1876 26.893 26.1884C27.1353 26.4295 27.2994 26.7125 27.3852 27.0375C27.5996 27.0984 27.8083 27.1729 28.0117 27.261C28.0899 27.4618 28.1198 27.6703 28.1012 27.8866C28.3213 27.9044 28.5301 27.964 28.7276 28.0654C28.8898 28.5852 29.2329 28.9129 29.7568 29.0486C29.801 29.1946 29.8159 29.3436 29.8016 29.4955C30.2687 29.4432 30.5372 29.6517 30.607 30.1211C30.9352 30.1509 31.1142 30.3297 31.144 30.6574C31.4464 30.7112 31.6104 30.89 31.6362 31.1937C31.9109 31.2649 32.0601 31.4436 32.0837 31.73C32.2459 31.7521 32.41 31.7818 32.5759 31.8194C32.6486 31.9368 32.7381 32.0411 32.8444 32.1322C32.736 32.2317 32.736 32.336 32.8444 32.445C32.9586 32.5474 33.0778 32.5474 33.2023 32.445C33.2816 32.5188 33.3114 32.6081 33.2918 32.7132C33.4101 32.698 33.5146 32.7277 33.6051 32.8026C33.8232 33.0596 33.9425 33.3576 33.963 33.6964C34.1846 33.7203 34.4084 33.7502 34.6342 33.7857C34.701 33.8962 34.7308 34.0154 34.7237 34.1433C34.9226 34.1145 35.0867 34.1741 35.216 34.322C35.3931 34.7203 35.6467 35.063 35.9767 35.3499C35.8683 35.4494 35.8683 35.5537 35.9767 35.6627C36.1556 35.6925 36.3346 35.7223 36.5136 35.7521C36.5612 36.0529 36.7254 36.2614 37.0058 36.3778C37.1258 36.6032 37.2004 36.8415 37.2296 37.0928C37.6467 37.0331 37.8257 37.2119 37.7665 37.6291C38.0526 37.6647 38.321 37.7541 38.572 37.8972C38.6911 38.1903 38.8551 38.4882 39.0642 38.791C39.1313 38.847 39.206 38.8917 39.2879 38.9251C39.2248 39.0643 39.2844 39.1685 39.4669 39.2379C39.5194 39.2192 39.5641 39.1894 39.6012 39.1485C40.0358 39.5233 40.4087 39.9553 40.7198 40.4446C40.8356 40.4883 40.9549 40.5033 41.0778 40.4892C41.1904 40.7747 41.25 41.0726 41.2568 41.383C41.61 41.382 41.7591 41.5607 41.7043 41.9193C41.8366 41.8959 41.9558 41.9257 42.0623 42.0087C42.1144 42.143 42.189 42.2621 42.286 42.3662C42.3158 42.3365 42.3457 42.3066 42.3755 42.2768C42.4726 42.3477 42.577 42.4073 42.6887 42.4556C42.8625 42.7153 43.0564 42.9536 43.2704 43.1706C43.4262 43.4217 43.5307 43.6899 43.5837 43.9751C43.6732 43.9751 43.7626 43.9751 43.8521 43.9751C43.7856 44.2834 43.9049 44.4323 44.2101 44.422C44.1206 44.8689 44.2996 45.0476 44.7471 44.9582C44.7337 45.0523 44.7486 45.1417 44.7918 45.2264C45.216 45.451 45.4248 45.8085 45.4183 46.2989C45.6405 46.4462 45.8045 46.6399 45.9105 46.8799C46.0538 46.9043 46.188 46.949 46.3132 47.014C46.5847 47.2837 46.7785 47.5966 46.8949 47.9525C47.0236 47.9721 47.1429 48.0167 47.2529 48.0865C47.3701 48.5452 47.6237 48.9027 48.0136 49.1591C48.1329 49.5166 48.3716 49.755 48.7296 49.8741C48.845 50.079 48.9942 50.2578 49.177 50.4104C49.2203 50.4952 49.2351 50.5845 49.2218 50.6786C49.5642 50.6604 49.9072 50.6604 50.251 50.6786C50.43 50.619 50.6089 50.5594 50.7879 50.4998C50.9534 50.5946 51.1324 50.6542 51.3249 50.6786C51.562 50.5622 51.8007 50.443 52.0409 50.321C52.1209 49.9378 52.285 49.5951 52.5331 49.2932C52.4968 49.2087 52.4371 49.1491 52.3541 49.1144C52.464 49.0448 52.5535 48.9554 52.6226 48.8463C52.5738 48.5614 52.5142 48.2784 52.4436 47.9972C52.2111 47.5239 51.9873 47.0472 51.7724 46.5671C51.7281 46.3907 51.7131 46.212 51.7276 46.0308C51.5784 46.0308 51.4293 46.0308 51.2802 46.0308C51.2897 45.816 51.2002 45.6522 51.0117 45.5392C51.0688 45.3866 51.0688 45.2228 51.0117 45.0476C50.9222 45.0476 50.8327 45.0476 50.7432 45.0476C50.7572 44.9249 50.7423 44.8057 50.6984 44.6901C50.4694 44.5408 50.3203 44.3323 50.251 44.0644C50.1788 43.5993 50.0595 43.1524 49.893 42.7237C49.8025 42.6489 49.6981 42.6192 49.5798 42.6344C49.5727 42.5065 49.6025 42.3873 49.6693 42.2768C49.5798 42.1577 49.4903 42.0385 49.4008 41.9193C49.4306 41.8597 49.4605 41.8002 49.4903 41.7406C49.2494 41.4979 49.1151 41.2 49.0875 40.8468C48.9971 40.7719 48.8926 40.7422 48.7743 40.7574C48.7079 40.3854 48.5885 40.0279 48.4163 39.6848C48.5751 39.3854 48.4856 39.2365 48.1479 39.2379C48.0889 38.9738 48.0591 38.7057 48.0584 38.4335C47.8983 38.459 47.7492 38.4292 47.6109 38.3441C47.6495 38.2732 47.6794 38.1987 47.7004 38.1207C47.5806 37.9415 47.4315 37.7925 47.2529 37.6738C47.4226 37.5122 47.4673 37.3185 47.3872 37.0928C47.1782 36.525 46.9097 35.9887 46.5817 35.484C46.5439 35.1092 46.4992 34.7219 46.4475 34.322C46.358 34.322 46.2685 34.322 46.179 34.322C46.1819 34.0238 46.1222 33.7408 46 33.4729C46.05 33.4081 46.0798 33.3336 46.0895 33.2495C45.8566 32.9629 45.7224 32.6352 45.6868 32.2663C45.6122 32.1918 45.5376 32.1173 45.463 32.0428C45.554 31.9491 45.569 31.8448 45.5078 31.73C45.2626 31.5982 45.1879 31.4194 45.284 31.1937C45.1238 30.7916 45.0193 30.3745 44.9708 29.9424C44.8963 29.8679 44.8216 29.7934 44.7471 29.7189C44.7351 29.5808 44.765 29.4318 44.8366 29.272C44.6893 29.1331 44.6595 28.9841 44.7471 28.8251C44.7108 28.7407 44.6511 28.6811 44.5681 28.6464C44.6148 28.5962 44.6446 28.5366 44.6576 28.4676C44.583 28.2442 44.5084 28.0207 44.4339 27.7973C44.3667 27.7413 44.2921 27.6966 44.2101 27.6632C44.4173 27.4419 44.3875 27.2334 44.1206 27.0375C44.1673 26.9874 44.1971 26.9278 44.2101 26.8588C44.1488 26.609 44.1041 26.3557 44.0759 26.099C43.9381 26.0056 43.9233 25.8864 44.0311 25.7415C43.9848 25.4977 43.8953 25.2742 43.7626 25.0712C43.7949 24.9235 43.8247 24.7746 43.8521 24.6243C43.6415 24.5011 43.6415 24.367 43.8521 24.2221C43.7091 23.3653 43.5898 22.5013 43.4942 21.63C43.5398 21.3702 43.5995 21.1169 43.6732 20.8703C43.5001 20.6582 43.4703 20.4348 43.5837 20.2C43.5752 20.0043 43.5156 19.8255 43.4047 19.6637C43.733 19.5066 43.733 19.3279 43.4047 19.1274C43.6134 18.8986 43.6432 18.6453 43.4942 18.3677C43.7261 18.1127 43.7261 17.8594 43.4942 17.6079C43.5856 17.5316 43.6602 17.4422 43.7179 17.3398C43.8426 16.5209 43.9022 15.7165 43.8969 14.9265C43.8521 14.8818 43.8074 14.8371 43.7626 14.7925C44.1359 14.6629 44.2553 14.4245 44.1206 14.0774C44.2605 13.7195 44.3798 13.347 44.4786 12.9602C44.44 12.8893 44.4101 12.8147 44.3891 12.7367C44.4986 12.583 44.588 12.4191 44.6576 12.2451C44.496 12.0342 44.5408 11.8852 44.7918 11.7982C44.853 11.6835 44.8381 11.5792 44.7471 11.4854C45.0131 11.3834 45.1622 11.1897 45.1946 10.9044C45.2198 10.6581 45.2198 10.4049 45.1946 10.1447C45.3378 10.1203 45.4721 10.0756 45.5973 10.0106C45.6271 9.83186 45.657 9.6531 45.6868 9.47434C45.8979 9.03781 46.1216 8.60575 46.358 8.17833C46.2809 7.97088 46.3704 7.86666 46.6265 7.8655C46.6265 7.77612 46.6265 7.68674 46.6265 7.59736C46.7448 7.61255 46.8492 7.58279 46.9397 7.50798C47.1212 7.23421 47.2703 6.93631 47.3872 6.61418C47.7778 6.51398 48.0015 6.26077 48.0584 5.85445C48.2046 5.81029 48.3538 5.79546 48.5058 5.80976C48.4989 5.54081 48.6182 5.34713 48.8638 5.22879C49.2473 5.37367 49.4263 5.2396 49.4008 4.82658C49.5956 4.83426 49.7746 4.89388 49.9377 5.00534C50.0776 4.87618 50.1969 4.72728 50.2957 4.55844C50.4295 4.61314 50.5787 4.61314 50.7432 4.55844C51.0022 4.66069 51.2707 4.75007 51.5486 4.82658C51.6482 5.21967 51.8421 5.30905 52.1303 5.09472C52.4947 5.29502 52.7482 5.59292 52.891 5.98852C53.0258 6.09998 53.1601 6.09998 53.2938 5.98852C53.4385 6.36606 53.6771 6.66396 54.0097 6.88232C54.2285 7.10559 54.3329 7.37373 54.323 7.68674C54.4413 7.67155 54.5457 7.70131 54.6362 7.77612C54.905 8.01441 55.084 8.31231 55.1732 8.66992C55.2764 8.78102 55.3958 8.8704 55.5311 8.93806C55.5474 9.18171 55.5922 9.42009 55.6654 9.6531C55.8245 9.65927 55.9885 9.68912 56.1576 9.74248C56.2016 9.83624 56.1868 9.92562 56.1128 10.0106C56.2948 10.1851 56.3246 10.3787 56.2023 10.5916C56.6116 10.9773 56.895 11.4391 57.0525 11.977C57.4415 12.2614 57.6353 12.6487 57.6342 13.1389C57.8062 13.2472 57.9703 13.3663 58.1265 13.4964C58.158 13.6012 58.1432 13.7054 58.0817 13.8093C58.1569 13.9139 58.2314 14.0182 58.3054 14.1221C58.4044 14.5068 58.4939 14.8941 58.5739 15.2841C58.6644 15.3589 58.7688 15.3886 58.8872 15.3734C58.8829 15.623 59.0022 15.7868 59.2451 15.865C59.149 15.9311 59.0893 16.0205 59.0661 16.1332C59.2336 16.3331 59.3678 16.5566 59.4689 16.8035C59.7919 17.9487 60.1797 19.0512 60.6323 20.1106C60.7532 20.2463 60.8874 20.3655 61.035 20.4681C60.9753 20.5575 60.9157 20.6469 60.856 20.7362C61.002 21.013 61.181 21.2663 61.393 21.496C61.338 21.597 61.338 21.7161 61.393 21.8535C61.4818 22.0254 61.5862 22.1892 61.7062 22.3451C61.8509 22.8511 61.8957 23.3576 61.8405 23.8645C61.93 23.8645 62.0195 23.8645 62.1089 23.8645C62.0283 24.1989 62.1476 24.3777 62.4669 24.4008C62.5054 24.7567 62.5949 25.0993 62.7354 25.4287C62.7144 25.5067 62.6845 25.5813 62.6459 25.6521C62.7097 25.8556 62.7545 26.0641 62.7802 26.2778C62.8437 26.4095 62.948 26.4691 63.0934 26.4566C63.0786 26.7857 63.0935 27.1133 63.1381 27.4397C63.184 27.6204 63.2885 27.7545 63.4514 27.842C63.357 27.966 63.3422 28.1001 63.4066 28.2442C63.6019 28.7433 63.8405 29.22 64.1226 29.6742C64.2203 30.2227 64.3396 30.759 64.4805 31.2831C64.6574 31.3763 64.7021 31.4955 64.6148 31.6406C64.6575 31.728 64.7171 31.8025 64.7938 31.8641C64.6994 31.9881 64.6846 32.1222 64.749 32.2663C64.9496 32.7721 65.2031 33.2935 65.5097 33.8304C65.467 34.0561 65.467 34.2647 65.5097 34.4561C65.8546 35.3275 66.1827 36.2213 66.4942 37.1375C66.4644 37.1673 66.4345 37.1971 66.4047 37.2269C66.7454 37.5029 66.8648 37.8455 66.7626 38.2547C66.9023 38.6516 67.0222 39.0538 67.1206 39.4614C67.2209 39.7081 67.3551 39.9316 67.5233 40.1317C67.5753 40.2995 67.56 40.4634 67.4786 40.6233C67.5162 40.8098 67.6209 40.9438 67.7918 41.0255C67.8124 41.556 67.9323 42.0625 68.1498 42.545C68.3288 42.6046 68.4478 42.7237 68.5078 42.9025C68.5588 43.141 68.6035 43.3793 68.642 43.6175C68.7745 43.5941 68.8935 43.6239 69 43.7069C69.3141 44.3852 69.8216 44.5938 70.5214 44.3326C70.7416 44.4054 70.9501 44.4948 71.1479 44.6007C71.2418 44.5846 71.3313 44.5549 71.4163 44.5113C71.5237 44.672 71.6723 44.7613 71.8638 44.7795C71.8638 44.6901 71.8638 44.6007 71.8638 44.5113Z" fill="var(--fill-0, #830B0D)"/>
</g>
</svg>
