<svg preserveAspectRatio="none" width="100%" height="100%" overflow="visible" style="display: block;" viewBox="0 0 7.6965 7.68669" fill="none" xmlns="http://www.w3.org/2000/svg">
<g id="Group">
<path id="Vector" fill-rule="evenodd" clip-rule="evenodd" d="M6.62257 1.43008C6.70132 1.41837 6.76039 1.44814 6.80156 1.51946C6.83556 1.85589 7.01455 2.06441 7.33852 2.14512C7.25977 2.21225 7.17027 2.25694 7.07004 2.27919C7.1658 2.42479 7.28482 2.5291 7.42802 2.59202C7.38058 2.65387 7.32152 2.69856 7.24903 2.72609C7.49335 2.83585 7.55331 2.99969 7.42802 3.21768C7.52198 3.20437 7.61148 3.2192 7.6965 3.26237C7.49782 3.43604 7.49782 3.58495 7.6965 3.70927C7.47992 3.84415 7.39043 4.03775 7.42802 4.29024C7.52198 4.27693 7.61148 4.29176 7.6965 4.33493C7.54346 4.4581 7.42354 4.6071 7.33852 4.78184C7.41101 4.80936 7.47008 4.85405 7.51751 4.91591C7.32868 5.17779 7.06019 5.431 6.71206 5.67564C6.7416 5.7054 6.77202 5.73525 6.80156 5.76502C6.45253 5.97953 6.27354 6.29236 6.26459 6.70351C6.02117 6.71942 5.78311 6.76411 5.54864 6.83758C5.42961 6.89719 5.42961 6.95672 5.54864 7.01634C5.46362 7.07149 5.38934 7.05665 5.3249 6.97165C5.17008 7.31067 4.93113 7.48943 4.60895 7.50793C4.52393 7.47173 4.46486 7.41211 4.42996 7.32917C4.3691 7.52482 4.26529 7.55458 4.11673 7.41855C3.93774 7.50793 3.75875 7.59731 3.57977 7.68669C3.43479 7.62823 3.28623 7.58354 3.1323 7.55262C3.23969 7.49416 3.23969 7.44947 3.1323 7.41855C2.97479 7.47468 2.84054 7.56406 2.72957 7.68669C2.68572 7.57112 2.67051 7.45189 2.68482 7.32917C2.49868 7.34687 2.31969 7.36179 2.14786 7.37386C1.86237 6.89541 1.5044 6.4932 1.07393 6.16723C0.99428 6.09349 0.964747 6.00411 0.984436 5.89909C0.865409 5.89909 0.745486 5.89909 0.626459 5.89909C0.611245 5.78093 0.640778 5.67662 0.715953 5.58626C0.611245 5.54881 0.521751 5.48928 0.447471 5.4075C0.362451 5.21014 0.362451 4.98669 0.447471 4.73715C0.221051 4.56786 0.0715953 4.34441 0 4.06679C0.0894942 4.03703 0.178988 4.00718 0.268482 3.97741C0.172724 3.91136 0.112763 3.82198 0.0894942 3.70927C0.137821 3.49476 0.197782 3.28624 0.268482 3.08361C0.185253 3.04893 0.126187 2.98932 0.0894942 2.90485C0.208521 2.69776 0.327549 2.48915 0.447471 2.27919C0.374981 2.25166 0.315914 2.20697 0.268482 2.14512C0.374981 2.06209 0.494008 2.03232 0.626459 2.05574C0.75891 1.79136 0.893152 1.52322 1.02918 1.25132C1.07303 1.10527 1.08825 0.956278 1.07393 0.804421C1.23144 0.79164 1.38089 0.821493 1.5214 0.893801C1.55093 0.774657 1.58136 0.655424 1.61089 0.536281C1.78183 0.612075 1.96082 0.641928 2.14786 0.625661C2.14518 0.536549 2.18992 0.476932 2.2821 0.446901C2.64008 0.576234 2.95331 0.50178 3.22179 0.22345C3.52249 0.117445 3.82051 0.102519 4.11673 0.17876C4.17669 0.119144 4.23576 0.0596165 4.29572 0C4.66444 0.291826 5.08148 0.485513 5.54864 0.580971C5.5191 0.610734 5.48868 0.640587 5.45914 0.670351C5.60323 0.734704 5.73747 0.719867 5.86187 0.625661C6.00685 0.718258 6.02117 0.822565 5.90661 0.938491C6.02564 0.968255 6.14556 0.998108 6.26459 1.02787C6.23506 1.05763 6.20463 1.08749 6.1751 1.11725C6.38809 1.13718 6.53755 1.24149 6.62257 1.43008Z" fill="var(--fill-0, #830B0D)"/>
</g>
</svg>
