<svg preserveAspectRatio="none" width="100%" height="100%" overflow="visible" style="display: block;" viewBox="0 0 5.01167 5.00113" fill="none" xmlns="http://www.w3.org/2000/svg">
<g id="Group">
<path id="Vector" fill-rule="evenodd" clip-rule="evenodd" d="M2.41634 0.00549845C2.68661 -0.00924927 2.9551 0.00567721 3.22179 0.0501885C3.54039 0.281683 3.88315 0.326373 4.25097 0.184259C4.4586 0.275605 4.50335 0.409675 4.38521 0.586469C4.48008 0.692831 4.6 0.737522 4.74319 0.720539C4.77183 1.25146 4.77183 1.77254 4.74319 2.28469C4.89712 2.35441 4.98661 2.47328 5.01167 2.64221C4.8649 2.94968 4.73066 3.26251 4.60895 3.5807C4.51946 3.64059 4.42996 3.69958 4.34047 3.75946C4.14089 4.21173 3.8572 4.59874 3.49027 4.9214C3.40078 4.86152 3.31128 4.80253 3.22179 4.74264C3.14572 4.83381 3.05623 4.90889 2.95331 4.96609C2.24362 5.05816 1.5572 4.96878 0.894942 4.69795C0.745486 4.53439 0.596926 4.36993 0.447471 4.20636C0.486043 4.13575 0.515486 4.06067 0.536965 3.98291C0.355918 3.59143 0.17693 3.20441 0 2.82097C0.104798 1.9665 0.283786 1.16208 0.536965 0.407709C1.17237 0.260321 1.79883 0.126251 2.41634 0.00549845Z" fill="var(--fill-0, #830B0D)"/>
</g>
</svg>
