<svg preserveAspectRatio="none" width="100%" height="100%" overflow="visible" style="display: block;" viewBox="0 0 16.7741 14.4796" fill="none" xmlns="http://www.w3.org/2000/svg">
<g id="Group">
<path id="Vector" fill-rule="evenodd" clip-rule="evenodd" d="M0.217708 0.983181C0.312572 0.765004 0.431599 0.556391 0.575685 0.35752C0.834323 0.290664 1.05806 0.17152 1.24689 0C1.50016 0.175274 1.78386 0.294418 2.09709 0.35752C2.39868 0.243561 2.69759 0.258487 2.99203 0.40221C3.3679 0.866719 3.77063 1.29869 4.2002 1.69822C4.22794 1.88199 4.27269 2.06075 4.33444 2.2345C4.49911 2.29975 4.66288 2.35937 4.82666 2.41326C4.89109 2.63215 4.98059 2.84077 5.09514 3.03892C5.13183 2.99808 5.17658 2.96822 5.22938 2.94954C5.28934 3.06869 5.34841 3.18792 5.40837 3.30706C5.85853 3.35801 6.14222 3.59639 6.25856 4.0221C6.51183 3.9178 6.58701 3.99234 6.4823 4.24556C6.64607 4.26996 6.78032 4.3445 6.88502 4.46901C7.05775 4.67083 7.19199 4.89428 7.28775 5.13936C7.49895 5.15321 7.70747 5.15321 7.91421 5.13936C7.9867 5.4142 8.16568 5.5632 8.45117 5.58626C8.52724 5.82919 8.61674 6.06748 8.71965 6.3013C8.91744 6.39461 9.12685 6.45414 9.34611 6.48006C9.53763 6.74632 9.74705 6.99954 9.97257 7.23979C10.199 7.02358 10.3628 7.08311 10.4648 7.41855C10.5588 7.32765 10.6635 7.31272 10.778 7.37386C10.9087 7.95966 11.2667 8.21296 11.8519 8.13359C12.1947 8.66308 12.6717 9.0206 13.2839 9.20615C13.4951 9.53793 13.7779 9.62731 14.134 9.47429C14.2916 9.57529 14.4553 9.66467 14.6263 9.74243C14.6737 9.93138 14.7632 10.0953 14.8948 10.234C15.2527 10.4425 15.6107 10.6512 15.9687 10.8597C16.2327 11.2477 16.4707 11.6499 16.6846 12.0663C16.5352 12.246 16.4752 12.4545 16.5056 12.692C16.6112 12.6724 16.7007 12.7022 16.7741 12.7814C16.6551 12.9005 16.5352 13.0197 16.4162 13.1389C16.4591 13.2263 16.5182 13.3007 16.5951 13.3623C16.4135 13.6621 16.2345 13.96 16.0582 14.2561C15.7217 14.414 15.378 14.4289 15.029 14.3008C14.8419 14.3347 14.663 14.3943 14.492 14.4796C14.2388 14.331 13.9703 14.2119 13.6866 14.1221C13.547 14.1313 13.4127 14.1611 13.2839 14.2114C12.8185 13.9841 12.3406 13.7756 11.8519 13.5858C11.7669 13.6293 11.6774 13.6591 11.5835 13.6752C11.3794 13.5757 11.17 13.4863 10.957 13.407C10.8093 13.1112 10.6008 12.8728 10.3305 12.692C10.131 12.6425 9.92246 12.6425 9.70409 12.692C9.72736 12.4871 9.69693 12.2934 9.6146 12.111C9.32911 12.1109 9.07584 12.0365 8.8539 11.8876C8.73218 11.9662 8.59794 11.9961 8.45117 11.9769C8.44849 11.6365 8.2695 11.4726 7.91421 11.4853C7.74596 10.9595 7.38798 10.7211 6.84028 10.7703C6.60133 10.4128 6.36327 10.0553 6.12432 9.69774C5.76277 9.42755 5.37436 9.18917 4.9609 8.9827C4.82845 8.80546 4.67899 8.64163 4.51343 8.49111C4.30849 8.40888 4.09996 8.40888 3.88697 8.49111C3.86996 8.30663 3.82522 8.12787 3.75273 7.95483C3.66323 7.92507 3.57374 7.89521 3.48424 7.86545C3.09495 6.97058 2.4837 6.27037 1.64961 5.76502C1.52611 5.59296 1.39187 5.42904 1.24689 5.27343C1.0688 4.90062 0.919342 4.51334 0.79942 4.11148C0.72514 4.33494 0.620432 4.34986 0.486191 4.15618C0.515724 4.12641 0.546152 4.09656 0.575685 4.06679C0.0109766 3.27364 -0.138479 2.4096 0.128214 1.47477C0.0530389 1.29637 0.082572 1.13254 0.217708 0.983181Z" fill="var(--fill-0, #830B0D)"/>
</g>
</svg>
