<svg preserveAspectRatio="none" width="100%" height="100%" overflow="visible" style="display: block;" viewBox="0 0 6.53307 6.06228" fill="none" xmlns="http://www.w3.org/2000/svg">
<g id="Group">
<path id="Vector" fill-rule="evenodd" clip-rule="evenodd" d="M4.20623 0C4.45323 0.13407 4.7065 0.283335 4.96693 0.446901C5.13159 0.194849 5.26584 0.209149 5.36965 0.491591C5.15665 0.578289 5.18708 0.638174 5.45914 0.670351C5.67035 1.08061 5.9084 1.40774 6.1751 1.65353C6.12945 1.8171 6.05517 1.8314 5.95136 1.69822C5.8914 1.75811 5.8914 1.8171 5.95136 1.87698C6.09903 1.98603 6.2628 2.06021 6.44358 2.10043C6.30934 2.21216 6.15988 2.30154 5.99611 2.36857C6.1214 2.42131 6.24043 2.40701 6.35408 2.32388C6.38362 2.35338 6.41405 2.38377 6.44358 2.41326C6.2091 2.58934 6.23864 2.72341 6.53307 2.81547C6.2458 3.04965 6.21626 3.30259 6.44358 3.5752C6.24848 3.78614 6.09903 4.02479 5.99611 4.29024C6.11245 4.41091 6.09724 4.52978 5.95136 4.64777C5.88961 4.43415 5.80012 4.43415 5.68288 4.64777C5.64798 4.92752 5.5728 5.19567 5.45914 5.45219C5.2721 5.50224 5.0779 5.53173 4.87743 5.54157C4.83268 5.57106 4.78794 5.60145 4.74319 5.63095C4.80315 5.66044 4.86222 5.69083 4.92218 5.72033C4.90338 5.77306 4.87385 5.81775 4.83268 5.8544C4.66533 5.8544 4.50156 5.80971 4.34047 5.72033C4.25545 5.7668 4.18117 5.82669 4.11673 5.89909C3.90016 5.87674 3.69074 5.87674 3.49027 5.89909C3.32292 6.14309 3.23342 6.1136 3.22179 5.80971C3.00342 5.77574 2.94346 5.83563 3.0428 5.98847C2.84233 6.06712 2.64903 6.03763 2.46109 5.89909C2.15233 6.04835 1.9286 5.95897 1.78988 5.63095C1.70039 5.60145 1.61089 5.57106 1.5214 5.54157C1.35673 5.59609 1.20817 5.59609 1.07393 5.54157C1.12136 5.47989 1.18043 5.4352 1.25292 5.4075C1.02023 5.32437 0.885992 5.15991 0.850194 4.91591C0.820661 4.9454 0.790233 4.97579 0.7607 5.00529C0.715953 4.72195 0.552179 4.55839 0.268482 4.5137C0.561128 4.4413 0.605875 4.27684 0.402724 4.0221C0.255058 3.91932 0.120817 3.80044 0 3.66458C0.0528015 3.54839 0.142296 3.4742 0.268482 3.44113C0.0196887 3.28204 0.0501167 3.19266 0.357977 3.17299C0.247004 3.07021 0.15751 2.95044 0.0894942 2.81547C0.204047 2.62509 0.204047 2.43114 0.0894942 2.2345C0.173619 2.03876 0.323074 1.91988 0.536965 1.87698C0.585292 1.63834 0.704319 1.44528 0.894942 1.29601C0.792918 1.22987 0.792918 1.15568 0.894942 1.07256C1.19564 1.04932 1.40506 0.870562 1.5214 0.536281C1.58136 0.565776 1.64043 0.596165 1.70039 0.625661C1.83553 0.364671 2.02973 0.30568 2.2821 0.446901C2.63829 0.182335 3.0258 0.123345 3.44552 0.26814C3.68626 0.139433 3.93953 0.0500529 4.20623 0Z" fill="var(--fill-0, #830B0D)"/>
</g>
</svg>
