<svg preserveAspectRatio="none" width="100%" height="100%" overflow="visible" style="display: block;" viewBox="0 0 7.51597 7.95483" fill="none" xmlns="http://www.w3.org/2000/svg">
<g id="Group">
<path id="Vector" fill-rule="evenodd" clip-rule="evenodd" d="M4.38521 0.17876C4.59749 0.0314618 4.71688 0.0910783 4.74319 0.35752C5.02214 0.514829 5.32043 0.634062 5.63813 0.715041C5.97803 1.19573 6.33601 1.65755 6.71206 2.10043C6.68924 2.21895 6.62955 2.30833 6.53307 2.36857C6.66177 2.50881 6.79601 2.64288 6.9358 2.77078C6.99701 2.88555 6.98207 2.98985 6.89105 3.08361C7.11872 3.22331 7.11872 3.35738 6.89105 3.48582C7.17018 3.59254 7.19998 3.72661 6.98055 3.88803C7.09438 4.00485 7.18388 4.13892 7.24903 4.29025C7.5721 4.16985 7.6019 4.22947 7.33852 4.46901C7.36832 4.52862 7.39821 4.58815 7.42802 4.64777C7.29333 4.76771 7.23363 4.91662 7.24903 5.09467C7.58338 5.10897 7.58338 5.18342 7.24903 5.31812C7.27883 5.34788 7.30872 5.37773 7.33852 5.4075C7.17251 5.71952 6.99352 6.01743 6.80156 6.3013C6.90644 6.33875 6.99594 6.39828 7.07004 6.48006C6.87244 6.49713 6.69345 6.54182 6.53307 6.61413C6.6291 6.68125 6.64405 6.77063 6.57782 6.88227C6.51356 6.79727 6.43902 6.78243 6.35409 6.83758C6.24463 7.02099 6.15514 7.21467 6.0856 7.41855C5.89104 7.59195 5.68225 7.6218 5.45914 7.50793C5.12488 7.52286 4.84146 7.642 4.60895 7.86545C4.38826 7.81093 4.16452 7.84078 3.93774 7.95483C3.70801 7.92998 3.46942 7.91514 3.22179 7.91014C3.11305 7.7228 3.03842 7.73773 2.99805 7.95483C2.80188 7.87448 2.60804 7.7851 2.41634 7.68669C2.21963 7.93186 2.04065 7.91702 1.87938 7.642C1.90918 7.61224 1.93907 7.58238 1.96887 7.55262C1.63434 7.35625 1.33606 7.11787 1.07393 6.83758C1.10373 6.80781 1.13362 6.77796 1.16342 6.7482C1.02525 6.72228 0.905949 6.66275 0.805448 6.56944C0.835249 6.48006 0.86514 6.39068 0.894942 6.3013C0.827553 6.16839 0.753004 6.15346 0.671206 6.25661C0.551911 6.01823 0.432525 5.77994 0.31323 5.54157C0.278058 5.38971 0.322805 5.25564 0.447471 5.13936C0.407735 4.98187 0.362988 4.99679 0.31323 5.18405C0.0915525 4.92904 0.0468055 4.6609 0.178988 4.37963C0.100054 4.02943 0.0403619 3.70168 0 3.39644C0.217471 3.11588 0.321911 2.78821 0.31323 2.41326C0.398876 2.18785 0.533117 1.99416 0.715953 1.83229C0.643642 1.80476 0.583949 1.76007 0.536965 1.69822C0.606233 1.58998 0.680782 1.58998 0.7607 1.69822C1.00081 1.57372 1.01576 1.45457 0.805448 1.3407C1.0137 1.22174 1.19269 1.07274 1.34241 0.893801C1.83624 0.863769 2.23897 0.685009 2.55058 0.35752C2.57287 0.457984 2.61761 0.547364 2.68483 0.625661C2.89021 0.542358 3.09909 0.467905 3.31128 0.40221C3.15011 0.373877 3.1203 0.31426 3.22179 0.22345C3.43649 0.159901 3.64528 0.174827 3.84825 0.26814C4.00558 0.21201 4.13982 0.12263 4.25097 0C4.31514 0.0486228 4.35989 0.108239 4.38521 0.17876ZM0.447471 5.45219C0.524704 5.53826 0.584397 5.53826 0.626459 5.45219C0.558712 5.33841 0.499109 5.33841 0.447471 5.45219Z" fill="var(--fill-0, #830B0D)"/>
</g>
</svg>
