<svg preserveAspectRatio="none" width="100%" height="100%" overflow="visible" style="display: block;" viewBox="0 0 18.0778 12.7555" fill="none" xmlns="http://www.w3.org/2000/svg">
<g id="Group">
<path id="Vector" fill-rule="evenodd" clip-rule="evenodd" d="M15.1245 0C15.6722 0.012692 16.194 0.012692 16.6907 0C17.0084 0.0164459 17.2921 0.120663 17.5409 0.31283C17.6787 0.573463 17.8281 0.826677 17.9883 1.07256C17.8988 1.43392 17.9284 1.79145 18.0778 2.14512C18.0698 2.31718 17.9803 2.42149 17.8093 2.45795C17.906 2.61222 17.9203 2.77606 17.8541 2.94954C17.2903 3.47242 16.8732 4.09808 16.6012 4.82653C16.458 4.94862 16.2942 5.038 16.109 5.09467C15.8369 5.30954 15.6275 5.57768 15.4825 5.89909C15.2711 5.94145 15.0623 5.97131 14.856 5.98847C14.6031 6.22452 14.4241 6.5075 14.3191 6.83758C14.1752 6.83588 14.0261 6.82104 13.8716 6.79289C13.8967 7.05102 13.7774 7.18509 13.5136 7.1951C13.3868 7.68195 13.0885 7.86071 12.6187 7.73138C12.5074 7.83452 12.4179 7.95376 12.3502 8.0889C12.0257 8.11375 11.8467 8.27767 11.8132 8.58049C11.6939 8.58049 11.5745 8.58049 11.4553 8.58049C11.4734 8.74942 11.4138 8.88349 11.2763 8.9827C11.0922 9.00996 10.9132 9.00996 10.7393 8.9827C10.6605 9.1039 10.6307 9.23797 10.6498 9.38491C10.4722 9.39537 10.3232 9.33575 10.2023 9.20615C9.8977 9.34916 9.62921 9.52792 9.39689 9.74243C9.36476 10.138 9.20063 10.1976 8.90467 9.92119C8.60818 10.149 8.29495 10.3575 7.96498 10.5469C7.20356 10.6647 6.59205 11.0222 6.13035 11.6194C6.07066 11.5598 6.01105 11.5003 5.95136 11.4407C5.86187 11.5598 5.77237 11.5598 5.68288 11.4407C5.57808 11.6298 5.44384 11.6893 5.28016 11.6194C5.01803 11.7667 4.74955 11.9008 4.47471 12.0216C4.30145 12.2037 4.15235 12.3973 4.02724 12.6026C3.74023 12.4216 3.4568 12.4514 3.17704 12.692C3.00199 12.6776 2.823 12.6478 2.64008 12.6026C2.47442 12.8065 2.32524 12.8065 2.19261 12.6026C1.85396 12.6436 1.51093 12.6735 1.16342 12.692C0.828269 12.64 0.544841 12.4911 0.31323 12.2451C0.161447 11.7843 0.0570973 11.3076 0 10.815C0.0894942 10.815 0.178988 10.815 0.268483 10.815C0.253268 10.6968 0.28307 10.5925 0.357977 10.5022C0.261502 10.4419 0.201809 10.3525 0.178988 10.234C0.327549 9.81528 0.521393 9.41307 0.7607 9.02739C1.05165 8.88644 1.32013 8.70768 1.56615 8.49111C1.60937 8.40638 1.62423 8.317 1.6109 8.22297C1.75793 8.22118 1.87723 8.2808 1.96887 8.40173C2.11493 8.33049 2.24917 8.24111 2.3716 8.13359C2.55568 8.19079 2.74953 8.17587 2.95331 8.0889C3.05542 8.02267 3.05542 7.94813 2.95331 7.86545C3.32005 7.80199 3.58854 7.60839 3.75876 7.28448C3.96182 7.31791 4.17061 7.31791 4.38521 7.28448C4.53333 7.06121 4.74212 6.92714 5.01167 6.88227C5.07137 6.76312 5.13097 6.64389 5.19066 6.52475C5.30128 6.59142 5.42066 6.62119 5.54864 6.61413C5.54434 6.36458 5.66364 6.20074 5.90662 6.12254C6.08238 6.06676 6.23157 6.11145 6.35409 6.25661C6.45468 6.13022 6.54417 5.99615 6.62257 5.8544C6.77283 5.81909 6.92193 5.83402 7.07004 5.89909C7.26612 5.78799 7.47491 5.71353 7.6965 5.67564C7.82761 5.45844 7.9469 5.23499 8.05448 5.00529C8.38355 4.90339 8.71172 4.81401 9.03891 4.73715C9.07963 4.49126 9.19902 4.29757 9.39689 4.15617C9.73527 3.99708 10.0932 3.89277 10.4708 3.84334C10.4094 3.47179 10.5437 3.35256 10.8735 3.48582C11.0076 3.30179 11.1866 3.18265 11.4105 3.1283C11.3895 2.67202 11.5834 2.47833 11.9922 2.54733C12.3702 2.34247 12.579 2.02964 12.6187 1.60884C12.738 1.60884 12.8574 1.60884 12.9767 1.60884C12.9626 1.48612 12.9775 1.36689 13.0214 1.25132C13.2067 1.15971 13.4007 1.08525 13.6031 1.02787C13.6819 0.906672 13.7118 0.772602 13.6926 0.625661C13.9288 0.619315 14.1227 0.529935 14.2743 0.35752C14.6633 0.491144 14.9466 0.372 15.1245 0Z" fill="var(--fill-0, #830B0D)"/>
</g>
</svg>
