<svg preserveAspectRatio="none" width="100%" height="100%" overflow="visible" style="display: block;" viewBox="0 0 7.607 7.24055" fill="none" xmlns="http://www.w3.org/2000/svg">
<g id="Group">
<path id="Vector" fill-rule="evenodd" clip-rule="evenodd" d="M2.32685 0.000763009C2.64097 -0.010767 2.89424 0.108377 3.08755 0.358283C3.72922 -0.0402625 4.41564 -0.0701154 5.14591 0.268903C5.31416 0.0833502 5.50837 0.0534973 5.72763 0.179523C5.77237 0.288209 5.80191 0.392516 5.81712 0.492354C6.02385 0.536776 6.23237 0.551613 6.44358 0.537044C6.44805 0.811262 6.4928 1.0794 6.57782 1.34146C6.63778 1.46061 6.69685 1.46061 6.75681 1.34146C6.80066 1.43522 6.78634 1.5246 6.71206 1.60961C7.0423 1.67637 7.13179 1.85513 6.98055 2.14589C7.23471 2.19093 7.35463 2.33993 7.33852 2.59279C7.23292 2.57321 7.14342 2.60298 7.07004 2.68217C7.23381 2.70228 7.38237 2.80649 7.51751 2.995C7.48887 3.14274 7.39938 3.23212 7.24903 3.26314C7.36895 3.47309 7.48798 3.6817 7.607 3.8888C7.13537 4.6715 6.74786 5.50577 6.44358 6.39144C6.16883 6.2841 5.9451 6.35855 5.77237 6.61489C5.74284 6.58513 5.71241 6.55527 5.68288 6.52551C5.41977 6.83539 5.10654 7.07377 4.74319 7.24055C4.59374 7.18094 4.44518 7.12141 4.29572 7.06179C4.09078 7.15484 3.88226 7.15484 3.66926 7.06179C3.48043 7.06054 3.31665 7.12007 3.17704 7.24055C2.94973 7.14742 2.74121 7.02827 2.55058 6.88303C2.48615 6.93299 2.41097 6.96276 2.32685 6.97241C2.18724 6.87883 2.03868 6.81921 1.87938 6.79365C1.87938 6.70427 1.87938 6.61489 1.87938 6.52551C1.63416 6.3758 1.3809 6.31618 1.11868 6.34675C0.862724 5.89386 0.60856 5.44696 0.357977 5.00605C0.246109 4.73737 0.246109 4.46923 0.357977 4.20163C0.251479 4.11859 0.132451 4.08883 0 4.11225C0.0671206 3.85287 0.187043 3.61458 0.357977 3.39721C0.248794 3.24392 0.1593 3.08 0.0894942 2.90562C0.168249 2.74473 0.22821 2.5809 0.268483 2.41403C0.579027 2.43396 0.668521 2.31472 0.536965 2.05651C0.560233 1.90572 0.620195 1.77165 0.715953 1.6543C0.54323 1.27264 0.647938 1.13857 1.02918 1.25208C1.52319 0.885179 1.95545 0.468042 2.32685 0.000763009Z" fill="var(--fill-0, #830B0D)"/>
</g>
</svg>
