<svg preserveAspectRatio="none" width="100%" height="100%" overflow="visible" style="display: block;" viewBox="0 0 22.463 17.3397" fill="none" xmlns="http://www.w3.org/2000/svg">
<g id="Group">
<path id="Vector" fill-rule="evenodd" clip-rule="evenodd" d="M5.36965 6.52475C5.66256 6.79914 5.84155 7.11198 5.90662 7.46324C6.0746 7.8002 6.25385 8.12823 6.44358 8.44642C6.40689 8.53133 6.34782 8.59032 6.26459 8.62518C6.29412 8.89332 6.44358 9.04259 6.71206 9.07208C6.63778 9.25799 6.63778 9.45195 6.71206 9.65305C6.80603 9.63964 6.89553 9.65484 6.98055 9.69774C7.07004 9.84701 7.15953 9.99538 7.24903 10.1446C7.18907 10.2045 7.13 10.2635 7.07004 10.3234C7.30899 10.621 7.54704 10.9196 7.78599 11.2172C7.71082 11.3075 7.68128 11.4121 7.6965 11.53C7.78599 11.53 7.87549 11.53 7.96498 11.53C8.10459 11.8983 8.23883 12.2263 8.3677 12.5132C8.45899 12.6142 8.51805 12.5847 8.54669 12.4238C8.52969 12.6956 8.64872 12.8448 8.90467 12.8707C9.26533 12.751 9.63763 12.6759 10.0233 12.6473C10.2346 12.507 10.3384 12.3434 10.3366 12.1557C10.4144 12.1771 10.4896 12.2066 10.5603 12.2451C10.7259 12.0583 10.9344 11.9385 11.1868 11.8876C11.3604 11.6945 11.4204 11.4853 11.3658 11.2619C11.5358 11.1966 11.7148 11.1966 11.9027 11.2619C11.8884 11.1394 11.9036 11.0197 11.9475 10.9044C12.1345 11.0197 12.2535 10.9598 12.3054 10.7256C12.335 10.7551 12.3654 10.7855 12.3949 10.815C12.514 10.6219 12.6482 10.4432 12.7977 10.2787C12.9704 10.1232 13.0008 9.95963 12.8872 9.78712C13.0259 9.67897 13.1306 9.5449 13.2004 9.38491C13.2604 9.4448 13.3194 9.50379 13.3794 9.56367C13.4698 9.52077 13.5745 9.50557 13.6926 9.51898C13.8116 9.36972 13.8116 9.22135 13.6926 9.07208C13.7749 9.04705 13.834 9.00236 13.8716 8.93801C13.9906 8.90852 13.9906 8.87813 13.8716 8.84863C13.9137 8.6511 14.0032 8.47234 14.1401 8.31235C14.2797 8.38832 14.4139 8.35793 14.5428 8.22297C14.6323 7.95483 14.7218 7.68669 14.8113 7.41855C14.9017 7.37565 15.0064 7.36045 15.1245 7.37386C15.1845 7.1951 15.3035 7.07622 15.4825 7.01634C15.3823 6.99399 15.2928 6.9493 15.214 6.88227C15.3572 6.87244 15.5058 6.84294 15.6615 6.79289C15.7053 6.52743 15.8396 6.31917 16.0642 6.16723C16.1653 5.90356 16.2396 5.63542 16.2879 5.36281C16.6065 5.38336 16.6361 5.30828 16.3774 5.13936C16.5072 4.78988 16.611 4.77558 16.6907 5.09467C16.73 4.95345 16.8043 4.83457 16.9144 4.73715C16.8473 4.62631 16.8177 4.50744 16.8249 4.37963C17.1551 4.31795 17.2446 4.13919 17.0934 3.84334C17.276 3.87463 17.4397 3.87463 17.5856 3.84334C17.5874 3.66995 17.5722 3.49119 17.5409 3.30706C17.8362 2.91647 18 2.46957 18.0331 1.96636C18.1736 2.01642 18.2926 1.95653 18.3911 1.7876C18.7123 0.93581 19.2189 0.370034 19.9125 0.0893801C20.07 0.132283 20.2194 0.191273 20.3599 0.26814C20.3895 0.208256 20.4199 0.149265 20.4494 0.0893801C20.7671 0.154628 21.0804 0.185017 21.3891 0.17876C21.5323 0.319087 21.7113 0.378972 21.9261 0.35752C21.9171 0.727554 22.0361 1.04038 22.284 1.29601C22.2474 1.38092 22.1883 1.43991 22.1051 1.47477C22.2635 1.66247 22.3825 1.87073 22.463 2.10043C22.2993 2.18356 22.2688 2.28724 22.3735 2.41326C22.284 2.47315 22.1946 2.53214 22.1051 2.59202C22.1972 2.57415 22.2867 2.61884 22.3735 2.72609C22.2885 2.769 22.199 2.78419 22.1051 2.77078C22.1346 2.94954 22.165 3.1283 22.1946 3.30706C21.9529 3.29634 21.893 3.38572 22.0156 3.5752C21.8545 3.84066 21.7954 4.1088 21.8366 4.37963C21.7104 4.61827 21.5905 4.87122 21.4786 5.13936C21.5905 5.27253 21.5905 5.4066 21.4786 5.54157C21.3336 5.45397 21.2137 5.49866 21.1206 5.67564C21.1931 5.70334 21.2522 5.74803 21.2996 5.80971C21.1484 5.90087 21.0293 6.01975 20.9416 6.16723C21.0625 6.46486 20.9434 6.58374 20.5837 6.52475C20.4906 6.97791 20.3716 7.42481 20.2257 7.86545C20.1147 7.52491 20.0556 7.52491 20.0467 7.86545C19.9286 7.85025 19.8239 7.87975 19.7335 7.95483C19.5294 8.4205 19.2753 8.85221 18.9728 9.25084C19.0023 9.28034 19.0327 9.31073 19.0623 9.34022C18.9728 9.4296 18.8833 9.51898 18.7938 9.60836C18.8663 9.63607 18.9253 9.68076 18.9728 9.74243C18.8833 9.83181 18.7938 9.92119 18.7043 10.0106C18.6515 9.9918 18.6067 9.96231 18.57 9.92119C18.4823 10.0535 18.3776 10.1724 18.2568 10.2787C18.349 10.2608 18.4385 10.3055 18.5253 10.4128C18.4295 10.5272 18.3096 10.5576 18.1673 10.5022C18.1986 10.6479 18.1986 10.8114 18.1673 10.9938C17.8791 10.8999 17.6107 10.9589 17.3619 11.1725C17.3422 11.438 17.2079 11.6766 16.9591 11.8876C16.8571 12.1199 16.7828 12.3577 16.7354 12.6026C16.5752 12.5767 16.4267 12.6071 16.2879 12.692C16.185 12.8395 16.066 12.9735 15.93 13.0942C15.9711 13.1308 16.0007 13.1755 16.0195 13.2283C15.7349 13.2908 15.6006 13.4696 15.6167 13.7645C15.4628 13.8057 15.299 13.8208 15.1245 13.8092C14.9133 14.0336 14.7639 14.2865 14.677 14.569C14.5875 14.569 14.4981 14.569 14.4086 14.569C14.422 14.6628 14.4068 14.7522 14.3638 14.8371C14.183 14.771 14.0488 14.846 13.9611 15.0605C14.0694 15.1401 14.0694 15.2152 13.9611 15.284C13.894 15.2053 13.8492 15.116 13.8268 15.0159C13.5619 15.2268 13.2782 15.4207 12.9767 15.5968C12.7216 15.7926 12.5426 16.0455 12.4397 16.3566C12.3681 16.3154 12.3386 16.2565 12.3502 16.1778C12.0432 16.2859 11.7452 16.42 11.4553 16.58C11.3935 16.6756 11.3488 16.7793 11.321 16.8928C11.2593 16.816 11.185 16.757 11.0973 16.7141C10.8485 16.8598 10.58 16.9197 10.2918 16.8928C10.1916 16.7802 10.1316 16.8106 10.1128 16.9822C10.0547 16.9554 9.99471 16.925 9.93385 16.8928C9.74144 17.0189 9.54724 17.1377 9.35214 17.2504C9.14183 17.0081 8.96284 17.0376 8.81518 17.3397C8.75432 17.2253 8.76864 17.1208 8.85992 17.0269C8.723 16.9822 8.58876 16.9974 8.4572 17.0716C8.37218 17.0251 8.2979 16.9652 8.23346 16.8928C8.07058 17.0046 7.8916 17.0636 7.6965 17.0716C7.6965 16.9822 7.6965 16.8928 7.6965 16.8035C7.45844 16.7445 7.24992 16.6256 7.07004 16.4459C6.92058 16.5058 6.77202 16.5648 6.62257 16.6247C6.28876 15.9785 5.81193 15.4574 5.19066 15.0605C5.04792 15.116 4.92862 15.0856 4.83269 14.9712C4.89238 14.9113 4.95198 14.8523 5.01167 14.7924C4.82338 14.6101 4.71894 14.3866 4.69844 14.1221C4.63419 14.207 4.55964 14.2222 4.47471 14.1667C4.47408 13.9773 4.36964 13.8137 4.16148 13.6752C4.10626 13.5902 4.12112 13.5161 4.20623 13.4517C3.99896 13.2452 3.87957 12.9923 3.84825 12.692C3.66667 12.793 3.63677 12.7483 3.75876 12.5579C3.59015 12.3559 3.41116 12.162 3.22179 11.9769C3.26448 11.8893 3.32408 11.8152 3.40078 11.7535C3.13409 11.4916 2.9253 11.2378 2.77432 10.9938C2.79302 10.941 2.82291 10.8963 2.86381 10.8597C2.63283 10.7435 2.57314 10.5799 2.68483 10.3681C2.46825 10.1527 2.36381 9.88455 2.3716 9.56367C2.14061 9.38849 2.03617 9.18023 2.05837 8.93801C1.9064 8.42586 1.69761 8.00846 1.43191 7.68669C1.52194 7.22191 1.37284 6.8492 0.984436 6.56944C1.01424 6.53994 1.04413 6.50955 1.07393 6.48006C1.00556 6.29504 0.960809 6.10109 0.939689 5.89909C0.873284 5.5228 0.739043 5.15098 0.536965 4.78184C0.547346 4.66832 0.577148 4.54945 0.626459 4.42432C0.541529 4.3689 0.466981 4.38409 0.402724 4.46901C0.211743 4.28309 0.226599 4.11953 0.447471 3.97741C0.352607 3.73251 0.277969 3.47957 0.223735 3.21768C0.165206 3.32494 0.120459 3.32494 0.0894942 3.21768C0.232237 2.92809 0.202436 2.65995 0 2.41326C0.0802763 2.39807 0.16977 2.36857 0.268483 2.32388C0.293809 1.91542 0.472798 1.5579 0.805448 1.25132C0.763564 1.10563 0.67407 1.00106 0.536965 0.938491C0.622879 0.811571 0.697428 0.677501 0.7607 0.536281C0.797751 0.577395 0.842498 0.606891 0.894942 0.625661C1.0452 0.482653 1.22419 0.422768 1.43191 0.446901C1.45652 0.244901 1.54601 0.215406 1.70039 0.35752C1.76277 0.189486 1.85226 0.159097 1.96887 0.26814C2.26948 0.133176 2.58271 0.0437963 2.90856 0C3.16783 0.0598847 3.37661 0.149265 3.53502 0.26814C3.76618 0.681076 3.84073 1.11278 3.75876 1.56415C3.89479 1.87162 4.04397 2.17015 4.20623 2.45795C4.15951 2.66263 4.2192 2.85659 4.38521 3.03892C4.36651 3.09166 4.33662 3.13635 4.29572 3.17299C4.51435 3.39466 4.57405 3.6476 4.47471 3.93272C4.6094 4.05249 4.66909 4.20176 4.6537 4.37963C4.74784 4.36622 4.83734 4.38141 4.92218 4.42432C4.76905 4.52531 4.72431 4.65939 4.78794 4.82653C4.91001 4.7586 5.01445 4.80329 5.10117 4.9606C5.05445 5.01065 5.02465 5.07053 5.01167 5.13936C5.11638 5.28147 5.20588 5.42984 5.28016 5.58626C5.20865 5.74267 5.26834 5.86155 5.45914 5.94378C5.45395 6.14309 5.42406 6.33705 5.36965 6.52475Z" fill="var(--fill-0, #830B0D)"/>
</g>
</svg>
