<svg preserveAspectRatio="none" width="100%" height="100%" overflow="visible" style="display: block;" viewBox="0 0 18.1673 11.2573" fill="none" xmlns="http://www.w3.org/2000/svg">
<g id="Group">
<path id="Vector" fill-rule="evenodd" clip-rule="evenodd" d="M2.41634 0.983181C2.60858 0.993013 2.63838 0.933128 2.50584 0.804421C2.55058 0.774926 2.59533 0.744536 2.64008 0.715041C2.67435 0.852686 2.7489 0.971562 2.86381 1.07256C3.24103 1.07346 3.46477 1.25222 3.53502 1.60884C3.72654 1.80012 3.92038 1.99407 4.11673 2.18981C4.20157 2.23272 4.29107 2.24791 4.38521 2.2345C4.39774 2.3793 4.33805 2.48387 4.20623 2.54733C4.33143 2.60007 4.45072 2.58577 4.5642 2.50264C4.63821 2.65101 4.74256 2.77078 4.87743 2.86016C4.95735 3.29991 5.09159 3.71732 5.28016 4.11148C5.26145 4.16422 5.23156 4.20891 5.19066 4.24556C5.40079 4.27684 5.56484 4.38052 5.68288 4.55839C5.94107 4.94898 6.13491 5.36638 6.26459 5.80971C6.38389 5.80971 6.50327 5.80971 6.62257 5.80971C6.63778 5.92769 6.60798 6.03226 6.53307 6.12254C6.79986 6.15829 6.9937 6.29236 7.11479 6.52475C7.36447 6.43358 7.61774 6.41928 7.87549 6.48006C7.93097 6.63737 8.03568 6.74105 8.18872 6.79289C8.38023 6.73658 8.57354 6.69189 8.77043 6.65882C8.8456 6.56854 8.87514 6.46397 8.85992 6.34599C9.00938 6.34599 9.15794 6.34599 9.30739 6.34599C9.2877 6.24052 9.31724 6.15114 9.39689 6.07785C9.63226 5.89462 9.90074 5.79094 10.2023 5.76502C10.2551 5.63005 10.3151 5.49598 10.3813 5.36281C10.6954 5.23767 10.9935 5.08841 11.2763 4.91591C11.4311 4.66654 11.5349 4.3984 11.5895 4.11148C11.7855 4.03104 11.9797 3.94166 12.1712 3.84334C12.2544 3.73698 12.284 3.61811 12.2607 3.48582C12.3932 3.50906 12.5122 3.47957 12.6187 3.39644C12.7198 3.03356 12.8397 2.67604 12.9767 2.32388C13.4223 2.14959 13.5709 1.85196 13.4241 1.43008C13.5432 1.43008 13.6631 1.43008 13.7821 1.43008C13.8841 1.20663 13.9441 0.967987 13.9611 0.715041C14.0837 0.729342 14.2036 0.714147 14.3191 0.670351C14.4676 0.415618 14.6466 0.192167 14.856 0C14.9921 0.128707 15.1558 0.187698 15.3482 0.17876C15.6293 0.101 15.8977 0.0715041 16.1537 0.0893801C16.611 0.308361 17.0433 0.562201 17.4514 0.849111C17.5668 0.892907 17.6867 0.908102 17.8093 0.893801C17.7422 1.21557 17.7574 1.54359 17.8541 1.87698C18.0116 1.9324 18.1154 2.03697 18.1673 2.18981C18.0116 2.63671 17.9069 3.09881 17.8541 3.5752C17.4415 3.93094 17.1882 4.37784 17.0934 4.91591C16.9753 4.90071 16.8705 4.93021 16.7802 5.00529C16.6056 5.37443 16.5009 5.76144 16.4669 6.16723C16.1993 6.25571 15.9309 6.34509 15.6615 6.43537C15.5854 6.79825 15.4807 7.15577 15.3482 7.50793C15.163 7.7001 14.9536 7.72959 14.7218 7.59731C14.6341 7.72959 14.5294 7.84847 14.4086 7.95483C14.3253 8.06119 14.2958 8.18007 14.3191 8.31235C14.2135 8.29269 14.124 8.32218 14.0506 8.40173C14.0228 8.75568 13.8582 9.02382 13.5584 9.20615C13.5288 9.17666 13.4984 9.14627 13.4689 9.11677C13.2809 9.49753 12.9677 9.6459 12.5292 9.56367C12.5426 9.65752 12.5274 9.7469 12.4844 9.83181C12.1345 9.89795 11.9707 10.1062 11.9922 10.4575C11.8696 10.4432 11.7497 10.4584 11.6342 10.5022C11.4642 10.823 11.2557 10.8677 11.0078 10.6362C10.8753 11.0232 10.6516 11.0831 10.3366 10.815C9.94549 11.3379 9.49802 11.3969 8.99416 10.9938C8.90914 11.1806 8.78922 11.2109 8.63619 11.0831C8.00973 11.2959 7.36805 11.2959 6.71206 11.0831C6.47687 11.0867 6.23819 11.1162 5.99611 11.1725C5.87986 11.1198 5.80531 11.0304 5.77237 10.9044C5.70749 10.9544 5.63294 10.9839 5.54864 10.9938C5.38066 10.8695 5.23147 10.7211 5.10117 10.5469C4.71625 10.5576 4.53726 10.3788 4.5642 10.0106C4.27021 10.0311 4.04648 9.91225 3.893 9.65305C3.77164 9.73171 3.6374 9.7612 3.49027 9.74243C3.49027 9.62356 3.49027 9.50379 3.49027 9.38491C3.358 9.40815 3.2387 9.37865 3.1323 9.29553C3.059 8.64216 2.77557 8.10588 2.2821 7.68669C2.21632 7.47486 2.14177 7.2666 2.05837 7.06103C1.59326 6.79199 1.29498 6.38978 1.16342 5.8544C1.0708 5.74088 0.966358 5.63631 0.850195 5.54157C0.82084 5.03478 0.612051 4.58788 0.223735 4.20087C0.177914 3.7772 0.103366 3.36069 0 2.94954C0.200288 2.79223 0.289782 2.58398 0.268482 2.32388C0.163327 2.34355 0.0738327 2.31405 0 2.2345C0.108377 2.12546 0.108377 2.02088 0 1.92167C0.387778 1.65353 0.715953 1.32551 0.984436 0.938491C1.19913 0.875031 1.40792 0.890226 1.61089 0.983181C1.87284 0.866987 2.14133 0.777607 2.41634 0.715041C2.41634 0.804421 2.41634 0.893801 2.41634 0.983181Z" fill="var(--fill-0, #830B0D)"/>
</g>
</svg>
