<svg preserveAspectRatio="none" width="100%" height="100%" overflow="visible" style="display: block;" viewBox="0 0 32.1359 21.5896" fill="none" xmlns="http://www.w3.org/2000/svg">
<g id="Group">
<path id="Vector" fill-rule="evenodd" clip-rule="evenodd" d="M30.1884 0.449784C30.6275 0.231489 30.7274 0.356379 30.488 0.824604C30.7165 0.975881 30.9662 1.05084 31.237 1.0495C31.4384 1.60183 31.6631 2.15147 31.9112 2.6987C31.9853 2.99451 32.0103 3.29437 31.9861 3.59827C31.8936 3.58163 31.8187 3.5317 31.7614 3.44834C31.6433 3.69797 31.5933 3.94775 31.6115 4.19798C31.7338 3.99963 31.9086 3.89977 32.1359 3.89813C32.0538 4.18209 31.904 4.43187 31.6865 4.64777C31.8526 4.90474 31.7527 5.00474 31.3868 4.94762C31.1609 5.34343 31.211 5.69321 31.5366 5.99712C31.1193 6.54255 30.6699 6.9673 30.1884 7.2715C30.3407 7.42878 30.3658 7.60374 30.2633 7.79625C30.2134 7.74633 30.1634 7.69625 30.1135 7.64632C30.0199 8.1129 29.7453 8.38772 29.2896 8.47093C29.5077 8.53435 29.5826 8.65924 29.5143 8.84575C29.3869 8.98428 29.2371 8.98428 29.0649 8.84575C28.6181 9.20333 28.2436 9.62807 27.9413 10.1201C28.0624 10.1663 28.1623 10.2413 28.2409 10.345C28.125 10.5266 28.0002 10.5266 27.8664 10.345C27.6043 10.6276 27.4795 10.9774 27.4919 11.3945C27.1773 11.3911 26.9027 11.4911 26.668 11.6944C26.3009 11.4933 26.0762 11.6182 25.9938 12.0692C26.0437 12.1191 26.0938 12.1692 26.1437 12.2191C25.9309 12.5503 25.6812 12.8502 25.3946 13.1187C25.1539 13.1158 24.9042 13.091 24.6456 13.0437C24.6679 13.2015 24.643 13.3514 24.5707 13.4935C24.1713 13.7758 23.7968 14.0757 23.4472 14.3931C22.6822 14.0815 22.2328 14.3313 22.0989 15.1427C21.8755 15.2543 21.6508 15.3541 21.4248 15.4426C21.3749 15.3926 21.3249 15.3426 21.275 15.2926C21.0226 15.5333 20.748 15.7331 20.451 15.8924C20.2514 15.9423 20.2514 15.9924 20.451 16.0423C20.4734 16.2 20.4485 16.3499 20.3761 16.4921C20.0169 16.1092 19.6674 16.1092 19.3275 16.4921C19.2776 16.4421 19.2276 16.3921 19.1777 16.3421C19.1053 16.4843 19.0805 16.6342 19.1028 16.7919C18.8886 16.8038 18.6887 16.7538 18.5036 16.642C18.05 17.0963 17.6504 17.596 17.3051 18.1413C17.1979 18.0197 17.0729 17.9197 16.9306 17.8414C16.039 17.9786 15.3648 18.4284 14.9082 19.1908C14.2594 18.5284 13.7601 18.6284 13.4102 19.4906C13.2444 19.4124 13.0695 19.3624 12.8859 19.3407C12.1649 19.6653 11.4158 19.9152 10.6388 20.0903C10.4638 20.2416 10.289 20.3915 10.1145 20.5401C9.5548 20.3933 9.03048 20.3933 8.54151 20.5401C8.02588 20.8929 7.45168 21.0679 6.81875 21.0649C6.69396 21.1898 6.56902 21.3148 6.44423 21.4397C6.34327 21.2781 6.19346 21.1781 5.99482 21.1398C5.2807 21.2754 4.55669 21.3754 3.82264 21.4397C3.81365 21.5211 3.76377 21.571 3.67283 21.5896C3.55494 21.4784 3.45517 21.3535 3.37322 21.2148C2.48293 20.9149 1.60911 20.5902 0.751628 20.2403C0.701743 20.2902 0.651708 20.3403 0.601823 20.3902C0.467148 20.0879 0.267307 19.838 0.00260093 19.6406C-0.0200197 18.4272 0.104918 17.2278 0.377115 16.0423C0.843609 15.5355 1.3928 15.1357 2.02497 14.8429C2.32189 15.0633 2.57146 15.0132 2.774 14.6929C2.9692 14.8755 3.119 14.8256 3.22342 14.543C3.32574 14.5974 3.42566 14.6474 3.52303 14.6929C3.72527 14.3022 3.94997 14.3022 4.19715 14.6929C4.28958 14.5507 4.26472 14.4258 4.12225 14.3181C4.51159 14.2028 4.88611 14.2279 5.24579 14.3931C5.85011 14.2076 6.42431 13.9577 6.96855 13.6434C7.21768 13.8496 7.41752 13.7997 7.56778 13.4935C8.06783 13.4928 8.56728 13.4928 9.06583 13.4935C9.52304 13.2214 9.97245 12.9715 10.4141 12.7439C10.6326 12.7338 10.8323 12.7838 11.0133 12.8938C11.3177 12.6829 11.6423 12.483 11.987 12.2941C12.0369 12.0942 12.087 11.8942 12.1368 11.6944C12.2475 11.8554 12.3974 11.9554 12.5863 11.9942C12.8454 11.822 13.095 11.822 13.3353 11.9942C13.538 11.8166 13.7128 11.6166 13.8596 11.3945C14.096 11.2749 14.3456 11.1999 14.6086 11.1696C14.1069 11.1563 14.032 10.9813 14.3839 10.6449C14.5857 10.9396 14.8104 10.9896 15.058 10.7948C15.4576 10.7449 15.4576 10.6948 15.058 10.6449C15.0357 10.4872 15.0606 10.3372 15.133 10.1951C15.435 10.5111 15.7596 10.5612 16.1067 10.345C16.2066 10.345 16.2565 10.2951 16.2565 10.1951C16.6599 10.1171 16.9595 9.89224 17.1553 9.52042C17.0869 9.45835 17.0368 9.38339 17.0055 9.29553C17.2591 9.18638 17.4838 9.03646 17.6796 8.84575C17.9082 9.15835 18.183 9.15835 18.5036 8.84575C18.4058 8.37227 18.5307 8.3222 18.8781 8.69582C19.0379 8.59222 19.2128 8.51725 19.4024 8.47093C19.2027 8.19506 19.2277 8.1201 19.4773 8.24604C19.7185 7.93164 19.8933 7.58185 20.0016 7.19654C20.1204 7.26116 20.2454 7.31123 20.3761 7.34647C20.9276 7.01798 21.4019 6.61812 21.7993 6.14704C21.999 6.09712 21.999 6.04704 21.7993 5.99712C21.7935 5.80881 21.8684 5.65888 22.024 5.54733C22.1811 5.69981 22.356 5.72485 22.5483 5.6223C22.9893 5.37057 23.4137 5.04567 23.8217 4.64777C23.8122 4.15795 24.0369 3.83306 24.4958 3.67323C24.3538 3.60082 24.204 3.57593 24.0464 3.59827C24.0284 3.19271 24.1782 3.09271 24.4958 3.29841C25.0263 2.95403 25.1761 2.55432 24.9452 2.09899C25.1988 1.98984 25.4235 1.83992 25.6193 1.64921C25.7584 1.92432 25.933 1.97425 26.1437 1.79913C26.5799 1.38758 26.9295 0.912911 27.1923 0.37482C27.4831 0.329242 27.7326 0.204352 27.9413 0C28.191 0.100002 28.4406 0.199854 28.6903 0.299856C28.794 0.221144 28.8689 0.121142 28.9151 0C29.2141 0.0743642 29.4638 0.224292 29.6641 0.449784C29.8969 0.0859087 30.0717 0.0859087 30.1884 0.449784ZM0.377115 18.5911C0.240492 18.7767 0.215474 18.9767 0.302212 19.1908C0.496659 18.974 0.521677 18.7741 0.377115 18.5911Z" fill="var(--fill-0, #A7C2E6)"/>
</g>
</svg>
