<svg preserveAspectRatio="none" width="100%" height="100%" overflow="visible" style="display: block;" viewBox="0 0 65.0156 22.1893" fill="none" xmlns="http://www.w3.org/2000/svg">
<g id="Group">
<path id="Vector" fill-rule="evenodd" clip-rule="evenodd" d="M64.716 3.89813C64.7174 4.12602 64.8178 4.29993 65.0156 4.42287C64.7384 4.80069 64.689 5.1995 64.8658 5.6223C64.4942 5.86368 64.4942 6.08857 64.8658 6.29697C64.7729 6.53986 64.6231 6.73926 64.4163 6.89668C64.7684 7.08709 64.7429 7.288 64.3414 7.4964C64.3115 7.75277 64.3115 8.00165 64.3414 8.24604C63.8261 8.1126 63.7512 8.23704 64.1167 8.62086C64.0074 8.83076 63.9325 9.05565 63.892 9.29553C63.6164 9.09613 63.5415 9.12012 63.6673 9.3705C63.51 9.93872 63.3602 10.5129 63.2179 11.0947C63.0846 10.9717 63.0351 10.8218 63.0681 10.6449C62.8479 11.0977 62.5992 11.5474 62.3191 11.9942C62.4958 12.2896 62.3955 12.489 62.0195 12.5939C61.9296 12.7874 61.8547 12.9883 61.7947 13.1937C61.6614 13.0122 61.5356 13.0122 61.4202 13.1937C61.182 13.5205 60.9828 13.8698 60.821 14.2432C60.5813 14.1427 60.3566 14.0932 60.1469 14.0932C59.5851 14.555 59.1357 15.1052 58.7986 15.7424C58.526 15.5565 58.3013 15.606 58.1245 15.8924C58.144 16.0243 58.0946 16.1232 57.9747 16.1922C57.5627 16.0438 57.2631 16.1937 57.0759 16.642C56.8047 16.4381 56.58 16.4876 56.4017 16.7919C55.9748 16.729 55.5509 16.8294 55.1284 17.0918C55.028 17.0423 54.9292 16.9913 54.8288 16.9419C54.5037 17.1922 54.2041 17.4426 53.93 17.6915C53.7802 17.705 53.6558 17.654 53.5554 17.5416C52.5982 17.9944 51.6245 18.2942 50.6342 18.4411C50.044 18.5206 49.4703 18.4216 48.9115 18.1413C48.5879 18.5281 48.4141 18.5281 48.3872 18.1413C47.9737 18.3122 47.5737 18.5131 47.1887 18.741C45.9408 18.3797 44.693 18.1803 43.4436 18.1413C43.2683 18.2042 43.1185 18.3047 42.9942 18.4411C42.4878 18.0588 41.9635 17.7095 41.4212 17.3916C41.1381 17.7545 40.8385 17.7545 40.5224 17.3916C40.2362 17.5341 39.9366 17.5341 39.6235 17.3916C39.4183 17.4426 39.2445 17.5431 39.0992 17.6915C38.7202 17.5416 38.7202 17.4171 39.0992 17.3167C38.533 16.9958 37.9832 17.0198 37.4514 17.3916C36.7593 16.6135 36.0851 16.6135 35.429 17.3916C34.9331 17.0183 34.4088 16.9928 33.856 17.3167C34.0283 17.4531 34.0043 17.579 33.7811 17.6915C33.7317 17.591 33.6808 17.4921 33.6313 17.3916C33.531 17.5041 33.4066 17.5551 33.2568 17.5416C33.0995 17.1772 33.0006 17.1772 32.9572 17.5416C32.4014 17.621 31.8516 17.7455 31.3093 17.9164C31.4741 18.2747 31.3753 18.3497 31.0097 18.1413C30.6622 18.1983 30.5618 18.3482 30.7101 18.5911C30.6097 18.6405 30.5109 18.6915 30.4105 18.741C30.066 18.6061 29.7169 18.5821 29.3619 18.666C29.3169 18.8639 29.2915 19.0888 29.287 19.3407C29.0892 18.9614 28.9154 18.9614 28.7626 19.3407C28.6443 19.2762 28.5185 19.2268 28.3881 19.1908C27.9372 19.4277 27.5133 19.678 27.1148 19.9404C27.1373 20.4427 27.0384 20.4936 26.8152 20.0903C26.5111 20.0664 26.2119 20.0903 25.9163 20.1653C25.9662 20.2148 26.0163 20.2658 26.0661 20.3152C25.7331 20.4007 25.4335 20.5251 25.1673 20.6901C25.0674 20.6901 25.0175 20.7395 25.0175 20.84C24.7989 20.8295 24.5993 20.8805 24.4183 20.9899C24.2501 20.801 24.1503 20.852 24.1187 21.1398C23.9067 21.0214 23.682 20.9209 23.4446 20.84C23.0098 21.0964 22.6103 21.3962 22.2461 21.7395C21.8641 21.2223 21.5395 21.2223 21.2724 21.7395C21.1259 21.6676 21.0011 21.5686 20.8979 21.4397C20.7481 21.6391 20.5982 21.6391 20.4484 21.4397C20.1782 21.912 19.8037 22.0109 19.3249 21.7395C18.9239 21.777 18.5744 21.927 18.2763 22.1893C18.0794 22.0679 17.9046 21.918 17.7519 21.7395C17.6899 21.8085 17.615 21.858 17.5272 21.8895C17.1364 21.78 16.7369 21.7051 16.3288 21.6646C16.2542 21.4907 16.1294 21.3662 15.9543 21.2898C15.8725 21.4082 15.7726 21.5581 15.6547 21.7395C15.3551 21.5401 15.0554 21.3392 14.7558 21.1398C14.706 21.2403 14.6559 21.3392 14.606 21.4397C14.5644 21.3018 14.4895 21.2028 14.3813 21.1398C14.3633 21.3033 14.2634 21.4022 14.0817 21.4397C13.8414 21.3737 13.6167 21.2733 13.4076 21.1398C13.2768 21.1758 13.1519 21.2253 13.0331 21.2898C12.7454 20.78 12.396 20.7305 11.9844 21.1398C11.7504 20.5641 11.3509 20.3647 10.786 20.5401C10.786 20.4397 10.7361 20.3902 10.6362 20.3902C10.3 20.1758 9.92551 20.0259 9.51265 19.9404C9.46651 20.0619 9.3916 20.1608 9.28794 20.2403C9.04241 19.9224 8.79283 19.5986 8.53891 19.2657C8.29907 19.2253 8.07436 19.1503 7.86479 19.0408C7.8149 19.1908 7.76487 19.3407 7.71498 19.4906C7.4684 19.2987 7.29358 19.0483 7.19066 18.741C7.10288 18.7725 7.02797 18.822 6.96595 18.8909C6.94932 18.3752 6.69975 18.0243 6.21693 17.8414C6.17079 17.9629 6.09588 18.0618 5.99222 18.1413C5.78818 17.9149 5.73815 17.69 5.84241 17.4666C5.61321 17.2987 5.36348 17.1742 5.09339 17.0918C5.11571 17.2492 5.09084 17.3991 5.01848 17.5416C3.68506 16.0948 2.33682 14.645 0.973735 13.1937C0.850595 12.8503 0.750675 12.501 0.674124 12.1442C0.56177 12.0497 0.436833 11.9747 0.299611 11.9193C0.43863 11.8608 0.538551 11.7618 0.599222 11.6194C0.426796 11.1846 0.227105 10.7588 0 10.345C0.158344 10.2836 0.358185 10.2836 0.599222 10.345C0.866624 9.75581 0.991412 9.1561 0.973735 8.54589C1.36398 8.01215 1.83826 7.56236 2.39689 7.19654C3.1606 7.43343 3.85959 7.78276 4.49416 8.24604C4.61296 8.18157 4.7379 8.13209 4.86868 8.09611C5.25368 8.12459 5.60317 8.324 5.91731 8.69582C6.23625 8.49192 6.31115 8.54139 6.14202 8.84575C6.62185 9.42747 7.12115 10.0017 7.64008 10.5699C7.88486 10.6434 8.13459 10.6689 8.3891 10.6449C8.49382 11.0182 8.64362 11.369 8.83852 11.6944C9.57691 12.0737 10.2761 12.4485 10.9358 12.8188C11.2254 12.9358 11.4501 12.8608 11.6099 12.5939C11.9346 12.8188 11.9095 12.9943 11.535 13.1187C11.8944 13.2251 12.2439 13.1997 12.5837 13.0437C12.7651 13.1592 12.7651 13.2851 12.5837 13.4185C12.9057 13.8234 13.2302 13.8488 13.5574 13.4935C13.7571 13.7934 14.0068 14.0437 14.3064 14.2432C14.7151 14.3031 15.1395 14.3031 15.5798 14.2432C15.8974 14.5595 16.247 14.66 16.6284 14.543C17.0171 14.8324 17.3666 14.8324 17.677 14.543C18.4794 15.0857 19.2036 15.0363 19.8492 14.3931C20.2233 14.6899 20.6478 14.7649 21.1226 14.618C21.7911 14.3646 22.4404 14.0902 23.07 13.7934C23.2125 13.5505 23.4122 13.3511 23.6693 13.1937C23.9184 13.4006 24.1182 13.3496 24.2685 13.0437C24.7574 13.3046 25.032 13.1547 25.0924 12.5939C25.1956 12.7229 25.3204 12.8218 25.4669 12.8938C25.7916 12.7004 26.141 12.5745 26.5156 12.519C26.6833 12.3586 26.8332 12.1831 26.965 11.9942C27.1657 12.2041 27.2916 12.1547 27.3395 11.8443C27.3889 11.9448 27.4399 12.0437 27.4893 12.1442C27.6751 11.8383 27.9492 11.6629 28.3132 11.6194C28.5035 11.423 28.6533 11.1981 28.7626 10.9447C28.9589 11.1426 29.1836 11.2926 29.4368 11.3945C29.8922 11.0047 30.4165 10.7543 31.0097 10.6449C31.1715 10.4695 31.2974 10.2701 31.3842 10.0452C31.7078 10.39 32.1078 10.5909 32.5827 10.6449C32.725 10.3315 32.9257 10.2806 33.1819 10.495C33.8126 10.2626 34.4627 10.0617 35.1294 9.89524C35.438 10.0976 35.6627 10.0482 35.8035 9.74532C35.9908 9.82628 36.1645 9.92673 36.3278 10.0452C36.5465 9.85776 36.7712 9.85776 37.0019 10.0452C37.1982 9.84727 37.4229 9.69734 37.6761 9.59539C37.9068 10.2851 38.3562 10.486 39.0243 10.1951C39.0812 10.342 39.2056 10.4425 39.3988 10.495C39.7898 10.468 40.1149 10.318 40.3726 10.0452C40.5958 10.2941 40.8699 10.444 41.1965 10.495C41.3418 10.1021 41.4916 10.1021 41.6459 10.495C42.2511 10.5594 42.8009 10.7588 43.2938 11.0947C43.887 10.9252 44.4113 11.0257 44.8667 11.3945C45.1169 11.2941 45.3656 11.1951 45.6158 11.0947C46.0112 11.4125 46.4112 11.6134 46.8142 11.6944C47.2606 11.537 47.6846 11.3375 48.0875 11.0947C48.4965 11.7139 48.8216 11.6644 49.0613 10.9447C49.1721 11.1052 49.3219 11.2056 49.5107 11.2446C49.7609 11.0437 50.011 10.8443 50.2597 10.6449C50.5474 10.9912 50.9219 11.1906 51.3833 11.2446C51.5286 10.8548 51.7788 10.5549 52.1323 10.345C52.8004 10.5804 53.3742 10.4305 53.8551 9.89524C53.9045 9.94472 53.9554 9.9957 54.0049 10.0452C54.0738 9.85926 53.9989 9.73332 53.7802 9.67035C53.936 9.42747 54.1097 9.40348 54.3045 9.59539C54.4827 9.43646 54.5576 9.23556 54.5292 8.99568C54.7629 8.99268 54.9876 8.9432 55.2033 8.84575C55.3546 8.90422 55.4295 9.00467 55.428 9.1456C55.8265 8.7423 56.0018 8.29251 55.9523 7.79625C56.3044 7.43643 56.7283 7.21153 57.2257 7.12158C57.1568 7.06011 57.1073 6.98514 57.0759 6.89668C57.2856 6.56235 57.4609 6.21301 57.6002 5.84719C57.729 4.93413 57.9028 4.03456 58.1245 3.14849C57.9477 3.18147 57.7979 3.13199 57.6751 2.99856C58.162 2.55177 58.6114 2.0765 59.0233 1.57424C58.881 1.4663 58.8556 1.34185 58.9484 1.19942C59.6286 0.635694 60.3521 0.460279 61.1206 0.674676C61.0712 0.625199 61.0203 0.574224 60.9708 0.524748C61.227 0.365524 61.3259 0.190558 61.2704 0C61.5461 0.25038 61.8711 0.400308 62.2442 0.449784C62.758 0.501509 63.2823 0.501509 63.8171 0.449784C63.9504 0.572725 63.9999 0.722653 63.9669 0.899568C63.3917 0.91606 63.3917 1.01651 63.9669 1.19942C64.1362 1.53076 64.2366 1.8801 64.2665 2.24892C64.4238 2.22643 64.5736 2.25192 64.716 2.32388C64.5212 2.44383 64.4208 2.61924 64.4163 2.84863C64.5137 2.99856 64.6395 3.14849 64.7909 3.29841C64.9047 3.5338 64.8807 3.73321 64.716 3.89813ZM33.2568 17.5416C33.1564 17.5416 33.0576 17.5416 32.9572 17.5416C33.0006 17.1772 33.0995 17.1772 33.2568 17.5416Z" fill="var(--fill-0, #A7C2E6)"/>
</g>
</svg>
