<svg preserveAspectRatio="none" width="100%" height="100%" overflow="visible" style="display: block;" viewBox="0 0 9.43774 10.1951" fill="none" xmlns="http://www.w3.org/2000/svg">
<g id="Group">
<path id="Vector" fill-rule="evenodd" clip-rule="evenodd" d="M8.53891 3.44834C8.74714 3.91417 8.94788 4.38884 9.13813 4.87266C8.90144 5.24838 9.00031 5.49831 9.43774 5.6223C9.25198 6.09592 9.07671 6.07103 8.91342 5.54733C8.64527 5.84179 8.72017 6.06668 9.13813 6.22201C8.97035 6.25934 8.82054 6.3343 8.68871 6.4469C8.94788 6.61137 9.19805 6.78619 9.43774 6.97165C8.95087 7.13612 8.65126 7.46086 8.53891 7.94618C8.38161 7.92384 8.23181 7.94873 8.08949 8.02114C8.66924 8.2231 8.66924 8.39806 8.08949 8.54589C8.12095 8.63375 8.17039 8.70871 8.2393 8.77078C7.97714 8.8414 7.72846 8.9414 7.49027 9.07064C7.29103 9.17064 7.29103 9.27049 7.49027 9.37049C7.29103 9.42042 7.09029 9.4705 6.89105 9.52042C6.94049 9.57035 6.99142 9.62042 7.04086 9.67035C6.88356 9.74411 6.73375 9.71923 6.59144 9.59539C6.44163 9.67035 6.29183 9.74531 6.14202 9.82028C6.34126 9.92028 6.34126 10.0201 6.14202 10.1201C6.01768 10.1452 5.89185 10.1701 5.76751 10.1951C5.39749 10.157 5.02298 10.1071 4.64397 10.0452C4.21852 10.1888 3.81854 10.0888 3.44552 9.74531C3.29872 9.81683 3.17438 9.91668 3.07101 10.0452C2.97214 9.56765 2.67253 9.31772 2.17218 9.29553C1.90553 9.44231 1.65535 9.39238 1.42315 9.1456C1.27035 9.31562 1.17148 9.2657 1.12354 8.99567C0.765356 9.1609 0.690453 9.06104 0.898833 8.69582C0.675622 8.49701 0.475782 8.27212 0.299611 8.02114C0.299761 7.81139 0.349796 7.5865 0.449416 7.34647C0.231749 7.00118 0.0819436 6.67629 0 6.37194C0.0999202 6.27193 0.199691 6.17208 0.299611 6.07208C0.233696 5.58826 0.233696 5.11344 0.299611 4.64777C-0.0725058 4.43877 -0.0725058 4.21387 0.299611 3.97309C0.324928 3.66064 0.324928 3.33575 0.299611 2.99856C0.433986 2.97322 0.583792 2.92329 0.749027 2.84863C0.860782 2.66332 0.910667 2.46332 0.898833 2.24892C1.41267 2.27141 1.4621 2.09659 1.04864 1.72417C1.24189 1.51277 1.41566 1.28788 1.57296 1.0495C1.80366 1.4639 1.97893 1.43886 2.09728 0.974531C1.58045 0.930603 1.52951 0.730749 1.94747 0.37482C2.13323 0.306453 2.25907 0.381417 2.32198 0.599712C2.41786 0.329392 2.59163 0.129538 2.8463 0C3.45451 0.473172 4.0792 0.523248 4.71887 0.149928C5.50086 0.549786 6.12554 1.1495 6.59144 1.94906C6.79967 1.7774 6.99891 1.7774 7.19066 1.94906C7.11126 2.05281 7.01239 2.12778 6.89105 2.17395C7.20864 2.34217 7.48428 2.56707 7.71498 2.84863C7.76442 2.7987 7.81535 2.74863 7.86478 2.6987C8.00261 3.07052 8.22731 3.17053 8.53891 2.99856C8.86249 3.24264 8.86249 3.39257 8.53891 3.44834Z" fill="var(--fill-0, #A7C2E6)"/>
</g>
</svg>
