<svg preserveAspectRatio="none" width="100%" height="100%" overflow="visible" style="display: block;" viewBox="0 0 87.6362 34.9365" fill="none" xmlns="http://www.w3.org/2000/svg">
<g id="Group">
<path id="Vector" fill-rule="evenodd" clip-rule="evenodd" d="M30.2607 0C30.6148 0.154276 30.9643 0.154276 31.3093 0C31.5833 0.14468 31.8579 0.294608 32.1333 0.449784C32.4305 0.413651 32.7051 0.313649 32.9572 0.149928C33.1037 0.221444 33.2285 0.321296 33.3317 0.449784C34.1756 -0.131787 35.0245 -0.131787 35.8784 0.449784C36.1376 0.263873 36.4117 0.113945 36.7023 0C37.1053 0.181413 37.5053 0.181413 37.9008 0C38.1165 0.285013 38.3652 0.334939 38.6498 0.149928C38.8326 0.264323 38.9824 0.414251 39.0992 0.599712C39.4018 0.443787 39.7014 0.293859 39.9981 0.149928C40.7201 0.467325 41.4437 0.667179 42.1702 0.74964C42.3755 0.569276 42.6002 0.419348 42.8444 0.299856C43.0541 0.614255 43.3297 0.664181 43.6683 0.449784C43.9245 0.440638 44.1237 0.54064 44.2675 0.74964C44.4248 0.597163 44.6001 0.572125 44.7918 0.674676C44.9162 0.899568 45.0914 1.07453 45.3161 1.19942C45.8749 1.26164 46.3992 1.11172 46.8891 0.74964C47.3505 0.854589 47.6501 1.12941 47.7879 1.57424C48.6194 1.84786 49.3924 1.72297 50.1099 1.19942C50.3601 1.34935 50.6088 1.49928 50.8589 1.64921C51.2904 1.40168 51.6155 1.50168 51.8327 1.94906C52.011 1.74816 52.2357 1.64816 52.5068 1.64921C52.8274 1.73572 53.151 1.78564 53.4805 1.79914C53.4581 1.95686 53.4835 2.10679 53.5554 2.24892C53.7217 2.01848 53.9464 1.91863 54.2296 1.94906C54.2296 2.09899 54.2296 2.24892 54.2296 2.39885C54.64 2.50575 55.0385 2.50575 55.428 2.39885C55.9179 2.79586 56.4167 2.79586 56.9261 2.39885C57.1987 2.58686 57.4983 2.73678 57.8249 2.84863C58.532 2.6005 59.1806 2.7005 59.7724 3.14849C60.0121 3.00081 60.2607 2.97592 60.5214 3.07352C60.9438 3.67938 61.4442 3.75435 62.0195 3.29841C62.2636 3.38028 62.5138 3.43035 62.7685 3.44834C62.7685 3.59827 62.7685 3.7482 62.7685 3.89813C63.0531 3.90817 63.3273 3.8581 63.5924 3.7482C63.9789 3.86184 64.3025 4.0617 64.5661 4.34791C66.3638 4.67175 68.136 5.07206 69.8842 5.54733C70.2992 5.41989 70.7231 5.37042 71.1576 5.39741C71.3059 6.01961 71.6804 6.22051 72.2811 5.99712C72.6991 6.28198 73.1485 6.48138 73.6294 6.59683C73.8855 6.57434 74.1342 6.52486 74.3784 6.4469C75.7237 6.94016 77.0479 7.4904 78.3482 8.09611C78.7722 7.85173 79.1212 7.92669 79.3969 8.321C79.692 8.39596 79.9916 8.41995 80.2957 8.39596C80.2568 8.61786 80.3062 8.81726 80.4455 8.99568C80.85 9.19808 81.199 9.47245 81.4942 9.82028C81.8312 10.0677 82.1803 10.1186 82.5428 9.97021C82.6776 10.3 82.8274 10.6254 82.9922 10.9447C83.6304 11.2911 84.2805 11.6164 84.9397 11.9193C85.0805 12.2761 85.1299 12.6509 85.0895 13.0437C85.2887 13.0437 85.4895 13.0437 85.6887 13.0437C85.7456 13.5295 85.9209 13.9793 86.213 14.3931C86.3883 14.6015 86.613 14.7274 86.8872 14.7679C87.1643 15.0438 87.2137 15.3436 87.037 15.6675C87.1973 15.7784 87.2976 15.9283 87.3366 16.1173C87.2362 16.567 87.1373 17.0168 87.037 17.4666C87.7605 18.0153 87.8115 18.6151 87.1868 19.2657C87.3291 19.3377 87.4789 19.3632 87.6362 19.3407C87.0519 20.4712 86.6265 21.6706 86.3628 22.939C85.7981 23.0469 85.5479 23.3978 85.6138 23.9885C85.0281 24.1609 84.8528 24.5102 85.0895 25.038C84.8843 25.014 84.6835 25.0395 84.4903 25.1129C84.6161 25.2644 84.6655 25.4398 84.6401 25.6377C84.4903 25.6377 84.3405 25.6377 84.1907 25.6377C84.2161 25.8356 84.1667 26.011 84.0409 26.1624C83.4162 26.1489 83.0656 26.4488 82.9922 27.062C82.3675 27.2374 81.8687 27.5867 81.4942 28.1115C81.244 28.161 80.9953 28.2119 80.7451 28.2614C80.0965 28.9376 79.3474 29.4623 78.4981 29.8357C78.4097 29.8042 78.3348 29.7547 78.2733 29.6857C78.0726 29.8911 77.8734 30.0905 77.6741 30.2854C77.0734 30.4369 76.4487 30.5613 75.8016 30.6603C75.3267 31.0351 74.8533 31.4099 74.3784 31.7847C73.8676 31.3559 73.4676 31.4549 73.18 32.0846C73.0466 31.9976 72.8968 31.9481 72.7305 31.9346C72.4534 32.0456 72.2032 32.1955 71.9815 32.3844C71.7823 32.284 71.5815 32.185 71.3823 32.0846C70.9973 32.3574 70.5973 32.4069 70.1838 32.2345C69.4303 32.4849 68.6813 32.7353 67.9368 32.9841C67.6701 32.8372 67.4199 32.8867 67.1877 33.1341C66.8986 33.1176 66.599 33.0681 66.2889 32.9841C65.817 33.3095 65.2927 33.5089 64.716 33.5839C64.4628 33.5449 64.2381 33.4444 64.0418 33.284C63.4156 33.4864 62.8419 33.7863 62.3191 34.1836C61.6045 33.8582 60.8794 33.6573 60.1469 33.5839C59.5102 33.8642 58.887 34.1641 58.2743 34.4834C57.8444 34.2975 57.4204 34.0981 57.001 33.8837C56.5036 34.0501 56.1036 34.35 55.8025 34.7833C55.4565 34.6124 55.1823 34.362 54.9786 34.0336C54.8782 34.1341 54.7794 34.233 54.679 34.3335C53.9959 33.8867 53.4716 34.0366 53.106 34.7833C53.0057 34.6828 52.9068 34.5839 52.8064 34.4834C52.4798 34.9617 52.0544 35.0606 51.5331 34.7833C51.5331 34.5839 51.5331 34.383 51.5331 34.1836C50.5444 34.2061 49.5961 34.407 48.6868 34.7833C48.0067 34.2196 47.3071 34.1956 46.5895 34.7083C46.1146 34.8552 45.6907 34.7803 45.3161 34.4834C45.1499 34.7143 44.9252 34.8133 44.642 34.7833C44.4997 34.2076 44.1507 34.0576 43.5934 34.3335C43.4466 34.2615 43.3222 34.1626 43.2189 34.0336C42.7395 34.1881 42.3155 34.4384 41.9455 34.7833C41.6789 34.5734 41.4302 34.3485 41.1965 34.1086C40.6887 34.0711 40.1898 33.9962 39.6984 33.8837C39.4093 34.0156 39.1352 34.1656 38.8745 34.3335C38.3142 34.3995 37.766 34.299 37.2267 34.0336C36.6154 34.3065 36.0911 34.2061 35.6537 33.7338C35.3436 33.9017 35.0185 34.0516 34.68 34.1836C34.4642 34.0861 34.2395 34.0366 34.0058 34.0336C34.0394 33.4324 33.8646 33.332 33.4815 33.7338C33.0946 33.4819 32.6702 33.332 32.2082 33.284C31.7026 33.8342 31.2281 33.8342 30.785 33.284C30.6259 33.374 30.4513 33.4234 30.2607 33.4339C29.2088 32.9662 28.1351 32.9167 27.0399 33.284C26.7994 33.194 26.5998 33.0441 26.4407 32.8342C26.1349 32.9722 25.8103 33.0231 25.4669 32.9841C25.4669 32.8342 25.4669 32.6843 25.4669 32.5344C25.1411 32.5613 24.8415 32.6618 24.5681 32.8342C24.3026 32.7053 24.1029 32.5059 23.9689 32.2345C23.4917 32.5853 22.9923 32.6108 22.4708 32.3095C22.3884 32.0336 22.2386 31.8087 22.0214 31.6348C21.452 31.7158 20.9028 31.8657 20.3735 32.0846C20.1163 31.9092 20.0164 31.6588 20.0739 31.3349C19.2064 31.3694 18.3825 31.2195 17.6021 30.8852C17.3524 30.9856 17.1028 31.0846 16.8531 31.185C16.5887 31.0756 16.4139 30.8747 16.3288 30.5853C16.0934 30.7067 15.8437 30.7562 15.5798 30.7352C15.6214 30.4579 15.5215 30.2585 15.2802 30.1355C14.8558 30.3499 14.4063 30.4504 13.9319 30.4354C13.964 30.1895 13.9139 29.9646 13.7821 29.7607C13.2656 29.4713 12.7162 29.2719 12.1342 29.161C11.4502 28.5403 10.6512 28.2899 9.73735 28.4113C9.28794 28.3619 9.03821 28.1115 8.98833 27.6617C8.69276 27.5867 8.39315 27.5628 8.08949 27.5867C8.12155 27.3409 8.07152 27.116 7.93969 26.9121C7.64412 26.8371 7.34451 26.8131 7.04086 26.8371C7.07127 26.5537 6.9715 26.3288 6.74124 26.1624C6.06158 25.7006 5.41247 25.1999 4.79377 24.6631C4.44293 24.4877 4.09328 24.3123 3.74514 24.1384C3.68372 23.6136 3.40912 23.2643 2.92121 23.0889C2.79941 22.2418 2.32498 21.792 1.49805 21.7395C1.52277 21.2373 1.49775 20.738 1.42315 20.2403C1.15125 20.0004 0.976432 19.7005 0.898833 19.3407C0.720714 19.2013 0.521023 19.1518 0.299611 19.1908C0.251374 18.8579 0.351294 18.5821 0.599222 18.3662C0.363578 17.9524 0.313543 17.5281 0.449416 17.0918C-0.0928794 16.2012 -0.0928794 15.3016 0.449416 14.3931C0.271597 14.2402 0.121792 14.0647 0 13.8683C0.558025 13.3301 0.832619 12.7049 0.82393 11.9942C0.975383 11.8683 1.15021 11.8188 1.34825 11.8443C1.87691 10.2401 2.77575 8.86674 4.04475 7.72129C4.55963 7.55637 4.93414 7.23102 5.16829 6.74676C5.27585 6.88919 5.40064 6.91468 5.5428 6.82172C5.74803 6.60582 5.89784 6.35544 5.99222 6.07208C6.44598 5.99112 6.89539 5.89067 7.34047 5.77223C7.58001 5.6118 7.72981 5.38691 7.78988 5.09755C8.3557 4.80669 8.90503 4.48285 9.43774 4.12302C9.63009 4.02047 9.80492 4.04551 9.96206 4.19798C10.0344 4.05585 10.0593 3.90592 10.037 3.7482C10.2915 3.77219 10.5412 3.7473 10.786 3.67323C10.9647 3.36933 11.2144 3.14444 11.535 2.99856C11.6815 3.07007 11.8063 3.16993 11.9095 3.29841C12.2087 3.1227 12.4833 2.92284 12.7335 2.6987C12.9053 2.74638 13.0302 2.84623 13.108 2.99856C13.592 2.85673 13.9665 2.58176 14.2315 2.17395C14.8454 2.00199 15.3697 2.12688 15.8045 2.54877C16.4053 2.34727 16.9297 2.02238 17.3774 1.57424C18.0892 1.90573 18.7132 1.73092 19.25 1.0495C19.3607 1.21052 19.5105 1.31052 19.6994 1.34935C20.1652 1.12881 20.6396 0.928804 21.1226 0.74964C21.367 0.869132 21.5918 1.01906 21.7967 1.19942C22.1547 1.08278 22.4794 0.907814 22.7704 0.674676C22.98 0.585469 23.1797 0.610507 23.3696 0.74964C23.7786 0.372421 24.1531 0.422347 24.4932 0.899568C24.643 0.649638 24.8427 0.449784 25.0924 0.299856C25.5096 0.509005 25.934 0.708859 26.3658 0.899568C27.0447 0.673926 27.6938 0.424146 28.3132 0.149928C28.3627 0.54109 28.5874 0.79102 28.9874 0.899568C29.2566 0.651287 29.5812 0.501359 29.9611 0.449784C30.0997 0.321296 30.1996 0.171368 30.2607 0ZM29.6615 8.09611C29.6435 8.25953 29.5436 8.35848 29.3619 8.39596C28.9802 8.35998 28.6056 8.35998 28.2383 8.39596C27.8252 8.58937 27.4506 8.83975 27.1148 9.1456C26.4986 8.50091 26.0492 8.60137 25.7665 9.44546C25.9017 9.86376 25.9515 10.2626 25.9163 10.6449C25.5562 11.0902 25.3815 11.5894 25.392 12.1442C25.8236 11.9148 26.1731 12.0152 26.4407 12.444C26.5978 12.2911 26.7726 12.2671 26.965 12.3691C27.1398 12.5445 27.3145 12.7184 27.4893 12.8938C27.7113 12.552 27.961 12.552 28.2383 12.8938C28.3793 12.6599 28.5541 12.4605 28.7626 12.2941C28.9623 12.4935 29.1622 12.4935 29.3619 12.2941C29.5313 12.4815 29.731 12.6314 29.9611 12.7439C30.3903 12.4485 30.8397 12.3481 31.3093 12.444C31.6241 12.4635 31.8488 12.6134 31.9835 12.8938C32.1998 12.6449 32.4745 12.546 32.8074 12.5939C32.7999 12.9073 32.9497 13.1067 33.2568 13.1937C33.3659 12.9403 33.5157 12.7154 33.7062 12.519C33.8443 11.9882 33.8443 11.4395 33.7062 10.8698C34.0719 10.4215 34.2467 9.89674 34.2305 9.29553C34.677 8.97319 34.6275 8.67333 34.0807 8.39596C33.7534 8.58487 33.4288 8.58487 33.107 8.39596C32.7601 8.69432 32.3607 8.84425 31.9086 8.84575C31.9414 8.66883 31.8915 8.5189 31.7588 8.39596C31.4843 8.50841 31.2346 8.65834 31.0097 8.84575C30.81 8.64634 30.6102 8.44544 30.4105 8.24604C30.2571 8.44844 30.0574 8.54889 29.8113 8.54589C29.8468 8.35248 29.7969 8.20256 29.6615 8.09611ZM41.9455 8.84575C41.7688 9.60138 41.5695 10.351 41.3463 11.0947C41.3643 11.3031 41.4137 11.504 41.4961 11.6944C41.3403 11.9972 41.1905 12.2971 41.0467 12.5939C41.1231 12.8323 41.2729 13.0062 41.4961 13.1187C41.3957 13.2191 41.2969 13.3181 41.1965 13.4185C41.5381 13.453 41.8377 13.579 42.0953 13.7934C42.5627 13.6689 43.0376 13.57 43.5185 13.4935C44.4967 14.0422 45.5214 14.0932 46.5895 13.6434C46.8187 13.1577 47.0179 12.6569 47.1887 12.1442C46.9745 11.7978 47.0734 11.5729 47.4883 11.4695C47.367 11.423 47.2681 11.348 47.1887 11.2446C47.8524 10.3645 47.752 9.61488 46.8891 8.99568C46.5446 9.21457 46.1955 9.26405 45.8405 9.1456C45.6113 9.63287 45.3356 9.68235 45.0165 9.29553C44.8577 9.38549 44.6825 9.43496 44.4922 9.44546C44.1641 9.37799 43.8885 9.22806 43.6683 8.99568C43.0346 9.42597 42.4609 9.37649 41.9455 8.84575ZM17.8268 9.74532C17.2884 10.1891 16.6644 10.489 15.9543 10.6449C15.5931 10.3975 15.4183 10.4965 15.43 10.9447C15.0953 10.9627 14.7707 10.9133 14.4562 10.7948C13.6774 11.0947 13.6774 11.4935 14.4562 11.9942C14.9599 11.9822 15.4842 11.9568 16.0292 11.9193C16.6831 11.7648 17.3323 11.5894 17.9767 11.3945C18.008 11.3061 18.058 11.2311 18.1265 11.1696C17.5272 10.9702 17.5272 10.7693 18.1265 10.5699C18.0352 10.2776 17.9353 10.0032 17.8268 9.74532ZM56.6265 10.6449C56.4407 10.8758 56.192 11.0257 55.8774 11.0947C55.7246 10.8923 55.5239 10.7918 55.2782 10.7948C55.2572 11.0587 55.3067 11.3091 55.428 11.5445C55.1014 12.3556 54.8018 13.1307 54.5292 13.8683C54.6206 13.9988 54.7449 14.0737 54.9037 14.0932C55.1913 13.8683 55.5164 13.7679 55.8774 13.7934C55.849 14.0333 55.9239 14.2342 56.1021 14.3931C56.8467 14.1922 57.6451 13.9928 58.499 13.7934C58.8376 13.8473 59.1627 13.9478 59.4728 14.0932C59.8712 13.8518 60.1454 13.9508 60.2967 14.3931C60.6068 14.2791 60.9319 14.2042 61.2704 14.1682C61.5131 14.0408 61.564 13.8908 61.4202 13.7184C61.609 13.4395 61.7588 13.1397 61.8696 12.8188C61.8097 12.468 61.8097 12.0932 61.8696 11.6944C61.4307 11.6614 61.0307 11.7618 60.6712 11.9942C60.2592 11.8503 59.9596 11.5744 59.7724 11.1696C59.672 11.1441 59.5731 11.1202 59.4728 11.0947C58.923 11.7319 58.4496 11.6809 58.0496 10.9447C57.8369 11.2236 57.5627 11.2986 57.2257 11.1696C57.1358 10.8593 56.9351 10.6839 56.6265 10.6449ZM12.7335 11.2446C12.5874 11.5504 12.6873 11.5999 13.0331 11.3945C12.9646 11.2746 12.8647 11.2251 12.7335 11.2446ZM73.1051 14.6929C72.9912 14.5595 72.8414 14.459 72.6556 14.3931C72.2557 14.486 71.8811 14.636 71.5321 14.8429C71.2804 14.57 71.1561 14.2956 71.1576 14.0183C70.8205 14.1097 70.47 14.1592 70.1089 14.1682C69.9382 13.8219 69.688 13.5475 69.3599 13.3436C69.3374 13.555 69.312 13.8054 69.285 14.0932C68.924 14.3646 68.7742 14.7139 68.8356 15.1427C69.3989 15.0243 69.9472 14.8743 70.4835 14.6929C70.876 14.7274 71.2505 14.8264 71.607 14.9928C72.1044 14.7229 72.6032 14.6225 73.1051 14.6929ZM74.7529 15.4426C74.9986 15.5505 75.2473 15.5745 75.5019 15.5175C75.2548 15.2657 75.0046 15.2417 74.7529 15.4426ZM11.0856 19.1908C10.9713 19.3062 10.8215 19.3812 10.6362 19.4157C10.786 19.5656 10.9358 19.7155 11.0856 19.8655C12.6663 20.6721 14.2643 21.4472 15.8794 22.1893C16.445 21.7201 16.8696 21.8205 17.1527 22.4892C17.4501 21.933 17.5749 21.3332 17.5272 20.6901C16.8651 20.6016 16.7653 20.3017 17.2276 19.7905C17.1527 19.741 17.0778 19.69 17.0029 19.6406C16.7108 19.7575 16.4362 19.9074 16.179 20.0903C15.7847 20.0679 15.4851 19.8924 15.2802 19.5656C14.4732 19.6765 13.6741 19.7515 12.8833 19.7905C12.5467 19.6541 12.247 19.4546 11.9844 19.1908C11.6974 19.3032 11.3978 19.3032 11.0856 19.1908ZM26.965 20.3902C26.6941 20.5236 26.4194 20.6736 26.141 20.84C25.708 20.4427 25.4334 20.5431 25.3171 21.1398C25.1673 21.1398 25.0175 21.1398 24.8677 21.1398C25.0057 21.6541 25.0556 22.1549 25.0175 22.6391C24.85 22.9495 24.7002 23.2748 24.5681 23.6136C25.1475 24.8131 25.9965 25.038 27.1148 24.2883C27.4136 24.6886 27.8132 24.9375 28.3132 25.038C28.8509 24.8655 29.4002 24.7666 29.9611 24.7381C29.9388 24.8955 29.9636 25.0455 30.036 25.1879C30.5708 24.8146 31.0951 24.8146 31.6089 25.1879C31.7941 25.0754 31.9939 25.026 32.2082 25.038C32.2305 24.8805 32.2056 24.7306 32.1333 24.5882C31.9105 24.4892 31.7358 24.3393 31.6089 24.1384C32.1021 23.6601 32.2519 23.1114 32.0584 22.4892C32.2344 22.5222 32.3842 22.4727 32.5078 22.3393C32.3849 22.0979 32.1851 21.9974 31.9086 22.0394C31.891 21.7425 31.991 21.4922 32.2082 21.2898C32.0293 20.822 31.8046 20.7725 31.534 21.1398C31.3374 20.9794 31.1126 20.879 30.8599 20.84C30.1824 21.0394 29.5831 20.8895 29.0623 20.3902C28.6945 20.6046 28.32 20.804 27.9387 20.9899C27.6819 20.903 27.5071 20.729 27.4144 20.4652C27.2724 20.3932 27.1226 20.3677 26.965 20.3902ZM43.2938 21.4397C42.8938 21.6481 42.4938 21.8475 42.0953 22.0394C42.1178 21.882 42.0923 21.7321 42.0204 21.5896C41.9006 21.7845 41.7253 21.885 41.4961 21.8895C40.7576 21.4742 40.1583 21.6241 39.6984 22.3393C39.9471 22.7276 39.9966 23.1279 39.8482 23.5387C40.4325 23.867 40.4325 24.1909 39.8482 24.5132C40.0385 24.8191 39.9891 25.0949 39.6984 25.3378C39.8977 25.5372 39.8977 25.7381 39.6984 25.9375C39.7239 25.987 39.7479 26.038 39.7733 26.0875C39.9426 25.8311 40.1673 25.7561 40.4475 25.8626C40.5688 26.1579 40.7681 26.3828 41.0467 26.5372C41.1471 26.4368 41.2459 26.3378 41.3463 26.2374C42.0774 26.4278 42.7769 26.3273 43.4436 25.9375C43.7627 26.02 43.9874 26.2209 44.1177 26.5372C44.5372 26.4308 44.9611 26.3303 45.391 26.2374C45.5558 25.3198 45.6547 24.4203 45.6907 23.5387C45.5858 23.2328 45.4854 22.933 45.391 22.6391C45.5483 22.6616 45.6981 22.6361 45.8405 22.5642C45.6877 22.4862 45.5888 22.3618 45.5409 22.1893C45.6622 21.9659 45.6622 21.7665 45.5409 21.5896C45.072 21.6796 44.6225 21.8295 44.1926 22.0394C43.893 21.8355 43.5934 21.6361 43.2938 21.4397ZM53.93 21.8895C53.8116 22.5702 53.536 23.1699 53.106 23.6886C52.9892 24.4457 53.0146 25.1954 53.1809 25.9375C53.4656 26.047 53.7652 26.047 54.0798 25.9375C54.0798 26.0875 54.0798 26.2374 54.0798 26.3873C54.5741 26.3648 55.0235 26.2149 55.428 25.9375C55.6497 26.1789 55.9254 26.3288 56.2519 26.3873C56.8661 26.3168 57.3905 26.068 57.8249 25.6377C58.0196 25.7261 58.144 25.8761 58.1994 26.0875C58.4541 25.951 58.7282 25.9015 59.0233 25.9375C59.0233 25.5882 59.0233 25.2374 59.0233 24.888C59.1806 24.9105 59.3304 24.885 59.4728 24.8131C59.0878 24.5687 59.1132 24.3438 59.5477 24.1384C59.675 23.1939 59.326 22.4952 58.499 22.0394C58.15 22.2388 57.7994 22.2388 57.4504 22.0394C57.1987 22.1923 56.95 22.3423 56.7014 22.4892C56.4647 22.4157 56.2894 22.2658 56.177 22.0394C56.0767 22.0889 55.9778 22.1399 55.8774 22.1893C55.7096 22.0334 55.5089 21.933 55.2782 21.8895C54.8228 22.0664 54.3734 22.0664 53.93 21.8895ZM68.1615 22.789C67.7195 23.3033 67.369 23.8775 67.1128 24.5132C67.387 24.5537 67.6117 24.6796 67.787 24.888C68.0132 24.2628 68.3622 24.1624 68.8356 24.5882C68.9974 24.2763 69.2461 24.0769 69.5846 23.9885C69.9367 24.0364 70.2857 24.0859 70.6333 24.1384C71.1081 23.855 71.583 23.6796 72.0564 23.6136C71.7853 23.4922 71.5606 23.3168 71.3823 23.0889C71.1696 23.2493 70.9703 23.2493 70.7831 23.0889C70.6198 23.2073 70.446 23.3078 70.2588 23.3888C70.0595 23.2388 69.8588 23.0889 69.6595 22.939C69.2431 23.1834 68.7937 23.2838 68.3113 23.2388C68.3472 23.0454 68.2963 22.8955 68.1615 22.789Z" fill="var(--fill-0, #A7C2E6)"/>
</g>
</svg>
