<svg preserveAspectRatio="none" width="100%" height="100%" overflow="visible" style="display: block;" viewBox="0 0 9.88716 9.90617" fill="none" xmlns="http://www.w3.org/2000/svg">
<g id="Group">
<path id="Vector" fill-rule="evenodd" clip-rule="evenodd" d="M6.59144 0.00792116C6.74874 -0.0144181 6.89854 0.0104699 7.04086 0.0828851C7.24759 0.371496 7.4723 0.646464 7.71498 0.907489C7.91422 0.707635 8.11496 0.707635 8.3142 0.907489C8.6977 2.11396 9.22202 3.23842 9.88716 4.28087C9.80926 4.85149 9.65946 5.40113 9.43774 5.93007C9.50665 5.99214 9.55609 6.06711 9.58755 6.15497C9.27595 6.69021 9.00181 7.23999 8.76362 7.80417C8.61681 8.14001 8.54191 8.48979 8.53891 8.85367C8.21234 8.91184 7.93669 9.06177 7.71498 9.30345C7.58465 9.26822 7.45881 9.21814 7.34047 9.15352C7.09029 9.68712 6.66484 9.9369 6.06712 9.90316C5.05593 9.89297 4.03276 9.818 2.99611 9.67827C2.60647 9.27122 2.15705 9.19625 1.64786 9.45338C1.64786 9.25353 1.64786 9.05352 1.64786 8.85367C1.44817 8.85367 1.24833 8.85367 1.04864 8.85367C1.06602 8.1637 0.81629 7.58903 0.299611 7.1295C0.297214 6.77732 0.297214 6.42753 0.299611 6.08C-0.070858 5.73802 -0.070858 5.38823 0.299611 5.03051C0.13872 4.91971 0.0387996 4.76978 0 4.58072C0.31549 4.2164 0.365376 3.81654 0.149805 3.3813C0.466195 2.53151 0.840708 1.7069 1.27335 0.907489C1.44008 0.725926 1.6149 0.725926 1.79767 0.907489C2.22911 0.229365 2.77829 0.0794368 3.44553 0.457705C3.80191 0.226516 4.20144 0.126514 4.64397 0.157849C5.12035 0.187235 5.59523 0.237161 6.06712 0.307777C6.31879 0.291585 6.49407 0.191583 6.59144 0.00792116Z" fill="var(--fill-0, #A7C2E6)"/>
</g>
</svg>
