<svg preserveAspectRatio="none" width="100%" height="100%" overflow="visible" style="display: block;" viewBox="0 0 18.7257 8.39596" fill="none" xmlns="http://www.w3.org/2000/svg">
<g id="Group">
<path id="Vector" fill-rule="evenodd" clip-rule="evenodd" d="M16.928 0.299856C17.0607 0.108548 17.2105 0.108548 17.3774 0.299856C17.4513 0.746341 17.676 1.09612 18.0516 1.34935C18.1109 1.82852 18.2856 2.25342 18.5759 2.62374C18.495 2.73124 18.3946 2.8062 18.2763 2.84863C18.2929 2.94114 18.3428 3.0161 18.4261 3.07352C18.1242 3.30666 18.0743 3.58163 18.2763 3.89813C18.4186 3.77429 18.5684 3.7494 18.7257 3.82316C18.4875 3.97999 18.2628 4.15495 18.0516 4.34791C17.9779 4.50518 18.0027 4.65511 18.1265 4.79769C17.8406 5.22874 17.541 5.65378 17.2276 6.07208C17.2775 6.12156 17.3275 6.17253 17.3774 6.22201C17.2029 6.38393 17.0032 6.50987 16.7782 6.59683C16.4931 6.56834 16.2184 6.56834 15.9543 6.59683C15.868 6.98964 15.6682 7.09009 15.3551 6.89668C15.1286 7.26551 14.9287 7.26551 14.7558 6.89668C14.5042 7.17405 14.2795 7.47391 14.0817 7.79625C13.6993 7.41544 13.3247 7.41544 12.9582 7.79625C12.8211 7.67181 12.7213 7.52188 12.6586 7.34647C12.4909 7.50389 12.416 7.67931 12.4339 7.87122C12.2767 7.94468 12.1269 7.92069 11.9844 7.79625C11.6081 8.09161 11.2086 8.14109 10.786 7.94618C10.3441 8.22055 9.89465 8.3195 9.43774 8.24604C9.08106 7.96267 8.68168 7.88771 8.2393 8.02114C8.45802 8.14259 8.5079 8.26703 8.38911 8.39596C8.05819 8.30451 7.73356 8.20556 7.41537 8.09611C6.60612 8.21755 5.83208 8.318 5.09339 8.39596C4.83003 8.30151 4.60532 8.15158 4.41926 7.94618C4.10841 8.15608 3.83382 8.1051 3.59533 7.79625C3.49167 7.87571 3.41676 7.97467 3.37062 8.09611C3.22082 7.6958 3.07101 7.6958 2.92121 8.09611C2.73365 7.87122 2.58384 7.62084 2.47179 7.34647C2.34071 7.64782 2.14087 7.64782 1.87257 7.34647C1.82268 7.39594 1.77265 7.44692 1.72276 7.4964C1.47304 7.31199 1.24833 7.11108 1.04864 6.89668C0.899282 6.90118 0.799362 6.82622 0.749027 6.67179C0.440428 6.20102 0.190702 5.65078 0 5.02259C0.206732 4.82408 0.256767 4.62423 0.149805 4.42287C0.325377 4.36005 0.475183 4.2602 0.599222 4.12302C0.462449 3.91102 0.462449 3.68613 0.599222 3.44834C0.318037 3.27458 0.243134 3.02465 0.374514 2.6987C0.626337 2.39165 0.851045 2.06676 1.04864 1.72417C1.33641 1.6702 1.58614 1.54516 1.79767 1.34935C2.23375 1.57169 2.63328 1.52177 2.99611 1.19942C3.14846 1.57844 3.32328 1.57844 3.52043 1.19942C3.56657 1.32057 3.64147 1.42057 3.74514 1.49928C4.31455 1.16509 4.86388 1.16509 5.393 1.49928C5.71328 1.38788 6.03776 1.28788 6.36673 1.19942C6.81615 1.19942 7.26556 1.19942 7.71498 1.19942C8.45142 1.59688 9.07566 1.44695 9.58755 0.74964C10.2277 1.30722 10.8769 1.30722 11.535 0.74964C11.6349 0.799566 11.7347 0.849642 11.8346 0.899568C12.384 0.699714 12.9332 0.49971 13.4825 0.299856C13.6955 0.491314 13.8453 0.441238 13.9319 0.149928C14.215 0.119493 14.4397 0.219345 14.606 0.449784C14.6522 0.328642 14.7271 0.22864 14.8307 0.149928C15.1232 0.346933 15.3978 0.446785 15.6547 0.449784C15.8073 0.271819 15.9821 0.121891 16.179 0C16.2043 0.134485 16.2542 0.284413 16.3288 0.449784C16.5128 0.198505 16.7124 0.148579 16.928 0.299856ZM16.928 0.299856C16.9306 0.528946 17.0305 0.60391 17.2276 0.524748C17.1461 0.417249 17.0462 0.342285 16.928 0.299856Z" fill="var(--fill-0, #A7C2E6)"/>
</g>
</svg>
