<svg preserveAspectRatio="none" width="100%" height="100%" overflow="visible" style="display: block;" viewBox="0 0 12.7335 12.1454" fill="none" xmlns="http://www.w3.org/2000/svg">
<g id="Group">
<path id="Vector" fill-rule="evenodd" clip-rule="evenodd" d="M3.89494 0.00127989C4.42076 -0.0180608 4.84471 0.181793 5.16829 0.600992C6.24239 -0.067537 7.3914 -0.117613 8.61381 0.451064C8.89545 0.139813 9.22053 0.0897374 9.58755 0.301136C9.66245 0.483448 9.71189 0.658414 9.73735 0.825884C10.0834 0.900398 10.4325 0.925286 10.786 0.900847C10.7935 1.36083 10.8684 1.81061 11.0107 2.2502C11.1111 2.45005 11.2099 2.45005 11.3103 2.2502C11.3837 2.40747 11.3597 2.5574 11.2354 2.69998C11.7882 2.81198 11.938 3.11183 11.6848 3.59955C12.1103 3.67511 12.311 3.92504 12.284 4.34919C12.1073 4.31636 11.9575 4.36628 11.8346 4.49912C12.1088 4.53285 12.3575 4.70767 12.5837 5.02387C12.5357 5.2717 12.3859 5.42162 12.1342 5.47365C12.335 5.82583 12.5342 6.17576 12.7335 6.52314C11.944 7.83606 11.2953 9.23549 10.786 10.7211C10.3261 10.5411 9.95158 10.666 9.66245 11.0959C9.61302 11.046 9.56208 10.9959 9.51265 10.946C9.07222 11.4658 8.5479 11.8657 7.93969 12.1454C7.68951 12.0454 7.44084 11.9456 7.19066 11.8456C6.84761 12.0017 6.49856 12.0017 6.14202 11.8456C5.82593 11.8435 5.55179 11.9433 5.31809 12.1454C4.93759 11.9892 4.58854 11.7894 4.26946 11.5457C4.1616 11.6295 4.03576 11.6795 3.89494 11.6957C3.66125 11.5387 3.41257 11.4387 3.14591 11.3958C3.14591 11.2459 3.14591 11.0959 3.14591 10.946C2.73545 10.6949 2.3115 10.5949 1.87257 10.6462C1.44412 9.88648 1.01868 9.13684 0.599222 8.39724C0.411965 7.94656 0.411965 7.49678 0.599222 7.04789C0.420953 6.90861 0.221712 6.85868 0 6.89796C0.112354 6.46287 0.313093 6.06317 0.599222 5.69854C0.416459 5.44141 0.266654 5.16645 0.149805 4.87394C0.281634 4.60407 0.382004 4.32925 0.449416 4.04933C0.969241 4.08277 1.11905 3.88276 0.898833 3.44962C0.937782 3.19669 1.03815 2.9718 1.19844 2.77495C0.909319 2.13475 1.08459 1.90986 1.72276 2.10027C2.54969 1.48482 3.27325 0.785103 3.89494 0.00127989Z" fill="var(--fill-0, #A7C2E6)"/>
</g>
</svg>
