<svg preserveAspectRatio="none" width="100%" height="100%" overflow="visible" style="display: block;" viewBox="0 0 28.463 32.5344" fill="none" xmlns="http://www.w3.org/2000/svg">
<g id="Group">
<path id="Vector" fill-rule="evenodd" clip-rule="evenodd" d="M27.4144 8.54589C27.6915 8.92371 27.8908 9.29853 28.0136 9.67035C27.6915 9.94322 27.6915 10.1681 28.0136 10.345C28.0451 10.8068 28.0451 11.2821 28.0136 11.7693C28.2099 11.7618 28.3597 11.9118 28.463 12.2191C28.3012 12.543 28.102 12.8428 27.8638 13.1187C28.0406 13.2641 28.2398 13.3391 28.463 13.3436C28.084 13.7439 27.9342 14.1937 28.0136 14.6929C27.6106 15.0678 27.6346 15.4171 28.0885 15.7424C28.138 15.693 28.1889 15.642 28.2383 15.5925C28.2653 15.8909 28.2398 16.1907 28.1634 16.4921C28.0136 16.4921 27.8638 16.4921 27.714 16.4921C28.0676 16.729 28.0676 17.0048 27.714 17.3167C28.0451 17.4606 28.0196 17.6345 27.6391 17.8414C27.4099 18.4996 27.3095 19.1503 27.3395 19.7905C27.2391 20.0903 27.0399 20.2897 26.7403 20.3902C26.5335 20.7335 26.4586 21.0829 26.5156 21.4397C26.3328 21.5296 26.1336 21.5536 25.9163 21.5147C26.0407 21.6511 26.1905 21.7515 26.3658 21.8145C26.165 22.3453 25.8399 22.7696 25.392 23.0889C25.2123 23.5732 25.1374 24.0724 25.1673 24.5882C24.8992 24.5447 24.6505 24.5957 24.4183 24.7381C24.3374 25.044 24.237 25.3438 24.1187 25.6377C23.864 25.4608 23.6153 25.4608 23.3697 25.6377C23.2947 26.041 23.094 26.3648 22.7704 26.6122C22.8918 26.6587 22.9906 26.7336 23.07 26.8371C22.6761 26.9555 22.4019 27.2059 22.2461 27.5867C22.0888 27.4338 21.9135 27.4098 21.7218 27.5118C21.2619 27.9286 21.0117 28.4038 20.9728 28.9361C20.6012 29.1265 20.2267 29.1265 19.8492 28.9361C19.6065 29.2764 19.3324 29.5763 19.0253 29.8357C18.8261 29.8851 18.8261 29.9361 19.0253 29.9856C18.6568 30.233 18.3317 30.5328 18.0516 30.8852C17.8418 30.3439 17.5677 30.2929 17.2276 30.7352C17.3819 30.7952 17.4059 30.8941 17.3025 31.0351C16.8861 31.3934 16.6359 31.3439 16.5535 30.8852C15.8539 31.0876 15.1289 31.3619 14.3813 31.7098C14.209 31.8057 14.0592 31.9316 13.9319 32.0846C13.7132 31.9391 13.5125 31.9886 13.3327 32.2345C13.1275 31.9916 12.8773 31.9167 12.5837 32.0096C12.9147 32.1535 12.8893 32.3275 12.5088 32.5344C12.4084 32.335 12.2586 32.185 12.0593 32.0846C11.7313 32.1086 11.4062 32.2585 11.0856 32.5344C10.6327 31.8762 10.0834 31.7262 9.43774 32.0846C9.20869 32.0801 9.03387 31.9796 8.91342 31.7847C8.6986 32.0306 8.42401 32.1805 8.08949 32.2345C7.64248 31.6603 7.06827 31.3094 6.36673 31.185C6.10967 31.2225 5.88496 31.3214 5.69261 31.4849C5.28229 31.2255 5.33218 31.0501 5.84241 30.9601C5.47464 30.6812 5.15001 30.7052 4.86868 31.0351C4.54405 30.8102 4.56907 30.6348 4.94358 30.5103C4.49057 30.3439 4.21597 30.0186 4.11965 29.5358C3.86258 29.5223 3.58799 29.5718 3.29572 29.6857C3.10457 29.5193 3.10457 29.3694 3.29572 29.2359C2.93724 28.7802 2.53785 28.3544 2.09728 27.9616C2.29697 27.9121 2.49681 27.8611 2.6965 27.8116C2.26026 27.6257 1.86073 27.3753 1.49805 27.062C1.49805 26.7621 1.49805 26.4623 1.49805 26.1624C1.34825 25.912 1.14856 25.7126 0.898833 25.5627C1.272 25.4683 1.272 25.3438 0.898833 25.1879C1.29297 24.963 1.24294 24.8625 0.749027 24.888C0.695996 24.5822 0.695996 24.3078 0.749027 24.0634C0.375862 23.969 0.375862 23.8445 0.749027 23.6886C0.620794 23.2718 0.520874 22.8475 0.449416 22.4142C0.406722 22.1309 0.256916 21.9315 0 21.8145C0.485669 21.7725 0.535704 21.6466 0.149805 21.4397C0.276691 21.2058 0.226805 20.9809 0 20.765C0.124039 20.6286 0.273844 20.5281 0.449416 20.4652C0.325078 20.2028 0.175272 19.9539 0 19.7155C0.160741 19.5026 0.160741 19.3032 0 19.1158C0.539899 18.9164 0.714722 18.5416 0.524319 17.9913C0.354889 18.1563 0.229951 18.1068 0.149805 17.8414C0.264107 17.6585 0.413912 17.5086 0.599222 17.3916C0.220514 17.1937 0.220514 17.0198 0.599222 16.8669C0.549337 16.8174 0.499302 16.7664 0.449416 16.717C0.624988 16.654 0.774794 16.5535 0.898833 16.4171C0.774494 16.1547 0.624689 15.9059 0.449416 15.6675C0.495556 15.4486 0.595477 15.2732 0.749027 15.1427C0.811646 15.0348 0.911416 14.9598 1.04864 14.9178C0.898833 14.8684 0.749027 14.8174 0.599222 14.7679C0.835016 14.4935 0.959804 14.1697 0.973735 13.7934C1.20114 13.6944 1.37596 13.5445 1.49805 13.3436C1.30451 12.9988 1.40428 12.7244 1.79767 12.519C1.71947 12.435 1.66958 12.3346 1.64786 12.2191C2.16963 11.7139 2.26955 11.1636 1.94747 10.5699C2.12874 10.414 2.27854 10.2386 2.39689 10.0452C2.59658 9.99569 2.59658 9.94472 2.39689 9.89524C2.38026 9.80229 2.33037 9.72732 2.24708 9.67035C2.46415 9.50243 2.71388 9.40348 2.99611 9.37049C2.85364 9.26255 2.82878 9.13811 2.92121 8.99567C3.07101 8.9462 3.22082 8.89522 3.37062 8.84575C3.33347 8.27302 3.5832 7.82324 4.11965 7.4964C4.19335 7.33897 4.16849 7.18904 4.04475 7.04661C4.28174 6.82022 4.48158 6.56984 4.64397 6.29697C4.84366 6.2475 4.84366 6.19652 4.64397 6.14704C5.22237 5.68077 5.72182 5.13053 6.14202 4.49784C5.94862 4.34191 5.94862 4.1665 6.14202 3.97309C6.38276 3.97609 6.63249 4.00158 6.89105 4.04805C6.85869 3.72121 6.98348 3.47083 7.26556 3.29841C7.36548 3.39887 7.46526 3.49782 7.56518 3.59827C7.60607 3.35839 7.68098 3.13349 7.78988 2.92359C8.13938 2.94908 8.48903 2.97307 8.83852 2.99856C8.97125 2.87562 9.02113 2.72569 8.98833 2.54877C9.23446 2.55177 9.43415 2.45132 9.58755 2.24892C9.68747 2.29839 9.78724 2.34937 9.88716 2.39885C10.0669 2.24442 10.2668 2.11998 10.4864 2.02403C10.1119 1.89959 10.0869 1.72417 10.4115 1.49928C10.6299 1.68669 10.8546 1.68669 11.0856 1.49928C11.2848 1.59973 11.4856 1.69868 11.6848 1.79913C12.1118 1.59223 12.5372 1.39133 12.9582 1.19942C13.108 1.39883 13.2578 1.39883 13.4076 1.19942C13.508 1.29988 13.6068 1.39883 13.7072 1.49928C14.0877 0.692667 14.6869 0.392811 15.5049 0.599712C15.7955 0.39581 16.1206 0.26987 16.4786 0.224892C16.2704 0.091606 16.2958 0.016642 16.5535 0C17.0524 0.22789 17.5512 0.277367 18.0516 0.149928C18.5489 0.430293 19.0732 0.629697 19.6245 0.74964C19.6245 0.899567 19.6245 1.0495 19.6245 1.19942C19.9241 1.19942 20.2237 1.19942 20.5233 1.19942C20.6252 1.77215 20.9743 2.02253 21.572 1.94906C21.572 2.09899 21.572 2.24892 21.572 2.39885C21.9255 2.37486 22.2746 2.39885 22.6206 2.47381C22.5712 2.52329 22.5203 2.57426 22.4708 2.62374C22.8918 2.97307 23.2168 3.39737 23.4446 3.89813C23.494 3.84865 23.5449 3.79767 23.5944 3.7482C23.6498 3.88613 23.7247 4.01057 23.8191 4.12302C24.258 4.28944 24.6834 4.3644 25.0924 4.34791C25.2497 4.91314 25.4504 5.46337 25.6916 5.99712C25.9912 6.19652 26.2909 6.39742 26.5905 6.59683C26.7013 6.88769 26.6774 7.16206 26.5156 7.42143C26.7463 7.58785 26.8451 7.81274 26.8152 8.09611C27.0144 8.09611 27.2152 8.09611 27.4144 8.09611C27.4144 8.24604 27.4144 8.39596 27.4144 8.54589ZM19.7743 18.5911C19.5601 18.2312 19.635 18.1308 19.999 18.2912C20.1728 18.2162 20.2971 18.0918 20.3735 17.9164C20.3001 17.615 20.3001 17.2897 20.3735 16.9419C20.6522 16.9479 20.8514 16.8234 20.9728 16.567C20.6267 16.2927 20.6776 16.0438 21.1226 15.8174C21.0222 15.7679 20.9233 15.7169 20.823 15.6675C21.0087 15.495 21.1585 15.2941 21.2724 15.0678C21.2484 13.9568 21.2484 12.8323 21.2724 11.6944C20.811 11.2596 20.5114 10.7348 20.3735 10.1201C20.1324 9.89674 19.8822 9.87125 19.6245 10.0452C19.4223 9.41847 19.1227 8.84425 18.7257 8.321C18.501 8.24454 18.3272 8.3195 18.2014 8.54589C17.8523 8.44544 17.5018 8.34649 17.1527 8.24604C17.0029 8.34649 16.8531 8.44544 16.7033 8.54589C16.152 8.47393 15.6277 8.324 15.1304 8.09611C14.7813 8.29551 14.4308 8.29551 14.0817 8.09611C13.8031 8.21305 13.6038 8.41246 13.4825 8.69582C13.3372 8.54739 13.1634 8.44694 12.9582 8.39596C12.5762 8.5264 12.2256 8.7258 11.9095 8.99567C11.8376 9.13811 11.8122 9.28803 11.8346 9.44546C11.6294 9.42147 11.4287 9.44696 11.2354 9.52042C11.3058 9.71533 11.3058 9.94022 11.2354 10.1951C10.6477 10.2401 10.1983 10.5144 9.88716 11.0197C9.74514 11.0917 9.59534 11.1172 9.43774 11.0947C9.48179 11.6359 9.33198 12.1112 8.98833 12.519C9.11671 12.6224 9.21648 12.7469 9.28794 12.8938C9.006 12.8728 8.70639 12.9478 8.38911 13.1187C8.47614 13.2521 8.52618 13.4021 8.53891 13.5685C8.34147 14.0677 8.14163 14.567 7.93969 15.0678C8.05249 15.4066 8.05249 15.7064 7.93969 15.9673C7.71708 16.3886 7.46735 16.7889 7.19066 17.1667C7.29058 17.4666 7.39035 17.7665 7.49027 18.0663C7.01764 18.2132 6.96775 18.4126 7.34047 18.666C7.15905 18.8324 7.15905 19.0079 7.34047 19.1908C6.9673 19.3467 6.9673 19.4711 7.34047 19.5656C7.00505 20.1068 7.00505 20.6316 7.34047 21.1398C7.235 21.5371 7.235 21.9614 7.34047 22.4142C7.51319 22.6961 7.76277 22.822 8.08949 22.789C8.12155 23.0349 8.07152 23.2598 7.93969 23.4637C8.02163 23.6017 8.1214 23.7276 8.2393 23.8385C8.44993 23.6631 8.6246 23.7141 8.76362 23.9885C8.69111 24.7921 9.01574 25.0425 9.73735 24.7381C10.2148 25.3858 10.7141 25.4353 11.2354 24.888C11.5949 25.1924 11.9949 25.2179 12.4339 24.963C12.3335 24.9135 12.2346 24.8625 12.1342 24.8131C12.3604 24.5102 12.5612 24.5342 12.7335 24.888C13.1844 24.7726 13.6338 24.6481 14.0817 24.5132C14.2854 24.2089 14.4353 23.8835 14.5311 23.5387C14.8427 23.5687 15.1423 23.5942 15.43 23.6136C15.6726 23.3018 15.8974 22.9765 16.1041 22.6391C16.1655 22.7081 16.2404 22.7576 16.3288 22.789C16.4681 22.6106 16.5175 22.4112 16.4786 22.1893C17.0404 22.2193 17.5153 22.1189 17.9018 21.8895C18.1759 21.5147 18.4515 21.1398 18.7257 20.765C18.6762 20.7155 18.6253 20.6646 18.5759 20.6151C18.8081 20.4502 19.0088 20.2508 19.1751 20.0154C19.1257 19.9659 19.0747 19.9149 19.0253 19.8654C19.3084 19.7005 19.4088 19.5011 19.3249 19.2657C19.4073 18.9839 19.5571 18.759 19.7743 18.5911ZM23.9689 25.038C23.8251 25.1669 23.8251 25.2674 23.9689 25.3378C24.1591 25.2239 24.1591 25.1249 23.9689 25.038Z" fill="var(--fill-0, #A7C2E6)"/>
</g>
</svg>
