<svg preserveAspectRatio="none" width="100%" height="100%" overflow="visible" style="display: block;" viewBox="0 0 11.9844 11.1273" fill="none" xmlns="http://www.w3.org/2000/svg">
<g id="Group">
<path id="Vector" fill-rule="evenodd" clip-rule="evenodd" d="M8.53891 0.449784C8.80856 0.305403 9.0078 0.405405 9.13813 0.74964C9.25648 0.685021 9.38232 0.634945 9.51265 0.599712C9.67743 0.732248 9.75234 0.882176 9.73735 1.0495C10.0969 0.989674 10.4714 0.989674 10.8609 1.0495C10.9538 1.19178 10.9283 1.31667 10.786 1.42432C10.9942 1.59988 11.1201 1.82477 11.1605 2.09899C11.4347 1.93842 11.6084 2.03842 11.6848 2.39885C11.6054 2.5026 11.5066 2.57756 11.3852 2.62374C11.6234 3.05928 11.7732 3.53395 11.8346 4.04805C11.7597 4.23037 11.7103 4.40533 11.6848 4.5728C11.8062 4.61898 11.905 4.69394 11.9844 4.79769C11.9245 5.08765 11.7747 5.31255 11.535 5.47237C11.6189 5.72365 11.7687 5.9235 11.9844 6.07208C11.6129 6.20927 11.5125 6.43416 11.6848 6.74676C11.6084 7.21813 11.4826 7.66791 11.3103 8.09611C11.2609 7.94618 11.2099 7.79625 11.1605 7.64632C11.0182 7.93943 10.8175 8.18936 10.5613 8.39596C10.5118 8.34604 10.4609 8.29596 10.4115 8.24604C9.8587 8.97499 9.33438 9.72463 8.83852 10.495C8.59734 10.6176 8.34866 10.7176 8.08949 10.7948C7.77191 10.6401 7.44833 10.6401 7.11576 10.7948C6.91652 10.7566 6.76671 10.6566 6.66634 10.495C6.57346 10.7372 6.42366 10.9371 6.21693 11.0947C5.89035 11.1858 5.59074 11.0858 5.31809 10.7948C5.25667 10.8633 5.18177 10.9134 5.09339 10.9447C4.83722 10.3996 4.66344 10.3996 4.56907 10.9447C4.31889 10.6152 4.01928 10.5651 3.67023 10.7948C3.63278 10.6263 3.55788 10.4764 3.44553 10.345C3.1594 10.4759 2.88376 10.6258 2.6216 10.7948C2.39239 10.2566 2.19315 9.70678 2.02237 9.1456C1.49805 8.76539 1.02467 8.34064 0.599222 7.87122C0.665136 7.50404 0.665136 7.15411 0.599222 6.82172C0.349047 6.59593 0.199241 6.32111 0.149805 5.99712C0.155798 5.67222 0.106362 5.32244 0 4.94762C0.379008 4.34251 0.728055 3.71791 1.04864 3.07352C0.675623 2.72584 0.725058 2.6008 1.19844 2.6987C1.34825 2.49885 1.49805 2.29884 1.64786 2.09899C1.73625 2.13033 1.81115 2.1804 1.87257 2.24892C1.90253 1.98565 1.97743 1.73587 2.09728 1.49928C2.59463 1.73781 2.91971 1.58789 3.07101 1.0495C3.12045 1.09942 3.17138 1.1495 3.22082 1.19942C3.5459 0.906314 3.89494 0.806462 4.26946 0.899568C4.36833 0.369123 4.64397 0.219195 5.09339 0.449784C5.27914 0.369272 5.45442 0.269271 5.6177 0.149928C6.32628 0.47842 7.00041 0.47842 7.64008 0.149928C7.8513 0.325044 8.02508 0.275118 8.1644 0C8.3202 0.130887 8.44603 0.280815 8.53891 0.449784Z" fill="var(--fill-0, #A7C2E6)"/>
</g>
</svg>
