<svg preserveAspectRatio="none" width="100%" height="100%" overflow="visible" style="display: block;" viewBox="0 0 28.0784 24.2883" fill="none" xmlns="http://www.w3.org/2000/svg">
<g id="Group">
<path id="Vector" fill-rule="evenodd" clip-rule="evenodd" d="M0.364424 1.64921C0.523218 1.28323 0.722459 0.933301 0.963646 0.599712C1.39658 0.487566 1.7711 0.287712 2.08719 0C2.51114 0.294009 2.98602 0.493863 3.51034 0.599712C4.01518 0.408554 4.51553 0.433592 5.00839 0.674676C5.63758 1.45385 6.3117 2.17845 7.03077 2.84863C7.07721 3.15688 7.15211 3.45674 7.25547 3.7482C7.53112 3.85765 7.80526 3.95765 8.0794 4.04805C8.18726 4.41523 8.33707 4.76516 8.52882 5.09755C8.59024 5.02903 8.66514 4.97896 8.75353 4.94762C8.8539 5.14748 8.95277 5.34748 9.05314 5.54733C9.80666 5.63279 10.2815 6.03265 10.4763 6.74676C10.9002 6.57179 11.0261 6.69683 10.8508 7.12158C11.1249 7.16251 11.3497 7.28755 11.5249 7.4964C11.8141 7.83493 12.0388 8.20975 12.1991 8.62086C12.5526 8.64409 12.9016 8.64409 13.2477 8.62086C13.369 9.08188 13.6686 9.33181 14.1465 9.37049C14.2739 9.778 14.4237 10.1777 14.5959 10.5699C14.927 10.7264 15.2776 10.8263 15.6446 10.8698C15.9652 11.3164 16.3157 11.7412 16.6932 12.1442C17.0722 11.7815 17.3464 11.8813 17.5171 12.444C17.6744 12.2915 17.8497 12.2665 18.0415 12.3691C18.2602 13.3517 18.8594 13.7766 19.8391 13.6434C20.4129 14.5316 21.2113 15.1313 22.236 15.4426C22.5896 15.9991 23.0629 16.149 23.6592 15.8924C23.9228 16.0618 24.197 16.2117 24.4831 16.3421C24.5625 16.6591 24.7123 16.9341 24.9325 17.1667C25.5317 17.5165 26.131 17.8665 26.7302 18.2162C27.1721 18.8671 27.5706 19.5418 27.9286 20.2403C27.6785 20.5416 27.5781 20.8914 27.629 21.2898C27.8058 21.2569 27.9556 21.3069 28.0784 21.4397C27.8792 21.6395 27.6785 21.8395 27.4792 22.0394C27.5511 22.186 27.65 22.3109 27.7788 22.4142C27.4747 22.9171 27.1751 23.4168 26.88 23.9135C26.3167 24.1783 25.7415 24.2033 25.1572 23.9885C24.8441 24.0453 24.5445 24.1453 24.2584 24.2883C23.8344 24.0391 23.385 23.8393 22.9101 23.6886C22.6764 23.7041 22.4517 23.7541 22.236 23.8385C21.457 23.4573 20.6571 23.1075 19.8391 22.789C19.6968 22.8621 19.547 22.912 19.3897 22.939C19.0482 22.7721 18.6976 22.6222 18.3411 22.4892C18.0939 21.9929 17.7449 21.5931 17.2924 21.2898C16.9584 21.2069 16.6093 21.2069 16.2438 21.2898C16.2828 20.9461 16.2318 20.6212 16.094 20.3152C15.6161 20.3151 15.1922 20.1902 14.8207 19.9404C14.6169 20.0723 14.3922 20.1224 14.1465 20.0903C14.142 19.5193 13.8424 19.2443 13.2477 19.2657C12.9661 18.3837 12.3668 17.9839 11.45 18.0663C11.05 17.4666 10.6516 16.8669 10.2516 16.2672C9.64637 15.8139 8.99621 15.4141 8.30411 15.0678C8.0824 14.7704 7.83223 14.4956 7.55509 14.2432C7.21203 14.1052 6.86298 14.1052 6.50645 14.2432C6.47798 13.9337 6.40308 13.6338 6.28174 13.3436C6.13193 13.2937 5.98213 13.2436 5.83232 13.1937C5.18067 11.6926 4.1575 10.518 2.76131 9.67035C2.55458 9.38174 2.32987 9.10677 2.08719 8.84575C1.78907 8.2204 1.5389 7.57076 1.33816 6.89668C1.21382 7.2715 1.03855 7.29654 0.813841 6.97165C0.863277 6.92172 0.91421 6.87165 0.963646 6.82172C0.0183739 5.49126 -0.231801 4.04191 0.214619 2.47381C0.0887825 2.17455 0.138218 1.89974 0.364424 1.64921Z" fill="var(--fill-0, #A7C2E6)"/>
</g>
</svg>
