<svg preserveAspectRatio="none" width="100%" height="100%" overflow="visible" style="display: block;" viewBox="0 0 22.9554 36.8823" fill="none" xmlns="http://www.w3.org/2000/svg">
<g id="Group">
<path id="Vector" fill-rule="evenodd" clip-rule="evenodd" d="M3.44553 0C3.67323 0.00164921 3.847 0.101501 3.96984 0.299856C4.24698 0.140782 4.5466 0.0409303 4.86868 0C5.20124 0.154726 5.52482 0.154726 5.84241 0C5.98922 0.0715156 6.11356 0.171368 6.21693 0.299856C6.32778 0.138833 6.47759 0.0388313 6.66634 0C7.11576 0.199854 7.56517 0.199854 8.01459 0C8.3127 0.0980529 8.51195 0.297907 8.61381 0.599712C8.90893 0.428794 9.18457 0.22894 9.43774 0C10.0519 0.903316 10.8504 1.10332 11.8346 0.599712C12.2646 1.10722 12.7889 1.4573 13.4076 1.64921C13.5709 1.53076 13.7446 1.43031 13.9319 1.34935C14.9011 2.37186 15.9738 3.27143 17.1527 4.04805C17.2786 3.82166 17.4523 3.7467 17.677 3.82316C17.9077 4.33142 18.107 4.85617 18.2763 5.3974C18.4845 5.201 18.6343 5.25048 18.7257 5.54733C18.9039 5.68677 19.1032 5.73624 19.3249 5.69726C19.1676 6.31496 19.268 6.91468 19.6245 7.4964C19.3908 7.92969 19.4403 8.3285 19.7743 8.69582C19.5451 9.01816 19.4447 9.34201 19.4747 9.67035C19.9196 10.1741 19.9451 10.6479 19.5496 11.0947C19.4073 11.8323 19.1586 12.5325 18.8006 13.1937C18.6777 13.528 18.7272 13.8279 18.9504 14.0932C19.1107 13.8264 19.3354 13.7514 19.6245 13.8683C19.9721 14.3676 20.3226 14.8669 20.6732 15.3676C20.9847 15.3961 21.2844 15.4711 21.572 15.5925C21.6469 16.0618 21.7473 16.5625 21.8716 17.0918C22.0214 17.0918 22.1712 17.0918 22.321 17.0918C22.2851 17.7275 22.4349 18.3527 22.7704 18.9659C22.709 19.1368 22.6596 19.3122 22.6206 19.4906C22.9157 20.0169 23.0161 20.5671 22.9202 21.1398C22.6116 22.3288 22.336 23.5282 22.0963 24.7381C21.536 25.2014 21.2874 25.8011 21.3473 26.5372C21.2724 26.6122 21.1975 26.6872 21.1226 26.7621C21.2754 26.9196 21.2993 27.095 21.1975 27.2869C20.7436 27.4083 20.6177 27.6587 20.823 28.0365C20.6507 28.3109 20.5503 28.6107 20.5233 28.9361C20.3735 28.9361 20.2237 28.9361 20.0739 28.9361C20.0739 29.1355 20.0739 29.3364 20.0739 29.5358C19.8193 29.5118 19.5691 29.5373 19.3249 29.6108C19.5241 29.7112 19.5241 29.8102 19.3249 29.9106C19.1826 29.9826 19.0328 30.0081 18.8755 29.9856C18.5729 30.7472 18.2493 31.4969 17.9018 32.2345C17.7355 32.4159 17.5602 32.4159 17.3774 32.2345C17.2441 32.3574 17.1947 32.5074 17.2276 32.6843C17.0778 32.6843 16.928 32.6843 16.7782 32.6843C16.8172 32.9062 16.7677 33.1056 16.6284 33.284C16.1745 33.5449 15.9738 33.9437 16.0292 34.4834C15.6262 34.4594 15.2277 34.4834 14.8307 34.5584C14.5566 35.0561 14.3574 35.5809 14.2315 36.1326C14.0338 36.1581 13.8585 36.1086 13.7072 35.9827C13.466 36.6154 13.0406 36.7653 12.4339 36.4325C12.4339 36.5824 12.4339 36.7323 12.4339 36.8823C11.574 36.8058 10.75 36.6049 9.96206 36.2826C9.51265 36.383 9.06323 36.482 8.61381 36.5824C8.11496 36.0427 7.86628 35.3935 7.86479 34.6333C7.72846 34.5089 7.62809 34.359 7.56517 34.1836C7.64008 33.6813 7.61461 33.182 7.49027 32.6843C7.51124 32.191 7.73595 31.8417 8.1644 31.6348C8.28274 31.1895 8.38311 30.7397 8.46401 30.2854C8.78159 30.2659 9.10667 30.2165 9.43774 30.1355C9.83772 29.5358 10.2362 28.9361 10.6362 28.3364C11.0496 28.2569 11.4242 28.107 11.7597 27.8866C12.1013 27.2704 12.5252 26.7202 13.0331 26.2374C13.2443 25.7531 13.3941 25.2539 13.4825 24.7381C13.6323 24.7381 13.7821 24.7381 13.9319 24.7381C13.7866 24.0859 14.0368 23.7366 14.6809 23.6886C14.8218 23.2073 15.0465 22.7576 15.3551 22.3393C15.394 21.8805 15.4689 21.4307 15.5798 20.9899C15.43 20.7905 15.2802 20.5896 15.1303 20.3902C14.4278 20.2658 13.7536 20.2658 13.108 20.3902C12.6571 20.7575 12.2076 20.7575 11.7597 20.3902C10.7201 20.7545 9.67144 20.9539 8.61381 20.9899C7.89175 21.0589 7.19366 21.2088 6.51654 21.4397C6.0836 20.8085 5.50984 20.3332 4.79377 20.0154C4.59453 19.6166 4.4687 19.1923 4.41926 18.741C3.58335 18.3632 3.55788 17.9644 4.34436 17.5416C4.20204 17.3077 4.10317 17.0573 4.04475 16.7919C4.34735 16.1277 4.67243 15.4771 5.01848 14.8429C5.09189 14.6495 5.11735 14.4486 5.09339 14.2432C5.50535 14.2896 5.90383 14.2402 6.29183 14.0932C6.59743 13.2266 7.12175 12.9763 7.86479 13.3436C7.93819 13.0992 7.96366 12.8488 7.93969 12.5939C8.30222 12.6134 8.65126 12.6374 8.98833 12.6689C9.0887 12.5685 9.18757 12.4695 9.28794 12.3691C9.21753 12.1741 9.21753 11.9493 9.28794 11.6944C9.61152 11.6449 9.88566 11.495 10.1119 11.2446C10.2152 11.3735 10.3396 11.4725 10.4864 11.5444C10.7455 11.2851 10.9448 10.9852 11.0856 10.6449C11.9305 10.4005 12.3799 9.85026 12.4339 8.99567C12.1702 8.97468 11.92 9.02416 11.6848 9.1456C11.4991 8.75579 11.2489 8.40496 10.9358 8.09611C10.7201 8.21605 10.4954 8.3165 10.2617 8.39596C9.33138 7.67181 8.25728 7.2715 7.04086 7.19654C6.61691 7.21453 6.16749 7.31348 5.69261 7.4964C5.51733 7.34797 5.34356 7.19804 5.16829 7.04661C4.97354 7.25501 4.74883 7.32998 4.49416 7.2715C4.29492 7.17105 4.29492 7.0721 4.49416 6.97165C3.96385 6.74226 3.48897 6.8682 3.07101 7.34647C2.17967 7.04961 1.48158 6.49938 0.973735 5.69726C0.699591 5.4124 0.725058 5.13653 1.04864 4.87266C0.922802 4.72123 0.873366 4.54581 0.898833 4.34791C0.584241 4.27295 0.310097 4.22347 0.0749027 4.19798C0.0494358 4.14851 0.0254669 4.09753 0 4.04805C0.178268 3.90862 0.37751 3.85914 0.599222 3.89813C0.518327 3.18747 0.668132 2.53828 1.04864 1.94906C1.01718 1.86061 0.967743 1.78564 0.898833 1.72417C1.58644 1.33736 2.18566 0.837197 2.6965 0.224892C2.92121 0.148878 3.09498 0.223842 3.22082 0.449784C3.29722 0.295808 3.37212 0.14588 3.44553 0Z" fill="var(--fill-0, #A7C2E6)"/>
</g>
</svg>
