<svg preserveAspectRatio="none" width="100%" height="100%" overflow="visible" style="display: block;" viewBox="0 0 30.4105 18.8833" fill="none" xmlns="http://www.w3.org/2000/svg">
<g id="Group">
<path id="Vector" fill-rule="evenodd" clip-rule="evenodd" d="M4.04475 1.64921C4.36653 1.6657 4.41641 1.56525 4.19455 1.34935C4.26946 1.29988 4.34436 1.2489 4.41926 1.19942C4.47664 1.43031 4.60142 1.62972 4.79377 1.79914C5.4252 1.80063 5.79972 2.10049 5.91731 2.6987C6.2379 3.01955 6.56238 3.34489 6.89105 3.67323C7.03307 3.7452 7.18287 3.77069 7.34047 3.7482C7.36144 3.99108 7.26152 4.1665 7.04086 4.27295C7.25043 4.3614 7.45012 4.33741 7.64008 4.19798C7.76397 4.44686 7.93864 4.64777 8.1644 4.79769C8.29817 5.53534 8.52288 6.2355 8.83852 6.89668C8.80721 6.98514 8.75718 7.06011 8.68872 7.12158C9.04046 7.17405 9.31505 7.34797 9.51265 7.64632C9.94483 8.30151 10.2693 9.00167 10.4864 9.74532C10.6861 9.74532 10.8859 9.74532 11.0856 9.74532C11.1111 9.94322 11.0612 10.1186 10.9358 10.2701C11.3824 10.33 11.7068 10.5549 11.9095 10.9447C12.3275 10.7918 12.7514 10.7678 13.1829 10.8698C13.2758 11.1336 13.451 11.3076 13.7072 11.3945C14.0278 11.3001 14.3514 11.2251 14.6809 11.1696C14.8068 11.0182 14.8562 10.8428 14.8307 10.6449C15.0809 10.6449 15.3296 10.6449 15.5798 10.6449C15.5468 10.468 15.5962 10.318 15.7296 10.1951C16.1236 9.88775 16.573 9.71383 17.0778 9.67035C17.1662 9.44396 17.2666 9.21907 17.3774 8.99568C17.9032 8.78578 18.4021 8.5354 18.8755 8.24604C19.1346 7.82774 19.3084 7.37795 19.3998 6.89668C19.7279 6.76175 20.053 6.61182 20.3735 6.4469C20.5129 6.26849 20.5623 6.06908 20.5233 5.84719C20.7451 5.88617 20.9443 5.83669 21.1226 5.69726C21.2918 5.08855 21.4926 4.48884 21.7218 3.89813C22.4678 3.60577 22.7165 3.10651 22.4708 2.39885C22.6701 2.39885 22.8708 2.39885 23.07 2.39885C23.2408 2.02403 23.3412 1.62372 23.3696 1.19942C23.5749 1.22341 23.7756 1.19792 23.9689 1.12446C24.2175 0.697165 24.5172 0.322345 24.8677 0C25.0954 0.215896 25.3696 0.314849 25.6916 0.299856C26.162 0.169419 26.6114 0.119942 27.0399 0.149928C27.8054 0.517251 28.5289 0.943047 29.2121 1.42432C29.4053 1.49778 29.606 1.52327 29.8113 1.49928C29.6989 2.03902 29.7244 2.58926 29.8862 3.14849C30.1498 3.24144 30.3236 3.41686 30.4105 3.67323C30.1498 4.42287 29.9746 5.198 29.8862 5.99712C29.1956 6.59383 28.7716 7.34347 28.6128 8.24604C28.4151 8.22055 28.2398 8.27002 28.0885 8.39596C27.7964 9.01517 27.6211 9.66435 27.5642 10.345C27.1163 10.4935 26.6669 10.6434 26.216 10.7948C26.0886 11.4035 25.9133 12.0032 25.6916 12.5939C25.3815 12.9163 25.031 12.9658 24.643 12.7439C24.4962 12.9658 24.3209 13.1652 24.1187 13.3436C23.9794 13.522 23.9299 13.7214 23.9689 13.9433C23.7921 13.9103 23.6423 13.9598 23.5195 14.0932C23.473 14.6869 23.1974 15.1367 22.6955 15.4426C22.6461 15.3931 22.5952 15.3421 22.5457 15.2926C22.2311 15.9313 21.7068 16.1802 20.9728 16.0423C20.9952 16.1997 20.9698 16.3496 20.8979 16.4921C20.3121 16.603 20.038 16.9524 20.0739 17.5416C19.8687 17.5176 19.668 17.5431 19.4747 17.6165C19.1901 18.1548 18.841 18.2297 18.4261 17.8414C18.2044 18.4906 17.8298 18.5911 17.3025 18.1413C16.6479 19.0184 15.8989 19.1173 15.0554 18.4411C14.9131 18.7545 14.7124 18.8055 14.4562 18.5911C13.4076 18.9479 12.3335 18.9479 11.2354 18.5911C10.8417 18.5971 10.4422 18.6465 10.037 18.741C9.84237 18.6525 9.71758 18.5026 9.66245 18.2912C9.55384 18.3752 9.42905 18.4246 9.28794 18.4411C9.00675 18.2327 8.75703 17.9839 8.53891 17.6915C7.8946 17.7095 7.59499 17.4096 7.64008 16.7919C7.14797 16.8264 6.77345 16.627 6.51654 16.1922C6.3134 16.3242 6.08869 16.3736 5.84241 16.3421C5.84241 16.1427 5.84241 15.9418 5.84241 15.7424C5.621 15.7814 5.42131 15.7319 5.24319 15.5925C5.1205 14.4965 4.64607 13.597 3.82004 12.8938C3.70993 12.5385 3.58514 12.1891 3.44553 11.8443C2.66699 11.393 2.16768 10.7183 1.94747 9.82028C1.79242 9.62987 1.6176 9.45446 1.42315 9.29553C1.37402 8.44544 1.02452 7.6958 0.374514 7.04661C0.297813 6.33595 0.173025 5.63729 0 4.94762C0.335265 4.68375 0.48507 4.33442 0.449416 3.89813C0.273395 3.93111 0.123589 3.88163 0 3.7482C0.181414 3.56529 0.181414 3.38987 0 3.22345C0.649107 2.77367 1.19844 2.22343 1.64786 1.57424C2.00724 1.46779 2.35674 1.49328 2.6965 1.64921C3.13498 1.4543 3.58439 1.30437 4.04475 1.19942C4.04475 1.34935 4.04475 1.49928 4.04475 1.64921Z" fill="var(--fill-0, #A7C2E6)"/>
</g>
</svg>
