<svg preserveAspectRatio="none" width="100%" height="100%" overflow="visible" style="display: block;" viewBox="0 0 13.3327 18.2855" fill="none" xmlns="http://www.w3.org/2000/svg">
<g id="Group">
<path id="Vector" fill-rule="evenodd" clip-rule="evenodd" d="M7.78988 0.599712C7.78988 0.699714 7.83932 0.74964 7.93969 0.74964C7.98912 0.949493 8.04006 0.949493 8.08949 0.74964C8.40858 0.993572 8.70819 1.26839 8.98833 1.57424C8.87447 1.77874 8.94938 1.95371 9.21303 2.09899C9.38981 1.91443 9.56508 1.91443 9.73735 2.09899C9.55459 2.29435 9.60552 2.44427 9.88716 2.54877C9.71638 2.68746 9.71638 2.8125 9.88716 2.92359C10.1074 3.0188 10.3066 3.14384 10.4864 3.29841C10.6856 3.24849 10.8864 3.19841 11.0856 3.14849C11.3732 3.44369 11.3732 3.66859 11.0856 3.82316C11.3313 4.31178 11.5066 4.83652 11.6099 5.3974C11.8062 5.75588 11.956 5.75588 12.0593 5.3974C12.3844 5.6223 12.3589 5.79726 11.9844 5.92215C12.1088 6.04704 12.2346 6.17208 12.3589 6.29697C12.4099 6.88799 12.5852 7.43777 12.8833 7.94618C12.8024 8.13329 12.702 8.30826 12.5837 8.47093C12.9147 8.80212 12.9642 9.17694 12.7335 9.59539C13.2158 9.73752 13.2653 9.93737 12.8833 10.1951C12.9836 10.245 13.0825 10.2951 13.1829 10.345C12.741 10.7854 12.7919 11.1602 13.3327 11.4695C12.9192 11.8555 12.7694 12.3053 12.8833 12.8188C12.8218 12.9605 12.723 13.0605 12.5837 13.1187C12.705 13.1649 12.8039 13.2398 12.8833 13.3436C12.4009 13.4857 12.3515 13.6856 12.7335 13.9433C12.5043 14.1971 12.305 14.4721 12.1342 14.7679C12.2511 15.0333 12.2256 15.3081 12.0593 15.5925C11.8331 15.706 11.6324 15.8559 11.4601 16.0423C11.4107 15.9924 11.3597 15.9423 11.3103 15.8924C11.0526 16.4023 10.7276 16.852 10.3366 17.2417C9.91862 17.2 9.5441 17.3 9.21303 17.5416C8.89395 17.4137 8.59434 17.3638 8.3142 17.3916C8.10747 17.5492 7.95767 17.7491 7.86479 17.9913C7.61311 17.826 7.3884 17.8759 7.19066 18.1413C7.04385 18.0698 6.91951 17.9699 6.81615 17.8414C6.69481 18.4335 6.6199 18.4335 6.59144 17.8414C5.93529 17.85 5.33607 17.7 4.79377 17.3916C4.6934 17.1918 4.59453 17.1918 4.49416 17.3916C4.34436 17.4045 4.22002 17.3545 4.11965 17.2417C3.49946 16.2709 2.77589 15.3964 1.94747 14.618C1.59093 14.6082 1.49056 14.4833 1.64786 14.2432C1.53401 14.0604 1.3842 13.9105 1.19844 13.7934C1.2299 13.7055 1.27934 13.6305 1.34825 13.5685C1.03516 13.2265 0.934786 12.8517 1.04864 12.444C0.650156 11.9701 0.350545 11.4453 0.149805 10.8698C0.289125 10.8116 0.387996 10.7116 0.449416 10.5699C0.416459 10.1537 0.416459 9.72897 0.449416 9.29553C0.260661 9.37289 0.110856 9.27304 0 8.99567C0.0524319 8.81636 0.127335 8.81636 0.224708 8.99567C0.332568 8.75399 0.307101 8.5291 0.149805 8.321C0.250175 8.12115 0.349047 7.92114 0.449416 7.72129C0.344553 7.24377 0.293619 6.7691 0.299611 6.29697C0.335564 6.00041 0.534805 5.75049 0.898833 5.54733C0.817938 5.36022 0.717568 5.18526 0.599222 5.02259C0.798463 4.92258 0.999202 4.82273 1.19844 4.72273C1.0022 4.46021 1.05163 4.23531 1.34825 4.04805C1.11755 3.89333 1.04265 3.69347 1.12354 3.44834C1.17298 3.49827 1.22391 3.54834 1.27335 3.59827C1.41117 3.20831 1.51154 2.80845 1.57296 2.39885C1.64786 2.22388 1.7722 2.09899 1.94747 2.02403C1.82613 1.97785 1.72726 1.90289 1.64786 1.79913C1.76321 1.61757 1.88905 1.61757 2.02237 1.79913C2.20064 1.53931 2.37591 1.28938 2.54669 1.0495C2.56467 0.886674 2.66504 0.786672 2.8463 0.74964C3.11146 0.807662 3.36163 0.907514 3.59533 1.0495C3.88146 0.868233 4.1571 0.668379 4.41926 0.449784C4.60802 0.488615 4.75782 0.588617 4.86868 0.74964C4.97204 0.621151 5.09638 0.521299 5.24319 0.449784C5.52333 0.516652 5.79747 0.566578 6.06712 0.599712C6.45062 0.570026 6.79967 0.370172 7.11576 0C7.43035 0.182162 7.40488 0.307202 7.04086 0.37482C7.28803 0.465976 7.53821 0.54094 7.78988 0.599712Z" fill="var(--fill-0, #A7C2E6)"/>
</g>
</svg>
