<svg preserveAspectRatio="none" width="100%" height="100%" overflow="visible" style="display: block;" viewBox="0 0 31.1542 19.1952" fill="none" xmlns="http://www.w3.org/2000/svg">
<g id="Group">
<path id="Vector" fill-rule="evenodd" clip-rule="evenodd" d="M26.8098 0.00443042C27.1754 -0.0230064 27.4989 0.0769955 27.7836 0.304286C27.8929 0.0557058 28.0667 -0.0192582 28.3079 0.0793944C28.7288 0.221226 29.0794 0.471156 29.3565 0.829034C29.8059 0.814941 30.1055 1.01479 30.2554 1.42875C30.4486 1.50221 30.6493 1.52725 30.8546 1.50371C30.6793 2.06054 30.7797 2.58529 31.1542 3.07795C31.0763 3.22038 30.9759 3.34542 30.8546 3.45277C30.94 4.1318 30.94 4.78143 30.8546 5.40184C30.6134 5.54082 30.3632 5.66586 30.1055 5.77665C30.3303 6.35133 30.155 6.52629 29.5812 6.3014C29.5573 7.06289 29.2576 7.21281 28.6824 6.75119C28.4307 6.91536 28.2569 7.14025 28.1581 7.42586C27.6562 7.74701 27.1828 7.72212 26.7349 7.3509C26.0623 7.52466 25.538 7.89948 25.162 8.47536C24.9522 8.56456 24.753 8.53953 24.5627 8.40039C24.3036 8.65917 24.004 8.85902 23.6639 9.00011C23.3388 8.96607 23.0138 8.91615 22.6902 8.85018C22.2947 9.1103 21.8707 9.31016 21.4168 9.44989C21.303 9.61901 21.2026 9.79397 21.1172 9.97464C20.6783 9.79427 20.3787 9.9442 20.2184 10.4244C20.0087 10.5136 19.8094 10.4886 19.6192 10.3495C18.7832 10.6965 17.9339 11.0214 17.0725 11.324C16.8672 11.54 16.7174 11.79 16.6231 12.0736C16.4133 12.1628 16.2141 12.1378 16.0238 11.9987C15.5654 12.5126 14.9902 12.8125 14.3011 12.8982C13.8816 13.066 13.6569 13.3659 13.6269 13.7978C13.4127 13.8096 13.2135 13.7597 13.0277 13.6479C12.9918 13.7599 12.9423 13.8848 12.8779 14.0227C12.6862 14.1252 12.5109 14.1002 12.3536 13.9477C12.3147 14.4891 12.066 14.639 11.6046 14.3975C10.8795 14.6059 10.2548 14.9807 9.732 15.522C9.89679 15.9807 9.74699 16.1056 9.28259 15.8968C9.14327 16.0751 9.09383 16.2749 9.13278 16.4965C8.93504 16.522 8.75977 16.4721 8.60846 16.3466C8.54105 16.8914 8.26541 17.0664 7.78453 16.8713C8.00774 17.0446 7.98378 17.1697 7.70963 17.2461C7.53586 17.1431 7.36058 17.1183 7.18531 17.1712C6.8857 17.5667 6.58609 17.9665 6.28648 18.3706C6.07675 18.4598 5.87751 18.4348 5.68726 18.2956C5.55543 18.4845 5.40562 18.6594 5.23784 18.8204C4.24463 18.9807 3.24543 19.1057 2.24173 19.1952C1.87471 19.1361 1.5751 18.9613 1.3429 18.6705C1.39234 18.6205 1.44327 18.5705 1.49271 18.5205C1.33092 18.3772 1.15564 18.2523 0.968387 18.1457C0.857531 17.6733 0.632822 17.2734 0.294262 16.9463C0.325721 16.8584 0.375157 16.7835 0.444068 16.7214C-0.194104 16.0653 -0.144668 15.4656 0.593873 14.9223C0.544437 14.8723 0.493503 14.8223 0.444068 14.7723C0.784126 13.0826 1.78333 12.0331 3.44018 11.6238C3.6559 11.3595 3.8057 11.0597 3.88959 10.7243C4.67158 10.3076 5.47154 9.93281 6.28648 9.59982C6.67597 9.0097 7.12539 8.48495 7.63473 8.02557C7.92985 7.95136 8.22946 7.92632 8.53356 7.95061C8.53356 7.80068 8.53356 7.65075 8.53356 7.50083C8.77924 7.46874 9.00395 7.51882 9.20769 7.65075C9.22566 7.36199 9.3515 7.08717 9.5822 6.82615C10.5395 7.16469 11.1387 6.83994 11.3799 5.85162C11.7289 5.65311 12.078 5.45326 12.4285 5.25191C12.5828 5.4828 12.7835 5.55776 13.0277 5.4768C13.5026 5.0555 13.976 4.63061 14.4509 4.20241C14.6202 4.45894 14.8449 4.5339 15.125 4.4273C15.525 4.14664 15.874 3.82189 16.1736 3.45277C16.3145 3.46896 16.4403 3.51889 16.5482 3.6027C17.0185 3.00239 17.6432 2.75246 18.4207 2.85306C18.4207 2.65321 18.4207 2.4532 18.4207 2.25335C18.8132 2.29518 19.1877 2.39518 19.5443 2.5532C19.778 2.21317 20.1015 2.03835 20.518 2.02846C20.8431 1.80357 21.1172 1.52875 21.3419 1.20385C21.4917 1.30386 21.6415 1.40371 21.7913 1.50371C22.9014 1.2079 23.9755 0.833082 25.0122 0.37925C25.2533 0.271302 25.4781 0.29619 25.6863 0.454214C26.0428 0.23427 26.4173 0.084342 26.8098 0.00443042Z" fill="var(--fill-0, #A7C2E6)"/>
</g>
</svg>
