<svg preserveAspectRatio="none" width="100%" height="100%" overflow="visible" style="display: block;" viewBox="0 0 31.1613 16.819" fill="none" xmlns="http://www.w3.org/2000/svg">
<g id="Group">
<path id="Vector" fill-rule="evenodd" clip-rule="evenodd" d="M4.64397 0C4.79377 0 4.94358 0 5.09339 0C5.09339 0.149928 5.09339 0.299856 5.09339 0.449784C5.25098 0.427444 5.40079 0.452333 5.5428 0.524748C5.8123 1.12191 6.26172 1.44665 6.89105 1.49928C6.95532 2.02763 7.18002 2.47741 7.56517 2.84863C7.60278 3.13844 7.67768 3.41326 7.78988 3.67323C7.72142 3.7353 7.67139 3.81027 7.64008 3.89813C7.91242 4.08913 8.16215 4.31403 8.3891 4.5728C8.33922 4.62273 8.28918 4.6728 8.2393 4.72273C8.43899 5.02259 8.63883 5.32244 8.83852 5.6223C8.72497 5.8268 8.79987 6.00176 9.06323 6.14704C9.13663 6.3409 9.16165 6.54091 9.13813 6.74676C9.28794 6.74676 9.43774 6.74676 9.58755 6.74676C9.55384 7.079 9.67863 7.32893 9.96206 7.4964C10.1652 7.36446 10.3899 7.31438 10.6362 7.34647C10.6004 7.64138 10.6503 7.91634 10.786 8.17107C11.6155 8.7444 12.5393 9.11922 13.5574 9.29553C14.0447 8.89867 14.544 8.89867 15.0554 9.29553C15.8986 9.13571 16.7225 8.91082 17.5272 8.62086C17.8844 8.40946 18.1339 8.1096 18.2763 7.72129C18.8196 7.63673 19.2939 7.41184 19.6994 7.04661C19.8661 7.22817 20.041 7.22817 20.2237 7.04661C20.3114 6.69203 20.4862 6.39218 20.7481 6.14704C20.8101 6.21556 20.885 6.26564 20.9728 6.29697C21.5482 6.0226 21.7977 5.57282 21.7218 4.94762C22.0275 5.0007 22.3021 5.0007 22.5457 4.94762C22.9996 4.42872 23.2744 3.82901 23.3696 3.14849C23.5753 3.17202 23.7752 3.14699 23.9689 3.07352C24.2474 2.81984 24.547 2.59495 24.8677 2.39885C25.4525 1.62897 26.0518 0.979329 26.6654 0.449784C26.8794 0.66493 27.129 0.814858 27.4144 0.899567C28.078 0.786522 28.777 0.761484 29.5117 0.824604C30.039 1.23571 30.4884 1.71053 30.8599 2.24892C30.7775 2.43963 30.7281 2.63963 30.7101 2.84863C30.821 3.3185 30.9708 3.76829 31.1595 4.19798C31.176 4.47895 31.0756 4.70384 30.8599 4.87266C30.9708 5.14028 31.0711 5.4151 31.1595 5.69726C31.0367 5.93879 30.8375 6.0388 30.5603 5.99712C30.2967 7.08739 29.9476 8.13689 29.5117 9.1456C29.1622 9.2456 28.8125 9.34546 28.463 9.44546C28.463 9.74531 28.463 10.0452 28.463 10.345C28.3132 10.345 28.1634 10.345 28.0136 10.345C28.0323 10.9294 27.7826 11.1543 27.2646 11.0197C27.0871 11.3281 26.9373 11.628 26.8152 11.9193C26.5487 11.7725 26.2991 11.8224 26.0661 12.0692C26.2658 12.2691 26.2658 12.4691 26.0661 12.6689C25.8465 12.7641 25.6467 12.8892 25.4669 13.0437C25.1809 12.9166 24.8813 12.8665 24.5681 12.8938C24.5182 13.1937 24.4682 13.4935 24.4183 13.7934C23.7253 13.6734 23.1509 13.8734 22.6955 14.3931C22.423 15.2174 21.8488 15.5172 20.9728 15.2926C20.9728 15.4925 20.9728 15.693 20.9728 15.8924C20.7747 15.9178 20.5999 15.8684 20.4484 15.7424C20.328 15.9373 20.1532 16.0378 19.9241 16.0423C19.5535 15.9268 19.179 15.8264 18.8006 15.7424C17.4393 16.5745 15.9412 16.9239 14.3064 16.7919C13.7322 16.7664 13.1579 16.7425 12.5837 16.717C12.2405 16.4351 11.9408 16.4606 11.6848 16.7919C11.1842 16.7425 10.7848 16.5176 10.4864 16.1173C9.85091 16.1173 9.25168 15.9928 8.68872 15.7424C8.56992 15.8069 8.44498 15.8564 8.3142 15.8924C8.07496 15.6855 7.80037 15.585 7.49027 15.5925C7.49027 15.3926 7.49027 15.1926 7.49027 14.9928C7.17688 14.9836 6.95217 14.8337 6.81615 14.543C6.659 14.7839 6.43429 14.8838 6.14202 14.8429C6.17228 14.1464 5.87267 13.8716 5.24319 14.0183C5.0435 13.8184 5.0435 13.6184 5.24319 13.4185C5.02777 13.3857 4.82808 13.3108 4.64397 13.1937C4.26646 12.4413 3.71712 11.8665 2.99611 11.4695C3.04599 11.4196 3.09603 11.3695 3.14591 11.3196C2.87132 11.2446 2.6965 11.0696 2.6216 10.7948C2.45217 10.3533 2.32738 9.90349 2.24708 9.44546C2.04904 9.47095 1.87422 9.42102 1.72276 9.29553C1.71392 8.79867 1.53925 8.37377 1.19844 8.02114C1.22017 7.9054 1.27005 7.8054 1.34825 7.72129C1.16429 7.60449 1.01448 7.45457 0.898833 7.2715C0.94677 6.91902 0.996656 6.56924 1.04864 6.22201C0.817039 5.88362 0.567463 5.55873 0.299611 5.24748C0.431889 5.09035 0.531809 4.91539 0.599222 4.72273C0.366574 4.41568 0.166883 4.09078 0 3.7482C0.242235 3.13304 0.367173 2.48341 0.374514 1.79913C0.676971 1.31757 1.10152 1.06779 1.64786 1.0495C1.71093 0.688169 1.91062 0.413351 2.24708 0.224892C2.81769 0.136734 3.36703 0.211698 3.89494 0.449784C4.27665 0.485017 4.52622 0.335089 4.64397 0Z" fill="var(--fill-0, #A7C2E6)"/>
</g>
</svg>
