<svg preserveAspectRatio="none" width="100%" height="100%" overflow="visible" style="display: block;" viewBox="0 0 8.3891 8.38899" fill="none" xmlns="http://www.w3.org/2000/svg">
<g id="Group">
<path id="Vector" fill-rule="evenodd" clip-rule="evenodd" d="M4.04475 0.00922321C4.49716 -0.0155149 4.94658 0.00952306 5.393 0.0841872C5.9263 0.4725 6.50006 0.547464 7.11576 0.309079C7.46331 0.462305 7.53821 0.687197 7.34047 0.983755C7.49926 1.16217 7.7 1.23713 7.93969 1.20865C7.98763 2.09922 7.98763 2.9733 7.93969 3.83239C8.19735 3.94933 8.34716 4.14873 8.3891 4.4321C8.14342 4.94785 7.91872 5.4726 7.71498 6.00634C7.56517 6.10679 7.41537 6.20574 7.26556 6.3062C6.9315 7.06483 6.45661 7.71402 5.84241 8.25526C5.69261 8.15481 5.5428 8.05585 5.393 7.9554C5.26566 8.10833 5.11586 8.23427 4.94358 8.33022C3.75562 8.48465 2.60661 8.33472 1.49805 7.88044C1.24788 7.60607 0.999202 7.3302 0.749027 7.05584C0.813593 6.93739 0.862879 6.81145 0.898833 6.68102C0.595776 6.02433 0.296165 5.37514 0 4.73195C0.175422 3.29864 0.475033 1.94929 0.898833 0.683899C1.96245 0.436668 3.01109 0.211776 4.04475 0.00922321Z" fill="var(--fill-0, #A7C2E6)"/>
</g>
</svg>
