<svg preserveAspectRatio="none" width="100%" height="100%" overflow="visible" style="display: block;" viewBox="0 0 10.9358 10.169" fill="none" xmlns="http://www.w3.org/2000/svg">
<g id="Group">
<path id="Vector" fill-rule="evenodd" clip-rule="evenodd" d="M7.04086 0C7.45432 0.224892 7.87827 0.475271 8.3142 0.74964C8.58984 0.326843 8.81455 0.350831 8.98833 0.824604C8.63179 0.970034 8.68272 1.07049 9.13813 1.12446C9.49167 1.81263 9.89016 2.36136 10.3366 2.77367C10.2602 3.04803 10.1358 3.07202 9.96206 2.84863C9.86169 2.94908 9.86169 3.04803 9.96206 3.14849C10.2092 3.3314 10.4834 3.45584 10.786 3.52331C10.5613 3.71072 10.3111 3.86064 10.037 3.97309C10.2467 4.06155 10.4459 4.03756 10.6362 3.89813C10.6856 3.9476 10.7366 3.99858 10.786 4.04805C10.3935 4.34341 10.4429 4.5683 10.9358 4.72273C10.4549 5.11554 10.4055 5.53984 10.786 5.99712C10.4594 6.35095 10.2092 6.75125 10.037 7.19654C10.2317 7.39894 10.2062 7.59835 9.96206 7.79625C9.8587 7.43792 9.70889 7.43792 9.51265 7.79625C9.45422 8.26553 9.32838 8.71531 9.13813 9.1456C8.82504 9.22956 8.49996 9.27904 8.1644 9.29553C8.08949 9.34501 8.01459 9.39598 7.93969 9.44546C8.04006 9.49493 8.13893 9.54591 8.2393 9.59539C8.20784 9.68384 8.1584 9.75881 8.08949 9.82028C7.80936 9.82028 7.53521 9.74531 7.26556 9.59539C7.12325 9.67335 6.99891 9.7738 6.89105 9.89524C6.52852 9.85776 6.17798 9.85776 5.84241 9.89524C5.56228 10.3045 5.41247 10.2551 5.393 9.74531C5.02747 9.68834 4.9271 9.78879 5.09339 10.0452C4.75782 10.1771 4.43424 10.1276 4.11965 9.89524C3.60282 10.1456 3.22831 9.99569 2.99611 9.44546C2.8463 9.39598 2.6965 9.34501 2.54669 9.29553C2.27105 9.38699 2.02237 9.38699 1.79767 9.29553C1.87706 9.19208 1.97593 9.11712 2.09728 9.07064C1.70778 8.93121 1.48307 8.65534 1.42315 8.24604C1.37372 8.29551 1.32278 8.34649 1.27335 8.39596C1.19844 7.92069 0.9243 7.64632 0.449416 7.57136C0.93928 7.44992 1.01418 7.17405 0.674124 6.74676C0.426946 6.57434 0.202237 6.37493 0 6.14704C0.0883852 5.95214 0.238191 5.8277 0.449416 5.77222C0.0329572 5.50535 0.083891 5.35543 0.599222 5.32244C0.413463 5.15002 0.263658 4.94912 0.149805 4.72273C0.341556 4.40338 0.341556 4.07804 0.149805 3.7482C0.290623 3.41986 0.540798 3.22045 0.898833 3.14849C0.979728 2.74818 1.17897 2.42433 1.49805 2.17395C1.32728 2.06301 1.32728 1.93857 1.49805 1.79913C2.0014 1.76015 2.35195 1.4603 2.54669 0.899567C2.64706 0.949044 2.74593 1.00002 2.8463 1.0495C3.07251 0.611706 3.39759 0.512753 3.82004 0.74964C4.41626 0.305853 5.06492 0.206901 5.76751 0.449784C6.17049 0.233888 6.59444 0.0839596 7.04086 0Z" fill="var(--fill-0, #A7C2E6)"/>
</g>
</svg>
