<svg preserveAspectRatio="none" width="100%" height="100%" overflow="visible" style="display: block;" viewBox="0 0 12.8833 12.8938" fill="none" xmlns="http://www.w3.org/2000/svg">
<g id="Group">
<path id="Vector" fill-rule="evenodd" clip-rule="evenodd" d="M11.0856 2.39885C11.2174 2.37921 11.3163 2.42913 11.3852 2.54877C11.4421 3.1131 11.7418 3.46289 12.284 3.59827C12.1522 3.71087 12.0024 3.78583 11.8346 3.82316C11.9949 4.06739 12.1942 4.24236 12.4339 4.34791C12.3545 4.45166 12.2556 4.52662 12.1342 4.5728C12.5432 4.75691 12.6436 5.03173 12.4339 5.3974C12.5911 5.37507 12.741 5.39995 12.8833 5.47237C12.5507 5.76368 12.5507 6.01346 12.8833 6.22201C12.5207 6.44825 12.3709 6.77299 12.4339 7.19654C12.5911 7.1742 12.741 7.19909 12.8833 7.2715C12.6271 7.4781 12.4264 7.72803 12.284 8.02114C12.4054 8.06732 12.5043 8.14229 12.5837 8.24604C12.2676 8.68532 11.8182 9.11007 11.2354 9.52042C11.2848 9.57035 11.3358 9.62042 11.3852 9.67035C10.801 10.0302 10.5014 10.5549 10.4864 11.2446C10.0789 11.2713 9.68043 11.3462 9.28794 11.4695C9.0887 11.5695 9.0887 11.6693 9.28794 11.7693C9.14562 11.8618 9.02128 11.837 8.91342 11.6944C8.65426 12.2631 8.25428 12.5629 7.71498 12.5939C7.57267 12.5332 7.47379 12.4332 7.41537 12.2941C7.3135 12.6223 7.13973 12.6722 6.89105 12.444C6.59144 12.5939 6.29183 12.7439 5.99222 12.8938C5.74953 12.7957 5.50086 12.7208 5.24319 12.6689C5.42296 12.5709 5.42296 12.4959 5.24319 12.444C4.97953 12.5382 4.75482 12.6881 4.56907 12.8938C4.49566 12.6999 4.47019 12.4999 4.49416 12.2941C4.18257 12.3238 3.88296 12.3488 3.59533 12.3691C3.11745 11.5665 2.51823 10.8918 1.79767 10.345C1.66434 10.2213 1.6149 10.0714 1.64786 9.89524C1.44862 9.89524 1.24788 9.89524 1.04864 9.89524C1.02317 9.69704 1.07261 9.52207 1.19844 9.37049C1.02317 9.30767 0.873366 9.20782 0.749027 9.07064C0.606712 8.7396 0.606712 8.36478 0.749027 7.94618C0.370019 7.66222 0.119844 7.2874 0 6.82172C0.149805 6.77179 0.299611 6.72172 0.449416 6.67179C0.289124 6.561 0.188755 6.41107 0.149805 6.22201C0.2307 5.86218 0.33107 5.5124 0.449416 5.17251C0.310097 5.11434 0.211226 5.01434 0.149805 4.87266C0.349047 4.52527 0.548288 4.17534 0.749027 3.82316C0.627685 3.77698 0.528813 3.70202 0.449416 3.59827C0.627685 3.45899 0.826926 3.40906 1.04864 3.44834C1.27035 3.00486 1.49506 2.55507 1.72276 2.09899C1.79617 1.85401 1.82163 1.60408 1.79767 1.34935C2.06132 1.32791 2.3115 1.37799 2.54669 1.49928C2.59613 1.29943 2.64706 1.09942 2.6965 0.899567C2.98263 1.02671 3.28224 1.07678 3.59533 1.0495C3.59084 0.900017 3.66574 0.800015 3.82004 0.74964C4.41926 0.966585 4.94358 0.841695 5.393 0.37482C5.89634 0.197005 6.39519 0.171967 6.89105 0.299856C6.99142 0.199854 7.09029 0.100002 7.19066 0C7.80786 0.489515 8.50595 0.814408 9.28794 0.974531C9.2385 1.02446 9.18757 1.07453 9.13813 1.12446C9.37932 1.23241 9.60403 1.20752 9.81226 1.0495C10.0549 1.20482 10.0789 1.37979 9.88716 1.57424C10.0864 1.62417 10.2871 1.67425 10.4864 1.72417C10.4369 1.7741 10.386 1.82417 10.3366 1.8741C10.6931 1.90753 10.9433 2.0825 11.0856 2.39885Z" fill="var(--fill-0, #A7C2E6)"/>
</g>
</svg>
