<svg preserveAspectRatio="none" width="100%" height="100%" overflow="visible" style="display: block;" viewBox="0 0 12.5811 13.3436" fill="none" xmlns="http://www.w3.org/2000/svg">
<g id="Group">
<path id="Vector" fill-rule="evenodd" clip-rule="evenodd" d="M7.34047 0.299856C7.69581 0.0527746 7.89565 0.152777 7.93969 0.599712C8.40663 0.863585 8.90593 1.06359 9.43774 1.19942C10.0067 2.00574 10.6059 2.78041 11.2354 3.52331C11.1972 3.72211 11.0973 3.87204 10.9358 3.97309C11.1512 4.20833 11.3759 4.43322 11.6099 4.64777C11.7124 4.84027 11.6874 5.01524 11.535 5.17251C11.9161 5.40685 11.9161 5.63174 11.535 5.84719C12.0023 6.0262 12.0521 6.25109 11.6848 6.52186C11.8754 6.71782 12.0252 6.94271 12.1342 7.19654C12.675 6.99459 12.7249 7.09459 12.284 7.4964C12.3339 7.5964 12.384 7.69625 12.4339 7.79625C12.2084 7.99745 12.1085 8.24723 12.1342 8.54589C12.6939 8.56988 12.6939 8.69477 12.1342 8.92071C12.1841 8.97064 12.2342 9.02071 12.284 9.07064C12.0062 9.59404 11.7065 10.0937 11.3852 10.5699C11.5608 10.6327 11.7106 10.7326 11.8346 10.8698C11.5039 10.8984 11.2042 10.9734 10.9358 11.0947C11.0965 11.2073 11.1216 11.3572 11.0107 11.5444C10.9031 11.4019 10.7784 11.377 10.6362 11.4695C10.453 11.7771 10.3032 12.102 10.1868 12.444C9.86109 12.7349 9.5116 12.785 9.13813 12.5939C8.57861 12.619 8.10418 12.8188 7.71498 13.1937C7.34556 13.1022 6.97105 13.1523 6.59144 13.3436C6.20689 13.3019 5.80751 13.277 5.393 13.2686C5.21098 12.9544 5.08605 12.9794 5.01848 13.3436C4.69011 13.2088 4.36563 13.0589 4.04475 12.8938C3.71547 13.3051 3.41586 13.2802 3.14591 12.8188C3.1958 12.7689 3.24583 12.7188 3.29572 12.6689C2.73575 12.3395 2.23645 11.9397 1.79767 11.4695C1.84755 11.4196 1.89759 11.3695 1.94747 11.3196C1.71617 11.2761 1.51648 11.1762 1.34825 11.0197C1.39813 10.8698 1.44817 10.7198 1.49805 10.5699C1.38525 10.347 1.26046 10.3219 1.12354 10.495C0.92385 10.0951 0.72401 9.69539 0.524319 9.29553C0.465446 9.0408 0.540348 8.81591 0.749027 8.62086C0.682514 8.35668 0.607611 8.38172 0.524319 8.69582C0.153251 8.26807 0.0783483 7.81829 0.299611 7.34647C0.167482 6.75905 0.0675623 6.20926 0 5.69726C0.364027 5.22664 0.53885 4.677 0.524319 4.04805C0.667683 3.66994 0.892391 3.34504 1.19844 3.07352C1.0774 3.02734 0.977481 2.95238 0.898833 2.84863C1.01478 2.66707 1.13957 2.66707 1.27335 2.84863C1.67527 2.63978 1.70029 2.43993 1.34825 2.24892C1.69685 2.04936 1.99646 1.79943 2.24708 1.49928C3.07371 1.4489 3.74783 1.14905 4.26946 0.599712C4.30676 0.768231 4.38166 0.918159 4.49416 1.0495C4.83797 0.909763 5.18761 0.784873 5.5428 0.674676C5.273 0.627148 5.22312 0.527147 5.393 0.37482C5.75238 0.268221 6.10188 0.293259 6.44163 0.449784C6.70499 0.355629 6.9297 0.205701 7.11576 0C7.22317 0.0815608 7.29807 0.181563 7.34047 0.299856ZM0.749027 9.1456C0.878309 9.28998 0.97823 9.28998 1.04864 9.1456C0.935235 8.95474 0.835465 8.95474 0.749027 9.1456Z" fill="var(--fill-0, #A7C2E6)"/>
</g>
</svg>
