<svg preserveAspectRatio="none" width="100%" height="100%" overflow="visible" style="display: block;" viewBox="0 0 30.2607 21.3963" fill="none" xmlns="http://www.w3.org/2000/svg">
<g id="Group">
<path id="Vector" fill-rule="evenodd" clip-rule="evenodd" d="M25.3171 0C26.2339 0.0212898 27.1073 0.0212898 27.9387 0C28.4705 0.0275867 28.9454 0.202403 29.3619 0.524748C29.5926 0.961937 29.8427 1.38668 30.1109 1.79913C29.9611 2.40529 30.0105 3.00501 30.2607 3.59827C30.2472 3.88688 30.0974 4.06185 29.8113 4.12302C29.9731 4.38179 29.997 4.65661 29.8862 4.94762C28.9424 5.8247 28.2443 6.87419 27.7889 8.09611C27.5492 8.30091 27.2751 8.45084 26.965 8.54589C26.5096 8.90632 26.159 9.3561 25.9163 9.89524C25.5625 9.96631 25.213 10.0164 24.8677 10.0452C24.4444 10.4411 24.1447 10.9158 23.9689 11.4695C23.7281 11.4666 23.4784 11.4417 23.2198 11.3945C23.2618 11.8275 23.0621 12.0524 22.6206 12.0692C22.4083 12.8859 21.909 13.1857 21.1226 12.9688C20.9364 13.1418 20.7866 13.3418 20.6732 13.5685C20.13 13.6102 19.8303 13.8851 19.7743 14.3931C19.5746 14.3931 19.3748 14.3931 19.1751 14.3931C19.2055 14.6764 19.1057 14.9013 18.8755 15.0678C18.5673 15.1135 18.2677 15.1135 17.9767 15.0678C17.8448 15.2711 17.7948 15.4959 17.8268 15.7424C17.5296 15.76 17.2801 15.66 17.0778 15.4426C16.5679 15.6825 16.1185 15.9823 15.7296 16.3421C15.6758 17.0057 15.401 17.1057 14.9056 16.642C14.4093 17.0242 13.885 17.3739 13.3327 17.6915C12.0581 17.8891 11.0345 18.4888 10.2617 19.4906C10.1618 19.3906 10.062 19.2908 9.96206 19.1908C9.81226 19.3906 9.66245 19.3906 9.51265 19.1908C9.33722 19.508 9.11252 19.6079 8.83852 19.4906C8.39974 19.7377 7.95033 19.9626 7.49027 20.1653C7.20025 20.4707 6.95067 20.7955 6.74125 21.1398C6.26082 20.8362 5.78639 20.8862 5.31809 21.2898C5.02507 21.2656 4.72546 21.2157 4.41926 21.1398C4.14197 21.4818 3.89225 21.4818 3.67023 21.1398C3.10337 21.2087 2.52917 21.2587 1.94747 21.2898C1.38645 21.2027 0.912016 20.9529 0.524319 20.5401C0.270249 19.7672 0.0955759 18.9675 0 18.1413C0.149805 18.1413 0.299611 18.1413 0.449416 18.1413C0.423949 17.9431 0.473835 17.7681 0.599222 17.6165C0.437732 17.5155 0.337811 17.3656 0.299611 17.1667C0.548288 16.4643 0.872767 15.7897 1.27335 15.1427C1.76036 14.9063 2.20978 14.6064 2.6216 14.2432C2.69395 14.101 2.71882 13.9511 2.6965 13.7934C2.94263 13.7904 3.14232 13.8904 3.29572 14.0932C3.5402 13.9737 3.76491 13.8238 3.96984 13.6434C4.27799 13.7394 4.60247 13.7144 4.94358 13.5685C5.11451 13.4574 5.11451 13.3323 4.94358 13.1937C5.55748 13.0872 6.0069 12.7625 6.29183 12.2191C6.63174 12.2752 6.98123 12.2752 7.34047 12.2191C7.5884 11.8446 7.93789 11.6197 8.38911 11.5444C8.48903 11.3446 8.5888 11.1446 8.68872 10.9447C8.87388 11.0566 9.07372 11.1065 9.28794 11.0947C9.28075 10.6761 9.48044 10.4012 9.88716 10.2701C10.1814 10.1765 10.4311 10.2515 10.6362 10.495C10.8046 10.283 10.9544 10.0581 11.0856 9.82028C11.3371 9.76106 11.5867 9.78609 11.8346 9.89524C12.1629 9.70888 12.5124 9.58399 12.8833 9.52042C13.1027 9.1561 13.3024 8.78128 13.4825 8.39596C14.0333 8.22505 14.5827 8.07512 15.1304 7.94618C15.1985 7.53373 15.3984 7.20883 15.7296 6.97165C16.296 6.70478 16.8952 6.52981 17.5272 6.4469C17.4245 5.82365 17.6492 5.62365 18.2014 5.84719C18.4258 5.53849 18.7254 5.33863 19.1002 5.24748C19.065 4.48209 19.3896 4.1572 20.0739 4.27295C20.7067 3.92931 21.0562 3.40456 21.1226 2.6987C21.3223 2.6987 21.5221 2.6987 21.7218 2.6987C21.6983 2.49285 21.7233 2.29285 21.7967 2.09899C22.1069 1.94531 22.4316 1.82042 22.7704 1.72417C22.9023 1.52087 22.9523 1.29598 22.9202 1.0495C23.3156 1.03885 23.6402 0.888923 23.894 0.599712C24.545 0.823854 25.0193 0.624 25.3171 0Z" fill="var(--fill-0, #A7C2E6)"/>
</g>
</svg>
