<svg preserveAspectRatio="none" width="100%" height="100%" overflow="visible" style="display: block;" viewBox="0 0 31.4505 13.0437" fill="none" xmlns="http://www.w3.org/2000/svg">
<g id="Group">
<path id="Vector" fill-rule="evenodd" clip-rule="evenodd" d="M26.216 0C26.9081 0.0635694 27.5822 0.213497 28.2383 0.449784C28.5664 0.397159 28.842 0.247231 29.0623 0C29.6435 0.687569 30.2427 1.36225 30.8599 2.02403C30.7356 2.24367 30.7101 2.46856 30.785 2.6987C31.6194 2.92254 31.6689 3.27233 30.9348 3.7482C30.8599 3.97834 30.8854 4.20323 31.0097 4.42287C30.5963 5.13908 30.1963 5.86383 29.8113 6.59683C29.2825 6.72052 28.7836 6.72052 28.3132 6.59683C27.8878 7.20524 27.338 7.35516 26.6654 7.04661C26.6654 7.19654 26.6654 7.34647 26.6654 7.4964C26.2774 7.51199 25.9283 7.41199 25.6167 7.19654C25.1074 7.26251 24.634 7.41244 24.1936 7.64632C23.9734 7.5859 23.7726 7.4859 23.5944 7.34647C23.3906 7.4784 23.1659 7.52848 22.9202 7.4964C22.9202 7.64632 22.9202 7.79625 22.9202 7.94618C22.6371 7.97661 22.4124 7.87676 22.2461 7.64632C21.9869 8.03299 21.7128 8.03299 21.4222 7.64632C21.1001 7.83493 20.775 7.83493 20.4484 7.64632C20.1428 8.09761 19.7429 8.19746 19.25 7.94618C18.2748 8.19926 17.301 8.42415 16.3288 8.62086C15.8479 8.7306 15.5483 9.00557 15.43 9.44546C15.1843 9.44846 14.9835 9.34846 14.8307 9.1456C14.6 9.33256 14.3753 9.33256 14.1566 9.1456C13.5649 9.51173 12.9911 9.91158 12.4339 10.345C11.8616 9.84247 11.3612 9.86751 10.9358 10.42C10.007 10.592 9.15761 10.9419 8.38911 11.4695C7.6236 11.4283 6.97344 11.6782 6.44164 12.2191C5.76002 12.2974 5.13533 12.5223 4.56907 12.8938C3.88446 12.72 3.21033 12.77 2.54669 13.0437C2.18566 12.9815 1.83662 12.8815 1.49805 12.7439C1.39469 12.3506 1.16998 12.0508 0.82393 11.8443C0.629183 11.1563 0.355039 10.5065 0 9.89524C0.194747 9.1462 0.419455 8.39656 0.674125 7.64632C1.99691 6.65095 3.36913 5.85139 4.79378 5.24748C4.89265 4.58734 5.16679 4.48734 5.61771 4.94762C5.84391 4.79694 6.01769 4.59709 6.14202 4.34791C6.24539 4.42662 6.32029 4.52662 6.36673 4.64777C6.58095 4.30488 6.8551 4.25495 7.19066 4.49784C7.43185 4.13201 7.7809 3.95705 8.2393 3.97309C8.36514 3.82151 8.41457 3.64655 8.38911 3.44834C9.11267 3.58478 9.71189 3.38492 10.1868 2.84863C11.0991 2.99331 11.8481 2.69346 12.4339 1.94906C12.5837 2.04906 12.7335 2.14892 12.8833 2.24892C13.3327 2.07425 13.7327 1.82432 14.0817 1.49928C14.248 1.66585 14.4472 1.76585 14.6809 1.79913C15.1214 1.67859 15.5213 1.47874 15.8794 1.19942C16.1535 1.38743 16.4531 1.48743 16.7782 1.49928C16.7363 1.22251 16.8366 1.02251 17.0778 0.899567C17.289 1.06809 17.5138 1.21801 17.7519 1.34935C18.4351 0.934051 19.1586 0.834049 19.9241 1.0495C20.4065 0.85369 20.8559 0.60391 21.2724 0.299856C21.4596 0.380817 21.6334 0.480819 21.7967 0.599712C22.1457 0.399858 22.4963 0.399858 22.8453 0.599712C23.3682 0.518301 23.867 0.368373 24.3434 0.149928C24.992 0.274368 25.6167 0.224292 26.216 0Z" fill="var(--fill-0, #A7C2E6)"/>
</g>
</svg>
