<svg preserveAspectRatio="none" width="100%" height="100%" overflow="visible" style="display: block;" viewBox="0 0 13.6323 16.8245" fill="none" xmlns="http://www.w3.org/2000/svg">
<g id="Group">
<path id="Vector" fill-rule="evenodd" clip-rule="evenodd" d="M6.89105 0.0326038C7.14123 0.0702357 7.36593 0.170238 7.56517 0.33246C7.76487 0.232458 7.96471 0.132606 8.1644 0.0326038C8.49157 -0.0585524 8.79118 0.0414495 9.06323 0.33246C9.12135 0.193327 9.22127 0.0933246 9.36284 0.0326038C9.65496 0.149997 9.92955 0.299925 10.1868 0.482388C10.3649 0.444006 10.5397 0.39408 10.7111 0.33246C10.8974 0.64371 11.172 0.793638 11.535 0.782243C11.535 0.932171 11.535 1.0821 11.535 1.23203C11.8093 1.14927 12.0589 1.14927 12.284 1.23203C11.7296 1.41749 11.7546 1.61734 12.3589 1.83174C12.6099 2.14524 12.6848 2.47013 12.5837 2.80627C12.6959 3.06625 12.7708 3.34106 12.8084 3.63087C12.9946 3.50553 13.1694 3.55546 13.3327 3.7808C13.1577 3.9916 13.2076 4.16642 13.4825 4.30555C12.9038 4.57752 12.9537 4.75233 13.6323 4.8303C13.6314 5.33256 13.4816 5.78234 13.1829 6.17965C13.5493 6.31863 13.6741 6.56856 13.5574 6.92929C13.4498 6.78671 13.325 6.76182 13.1829 6.85432C13.2753 7.21235 13.3252 7.56213 13.3327 7.90382C13.2939 8.09288 13.194 8.24281 13.0331 8.3536C13.1829 8.40353 13.3327 8.45361 13.4825 8.50353C13.2918 8.94447 12.9922 9.29425 12.5837 9.55303C12.678 9.83669 12.8278 10.0866 13.0331 10.3027C12.8434 10.349 12.6686 10.424 12.5088 10.5276C12.1967 11.1863 11.9969 11.8861 11.9095 12.6265C11.7725 12.7507 11.6727 12.9006 11.6099 13.0763C11.56 13.0264 11.51 12.9763 11.4601 12.9264C11.3343 13.3523 11.1096 13.7023 10.786 13.9759C10.5863 14.0258 10.5863 14.0759 10.786 14.1258C10.6828 14.5536 10.4082 14.8034 9.96206 14.8755C9.88866 15.0693 9.86364 15.2693 9.88716 15.4752C9.38606 15.7382 8.86174 15.9879 8.3142 16.2248C8.09848 16.1277 7.87377 16.0777 7.64008 16.0749C7.64008 16.2248 7.64008 16.3747 7.64008 16.5247C7.21658 16.7457 6.84206 16.6956 6.51654 16.3747C6.19266 16.6966 5.84301 16.6966 5.4679 16.3747C5.18177 16.4806 4.88216 16.6305 4.56907 16.8245C4.40653 16.7056 4.2317 16.6056 4.04475 16.5247C3.49466 16.7571 3.39474 16.6821 3.74514 16.2998C3.51518 16.2254 3.29048 16.2503 3.07101 16.3747C2.64721 16.2214 2.2727 16.0214 1.94747 15.775C1.66599 15.7911 1.6161 15.7161 1.79767 15.5501C1.47349 14.9782 1.14886 14.4033 0.82393 13.826C0.774045 13.8759 0.72401 13.926 0.674124 13.9759C0.66244 13.5156 0.737342 13.0658 0.898833 12.6265C0.67742 12.6658 0.47773 12.6159 0.299611 12.4766C0.748877 11.8511 0.648957 11.3264 0 10.9024C0.0847899 10.7532 0.18471 10.6283 0.299611 10.5276C0.301259 10.3001 0.401029 10.1252 0.599222 10.0028C0.375862 9.69966 0.425747 9.44988 0.749027 9.25317C0.352193 8.8878 0.451963 8.68794 1.04864 8.65346C0.837412 8.59829 0.687607 8.4734 0.599222 8.27864C0.764457 7.6323 1.01418 7.13259 1.34825 6.77936C1.31694 6.6915 1.2669 6.61654 1.19844 6.55447C1.94073 5.73181 2.31524 4.75728 2.32198 3.63087C2.46475 3.31722 2.66444 3.2673 2.92121 3.48095C3.00779 3.10388 3.2325 2.7541 3.59533 2.43145C3.94078 2.18572 4.24039 1.88586 4.49416 1.53188C4.1556 1.42124 4.13059 1.27131 4.41926 1.0821C4.48128 1.15062 4.55618 1.20069 4.64397 1.23203C4.78284 0.990193 4.90778 0.740413 5.01848 0.482388C5.21518 0.64326 5.43988 0.743262 5.69261 0.782243C6.09633 0.530664 6.49571 0.280884 6.89105 0.0326038ZM0.299611 10.5276C0.413613 10.6611 0.563418 10.7611 0.749027 10.8274C0.935535 10.6093 0.910517 10.4093 0.674124 10.2277C0.611656 10.416 0.486868 10.516 0.299611 10.5276Z" fill="var(--fill-0, #A7C2E6)"/>
</g>
</svg>
