<svg preserveAspectRatio="none" width="100%" height="100%" overflow="visible" style="display: block;" viewBox="0 0 32.6576 16.6326" fill="none" xmlns="http://www.w3.org/2000/svg">
<g id="Group">
<path id="Vector" fill-rule="evenodd" clip-rule="evenodd" d="M0.749027 5.08816C0.0389494 4.99206 -0.0119844 4.76716 0.599222 4.41348C0.456907 4.12038 0.256167 3.87045 0 3.66385C0.268152 3.46744 0.543794 3.39248 0.82393 3.43895C0.883852 3.23325 0.958755 3.0334 1.04864 2.83924C0.801459 2.74209 0.602218 2.59216 0.449416 2.38946C0.874864 1.78945 1.17447 1.18973 1.34825 0.590323C2.22161 -0.0792554 3.16988 -0.179257 4.19455 0.290467C4.48667 0.177121 4.76082 0.127195 5.01848 0.140539C6.21093 0.735003 6.95996 1.68465 7.26556 2.98917C7.37342 2.84659 7.49776 2.8217 7.64008 2.91421C7.48728 3.07148 7.46331 3.24645 7.56517 3.43895C7.83033 3.5595 8.05504 3.73446 8.2393 3.9637C8.12245 4.12457 8.14792 4.29954 8.3142 4.48845C8.51344 4.58845 8.71418 4.6883 8.91342 4.7883C8.91342 4.98816 8.91342 5.18816 8.91342 5.38802C9.17259 5.50031 9.44823 5.57528 9.73735 5.61291C9.82574 5.95474 9.95008 6.27964 10.1119 6.58744C10.1958 6.50918 10.2961 6.45925 10.4115 6.43751C10.6062 6.61847 10.8309 6.71848 11.0856 6.73737C10.9777 7.32973 11.177 7.52974 11.6848 7.33708C11.923 7.41354 12.0968 7.56347 12.2091 7.78686C12.3604 7.66137 12.5357 7.61145 12.7335 7.63693C12.735 8.14114 12.9851 8.46604 13.4825 8.61147C14.2435 8.67534 14.9925 8.80038 15.7296 8.98629C16.0217 8.78373 16.3468 8.68373 16.7033 8.68643C17.4433 8.79078 18.1684 8.79078 18.8755 8.68643C19.3579 8.41746 19.8567 8.19257 20.3735 8.01175C20.5818 7.83619 20.7076 7.6113 20.7481 7.33708C20.9143 7.15552 21.0896 7.15552 21.2724 7.33708C21.4357 6.75881 21.7847 6.60888 22.321 6.8873C22.6446 6.81263 22.8948 6.63782 23.07 6.36255C23.2633 6.28908 23.464 6.26404 23.6693 6.28758C23.6453 6.03286 23.6708 5.78293 23.7442 5.53794C24.3973 5.28427 24.8467 4.83448 25.0924 4.18859C25.1928 4.38845 25.2917 4.38845 25.392 4.18859C25.6167 3.76385 25.8414 3.33895 26.0661 2.91421C26.6803 3.0196 27.2301 2.84464 27.714 2.38946C27.8324 2.45408 27.9582 2.50415 28.0885 2.53939C28.3162 2.38841 28.5664 2.28856 28.8375 2.23953C29.6525 2.65783 30.5274 2.93265 31.4591 3.06413C31.7078 3.69098 32.0584 4.26566 32.5078 4.7883C32.4359 4.93493 32.337 5.05982 32.2082 5.16312C32.3864 5.3159 32.5362 5.49087 32.6576 5.68787C32.3789 6.60003 32.0554 7.4996 31.6839 8.38657C30.9034 9.05046 30.379 9.9001 30.1109 10.9353C30 11.0533 29.8742 11.1532 29.7364 11.2352C29.3379 11.0562 29.1641 11.2061 29.2121 11.685C28.9574 11.661 28.7072 11.6859 28.463 11.76C28.3042 12.1207 28.1035 12.4456 27.8638 12.7345C27.5747 12.5816 27.2751 12.5565 26.965 12.6595C26.1815 13.2627 25.4819 13.9374 24.8677 14.6835C24.6924 14.6207 24.5426 14.5209 24.4183 14.3837C23.4475 14.8065 22.4993 15.2563 21.572 15.733C21.3937 15.6941 21.2184 15.6446 21.0477 15.5831C20.3735 16.0419 19.65 16.1918 18.8755 16.0329C18.0216 16.4152 17.1467 16.6161 16.2539 16.6326C16.0951 16.6131 15.9708 16.5382 15.8794 16.4077C14.7798 16.3238 13.6802 16.2248 12.5837 16.1079C12.3395 16.0194 12.1148 15.895 11.9095 15.733C11.4736 16.1783 11.1485 16.1034 10.9358 15.5082C10.6332 15.3252 10.3336 15.3012 10.037 15.4332C9.5501 14.9863 9.00181 14.8113 8.3891 14.9084C7.85879 14.4678 7.35994 13.993 6.89105 13.4841C6.33677 13.3538 5.93679 13.0289 5.69261 12.5096C5.3121 12.3459 4.91212 12.2459 4.49416 12.2097C4.29492 12.0099 4.29492 11.8099 4.49416 11.61C4.14512 11.4601 3.89494 11.2102 3.74514 10.8604C3.50095 10.7863 3.25078 10.7614 2.99611 10.7854C3.04405 9.94088 2.695 9.3662 1.94747 9.06125C1.77669 8.95015 1.77669 8.82511 1.94747 8.68643C1.75872 8.55419 1.58344 8.40427 1.42315 8.23665C1.2284 7.20559 1.0037 6.1561 0.749027 5.08816Z" fill="var(--fill-0, #A7C2E6)"/>
</g>
</svg>
