<svg preserveAspectRatio="none" width="100%" height="100%" overflow="visible" style="display: block;" viewBox="0 0 32.6209 19.0408" fill="none" xmlns="http://www.w3.org/2000/svg">
<g id="Group">
<path id="Vector" fill-rule="evenodd" clip-rule="evenodd" d="M9.70065 0.899567C9.77705 1.15939 9.90139 1.20932 10.0752 1.0495C10.1875 1.14335 10.3119 1.21831 10.4497 1.27439C10.2699 1.37244 10.2699 1.4474 10.4497 1.49928C10.8572 1.65985 11.2826 1.65985 11.723 1.49928C11.9972 1.57574 12.0211 1.70078 11.7979 1.8741C12.4046 2.10094 12.9784 2.0759 13.5207 1.79913C13.8727 2.42493 14.3222 2.52494 14.8689 2.09899C15.4157 3.0194 16.2142 3.36933 17.2658 3.14849C17.7901 3.49977 18.3145 3.84955 18.8388 4.19798C19.2957 3.75884 19.6447 3.83381 19.8874 4.42287C20.0297 4.51538 20.1541 4.49049 20.2619 4.34791C20.3338 4.49004 20.3593 4.63997 20.3368 4.79769C20.5645 4.79604 20.7383 4.69619 20.8612 4.49784C21.1593 4.7836 21.0844 4.95857 20.6365 5.02259C21.0754 5.27132 21.5248 5.32124 21.9847 5.17251C22.1989 5.61225 22.4985 5.98707 22.8835 6.29697C23.5337 6.50882 24.1329 6.80868 24.6812 7.19654C24.7816 7.39639 24.8804 7.39639 24.9808 7.19654C25.4093 7.19849 25.5591 7.3733 25.4302 7.72129C25.6729 7.81349 25.8722 7.96342 26.0294 8.17107C26.2392 8.26028 26.4384 8.23524 26.6287 8.09611C26.9298 8.4318 27.2054 8.78158 27.4526 9.1456C27.6923 9.12461 27.917 9.12461 28.1267 9.1456C28.2346 9.80783 28.5836 10.1077 29.1754 10.0452C29.0435 10.1578 28.8937 10.2327 28.7259 10.2701C28.9956 10.4158 29.2458 10.5908 29.475 10.7948C29.7326 10.5561 29.8824 10.6062 29.9244 10.9447C30.2525 11.027 30.3513 11.2019 30.224 11.4695C30.7483 12.0088 31.2487 12.4586 31.7221 12.8188C31.6382 12.8763 31.5887 12.9512 31.5722 13.0437C31.373 13.0937 31.373 13.1437 31.5722 13.1937C31.6202 13.4257 31.77 13.5257 32.0217 13.4935C31.7385 14.2006 31.9378 14.7253 32.6209 15.0678C32.3213 15.1678 32.0217 15.2676 31.7221 15.3676C32.0022 15.5105 32.0531 15.6855 31.8719 15.8924C32.2494 16.1176 32.2494 16.3174 31.8719 16.4921C31.8389 16.6772 31.7385 16.8272 31.5722 16.9419C31.755 17.1372 31.7041 17.2871 31.4224 17.3916C31.8015 17.5889 31.8015 17.7639 31.4224 17.9164C31.4719 17.9663 31.5228 18.0164 31.5722 18.0663C31.3565 18.0991 31.1573 18.1741 30.973 18.2912C31.0045 18.3791 31.0539 18.454 31.1228 18.5161C30.8487 18.557 30.624 18.6821 30.4487 18.8909C30.3993 18.7909 30.3483 18.6911 30.2989 18.5911C29.9858 18.7122 29.6862 18.8621 29.4001 19.0408C29.1439 18.9197 29.0196 18.7198 29.0256 18.4411C28.5252 18.4645 28.1013 18.6644 27.7522 19.0408C27.4271 18.816 27.4526 18.641 27.8271 18.5161C27.3612 18.2978 26.9358 18.023 26.5538 17.6915C26.2976 17.6823 26.0984 17.7824 25.9545 17.9913C25.622 17.7083 25.5471 17.3834 25.7298 17.0168C25.3733 16.8054 25.1231 16.5056 24.9808 16.1173C24.7157 15.9645 24.4655 15.9394 24.2318 16.0423C23.9666 15.8444 23.9172 15.6195 24.082 15.3676C23.8318 15.3177 23.5831 15.2676 23.3329 15.2177C22.9494 14.6767 22.5 14.2021 21.9847 13.7934C21.8843 13.8433 21.7855 13.8934 21.6851 13.9433C21.2866 13.5938 20.8881 13.244 20.4866 12.8938C20.4372 12.6939 20.3863 12.6939 20.3368 12.8938C19.9878 12.8938 19.6372 12.8938 19.2882 12.8938C19.3107 12.5277 19.1848 12.4277 18.9137 12.5939C18.8418 12.4518 18.8163 12.3019 18.8388 12.1442C18.3894 12.1941 18.1901 11.9942 18.2396 11.5444C17.4411 11.2362 16.6426 10.9113 15.8427 10.5699C15.4562 10.5881 15.0817 10.563 14.7191 10.495C14.463 10.3994 14.4375 10.2495 14.6442 10.0452C14.2113 9.91188 13.8113 9.71203 13.4458 9.44546C13.1102 9.8852 12.9604 9.83512 12.9964 9.29553C12.6638 9.24725 12.3882 9.34726 12.1724 9.59539C11.9073 9.47484 11.6826 9.29988 11.4983 9.07064C11.5478 9.02071 11.5987 8.97064 11.6481 8.92071C11.3605 8.68158 11.0609 8.65654 10.7493 8.84575C10.3823 8.46208 9.93285 8.23719 9.40104 8.17107C9.2018 8.07107 9.2018 7.97122 9.40104 7.87122C9.24375 7.79745 9.09394 7.82234 8.95163 7.94618C8.84826 7.86747 8.77336 7.76747 8.72692 7.64632C8.62355 7.77481 8.49921 7.87466 8.3524 7.94618C7.5075 7.4922 6.6596 7.19234 5.80571 7.04661C5.57201 7.13267 5.34731 7.23252 5.13159 7.34647C4.75557 7.09834 4.33162 6.9733 3.85824 6.97165C3.30396 6.86955 2.75417 6.89444 2.21038 7.04661C1.98118 7.04226 1.8059 6.94226 1.68606 6.74676C1.63662 6.79668 1.58569 6.84676 1.53625 6.89668C0.981975 6.36669 0.50859 5.76698 0.113103 5.09755C0.188006 4.94762 0.262909 4.79769 0.337811 4.64777C0.474134 4.82078 0.599971 4.79574 0.712325 4.5728C0.544543 4.41628 0.343804 4.31642 0.113103 4.27295C0.111605 4.03561 0.162539 3.78583 0.262909 3.52331C-0.0876362 3.31461 -0.0876362 3.18972 0.262909 3.14849C0.29287 2.917 0.393239 2.71699 0.562519 2.54877C0.249426 2.23468 0.249426 1.95986 0.562519 1.72417C1.59917 0.946195 2.69875 0.546337 3.85824 0.524748C3.59308 0.444536 3.54365 0.319496 3.70843 0.149928C3.9646 0.327892 4.18931 0.277966 4.38256 0C4.62075 0.175416 4.86943 0.325344 5.13159 0.449784C5.18102 0.399858 5.23196 0.349782 5.28139 0.299856C5.80571 0.68712 6.33003 0.68712 6.85435 0.299856C7.45207 0.438689 8.05129 0.688469 8.65201 1.0495C8.83927 0.968534 9.01305 0.868532 9.17633 0.74964C9.32764 0.875129 9.50291 0.925055 9.70065 0.899567Z" fill="var(--fill-0, #A7C2E6)"/>
</g>
</svg>
