<svg preserveAspectRatio="none" width="100%" height="100%" overflow="visible" style="display: block;" viewBox="0 0 27.4144 25.4877" fill="none" xmlns="http://www.w3.org/2000/svg">
<g id="Group">
<path id="Vector" fill-rule="evenodd" clip-rule="evenodd" d="M4.34436 0C4.63798 0.0943047 4.93759 0.194307 5.24319 0.299856C6.51504 0.00524747 7.78838 0.105099 9.06323 0.599712C9.24599 0.715456 9.3958 0.865384 9.51265 1.0495C9.71638 0.917559 9.94109 0.867483 10.1868 0.899567C10.1733 1.3555 10.398 1.60528 10.8609 1.64921C11.0122 1.52372 11.1875 1.47379 11.3852 1.49928C11.3373 2.04981 11.5875 2.29959 12.1342 2.24892C12.0983 3.1179 12.3979 3.8425 13.0331 4.42287C12.9642 4.48494 12.9147 4.55991 12.8833 4.64777C13.0675 4.81119 13.1919 5.01119 13.2578 5.24748C13.4855 4.93728 13.6113 4.58734 13.6323 4.19798C13.9873 4.25061 14.3364 4.27564 14.6809 4.27295C14.612 4.21088 14.5626 4.13591 14.5311 4.04805C14.8427 3.56753 15.1169 3.06782 15.3551 2.54877C15.5678 2.53468 15.7925 2.48461 16.0292 2.39885C15.9977 2.31099 15.9483 2.23602 15.8794 2.17395C16.0786 1.9741 16.2794 1.7741 16.4786 1.57424C16.6883 1.48504 16.8876 1.51007 17.0778 1.64921C17.5182 1.28608 18.0186 1.01111 18.5759 0.824604C19.3249 0.599712 20.0739 0.37482 20.823 0.149928C21.0417 0.283364 21.2409 0.283364 21.4222 0.149928C21.5255 0.22864 21.6004 0.328642 21.6469 0.449784C21.8461 0.24993 22.0469 0.24993 22.2461 0.449784C22.324 0.297457 22.4483 0.197605 22.6206 0.149928C23.067 0.326093 23.5165 0.326093 23.9689 0.149928C24.5816 0.496261 25.0804 0.971083 25.4669 1.57424C25.6092 1.64666 25.759 1.67155 25.9163 1.64921C25.8939 1.80693 25.9193 1.95686 25.9912 2.09899C26.2444 2.32643 26.4691 2.57636 26.6654 2.84863C26.586 2.95238 26.4871 3.02734 26.3658 3.07352C26.6399 3.14849 26.8152 3.32345 26.8901 3.59827C27.0249 4.2581 27.1987 4.90774 27.4144 5.54733C27.314 5.69726 27.2152 5.84719 27.1148 5.99712C27.0983 6.43775 27.1477 6.88754 27.2646 7.34647C27.2721 7.57136 27.1717 7.72129 26.965 7.79625C26.8302 9.58939 26.3058 11.2386 25.392 12.7439C25.2722 13.6015 25.022 14.4006 24.643 15.1427C24.0722 15.3346 23.8475 15.7349 23.9689 16.3421C23.7187 16.3421 23.47 16.3421 23.2198 16.3421C23.1704 16.642 23.1195 16.9419 23.07 17.2417C22.7869 17.2117 22.5622 17.3107 22.3959 17.5416C22.3165 18.0678 22.1667 18.5671 21.9465 19.0408C21.4521 19.2882 21.0027 19.5881 20.5982 19.9404C20.3556 20.4757 20.1563 21.0244 19.999 21.5896C19.7489 21.789 19.5002 21.789 19.25 21.5896C18.6732 22.1668 18.1489 22.792 17.677 23.4637C17.4269 23.5132 17.1782 23.5642 16.928 23.6136C16.7602 23.9315 16.5355 24.2074 16.2539 24.4383C16.1805 24.6317 16.155 24.8326 16.179 25.038C15.8539 25.011 15.5543 24.9105 15.2802 24.7381C14.3633 25.0994 13.4151 25.3498 12.4339 25.4877C12.1612 25.4653 11.9365 25.3648 11.7597 25.1879C11.5395 25.1759 11.2908 25.2254 11.0107 25.3378C9.8527 25.1459 8.87897 24.6212 8.08949 23.7636C7.84531 23.6901 7.59514 23.6646 7.34047 23.6886C7.28953 23.3363 7.21463 22.9854 7.11576 22.6391C6.79817 22.3258 6.47309 22.0259 6.14202 21.7395C5.49337 21.9899 5.29263 21.789 5.5428 21.1398C4.96605 20.7365 4.59154 20.1863 4.41926 19.4906C4.26496 19.2118 4.04025 19.0124 3.74514 18.8909C3.43654 18.3272 3.08749 17.777 2.6965 17.2417C2.53321 16.5955 2.3834 15.9463 2.24708 15.2926C2.01938 14.9958 1.86957 14.645 1.79767 14.2432C1.3123 14.0407 1.16249 13.7169 1.34825 13.2686C1.06512 13.1037 0.964747 12.9043 1.04864 12.6689C0.578249 12.2821 0.428444 11.8068 0.599222 11.2446C0.498852 10.9942 0.399981 10.7453 0.299611 10.495C0.316089 10.354 0.365525 10.2281 0.449416 10.1201C0.299611 9.47095 0.149805 8.82026 0 8.17107C0.10037 7.97167 0.250175 7.82174 0.449416 7.72129C0.299611 7.57136 0.149805 7.42143 0 7.2715C0.197743 6.82397 0.398482 6.37419 0.599222 5.92215C0.531809 5.7295 0.43144 5.55453 0.299611 5.3974C0.447918 5.22274 0.597724 5.04777 0.749027 4.87266C0.639669 4.4695 0.740039 4.09468 1.04864 3.7482C0.904825 3.39092 1.05463 3.24099 1.49805 3.29841C1.47409 3.09256 1.49955 2.89256 1.57296 2.6987C2.03735 2.30859 2.26206 1.80888 2.24708 1.19942C2.60062 1.22551 2.94967 1.27544 3.29572 1.34935C3.29572 1.1495 3.29572 0.949493 3.29572 0.74964C3.85 0.79072 4.20054 0.54094 4.34436 0Z" fill="var(--fill-0, #A7C2E6)"/>
</g>
</svg>
