<svg preserveAspectRatio="none" width="100%" height="100%" overflow="visible" style="display: block;" viewBox="0 0 12.7335 13.0437" fill="none" xmlns="http://www.w3.org/2000/svg">
<g id="Group">
<path id="Vector" fill-rule="evenodd" clip-rule="evenodd" d="M5.09339 0C5.77126 0.089357 6.42051 0.089357 7.04086 0C7.45402 0.141532 7.87842 0.29146 8.3142 0.449784C8.39824 0.371521 8.49816 0.321595 8.61381 0.299856C9.07791 0.510505 9.55234 0.710358 10.037 0.899567C10.1558 0.834949 10.2807 0.784873 10.4115 0.74964C10.7096 1.14485 11.0092 1.54456 11.3103 1.94906C11.3837 2.14292 11.4092 2.34292 11.3852 2.54877C11.535 2.54877 11.6848 2.54877 11.8346 2.54877C11.8616 3.07847 12.0608 3.52825 12.4339 3.89813C12.3844 3.99813 12.3335 4.09798 12.284 4.19798C12.5372 5.15932 12.687 6.10881 12.7335 7.04661C12.6496 7.33222 12.4998 7.582 12.284 7.79625C12.3485 7.91514 12.3979 8.04018 12.4339 8.17107C12.2076 8.45279 12.1073 8.77768 12.1342 9.1456C11.935 9.1456 11.7343 9.1456 11.535 9.1456C11.4841 9.75251 11.3837 10.3522 11.2354 10.9447C10.9493 10.9429 10.6497 10.9929 10.3366 11.0947C10.1552 11.3828 9.95547 11.6576 9.73735 11.9193C9.53766 11.9193 9.33782 11.9193 9.13813 11.9193C9.31296 12.344 9.18802 12.4691 8.76362 12.2941C8.69156 12.5906 8.51689 12.7905 8.2393 12.8938C7.2747 12.5209 6.32598 12.5209 5.393 12.8938C5.0077 12.6664 4.6582 12.7163 4.34436 13.0437C3.40118 12.3842 2.55239 11.6097 1.79767 10.7198C1.4621 10.5734 1.11261 10.4984 0.749027 10.495C0.803257 9.61188 0.603416 8.81231 0.149805 8.09611C0.197444 7.92414 0.297214 7.7991 0.449416 7.72129C0.180216 7.4823 0.0304105 7.18245 0 6.82172C0.14606 6.26369 0.14606 5.73894 0 5.24748C0.442675 4.86726 0.617498 4.41748 0.524319 3.89813C0.802807 3.44414 1.10242 2.99436 1.42315 2.54877C1.49716 2.30379 1.52202 2.05386 1.49805 1.79913C1.74778 1.79913 1.99736 1.79913 2.24708 1.79913C2.41486 1.11306 2.86428 0.788321 3.59533 0.824604C4.08669 0.505557 4.58599 0.230589 5.09339 0Z" fill="var(--fill-0, #A7C2E6)"/>
</g>
</svg>
