<svg preserveAspectRatio="none" width="100%" height="100%" overflow="visible" style="display: block;" viewBox="0 0 235.195 226.391" fill="none" xmlns="http://www.w3.org/2000/svg">
<g id="Group">
<path id="Vector" fill-rule="evenodd" clip-rule="evenodd" d="M83.7412 8.62093e-05C84.0558 -0.00336213 84.3304 0.0966398 84.5652 0.299942C84.8324 0.17865 85.107 0.0786484 85.3891 8.62093e-05C85.6388 0.100088 85.8884 0.19994 86.1381 0.299942C86.4695 0.141918 86.7691 0.216882 87.037 0.524834C87.7724 0.568913 88.4713 0.743879 89.1342 1.04958C89.4268 0.951229 89.7264 0.901303 90.0331 0.899654C90.0205 1.67838 90.3201 1.82831 90.9319 1.34944C91.3623 1.73505 91.6619 2.20987 91.8307 2.77375C92.0722 2.8817 92.2969 2.85681 92.5049 2.69879C92.789 2.92608 93.1137 3.02608 93.4786 2.99864C93.5184 4.11291 94.0926 4.71262 95.2014 4.79778C95.4521 5.32568 95.6268 5.87531 95.7257 6.44699C96.0293 6.4227 96.3289 6.44774 96.6245 6.52195C96.8828 7.03006 97.1075 7.5548 97.2986 8.09619C97.5993 8.27146 97.9238 8.37131 98.2724 8.39605C98.1419 9.08647 98.4165 9.48633 99.0963 9.59547C99.1405 10.3103 99.4151 10.91 99.9202 11.3946C99.7965 11.5372 99.7716 11.6871 99.8453 11.8444C100.109 12.0609 100.409 12.2108 100.744 12.2942C100.819 12.669 100.894 13.0438 100.969 13.4186C101.602 14.1122 101.977 14.9368 102.092 15.8924C102.287 15.9623 102.512 15.9623 102.767 15.8924C102.719 16.353 102.769 16.8028 102.916 17.2418C103.401 17.9642 103.676 18.7637 103.74 19.6406C103.907 19.902 104.131 20.1018 104.414 20.2404C104.479 20.6516 104.653 21.0014 104.939 21.2899C104.948 21.7968 105.123 22.2215 105.463 22.5642C105.552 23.0367 105.627 23.5115 105.688 23.9886C105.824 24.2793 106.048 24.4292 106.362 24.4383C106.338 24.6931 106.363 24.943 106.437 25.188C106.782 25.9712 107.156 26.7459 107.56 27.5119C107.492 27.5739 107.442 27.6489 107.411 27.7368C107.689 28.1729 107.938 28.6227 108.16 29.0861C108.088 29.2327 107.988 29.3576 107.86 29.4609C108.263 29.9362 108.563 30.4609 108.759 31.0352C108.601 31.0128 108.451 31.0377 108.309 31.1101C108.595 31.3905 108.919 31.6154 109.283 31.7848C109.328 32.7874 109.603 33.7118 110.107 34.5585C110.085 34.6742 110.035 34.7742 109.957 34.8583C110.402 35.7979 110.901 36.6975 111.455 37.557C111.487 38.1049 111.487 38.6545 111.455 39.2062C112.102 39.4778 112.353 39.9275 112.204 40.5556C112.908 42.4691 113.557 44.4182 114.152 46.4028C114.018 46.7194 114.018 47.0442 114.152 47.3773C114.302 47.3773 114.451 47.3773 114.601 47.3773C114.628 47.6908 114.579 47.9907 114.451 48.2769C114.601 48.3769 114.751 48.4767 114.901 48.5767C115.034 49.3186 115.233 50.0432 115.5 50.7507C115.576 50.926 115.701 51.0508 115.875 51.1255C116.108 52.1465 116.307 53.1461 116.474 54.1241C117.036 54.3055 117.211 54.6554 116.998 55.1736C117.215 56.1998 117.59 57.1493 118.122 58.0222C118.183 58.5877 118.307 59.1375 118.496 59.6714C118.465 59.7593 118.415 59.8342 118.346 59.8963C118.649 60.2833 118.874 60.708 119.02 61.1707C119.155 60.9906 119.331 60.8656 119.545 60.7959C119.426 60.6332 119.326 60.4582 119.245 60.2711C119.524 60.0554 119.774 59.8056 119.994 59.5215C120.033 58.7203 120.333 58.0456 120.893 57.4974C120.809 57.3887 120.76 57.2639 120.743 57.1226C120.975 56.7625 121.076 56.3628 121.043 55.9232C121.242 55.9232 121.443 55.9232 121.642 55.9232C121.647 55.1365 121.846 54.4119 122.241 53.7492C122.088 53.592 122.064 53.417 122.166 53.2245C122.876 52.4524 123.476 51.6027 123.964 50.6757C124.102 50.0325 124.177 49.3829 124.189 48.7267C124.388 48.7267 124.589 48.7267 124.788 48.7267C124.758 48.4433 124.857 48.2184 125.088 48.052C124.89 47.7554 124.965 47.5305 125.312 47.3773C125.387 47.0815 125.411 46.7816 125.387 46.4777C125.544 46.5001 125.694 46.4752 125.837 46.4028C126.392 45.7176 126.816 44.9431 127.11 44.0789C127.425 43.7152 127.699 43.3153 127.934 42.8795C127.81 42.7369 127.786 42.587 127.859 42.4297C128.192 41.7738 128.665 41.224 129.282 40.7805C129.369 40.276 129.468 39.7763 129.582 39.2812C129.991 39.1779 130.34 38.9781 130.63 38.6815C131.023 38.0938 131.248 37.4441 131.304 36.7324C131.553 36.259 131.928 35.909 132.428 35.6829C132.289 35.4928 132.265 35.293 132.353 35.0832C132.69 35.002 132.966 34.827 133.177 34.5585C133.099 34.4744 133.048 34.3744 133.027 34.2586C133.268 34.0364 133.418 33.7616 133.477 33.434C133.823 33.3601 134.172 33.3102 134.525 33.2841C134.5 32.9854 134.6 32.7357 134.825 32.5344C134.68 32.3153 134.729 32.1154 134.975 31.9347C134.85 31.7922 134.826 31.6422 134.9 31.485C135.737 31.2983 136.137 30.7986 136.098 29.9857C136.265 29.7552 136.489 29.6554 136.772 29.6858C136.823 29.2336 136.999 28.8339 137.297 28.4864C137.446 28.2865 137.596 28.2865 137.746 28.4864C137.796 28.1865 137.846 27.8867 137.896 27.5868C138.324 27.2942 138.798 27.1192 139.319 27.0621C139.849 26.2901 140.249 25.4655 140.518 24.5883C140.772 24.6123 141.022 24.5874 141.267 24.5133C141.578 24.0823 141.803 23.6074 141.941 23.089C142.419 22.8145 142.892 22.5645 143.364 22.3393C143.364 21.9896 143.364 21.6396 143.364 21.2899C144.093 21.4339 144.594 21.1591 144.862 20.4652C145.052 20.4189 145.226 20.344 145.386 20.2404C145.424 19.9505 145.499 19.6757 145.611 19.4158C146.775 19.225 147.474 18.5504 147.708 17.3917C147.858 17.3917 148.008 17.3917 148.158 17.3917C148.158 17.2418 148.158 17.0919 148.158 16.9419C148.674 17.0535 148.925 16.8535 148.907 16.3422C149.17 16.3208 149.42 16.3709 149.656 16.4922C150.42 16.0272 150.969 15.3776 151.303 14.5431C151.843 14.3887 152.241 14.0638 152.502 13.5686C152.659 13.4948 152.809 13.5197 152.951 13.6435C153.065 13.4744 153.166 13.2994 153.251 13.1188C153.597 13.0443 153.946 13.0194 154.3 13.0438C154.264 12.7489 154.313 12.4739 154.449 12.2192C155.095 11.9237 155.645 11.5988 156.097 11.2447C156.24 11.3177 156.389 11.3676 156.547 11.3946C156.983 10.9502 157.481 10.7253 158.045 10.7199C158.021 9.81797 158.421 9.54315 159.243 9.89533C159.564 9.70972 159.763 9.4349 159.842 9.07073C160.233 9.14989 160.633 9.09996 161.041 8.9208C161.504 8.61599 162.003 8.36621 162.539 8.17116C162.8 8.00474 163 7.77985 163.138 7.49648C163.653 7.74851 164.077 7.64851 164.411 7.19663C164.741 7.36829 165.066 7.36829 165.385 7.19663C165.614 6.94355 165.889 6.74369 166.209 6.59692C166.281 6.45478 166.307 6.30486 166.284 6.14713C166.617 6.09885 166.892 6.19886 167.108 6.44699C167.16 6.19511 167.31 6.04518 167.557 5.9972C167.975 6.14968 168.399 6.17472 168.831 6.07217C169.584 5.80799 170.359 5.5831 171.153 5.39749C171.323 5.20513 171.523 5.05521 171.752 4.94771C172.284 5.1714 172.834 5.32133 173.4 5.39749C174.087 4.9684 174.785 4.91847 175.497 5.24756C175.887 4.7567 176.312 4.70677 176.77 5.09764C177.021 4.85985 177.32 4.75985 177.669 4.79778C177.669 4.94771 177.669 5.09764 177.669 5.24756C178.176 5.21113 178.65 5.31113 179.092 5.54742C179.2 5.46361 179.326 5.41368 179.467 5.39749C180.171 5.73003 180.92 5.905 181.714 5.92224C181.934 6.01744 182.133 6.14248 182.313 6.29706C182.649 5.8906 182.948 5.91564 183.212 6.37202C183.163 6.42195 183.112 6.47203 183.062 6.52195C183.453 6.89257 183.828 6.91761 184.186 6.59692C184.538 6.72525 184.763 6.97518 184.86 7.34655C185.092 7.48929 185.341 7.53921 185.609 7.49648C185.582 7.86171 185.681 8.1866 185.909 8.47101C186.533 8.49605 187.108 8.67087 187.631 8.99576C187.819 9.7445 188.142 10.4192 188.605 11.0198C188.866 11.1174 189.114 11.0925 189.354 10.9448C189.501 11.0163 189.625 11.1162 189.729 11.2447C189.796 11.751 189.896 12.2508 190.028 12.744C190.404 13.0699 190.728 13.4447 191.002 13.8684C190.966 13.9993 190.917 14.1243 190.852 14.2432C191.092 14.6536 191.218 15.1034 191.227 15.5926C191.456 15.9017 191.755 16.1017 192.125 16.1923C192.317 16.622 192.341 17.0469 192.2 17.4667C192.338 17.5228 192.463 17.5977 192.575 17.6916C192.875 18.4727 193.15 19.2723 193.399 20.0904C193.138 20.4042 193.038 20.7291 193.099 21.065C193.381 21.3573 193.582 21.7073 193.698 22.1145C193.659 22.3035 193.559 22.4534 193.399 22.5642C193.844 22.8873 193.893 23.2373 193.549 23.6137C193.916 24.0536 193.916 24.5034 193.549 24.9631C193.619 25.246 193.769 25.4709 193.998 25.6378C193.883 26.5726 193.832 27.5721 193.848 28.6363C194.275 29.183 194.224 29.6827 193.698 30.1356C193.83 30.2927 193.931 30.4677 193.998 30.6603C193.928 31.2079 193.778 31.7326 193.549 32.2346C193.562 32.9646 193.562 33.6893 193.549 34.4085C193.406 34.9517 193.207 35.4765 192.949 35.9828C192.87 36.6614 192.87 37.3112 192.949 37.9319C192.743 38.5032 192.543 39.0781 192.35 39.656C192.59 39.9502 192.539 40.1751 192.2 40.3307C191.992 40.8049 191.941 41.2797 192.051 41.755C191.39 42.5309 191.116 43.4054 191.227 44.3788C190.593 44.6473 190.368 45.0971 190.553 45.7281C190.394 46.0671 190.193 46.3669 189.953 46.6277C189.901 47.2211 189.651 47.6959 189.204 48.052C189.365 48.1628 189.465 48.3127 189.504 48.5018C189.317 48.9743 189.066 49.3991 188.755 49.7762C188.894 49.9663 188.918 50.1661 188.83 50.3759C188.305 51.454 187.781 52.5285 187.257 53.5993C187.3 54.058 187.249 54.5328 187.107 55.0236C186.861 54.9916 186.637 55.0416 186.433 55.1736C186.365 55.6799 186.265 56.1797 186.133 56.6728C185.983 56.8727 185.834 56.8727 185.684 56.6728C185.38 57.3532 185.031 58.0029 184.635 58.6219C184.52 59.1687 184.419 59.7185 184.336 60.2711C183.804 60.6878 183.38 61.1875 183.062 61.7704C182.764 62.1176 182.614 62.5173 182.613 62.9698C182.463 62.9698 182.313 62.9698 182.163 62.9698C182.074 63.7353 181.748 64.3851 181.19 64.9189C180.943 65.5753 180.769 66.2499 180.665 66.9429C180.471 67.1417 180.271 67.3417 180.066 67.5426C179.849 67.5032 179.65 67.5282 179.467 67.6176C179.606 67.8077 179.63 68.0075 179.542 68.2173C179.292 68.4672 179.043 68.717 178.793 68.9669C178.191 70.277 177.617 71.5764 177.07 72.8651C176.58 72.855 176.355 73.1048 176.396 73.6147C176.245 73.7402 176.069 73.7901 175.872 73.7646C175.842 74.4787 175.493 74.9285 174.823 75.114C174.556 75.6987 174.332 76.2984 174.149 76.9131C173.999 76.963 173.849 77.0131 173.699 77.063C173.65 77.313 173.599 77.5627 173.55 77.8127C173.163 78.4062 172.789 79.006 172.426 79.6118C172.212 79.6237 172.013 79.5737 171.827 79.4619C171.68 79.8496 171.631 80.2495 171.677 80.6613C171.377 80.6613 171.078 80.6613 170.778 80.6613C170.79 80.8757 170.741 81.0757 170.628 81.261C170.732 81.5925 170.907 81.6426 171.153 81.4109C171.661 81.499 172.159 81.599 172.651 81.7108C173.036 81.2972 173.361 81.3471 173.625 81.8607C173.996 81.7514 174.371 81.6514 174.748 81.5609C175.271 81.754 175.795 81.754 176.321 81.5609C176.555 81.5942 176.754 81.6942 176.92 81.8607C177.865 81.6841 178.814 81.6841 179.767 81.8607C180.181 81.5886 180.605 81.4888 181.04 81.5609C181.567 81.8964 182.142 82.0964 182.763 82.1606C183.14 82.1433 183.44 81.9934 183.661 81.7108C183.831 81.8984 184.03 82.0483 184.261 82.1606C185.183 82.3017 186.082 82.5015 186.957 82.7603C187.432 82.6984 187.905 82.6485 188.38 82.6104C188.586 82.8657 188.836 83.0656 189.129 83.2101C189.594 83.063 190.043 83.1129 190.478 83.36C190.87 83.1744 191.27 83.1744 191.676 83.36C192.319 82.8939 192.843 82.9937 193.249 83.6599C193.606 83.4699 193.931 83.5198 194.223 83.8098C194.922 83.59 195.447 83.7899 195.796 84.4095C196.077 84.4984 196.353 84.5984 196.62 84.7094C196.955 84.4539 197.33 84.304 197.743 84.2596C197.689 84.6211 197.839 84.8459 198.193 84.9343C199.301 85.1942 200.401 85.4941 201.488 85.8338C201.703 85.9035 201.878 86.0286 202.013 86.2086C202.097 86.1304 202.197 86.0805 202.312 86.0587C202.511 86.1587 202.712 86.2586 202.911 86.3586C203.111 86.2586 203.311 86.1587 203.511 86.0587C203.813 86.1385 203.938 86.3383 203.885 86.6584C204.182 86.6409 204.432 86.7409 204.634 86.9583C205.124 86.8536 205.623 86.8536 206.132 86.9583C206.156 87.5033 206.33 87.5532 206.657 87.1082C206.974 87.5 207.325 87.8498 207.705 88.1577C207.831 87.9318 208.005 87.8568 208.23 87.9328C208.433 88.1703 208.534 88.4453 208.529 88.7574C208.796 88.7145 209.045 88.6145 209.278 88.4576C209.68 88.4887 209.78 88.6637 209.578 88.9823C209.913 89.1288 210.262 89.2038 210.626 89.2072C210.626 89.3571 210.626 89.5071 210.626 89.657C211.124 89.676 211.573 89.826 211.975 90.1068C212.306 89.8846 212.556 89.9595 212.724 90.3317C213.266 90.2748 213.591 90.4997 213.697 91.0063C213.847 90.9063 213.997 90.8065 214.147 90.7065C214.439 91.3239 214.864 91.8237 215.42 92.2058C215.621 91.9801 215.871 91.8801 216.169 91.9059C216.169 92.1058 216.169 92.3058 216.169 92.5056C216.613 92.7274 217.062 92.9522 217.518 93.1803C217.772 93.6577 218.171 93.9074 218.716 93.9299C218.893 94.492 219.242 94.6919 219.765 94.5296C219.872 94.8275 220.022 95.1025 220.214 95.3542C220.413 95.1544 220.614 95.1544 220.813 95.3542C220.867 95.7823 220.968 96.2321 221.113 96.7036C221.839 96.8408 222.537 97.0907 223.21 97.4532C223.322 97.6385 223.372 97.8386 223.36 98.0529C223.51 98.0529 223.66 98.0529 223.809 98.0529C223.809 98.2528 223.809 98.4528 223.809 98.6527C224.06 98.6527 224.308 98.6527 224.558 98.6527C224.516 99.071 224.617 99.4458 224.858 99.7771C225.011 100.103 225.259 100.278 225.607 100.302C225.641 100.592 225.766 100.842 225.982 101.052C226.356 101.326 226.731 101.601 227.105 101.876C226.681 102.273 226.731 102.398 227.255 102.251C228.72 104.098 229.944 106.097 230.925 108.248C231.386 108.583 231.611 109.033 231.599 109.597C231.797 109.572 231.972 109.622 232.124 109.747C232.26 110.272 232.51 110.721 232.873 111.097C232.937 111.707 233.111 112.282 233.397 112.821C233.376 112.937 233.325 113.037 233.247 113.121C233.385 113.177 233.509 113.252 233.622 113.346C233.789 113.729 233.815 114.104 233.696 114.47C234.058 115.167 234.357 115.893 234.595 116.644C234.51 116.921 234.459 117.197 234.446 117.469C234.757 117.87 234.856 118.296 234.745 118.743C235.121 119.197 235.121 119.647 234.745 120.092C234.971 120.205 235.121 120.38 235.195 120.617C235.127 120.98 235.102 121.355 235.12 121.742C234.995 121.866 234.869 121.992 234.745 122.116C234.919 122.482 234.919 122.857 234.745 123.241C234.857 123.472 235.007 123.671 235.195 123.841C235.133 124.202 234.983 124.577 234.745 124.965C234.835 125.124 234.884 125.299 234.895 125.49C234.649 126.323 234.474 127.173 234.371 128.039C234.014 128.908 233.714 129.808 233.472 130.737C232.928 131.871 232.329 132.97 231.674 134.036C231.542 134.542 231.392 135.043 231.225 135.535C231.073 135.661 230.898 135.71 230.7 135.685C230.724 135.94 230.699 136.19 230.625 136.434C230.426 136.634 230.225 136.634 230.026 136.434C229.926 136.634 229.827 136.835 229.727 137.034C228.951 137.432 228.501 138.082 228.378 138.983C228.104 139.073 227.83 139.174 227.554 139.283C227.448 139.629 227.298 139.955 227.105 140.258C226.814 140.369 226.54 140.345 226.281 140.183C226.019 140.481 225.869 140.83 225.832 141.232C225.632 141.432 225.432 141.432 225.232 141.232C225.159 141.426 225.134 141.627 225.158 141.832C224.858 141.832 224.558 141.832 224.259 141.832C224.259 142.031 224.259 142.232 224.259 142.432C223.995 142.453 223.745 142.403 223.51 142.282C222.89 142.712 222.391 143.237 222.012 143.856C221.396 144.043 220.872 144.369 220.439 144.83C220.187 144.678 219.938 144.528 219.69 144.381C219.499 144.537 219.324 144.711 219.165 144.905C219.023 144.998 218.899 144.973 218.791 144.83C218.557 145.171 218.234 145.345 217.817 145.355C217.561 145.562 217.36 145.811 217.218 146.105C216.262 146.258 215.314 146.457 214.372 146.705C214.011 147.013 213.687 147.339 213.398 147.679C212.98 147.526 212.556 147.502 212.125 147.604C211.807 148.214 211.383 148.289 210.851 147.829C210.472 147.922 210.122 148.072 209.803 148.279C209.672 148.243 209.546 148.193 209.428 148.129C209.223 148.31 208.998 148.46 208.754 148.579C208.417 148.36 208.192 148.459 208.08 148.879C207.893 148.798 207.719 148.697 207.555 148.579C206.696 148.798 205.822 148.971 204.934 149.103C204.663 149.55 204.338 149.576 203.96 149.178C203.521 149.588 203.022 149.688 202.462 149.478C202.104 149.874 201.755 149.874 201.413 149.478C200.982 149.835 200.533 149.835 200.065 149.478C199.74 149.772 199.391 149.823 199.017 149.628C198.248 149.696 197.499 149.846 196.769 150.078C196.037 149.768 195.288 149.768 194.522 150.078C194.242 149.992 193.968 149.894 193.698 149.778C192.702 149.885 191.705 149.983 190.702 150.078C190.473 150.073 190.298 149.973 190.178 149.778C189.705 149.991 189.255 149.942 188.83 149.628C187.766 149.736 186.692 149.786 185.609 149.778C184.906 149.373 184.207 149.322 183.512 149.628C182.998 149.259 182.474 149.06 181.939 149.028C181.611 148.995 181.26 149.046 180.89 149.178C180.343 148.88 179.819 148.88 179.317 149.178C179.035 149.114 178.811 148.964 178.643 148.729C178.262 148.822 177.888 148.871 177.519 148.879C176.583 148.238 175.558 147.938 174.448 147.979C174.255 147.911 174.081 147.811 173.924 147.679C173.806 147.808 173.855 147.932 174.074 148.054C174.418 148.259 174.768 148.334 175.123 148.279C175.322 148.429 175.322 148.579 175.123 148.729C175.845 148.871 176.17 149.27 176.096 149.928C176.384 150.142 176.708 150.292 177.07 150.378C177.341 150.796 177.591 151.22 177.819 151.652C178.063 151.726 178.313 151.751 178.568 151.727C178.544 151.933 178.57 152.133 178.643 152.327C179.08 152.808 179.429 153.358 179.692 153.976C179.895 154.108 180.12 154.157 180.366 154.126C180.366 154.376 180.366 154.625 180.366 154.876C180.563 154.85 180.739 154.9 180.89 155.026C180.99 155.426 181.089 155.825 181.19 156.225C181.44 156.325 181.689 156.424 181.939 156.525C181.993 157.093 182.217 157.568 182.613 157.949C182.592 158.065 182.541 158.165 182.463 158.249C183.079 158.46 183.429 158.885 183.512 159.523C184.138 159.423 184.337 159.648 184.111 160.198C184.506 160.979 184.981 161.703 185.534 162.372C185.474 162.727 185.498 163.078 185.609 163.422C185.724 163.603 185.85 163.603 185.983 163.422C186.407 163.772 186.583 164.222 186.508 164.771C186.758 164.771 187.007 164.771 187.257 164.771C187.2 165.383 187.35 165.931 187.706 166.42C187.657 166.521 187.606 166.619 187.556 166.72C187.78 166.831 188.004 166.931 188.231 167.02C188.126 167.471 188.175 167.921 188.38 168.369C188.634 168.78 188.858 169.206 189.054 169.644C188.846 170.023 188.921 170.348 189.279 170.618C189.309 171.479 189.66 172.179 190.328 172.717C190.334 173.329 190.458 173.903 190.702 174.441C190.467 174.759 190.542 174.984 190.927 175.116C191.149 175.779 191.323 176.453 191.451 177.14C191.43 177.255 191.379 177.356 191.302 177.44C191.594 177.765 191.694 178.114 191.601 178.489C191.734 179.083 191.935 179.657 192.2 180.213C192.11 180.569 192.06 180.918 192.051 181.263C192.4 181.54 192.449 181.866 192.2 182.237C192.431 182.969 192.63 183.719 192.8 184.486C192.779 184.602 192.728 184.702 192.65 184.786C192.768 185.248 192.843 185.722 192.875 186.211C192.978 186.29 193.053 186.389 193.099 186.51C192.889 186.713 192.791 186.963 192.8 187.26C192.873 188.047 193.023 188.848 193.249 189.659C193.141 190.008 192.991 190.334 192.8 190.633C192.91 190.954 193.06 191.254 193.249 191.533C193.12 191.801 192.97 192.076 192.8 192.358C192.9 192.508 192.999 192.657 193.099 192.807C192.9 193.007 192.9 193.208 193.099 193.407C193.027 193.554 192.928 193.678 192.8 193.782C192.81 194.744 192.81 195.744 192.8 196.78C192.389 198.167 192.115 199.592 191.976 201.053C191.486 201.532 191.336 202.08 191.526 202.703C191.158 203.946 190.684 205.145 190.103 206.301C190.208 206.643 190.183 206.992 190.028 207.35C189.741 207.709 189.516 208.109 189.354 208.55C189.143 208.661 188.944 208.787 188.755 208.925C188.804 208.974 188.855 209.025 188.905 209.075C188.696 209.25 188.571 209.475 188.53 209.749C188.021 209.895 187.946 210.12 188.305 210.424C187.837 211.292 187.287 212.093 186.658 212.823C186.774 213.088 186.749 213.363 186.583 213.647C186.198 213.724 185.849 213.874 185.534 214.097C185.167 214.497 184.942 214.973 184.86 215.521C184.599 215.619 184.351 215.593 184.111 215.447C183.348 215.911 182.899 216.586 182.763 217.471C182.381 217.553 182.081 217.754 181.864 218.07C181.339 218.148 180.79 218.198 180.216 218.22C180.08 218.475 180.03 218.749 180.066 219.045C179.741 219.072 179.441 219.172 179.167 219.345C178.823 219.21 178.474 219.186 178.119 219.27C177.687 219.677 177.287 220.102 176.92 220.544C176.721 220.394 176.52 220.244 176.321 220.094C176.032 220.226 175.758 220.376 175.497 220.544C175.326 220.483 175.151 220.433 174.973 220.394C174.438 220.788 173.89 221.039 173.325 221.144C173.061 221.049 172.837 220.899 172.651 220.694C172.312 220.926 171.989 221.175 171.677 221.444C171.527 221.343 171.377 221.244 171.228 221.144C170.218 221.036 169.219 221.036 168.232 221.144C167.074 220.555 165.925 220.456 164.786 220.844C164.825 220.622 164.775 220.423 164.636 220.244C164.052 220.174 163.453 220.174 162.839 220.244C162.839 220.094 162.839 219.944 162.839 219.794C162.483 219.847 162.134 219.872 161.79 219.869C161.676 219.643 161.526 219.442 161.34 219.27C160.163 218.853 159.039 218.328 157.97 217.695C157.859 217.856 157.709 217.956 157.52 217.995C157.239 217.769 156.914 217.668 156.547 217.695C156.551 217.147 156.301 216.748 155.798 216.496C155.458 216.375 155.109 216.3 154.749 216.271C154.535 215.944 154.285 215.644 154 215.372C153.691 215.325 153.392 215.325 153.101 215.372C152.674 214.784 152.201 214.259 151.678 213.797C151.479 213.997 151.278 213.997 151.079 213.797C150.632 212.776 149.909 212.027 148.907 211.548C148.766 211.565 148.64 211.614 148.532 211.698C148.358 211.43 148.258 211.13 148.232 210.799C147.961 210.467 147.711 210.117 147.483 209.749C147.199 209.977 146.875 210.076 146.51 210.049C146.46 209.749 146.409 209.449 146.36 209.15C145.731 209.196 145.431 208.896 145.461 208.25C145.256 208.274 145.055 208.248 144.862 208.175C144.793 207.917 144.767 207.643 144.787 207.35C144.427 207.03 144.003 206.856 143.514 206.826C143.338 206.551 143.114 206.326 142.839 206.151C142.768 206.009 142.742 205.859 142.765 205.701C142.336 205.7 142.186 205.524 142.315 205.176C142.102 204.862 141.902 204.536 141.716 204.202C141.455 204.118 141.207 204.068 140.967 204.052C140.444 203.206 139.92 202.356 139.394 201.503C139.322 201.361 139.297 201.211 139.319 201.053C138.982 200.775 138.584 200.625 138.121 200.604C137.972 199.983 137.748 199.383 137.446 198.805C137.258 198.467 136.984 198.268 136.623 198.205C136.606 197.863 136.482 197.563 136.248 197.305C135.836 196.942 135.387 196.643 134.9 196.406C134.936 195.849 134.711 195.449 134.226 195.206C134.101 194.807 133.976 194.407 133.851 194.007C133.42 193.53 132.946 193.104 132.428 192.732C132.229 191.834 131.805 191.059 131.155 190.409C131.051 189.744 130.702 189.295 130.106 189.059C129.916 188.289 129.666 187.539 129.357 186.81C129.131 186.696 128.93 186.546 128.758 186.361C128.407 185.606 128.058 184.857 127.709 184.112C127.048 183.827 126.725 183.327 126.735 182.612C126.025 182.681 125.876 182.456 126.286 181.938C125.868 181.407 125.517 180.833 125.237 180.213C125.216 180.004 125.216 179.779 125.237 179.539C124.918 179.288 124.719 178.965 124.638 178.564C124.451 178.483 124.277 178.383 124.114 178.264C124.07 177.824 123.895 177.449 123.589 177.14C123.61 177.024 123.661 176.924 123.739 176.84C123.342 176.794 123.243 176.618 123.44 176.315C123.363 175.888 123.113 175.689 122.691 175.716C122.566 175.378 122.566 175.053 122.691 174.741C122.334 174.384 122.109 173.96 122.017 173.467C121.865 173.341 121.69 173.291 121.492 173.317C121.199 172.747 120.948 172.147 120.743 171.518C120.775 171.429 120.824 171.354 120.893 171.293C120.474 170.626 120.074 169.951 119.695 169.269C119.744 169.168 119.795 169.069 119.844 168.969C119.675 168.855 119.501 168.754 119.32 168.669C119.284 168.24 119.109 167.889 118.796 167.62C119.208 167.237 119.107 167.087 118.496 167.17C118.322 167.697 118.074 168.197 117.747 168.669C117.847 168.819 117.946 168.969 118.047 169.119C117.72 169.383 117.47 169.708 117.298 170.093C117.4 170.444 117.349 170.795 117.148 171.143C117.305 171.351 117.331 171.576 117.223 171.817C117.016 172.137 116.866 172.488 116.773 172.867C116.661 172.961 116.537 173.036 116.399 173.092C116.616 173.465 116.516 173.741 116.099 173.916C116.149 174.017 116.2 174.116 116.249 174.216C116.021 174.524 115.897 174.873 115.875 175.266C115.23 176.411 114.582 177.561 113.927 178.714C113.681 179.495 113.532 180.296 113.478 181.113C113.215 181.425 112.941 181.725 112.654 182.013C112.532 182.248 112.483 182.498 112.504 182.762C112.354 182.762 112.204 182.762 112.054 182.762C111.692 183.521 111.367 184.32 111.081 185.161C110.929 185.287 110.754 185.336 110.556 185.311C110.474 185.585 110.474 185.836 110.556 186.061C110.345 186.229 110.12 186.378 109.882 186.51C109.746 187.073 109.696 187.623 109.732 188.16C109.529 188.292 109.305 188.341 109.058 188.31C108.765 189.097 108.391 189.846 107.935 190.558C107.783 190.684 107.609 190.734 107.411 190.708C107.429 191.882 106.955 192.782 105.987 193.407C105.877 194.179 105.502 194.779 104.864 195.206C104.733 195.544 104.683 195.893 104.714 196.256C104.266 196.313 103.866 196.488 103.516 196.78C103.584 196.842 103.634 196.917 103.665 197.005C103.327 197.523 103.078 198.073 102.916 198.655C102.718 198.629 102.543 198.679 102.392 198.805C102.468 199.086 102.443 199.361 102.317 199.629C102.125 199.731 101.95 199.707 101.793 199.554C101.729 200.113 101.529 200.613 101.194 201.053C101.044 201.253 100.894 201.253 100.744 201.053C100.606 201.443 100.506 201.844 100.445 202.253C99.4752 202.347 99.0257 202.896 99.0963 203.902C98.8229 203.992 98.5482 204.092 98.2724 204.202C97.9828 204.832 97.5834 205.38 97.0739 205.851C97.2455 206.06 97.2455 206.259 97.0739 206.451C96.8894 206.547 96.6897 206.572 96.4747 206.526C96.2885 206.698 96.1387 206.899 96.0253 207.126C95.7854 207.166 95.5607 207.241 95.3512 207.35C94.9985 208.219 94.624 209.067 94.2276 209.899C93.5563 209.818 93.3567 210.069 93.6284 210.649C93.3787 210.649 93.1291 210.649 92.8794 210.649C92.8794 210.899 92.8794 211.148 92.8794 211.398C92.3789 211.3 92.0793 211.5 91.9805 211.998C91.6639 212.078 91.3891 212.228 91.1566 212.448C91.233 212.73 91.208 213.004 91.0817 213.273C90.7243 213.22 90.3748 213.246 90.0331 213.348C89.8395 213.766 89.5648 214.115 89.2091 214.397C89.207 214.907 89.0074 215.307 88.6099 215.596C88.3031 215.253 87.9785 215.229 87.6362 215.521C86.9161 216.165 86.4166 216.94 86.1381 217.845C85.8385 217.845 85.5389 217.845 85.2393 217.845C85.2393 217.995 85.2393 218.145 85.2393 218.295C85.0633 218.262 84.9135 218.312 84.7899 218.445C84.6925 219.172 84.318 219.423 83.6663 219.195C83.5929 219.388 83.5679 219.589 83.5914 219.794C83.2782 219.767 82.9786 219.817 82.6926 219.944C82.4234 220.39 82.1238 220.814 81.7938 221.219C81.6366 221.292 81.4868 221.268 81.3444 221.144C80.98 221.411 80.6305 221.687 80.2957 221.968C79.9876 222.015 79.688 222.015 79.3969 221.968C79.2612 222.223 79.2113 222.498 79.2471 222.793C79.0008 222.824 78.7761 222.775 78.573 222.643C78.4995 222.836 78.4745 223.037 78.4981 223.243C78.1432 223.19 77.7935 223.165 77.4494 223.168C77.2087 223.325 77.1089 223.55 77.1498 223.842C76.6848 223.642 76.2603 223.691 75.8765 223.992C75.8041 224.135 75.7792 224.285 75.8016 224.442C75.3479 224.418 74.9235 224.519 74.5282 224.742C74.3125 224.645 74.0878 224.595 73.8541 224.592C73.9163 224.959 73.7664 225.159 73.4047 225.192C73.1007 224.898 72.7511 224.898 72.356 225.192C72.2154 225.424 72.0405 225.625 71.8317 225.792C71.632 225.691 71.4322 225.592 71.2325 225.492C70.4008 225.612 69.5768 225.762 68.7607 225.941C68.7607 226.091 68.7607 226.241 68.7607 226.391C68.3382 226.286 67.9387 226.136 67.5623 225.941C66.6956 225.925 65.8217 225.976 64.9407 226.091C63.4971 225.736 62.0491 225.387 60.5963 225.042C60.2982 225.525 59.9237 225.6 59.4728 225.267C59.2966 224.863 59.0469 224.514 58.7237 224.217C58.4473 224.334 58.1477 224.385 57.8249 224.367C57.7644 223.994 57.5397 223.669 57.1508 223.393C56.6816 223.827 56.3571 223.729 56.177 223.093C55.9435 223.007 55.7188 222.907 55.5029 222.793C55.4407 222.525 55.2909 222.325 55.0535 222.193C55.0036 221.943 54.9536 221.694 54.9037 221.444C53.9124 220.727 53.0136 219.878 52.2072 218.895C51.8394 217.959 51.39 217.06 50.8589 216.196C50.6593 216.396 50.4594 216.396 50.2597 216.196C50.1456 215.279 49.871 214.43 49.4358 213.647C49.4671 213.559 49.5171 213.484 49.5856 213.422C49.395 213.226 49.2452 213.001 49.1362 212.748C48.8799 211.77 48.5554 210.821 48.1624 209.899C48.1843 208.955 48.0096 208.055 47.6381 207.2C47.5911 206.359 47.5911 205.511 47.6381 204.652C47.6022 204.293 47.4524 203.994 47.1887 203.752C47.552 203.119 47.552 202.496 47.1887 201.878C47.5852 201.338 47.5852 200.788 47.1887 200.229C47.2387 199.903 47.3886 199.628 47.6381 199.404C47.081 198.864 47.081 198.314 47.6381 197.755C47.4227 197.368 47.4727 197.017 47.7879 196.706C47.688 196.556 47.5882 196.406 47.4883 196.256C47.737 195.765 47.787 195.266 47.6381 194.756C47.7785 194.301 47.9783 193.876 48.2374 193.482C47.993 193.119 48.0431 192.819 48.3872 192.583C47.9876 192.383 47.9876 192.182 48.3872 191.983C48.1569 191.816 48.0571 191.591 48.0875 191.308C48.4394 191.314 48.6391 191.14 48.6868 190.783C48.6516 190.172 48.6516 189.572 48.6868 188.984C49.0972 187.978 49.4469 186.98 49.7354 185.986C49.298 185.546 49.3979 185.322 50.035 185.311C50.035 184.861 50.035 184.411 50.035 183.962C50.1848 183.962 50.3346 183.962 50.4844 183.962C50.1475 183.362 50.2973 182.938 50.9339 182.687C50.8557 182.603 50.8058 182.503 50.784 182.387C50.9285 181.777 51.178 181.177 51.5331 180.588C51.4832 180.539 51.4332 180.488 51.3833 180.438C51.7521 179.744 52.1516 179.07 52.5817 178.414C52.5171 178.296 52.4671 178.17 52.4319 178.04C52.618 177.792 52.7429 177.518 52.8064 177.215C53.2846 177.083 53.4095 176.809 53.1809 176.39C53.5689 175.837 53.8185 175.212 53.93 174.516C54.1806 174.141 54.4553 173.792 54.7539 173.467C54.8038 173.066 54.8538 172.668 54.9037 172.267C55.3735 171.898 55.8479 171.524 56.3268 171.143C56.2581 170.584 56.2581 170.009 56.3268 169.419C56.8019 169.287 57.2263 169.036 57.6002 168.669C57.8387 168.14 58.0385 167.59 58.1994 167.02C58.9471 166.525 59.3965 165.825 59.5477 164.921C59.6991 164.795 59.8739 164.745 60.072 164.771C60.11 164.219 60.3596 163.795 60.821 163.496C60.963 163.425 61.1128 163.399 61.2704 163.422C61.3344 162.99 61.4343 162.565 61.57 162.147C61.5202 162.072 61.4701 161.997 61.4202 161.922C61.2075 162.18 61.0078 162.454 60.821 162.747C60.558 162.768 60.3084 162.693 60.072 162.522C59.6441 162.825 59.2946 163.2 59.0233 163.646C58.7916 163.696 58.5919 163.621 58.4241 163.422C57.6234 163.949 56.7745 164.374 55.8774 164.696C55.7456 164.9 55.6956 165.125 55.7276 165.371C55.2755 165.347 54.8261 165.371 54.3794 165.446C54.1797 165.546 54.0299 165.696 53.93 165.895C53.7376 165.997 53.5628 165.973 53.4056 165.82C52.2333 166.296 51.1097 166.87 50.035 167.545C49.9096 167.696 49.8597 167.871 49.8852 168.069C49.2334 168.221 48.5842 168.246 47.9377 168.144C47.2659 168.467 46.7415 168.94 46.3648 169.569C45.9185 169.158 45.4941 169.183 45.0914 169.644C44.4966 169.835 43.8973 170.035 43.2938 170.243C43.0073 170.423 42.8077 170.674 42.6946 170.993C42.4149 171.099 42.1902 171.024 42.0204 170.768C41.7391 170.999 41.5144 171.275 41.3463 171.593C40.9256 171.731 40.601 171.606 40.3726 171.218C40.098 171.393 39.8733 171.618 39.6984 171.892C39.2619 171.912 38.9124 172.087 38.6498 172.417C38.1462 172.144 37.8966 172.294 37.9008 172.867C37.6085 172.907 37.3838 172.809 37.2267 172.567C37.0487 172.726 36.9738 172.927 37.0019 173.167C36.6139 173.152 36.2645 173.251 35.9533 173.467C35.3884 173.03 34.989 173.155 34.7549 173.842C34.4752 173.948 34.2505 173.873 34.0807 173.617C33.7513 174.218 33.2769 174.368 32.6576 174.066C31.9468 174.375 31.1977 174.575 30.4105 174.666C30.1092 174.942 29.7846 175.192 29.4368 175.416C29.1963 175.182 28.9217 175.107 28.6128 175.191C28.543 175.509 28.3682 175.734 28.0885 175.866C27.8794 175.732 27.6547 175.632 27.4144 175.566C26.6781 175.5 25.979 175.675 25.3171 176.09C24.9176 176.14 24.5182 176.191 24.1187 176.24C23.8886 176.534 23.614 176.759 23.2947 176.915C22.5313 176.548 21.8322 176.648 21.1975 177.215C20.9397 177.007 20.64 176.906 20.2986 176.915C19.5277 176.974 18.8036 177.174 18.1265 177.515C17.8167 177.444 17.517 177.345 17.2276 177.215C16.9938 177.342 16.7691 177.291 16.5535 177.065C16.2016 177.266 15.852 177.465 15.5049 177.665C14.8586 177.431 14.1845 177.281 13.4825 177.215C13.1032 177.276 12.7287 177.327 12.3589 177.365C11.8534 177.159 11.329 177.01 10.786 176.915C10.629 177.047 10.4542 177.147 10.2617 177.215C9.8524 176.923 9.42801 176.647 8.98833 176.39C8.5079 176.327 8.05848 176.378 7.64008 176.54C7.57147 176.18 7.37163 175.932 7.04086 175.791C6.64282 175.765 6.24329 175.789 5.84241 175.866C5.86473 175.708 5.83987 175.558 5.76751 175.416C5.2354 175.636 4.98582 175.437 5.01848 174.816C4.68082 174.414 4.30631 174.065 3.89494 173.767C3.76221 173.644 3.71233 173.494 3.74514 173.317C3.1958 173.117 2.64661 172.916 2.09728 172.717C2.12184 172.314 2.09683 171.915 2.02237 171.518C1.75527 171.165 1.60546 170.767 1.57296 170.318C1.42195 170.246 1.24713 170.221 1.04864 170.243C0.802058 170.011 0.752173 169.76 0.898833 169.494C0.791572 168.813 0.591732 168.164 0.299611 167.545C0.321333 167.429 0.371218 167.329 0.449416 167.245C0.271597 167.092 0.121792 166.916 0 166.72C0.179018 166.5 0.179018 166.275 0 166.045C0.151154 165.87 0.300959 165.696 0.449416 165.521C0.325827 165.387 0.176021 165.338 0 165.371C0.0775992 164.305 0.0775992 163.255 0 162.222C0.383951 161.772 0.483722 161.272 0.299611 160.723C0.64656 159.763 0.871268 158.763 0.973735 157.724C1.48517 156.949 1.8847 156.101 2.17218 155.175C2.3088 154.165 2.63343 153.19 3.14591 152.252C3.11071 152.121 3.06067 151.996 2.99611 151.877C3.21947 151.651 3.49406 151.501 3.82004 151.427C3.98722 150.417 4.31185 149.468 4.79377 148.579C5.17263 148.345 5.32244 147.994 5.24319 147.529C5.44288 147.529 5.64272 147.529 5.84241 147.529C6.15071 146.866 6.37542 146.166 6.51654 145.43C6.72596 145.348 6.92581 145.298 7.11576 145.28C7.28429 144.788 7.4341 144.288 7.56517 143.781C7.76831 143.649 7.99302 143.6 8.2393 143.631C8.22836 142.916 8.55299 142.417 9.21303 142.132C9.38202 141.854 9.45692 141.555 9.43774 141.232C9.97225 141.193 10.1719 140.893 10.037 140.333C10.5075 140.601 10.907 140.526 11.2354 140.108C11.1572 140.024 11.1073 139.923 11.0856 139.808C11.2621 139.225 11.5116 138.674 11.8346 138.159C12.027 138.057 12.2018 138.081 12.3589 138.234C12.662 137.893 12.7868 137.493 12.7335 137.034C12.9332 137.034 13.133 137.034 13.3327 137.034C13.1971 136.306 13.4967 135.905 14.2315 135.835C14.4459 135.277 14.8454 134.928 15.43 134.785C15.8269 134.313 16.2515 133.863 16.7033 133.436C16.7048 132.334 17.2291 131.908 18.2763 132.162C18.4761 131.848 18.7507 131.623 19.1002 131.487C19.2406 131.013 19.4653 130.589 19.7743 130.212C19.6319 130.105 19.607 129.98 19.6994 129.838C19.8991 129.638 20.0989 129.437 20.2986 129.238C20.5982 129.437 20.8979 129.437 21.1975 129.238C21.3017 128.791 21.3766 128.341 21.4222 127.889C21.7258 127.913 22.0254 127.889 22.321 127.814C22.4528 127.61 22.5029 127.385 22.4708 127.139C23.0513 127.233 23.3261 126.983 23.2947 126.389C23.5801 126.29 23.8048 126.116 23.9689 125.865C24.3218 125.841 24.6713 125.841 25.0175 125.865C25.132 125.554 25.2069 125.229 25.2422 124.89C25.3937 124.764 25.5685 124.715 25.7665 124.74C25.7411 124.542 25.791 124.367 25.9163 124.215C26.4152 124.154 26.8646 123.978 27.2646 123.691C27.4072 123.458 27.4571 123.209 27.4144 122.941C27.714 122.892 28.0136 122.841 28.3132 122.791C28.426 122.14 28.7755 121.665 29.3619 121.367C29.765 121.485 30.1645 121.436 30.5603 121.217C30.4995 120.947 30.5744 120.671 30.785 120.392C30.9847 120.193 31.1845 120.193 31.3842 120.392C31.9652 120.061 32.3896 119.586 32.6576 118.968C33.08 119.104 33.4796 119.029 33.856 118.743C34.0151 118.259 34.3398 117.959 34.8298 117.843C35.0798 117.593 35.2046 117.293 35.2043 116.944C35.5517 117.044 35.9013 117.068 36.2529 117.019C36.3783 116.867 36.4282 116.692 36.4027 116.494C36.6524 116.494 36.902 116.494 37.1517 116.494C37.1143 116.044 37.314 115.768 37.751 115.669C37.8728 115.4 38.0476 115.175 38.2753 114.995C38.4642 115.034 38.614 115.134 38.7247 115.295C38.8816 114.845 39.206 114.62 39.6984 114.62C39.9879 114.326 40.2376 114.001 40.4475 113.645C40.743 113.521 41.0426 113.496 41.3463 113.57C41.5186 113.201 41.7183 112.851 41.9455 112.521C42.1551 112.432 42.3548 112.457 42.5447 112.596C42.6589 112.427 42.7588 112.252 42.8444 112.071C43.044 112.071 43.2439 112.071 43.4436 112.071C43.8507 111.758 44.1504 111.358 44.3424 110.872C44.6823 110.758 45.0069 110.783 45.3161 110.947C45.3901 110.702 45.415 110.452 45.391 110.197C46.1047 110.072 46.8037 109.922 47.4883 109.747C47.4883 109.497 47.4883 109.248 47.4883 108.998C47.7855 108.98 48.0351 109.08 48.2374 109.298C48.5106 108.933 48.8851 108.733 49.3609 108.698C49.6855 108.423 50.01 108.148 50.3346 107.873C50.4766 107.801 50.6264 107.776 50.784 107.798C50.7325 107.085 51.0321 106.886 51.6829 107.199C52.2866 106.845 52.3864 106.395 51.9825 105.849C51.7973 105.961 51.5975 106.011 51.3833 105.999C50.9306 104.882 50.0816 104.258 48.8366 104.125C48.3359 103.674 47.8865 103.174 47.4883 102.626C47.0323 102.415 46.5829 102.19 46.1401 101.951C45.9047 102.072 45.655 102.122 45.391 102.101C45.4146 101.895 45.3896 101.695 45.3161 101.501C45.1647 101.627 44.9899 101.677 44.7918 101.651C44.8141 101.493 44.7893 101.344 44.7169 101.201C44.1815 100.667 43.7071 100.092 43.2938 99.4773C42.2651 99.735 41.516 99.3852 41.0467 98.4278C40.853 98.3543 40.6532 98.3293 40.4475 98.3528C40.4475 98.1529 40.4475 97.9529 40.4475 97.7531C40.2478 97.7531 40.0479 97.7531 39.8482 97.7531C39.8482 97.5532 39.8482 97.3532 39.8482 97.1534C39.437 97.1724 39.1374 96.9975 38.9494 96.6286C38.7046 96.5546 38.4549 96.5297 38.2004 96.5537C38.2808 95.8818 38.0311 95.682 37.4514 95.954C37.4514 95.7541 37.4514 95.5541 37.4514 95.3542C37.2517 95.3542 37.0518 95.3542 36.8521 95.3542C36.8926 94.5502 36.5431 94.3004 35.8035 94.6046C35.8249 94.3404 35.7749 94.0905 35.6537 93.855C35.312 93.7385 34.9874 93.5885 34.68 93.4052C34.2896 92.6653 33.8402 91.9656 33.3317 91.3062C33.0361 91.0471 32.7616 90.7723 32.5078 90.4816C32.1583 90.4317 31.8086 90.3816 31.4591 90.3317C31.3273 90.1284 31.2773 89.9035 31.3093 89.657C31.0596 89.657 30.81 89.657 30.5603 89.657C30.5603 89.4571 30.5603 89.2571 30.5603 89.0573C30.3623 89.0828 30.1874 89.0328 30.036 88.9073C29.9861 88.6574 29.9361 88.4076 29.8862 88.1577C29.6146 87.8187 29.3899 87.4688 29.2121 87.1082C28.8185 87.0195 28.419 86.9695 28.0136 86.9583C28.0328 86.6352 27.9579 86.3353 27.7889 86.0587C27.7269 86.1272 27.652 86.1773 27.5642 86.2086C27.4526 85.6386 27.2779 85.0888 27.0399 84.5594C26.7593 84.6477 26.5096 84.5477 26.2909 84.2596C26.1884 84.0671 26.2134 83.8921 26.3658 83.7348C26.1795 83.5618 26.0297 83.3618 25.9163 83.1351C25.6253 83.1808 25.3257 83.1808 25.0175 83.1351C24.8178 82.9852 24.8178 82.8353 25.0175 82.6853C24.7435 82.6444 24.5188 82.5194 24.3434 82.3105C23.8354 80.9057 23.0864 79.6562 22.0963 78.5623C22.2765 78.1229 22.1267 77.823 21.6469 77.6627C21.5276 77.0831 21.228 76.7833 20.7481 76.7632C20.6487 76.1404 20.4741 75.5407 20.2237 74.9641C19.998 74.6357 19.6984 74.4357 19.3249 74.3643C19.2945 74.081 19.3943 73.8561 19.6245 73.6897C19.2982 73.3556 18.8987 73.1807 18.4261 73.1649C18.4011 72.3142 18.1263 71.5646 17.6021 70.916C17.3343 70.429 17.1595 69.9043 17.0778 69.3418C16.5784 68.9461 16.3036 68.4213 16.2539 67.7675C15.7845 67.4805 15.7595 67.1557 16.179 66.793C16.0015 66.5901 15.8016 66.4152 15.5798 66.2682C15.391 65.9904 15.391 65.7156 15.5798 65.4436C15.1037 65.3022 14.9539 65.0274 15.1303 64.619C15.014 64.3271 14.8641 64.0523 14.6809 63.7944C14.7822 62.7281 14.4576 61.8037 13.7072 61.0208C13.6143 60.3629 13.4895 59.7131 13.3327 59.0717C13.364 58.9838 13.414 58.9089 13.4825 58.8468C13.1749 58.1796 12.9003 57.5049 12.6586 56.8228C12.517 55.6815 12.2923 54.5571 11.9844 53.4494C11.9161 52.5105 11.9161 51.5611 11.9844 50.6008C11.8859 50.2526 11.7361 49.9279 11.535 49.6262C11.5394 49.397 11.6393 49.222 11.8346 49.1015C11.6393 48.9809 11.5394 48.806 11.535 48.5767C11.7009 48.3428 11.7009 48.118 11.535 47.9021C11.6024 47.7094 11.7024 47.5344 11.8346 47.3773C11.711 47.2445 11.5612 47.1946 11.3852 47.2274C11.7082 45.9355 11.7581 44.6611 11.535 43.4042C11.5732 43.2054 11.6731 43.0555 11.8346 42.9544C11.7293 42.4033 11.6794 41.8535 11.6848 41.3052C11.8346 40.9554 11.9844 40.6055 12.1342 40.2557C11.9131 39.7164 12.0129 39.2416 12.4339 38.8314C12.3609 38.6896 12.311 38.5397 12.284 38.3816C12.7365 37.7848 12.9113 37.135 12.8084 36.4326C12.9556 36.1405 13.1304 35.8655 13.3327 35.608C13.3782 35.0855 13.3782 34.5607 13.3327 34.0337C13.579 34.0658 13.8037 34.0157 14.0068 33.8838C14.1947 33.0085 14.5442 32.2088 15.0554 31.485C15.1786 31.0926 15.2535 30.6927 15.2802 30.2855C15.43 30.2855 15.5798 30.2855 15.7296 30.2855C15.7296 30.0857 15.7296 29.8857 15.7296 29.6858C15.8794 29.6858 16.0292 29.6858 16.179 29.6858C16.1603 29.1014 16.41 28.8765 16.928 29.0111C17.3232 28.5946 17.6228 28.12 17.8268 27.5868C18.3611 27.5729 18.8604 27.3729 19.3249 26.9871C19.6113 26.6637 19.8611 26.3138 20.0739 25.9376C20.4898 25.8493 20.8394 25.6495 21.1226 25.3379C21.3194 25.4598 21.4942 25.6097 21.6469 25.7877C21.7822 25.6076 21.9568 25.4826 22.1712 25.4129C24.7889 24.7697 27.4105 24.6947 30.036 25.188C30.2528 25.2547 30.4525 25.3547 30.6352 25.4878C30.8788 25.3695 31.1035 25.2196 31.3093 25.0381C31.61 25.2641 31.8597 25.5391 32.0584 25.8627C32.5153 25.9645 32.9647 26.0893 33.4066 26.2375C33.5564 26.1375 33.7062 26.0376 33.856 25.9376C34.6268 26.3217 35.2759 26.8465 35.8035 27.5119C36.3883 27.7045 36.9377 27.9795 37.4514 28.3365C37.5938 28.2126 37.7436 28.1877 37.9008 28.2615C38.3414 28.9584 38.9406 29.4831 39.6984 29.8357C39.9378 29.6881 40.1876 29.6632 40.4475 29.7608C40.6078 30.1719 40.8325 30.5467 41.1216 30.8852C41.3761 30.7494 41.6509 30.6995 41.9455 30.7353C41.9281 31.2466 42.1777 31.4466 42.6946 31.335C42.6722 31.4927 42.6971 31.6427 42.7695 31.7848C42.877 31.6422 43.0018 31.6173 43.144 31.7098C43.2439 31.9097 43.3437 32.1097 43.4436 32.3096C44.115 32.4472 44.5644 32.822 44.7918 33.434C45.1656 33.5388 45.5151 33.6887 45.8405 33.8838C46.0111 34.7291 46.5104 35.2538 47.3385 35.458C47.5027 35.9551 47.8522 36.205 48.3872 36.2077C48.4907 36.3677 48.5656 36.5426 48.6119 36.7324C48.8496 36.5485 49.0494 36.5984 49.2111 36.8824C49.2349 37.9367 49.7592 38.3864 50.784 38.2317C50.956 39.0301 51.4303 39.5298 52.2072 39.731C52.197 40.3877 52.5216 40.7375 53.1809 40.7805C53.3358 41.2217 53.5605 41.6216 53.8551 41.9799C54.1048 41.7801 54.3544 41.7801 54.6041 41.9799C54.7756 42.4195 54.9004 42.8693 54.9786 43.3293C55.4819 43.2228 55.7565 43.4228 55.8025 43.929C56.2982 43.7527 56.5229 43.9525 56.4767 44.5287C56.8999 44.4659 57.2243 44.6158 57.4504 44.9785C58.002 45.6169 58.5013 46.3164 58.9484 47.0775C59.1516 46.9455 59.3763 46.8954 59.6226 46.9275C59.7894 47.7054 60.1389 48.4051 60.6712 49.0265C60.9065 48.9052 61.1563 48.8552 61.4202 48.8766C61.3849 49.2853 61.5097 49.6351 61.7947 49.9261C62.0132 49.7391 62.2379 49.7391 62.4689 49.9261C62.6653 50.5579 62.9899 51.1075 63.4426 51.5753C63.6457 51.4434 63.8704 51.3933 64.1167 51.4254C64.3157 51.8536 64.4655 52.3033 64.5661 52.7747C65.1672 52.6828 65.4668 52.9327 65.465 53.5244C66.0202 53.5648 66.2198 53.8397 66.0642 54.349C66.1776 54.5757 66.3274 54.7757 66.5136 54.9487C66.965 55.085 67.4144 55.2098 67.8619 55.3235C67.7269 55.8844 67.9266 56.1842 68.4611 56.2231C68.6786 56.7772 68.9283 57.327 69.2101 57.8723C69.26 57.8472 69.31 57.8223 69.3599 57.7973C69.2354 57.0794 69.1106 56.3548 68.9854 55.6233C68.8919 55.2854 68.6922 55.0355 68.3862 54.8737C68.4266 54.395 68.2768 53.9452 67.9368 53.5244C67.8869 52.8747 67.8368 52.2249 67.787 51.5753C67.4023 51.32 67.3274 50.9952 67.5623 50.6008C67.0119 49.5733 66.7621 48.4988 66.8132 47.3773C66.8015 46.9313 66.6517 46.5565 66.3638 46.2529C66.6023 45.5972 66.4775 45.0225 65.9893 44.5287C65.8955 44.1969 65.9205 43.872 66.0642 43.5542C65.7662 43.3128 65.7164 43.0379 65.9144 42.7295C65.8145 42.6295 65.7147 42.5297 65.6148 42.4297C65.4867 40.9315 65.4867 39.4073 65.6148 37.8569C65.3853 37.4642 65.2355 37.0393 65.1654 36.5825C65.3466 36.1787 65.3466 35.779 65.1654 35.3831C65.2872 35.1861 65.437 35.0111 65.6148 34.8583C65.5099 34.4877 65.3601 34.1379 65.1654 33.8088C65.2446 33.5751 65.3445 33.3502 65.465 33.1342C65.3086 32.9658 65.2088 32.7659 65.1654 32.5344C65.2653 32.0847 65.3651 31.6349 65.465 31.1851C65.4467 30.4698 65.3967 29.7951 65.3152 29.1611C65.354 28.972 65.4539 28.8221 65.6148 28.7113C65.5149 28.5614 65.4151 28.4114 65.3152 28.2615C65.6407 27.9819 65.6907 27.6571 65.465 27.287C65.9686 26.9298 66.0185 26.53 65.6148 26.0875C65.8118 25.2393 66.0115 24.3896 66.214 23.5388C65.9402 23.0869 66.0401 22.762 66.5136 22.5642C66.3818 22.3609 66.3318 22.136 66.3638 21.8896C66.5398 21.9224 66.6896 21.8725 66.8132 21.7396C66.6762 21.6155 66.5764 21.4656 66.5136 21.2899C66.7183 21.0095 66.8931 20.7096 67.0379 20.3903C66.9197 19.7876 66.9698 19.1879 67.1877 18.5911C67.4733 18.0784 67.7479 17.5536 68.0117 17.0169C67.9118 16.4148 68.0616 15.865 68.4611 15.3677C68.2395 14.5774 68.5141 14.0527 69.285 13.7935C69.6514 13.0747 69.9511 12.3251 70.1838 11.5445C70.5338 11.4258 70.6087 11.2259 70.4086 10.9448C70.8091 10.795 70.9091 10.5451 70.7082 10.1952C70.9228 9.77044 71.0228 9.32066 71.0078 8.84583C71.2541 8.81375 71.4788 8.86383 71.6819 8.99576C71.8722 8.44972 72.0468 7.90009 72.2062 7.34655C72.5466 7.11372 72.7463 6.78897 72.8054 6.37202C73.103 6.49107 73.3776 6.4161 73.6294 6.14713C73.7988 5.70559 73.9236 5.25581 74.0039 4.79778C74.2096 4.82132 74.4094 4.79628 74.6031 4.72282C74.8352 4.09057 75.2347 3.59086 75.8016 3.22354C76.1052 3.2982 76.4048 3.27316 76.7004 3.14857C77.3688 2.6829 77.9182 2.10822 78.3482 1.4244C78.6294 1.33804 78.9042 1.36308 79.1722 1.49937C79.574 1.17207 79.9485 0.822141 80.2957 0.44987C80.4816 0.530381 80.6564 0.630383 80.82 0.749726C81.5259 0.573111 82.2249 0.373257 82.9173 0.150014C83.2626 0.391398 83.5372 0.341472 83.7412 8.62093e-05ZM120.294 74.6642C120.483 74.7248 120.656 74.8248 120.818 74.9641C121.083 74.8542 121.357 74.8041 121.642 74.8141C121.667 74.0023 122.067 73.7024 122.84 73.9146C123.219 73.1 123.495 72.2505 123.664 71.3658C123.765 71.2658 123.864 71.1659 123.964 71.0659C123.988 70.344 124.163 69.6693 124.488 69.0419C124.467 68.9262 124.416 68.8262 124.339 68.742C124.481 68.269 124.73 67.8693 125.088 67.5426C124.911 67.2195 124.96 66.9197 125.237 66.6431C125.074 66.3336 125.049 66.0087 125.162 65.6685C125.417 65.3822 125.642 65.0823 125.837 64.769C125.754 64.5238 125.705 64.274 125.687 64.0193C125.844 64.0417 125.994 64.0168 126.136 63.9443C126.313 63.6934 126.512 63.4685 126.735 63.2697C126.686 63.1697 126.635 63.0698 126.586 62.9698C126.692 62.6286 126.767 62.2788 126.81 61.9203C127.225 61.5908 127.35 61.1909 127.185 60.7209C127.49 60.4197 127.79 60.1198 128.084 59.8213C128.183 59.3257 128.257 58.826 128.308 58.3221C128.44 57.9504 128.665 57.6505 128.982 57.4225C128.87 57.2372 128.821 57.0372 128.833 56.8228C129.032 56.8228 129.233 56.8228 129.432 56.8228C129.621 56.0602 129.845 55.3106 130.106 54.5739C130.588 53.6077 131.062 52.6582 131.529 51.7252C131.679 51.7252 131.829 51.7252 131.979 51.7252C132.01 51.4787 131.961 51.2538 131.829 51.0505C132.227 50.7123 132.627 50.3874 133.027 50.076C132.858 49.4238 133.059 48.8991 133.626 48.5018C133.258 48.1781 133.358 48.0532 133.926 48.127C133.952 47.9287 133.902 47.7538 133.776 47.6022C134.086 47.1221 134.311 46.5974 134.45 46.028C134.719 45.7687 135.044 45.6687 135.424 45.7281C135.349 45.1789 135.574 44.829 136.098 44.6786C136.118 44.0164 136.368 43.4666 136.847 43.0294C136.961 42.2438 137.387 41.7441 138.121 41.5301C138.216 40.5102 138.666 39.6856 139.469 39.0563C139.448 38.9406 139.397 38.8406 139.319 38.7565C139.508 38.6181 139.707 38.493 139.918 38.3816C140.258 37.6923 140.708 37.0926 141.267 36.5825C141.541 36.6997 141.765 36.5999 141.941 36.2826C142.043 36.0901 142.019 35.9152 141.866 35.7579C142.607 35.2222 143.057 34.4975 143.214 33.5839C143.666 33.6432 143.816 33.4932 143.663 33.1342C144.095 32.9715 144.394 32.6716 144.562 32.2346C144.835 32.0476 145.135 31.9476 145.461 31.9347C145.518 31.4482 145.693 30.9984 145.985 30.5854C146.254 30.3262 146.579 30.2262 146.959 30.2855C147.009 29.9857 147.06 29.6858 147.109 29.386C147.308 29.386 147.509 29.386 147.708 29.386C147.708 29.236 147.708 29.0861 147.708 28.9362C147.858 28.9362 148.008 28.9362 148.158 28.9362C148.057 28.3365 148.307 28.0865 148.907 28.1865C148.862 27.1715 149.311 26.6967 150.255 26.7622C150.49 26.4885 150.616 26.1636 150.629 25.7877C150.73 25.6877 150.829 25.5878 150.929 25.4878C151.128 25.6877 151.329 25.6877 151.528 25.4878C151.578 25.188 151.629 24.8881 151.678 24.5883C151.969 24.3271 152.219 24.0272 152.427 23.6887C152.755 23.3828 153.13 23.1828 153.551 23.089C153.551 22.9391 153.551 22.7891 153.551 22.6392C153.949 22.507 154.324 22.3071 154.674 22.0395C154.878 22.1714 155.103 22.2215 155.348 22.1894C155.309 21.9678 155.359 21.768 155.498 21.5897C155.991 21.3701 156.466 21.1201 156.921 20.8401C157.014 19.933 157.487 19.6081 158.344 19.8655C158.422 19.4262 158.623 19.0514 158.944 18.7411C159.555 18.3318 160.203 17.982 160.891 17.6916C161.463 17.946 161.737 17.746 161.715 17.0919C162.238 16.4158 162.862 16.2409 163.588 16.5671C163.697 16.3574 163.772 16.1325 163.812 15.8924C163.871 16.0316 163.97 16.1316 164.112 16.1923C164.362 15.9577 164.611 15.7079 164.861 15.4427C165.319 15.687 165.569 15.5371 165.61 14.9929C165.814 15.1248 166.038 15.1749 166.284 15.1428C166.284 14.943 166.284 14.7429 166.284 14.5431C166.729 14.6674 167.178 14.6923 167.632 14.6181C167.806 14.1302 168.155 13.8554 168.681 13.7935C168.957 14.0083 169.256 14.0833 169.58 14.0183C169.701 13.748 169.876 13.5231 170.104 13.3437C170.828 13.2249 171.553 13.1 172.276 12.9689C172.371 12.8564 172.446 12.7314 172.501 12.594C173.241 12.7684 173.99 12.7684 174.748 12.594C175.09 12.5849 175.389 12.6847 175.647 12.8939C175.846 12.7939 176.047 12.694 176.246 12.594C176.571 12.8966 176.92 12.9465 177.295 12.744C177.815 13.2218 178.414 13.3218 179.092 13.0438C179.609 13.1357 179.883 13.4356 179.916 13.9434C180.565 13.8212 180.916 14.0711 180.965 14.693C181.248 14.7235 181.473 14.6236 181.639 14.3932C181.79 14.5187 181.966 14.5686 182.163 14.5431C182.364 14.974 182.539 15.4238 182.688 15.8924C182.887 16.0923 183.088 16.0923 183.287 15.8924C183.447 16.3035 183.672 16.6784 183.961 17.0169C183.819 17.1246 183.793 17.2494 183.886 17.3917C184.31 17.9165 184.736 18.4412 185.16 18.966C184.758 19.3663 184.809 19.7161 185.309 20.0155C185.414 20.4844 185.489 20.9591 185.534 21.4398C185.672 21.8329 185.847 22.2077 186.058 22.5642C185.894 22.9242 185.868 23.299 185.983 23.6887C186.386 24.1092 186.412 24.534 186.058 24.9631C186.244 25.2414 186.244 25.5162 186.058 25.7877C186.169 26.3922 186.319 26.9919 186.508 27.5868C186.142 27.9909 186.192 28.3657 186.658 28.7113C186.199 29.165 186.099 29.6897 186.358 30.2855C185.961 30.6398 185.961 30.9896 186.358 31.335C186.25 31.6841 186.1 32.009 185.909 32.3096C185.982 32.5288 186.033 32.7536 186.058 32.9842C185.754 33.5824 185.555 34.1822 185.459 34.7834C185.687 35.3444 185.586 35.8441 185.16 36.2826C185.261 36.7308 185.21 37.1806 185.01 37.632C184.815 37.7205 184.691 37.8704 184.635 38.0818C184.413 39.2226 184.213 40.3721 184.036 41.5301C183.729 41.9735 183.455 42.4483 183.212 42.9544C183.233 43.0702 183.284 43.1702 183.362 43.2543C182.724 44.1895 182.25 45.2142 181.939 46.3278C181.858 46.5729 181.933 46.7728 182.163 46.9275C182.06 47.5449 181.711 47.8448 181.115 47.8271C180.969 48.5788 180.796 49.3285 180.59 50.076C180.439 50.2015 180.264 50.2514 180.066 50.2259C180.069 50.5408 179.97 50.8156 179.767 51.0505C179.802 51.1814 179.852 51.3065 179.916 51.4254C179.51 51.9626 179.161 52.5374 178.868 53.1495C178.946 53.2336 178.997 53.3336 179.018 53.4494C178.785 53.8449 178.61 54.2696 178.493 54.7238C178.144 54.9737 177.794 55.2235 177.445 55.4734C177.391 56.2529 177.116 56.9276 176.621 57.4974C176.962 57.7196 176.962 57.9696 176.621 58.2471C176.43 58.2934 176.257 58.3684 176.096 58.472C175.729 59.0712 175.481 59.721 175.347 60.421C175.067 60.3327 174.817 60.4327 174.598 60.7209C174.705 61.0722 174.654 61.422 174.448 61.7704C173.909 62.311 173.485 62.9358 173.175 63.6445C173.094 64.7739 172.52 65.4985 171.452 65.8184C171.377 66.1143 171.353 66.4141 171.377 66.718C171.228 66.718 171.078 66.718 170.928 66.718C170.952 66.9239 170.927 67.1239 170.853 67.3177C170.404 67.5429 170.079 67.8927 169.879 68.3672C169.795 68.6273 169.746 68.8773 169.73 69.1169C169.506 69.2284 169.282 69.3283 169.055 69.4167C169.145 69.8208 169.07 70.2206 168.831 70.6161C168.628 70.7688 168.479 70.9686 168.381 71.2159C168.199 71.0343 168.023 71.0343 167.857 71.2159C167.923 71.9469 167.623 72.4466 166.958 72.7151C166.79 73.5033 166.365 74.103 165.685 74.5143C165.647 75.1921 165.298 75.4919 164.636 75.4138C164.674 75.8366 164.599 76.2363 164.411 76.6133C164.235 76.4287 164.059 76.4287 163.887 76.6133C163.803 76.9662 163.703 77.316 163.588 77.6627C163.361 77.9359 163.162 78.2358 162.988 78.5623C162.566 78.9034 162.14 79.2532 161.715 79.6118C161.375 80.3246 160.925 80.9742 160.367 81.5609C160.163 81.4289 159.938 81.3789 159.693 81.4109C159.7 82.2922 159.302 82.8919 158.494 83.2101C158.23 83.5195 158.181 83.8444 158.344 84.1846C158.156 84.784 157.956 85.3837 157.745 85.9837C157.928 86.2416 158.078 86.5164 158.195 86.8084C158.129 87.0488 158.028 87.2737 157.895 87.483C158.057 87.6886 158.181 87.9135 158.269 88.1577C158.419 88.3576 158.569 88.3576 158.719 88.1577C158.675 88.7366 158.9 88.9364 159.393 88.7574C159.502 88.9724 159.652 89.1472 159.842 89.2822C160.6 89.4274 161.324 89.6523 162.015 89.9568C162.437 89.7724 162.862 89.7724 163.288 89.9568C163.532 89.9002 163.757 89.8003 163.962 89.657C164.611 89.7069 165.261 89.757 165.91 89.8069C167.075 89.4981 168.273 89.2982 169.505 89.2072C170.089 89.4196 170.639 89.3697 171.153 89.0573C172.455 89.0859 173.753 89.1358 175.048 89.2072C175.608 88.9016 176.132 89.0016 176.621 89.5071C177.596 89.0741 178.52 89.1741 179.392 89.8069C179.593 89.6561 179.792 89.5062 179.991 89.3571C180.4 89.4089 180.824 89.4337 181.265 89.4321C181.928 90.0345 182.653 90.1095 183.437 89.657C183.691 89.7928 183.966 89.8427 184.261 89.8069C184.253 90.1203 184.403 90.3201 184.71 90.4066C185.019 90.0928 185.393 89.893 185.834 89.8069C185.909 89.8819 185.983 89.9568 186.058 90.0318C187.14 90.3258 188.238 90.5257 189.354 90.6315C189.827 90.7428 190.226 90.9677 190.553 91.3062C191.441 90.9264 192.316 90.9763 193.174 91.4561C193.553 91.1984 193.827 91.2734 193.998 91.681C194.969 91.6545 195.769 92.0044 196.395 92.7305C196.587 92.8331 196.762 92.808 196.919 92.6555C197.171 92.8903 197.471 93.0403 197.818 93.1053C198.118 92.913 198.443 92.763 198.792 92.6555C199.655 93.0431 200.504 93.468 201.339 93.9299C201.452 94.1566 201.602 94.3566 201.788 94.5296C202.384 94.5018 202.983 94.5018 203.586 94.5296C204.168 94.9896 204.768 95.4145 205.383 95.804C205.556 95.7564 205.68 95.6565 205.758 95.5042C205.921 95.8418 206.195 96.0417 206.582 96.1039C206.669 96.3291 206.794 96.5289 206.956 96.7036C207.395 96.3313 207.845 96.3313 208.304 96.7036C208.967 97.1724 209.641 97.6222 210.327 98.0529C210.441 98.2221 210.541 98.397 210.626 98.5777C211.241 98.3324 211.74 98.4823 212.125 99.0275C211.925 99.1774 211.925 99.3273 212.125 99.4773C212.366 99.5852 212.59 99.5603 212.799 99.4023C212.848 99.6022 212.899 99.8022 212.948 100.002C213.434 100.213 213.859 100.513 214.222 100.902C214.571 101.002 214.921 101.101 215.27 101.201C215.368 101.444 215.443 101.693 215.495 101.951C215.78 102.05 216.004 102.225 216.169 102.476C216.361 102.578 216.536 102.553 216.694 102.401C216.857 102.52 217.031 102.62 217.218 102.701C217.311 103.069 217.535 103.319 217.892 103.45C218.084 103.783 218.234 104.133 218.341 104.5C218.56 104.687 218.785 104.687 219.016 104.5C219.122 104.879 219.222 105.254 219.315 105.624C219.709 105.64 220.084 105.665 220.439 105.699C220.473 106.041 220.599 106.341 220.813 106.599C220.689 106.741 220.665 106.891 220.738 107.049C221.03 107.14 221.305 107.265 221.562 107.423C221.43 107.627 221.381 107.852 221.412 108.098C221.612 108.098 221.812 108.098 222.012 108.098C222.012 108.348 222.012 108.598 222.012 108.848C222.161 108.848 222.311 108.848 222.461 108.848C222.434 109.272 222.635 109.522 223.06 109.597C223.222 109.932 223.321 110.282 223.36 110.647C223.565 110.623 223.766 110.648 223.959 110.722C224.759 111.688 225.159 112.812 225.158 114.095C225.307 114.095 225.457 114.095 225.607 114.095C225.878 115.04 226.152 115.99 226.431 116.944C227.051 117.53 227.276 118.23 227.105 119.043C227.171 119.55 227.321 120.025 227.554 120.467C227.394 120.578 227.294 120.728 227.255 120.917C227.641 121.565 227.641 122.214 227.255 122.866C227.331 123.427 227.43 123.977 227.554 124.515C227.101 124.935 227 125.436 227.255 126.015C226.865 126.154 226.641 126.43 226.581 126.839C226.531 127.289 226.48 127.739 226.431 128.188C225.848 128.634 225.549 129.233 225.532 129.988C225.307 130.112 225.132 130.287 225.008 130.512C224.794 130.466 224.593 130.491 224.409 130.587C224.262 130.976 224.212 131.374 224.259 131.787C223.959 131.787 223.66 131.787 223.36 131.787C223.36 132.187 223.36 132.586 223.36 132.986C223.048 133.067 222.749 133.193 222.461 133.361C221.73 133.944 221.08 134.619 220.514 135.385C220.268 135.562 220.019 135.562 219.765 135.385C219.553 135.581 219.303 135.706 219.016 135.76C218.816 136.06 218.616 136.36 218.416 136.659C218.117 136.659 217.817 136.659 217.518 136.659C217.414 136.82 217.339 136.994 217.293 137.184C216.834 137.604 216.31 137.904 215.72 138.084C215.518 137.866 215.267 137.766 214.971 137.784C214.95 138.247 214.8 138.646 214.521 138.983C214.063 139.148 213.639 139.048 213.248 138.683C213.047 138.889 212.848 139.088 212.649 139.283C212.429 139.159 212.204 139.133 211.975 139.208C211.892 139.484 211.743 139.709 211.525 139.883C211.07 139.778 210.62 139.728 210.177 139.733C209.765 139.802 209.44 140.001 209.203 140.333C208.98 140.145 208.755 140.145 208.529 140.333C208.297 140.809 207.946 140.959 207.481 140.782C206.796 141.135 206.071 141.385 205.308 141.532C205.058 141.382 204.81 141.232 204.559 141.082C204.309 141.316 204.06 141.567 203.81 141.832C203.592 141.644 203.367 141.644 203.136 141.832C202.664 141.421 202.239 141.471 201.863 141.982C201.755 141.898 201.629 141.848 201.488 141.832C200.745 142.031 199.996 142.232 199.241 142.432C198.5 141.836 197.751 141.836 196.994 142.432C196.647 141.869 196.247 141.844 195.796 142.357C195.161 142.495 194.561 142.42 193.998 142.132C192.976 142.615 191.977 142.615 191.002 142.132C190.762 142.198 190.538 142.298 190.328 142.432C189.775 142.352 189.251 142.202 188.755 141.982C188.44 142.145 188.115 142.295 187.781 142.432C186.962 142.25 186.163 142 185.384 141.682C184.908 141.772 184.433 141.872 183.961 141.982C183.558 141.974 183.359 141.775 183.362 141.382C183.022 141.415 182.697 141.514 182.388 141.682C182.032 141.568 181.732 141.369 181.489 141.082C181.347 141.16 181.223 141.261 181.115 141.382C180.417 141.333 179.717 141.282 179.018 141.232C177.13 140.76 175.233 140.336 173.325 139.958C173.225 139.808 173.126 139.658 173.025 139.508C172.726 139.508 172.426 139.508 172.126 139.508C172.028 139.285 171.878 139.111 171.677 138.983C171.511 139.15 171.312 139.25 171.078 139.283C170.5 139.094 169.926 138.895 169.355 138.683C169.24 138.704 169.139 138.755 169.055 138.833C168.924 138.406 168.673 138.307 168.306 138.533C167.454 138.001 166.53 137.752 165.535 137.784C165.535 137.634 165.535 137.484 165.535 137.334C164.816 137.279 164.118 137.129 163.438 136.884C163.258 136.523 163.008 136.223 162.689 135.985C162.439 136.085 162.19 136.184 161.94 136.285C161.826 136.115 161.725 135.941 161.64 135.76C160.707 135.643 159.958 135.219 159.393 134.485C159.197 134.607 159.021 134.757 158.869 134.935C158.271 134.496 157.646 134.072 156.996 133.661C156.765 133.494 156.667 133.27 156.696 132.986C156.397 132.986 156.097 132.986 155.798 132.986C155.823 132.788 155.774 132.613 155.648 132.461C155.308 132.347 154.983 132.373 154.674 132.536C154.207 132.084 153.757 131.634 153.326 131.187C153.176 131.287 153.026 131.386 152.876 131.487C152.694 131.353 152.494 131.254 152.277 131.187C151.834 131.042 151.41 130.991 151.004 131.037C150.321 131.213 149.672 131.362 149.056 131.487C149.145 131.682 149.295 131.806 149.506 131.862C149.007 132.235 148.632 132.71 148.382 133.286C148.167 133.491 147.916 133.641 147.633 133.736C147.714 134.35 147.764 134.95 147.783 135.535C148.241 136.387 148.567 137.286 148.757 138.234C149.074 138.673 149.474 138.773 149.955 138.533C150.202 138.65 150.402 138.824 150.554 139.058C150.697 139.13 150.847 139.156 151.004 139.133C150.992 139.348 151.041 139.547 151.154 139.733C151.94 139.895 152.539 140.319 152.951 141.007C153.109 141.081 153.258 141.057 153.401 140.932C153.603 141.15 153.853 141.25 154.15 141.232C154.15 141.382 154.15 141.532 154.15 141.682C154.725 141.976 155.324 142.25 155.947 142.507C156.31 142.895 156.559 143.345 156.696 143.856C157.087 144.078 157.487 144.253 157.895 144.381C157.869 144.881 158.069 145.057 158.494 144.905C158.68 145.078 158.83 145.279 158.944 145.505C159.2 145.535 159.448 145.535 159.693 145.505C159.802 145.715 159.877 145.94 159.917 146.18C160.202 146.279 160.427 146.453 160.591 146.705C161.126 146.601 161.525 146.826 161.79 147.379C162.173 147.55 162.573 147.675 162.988 147.754C162.813 148.034 162.837 148.309 163.063 148.579C163.791 148.483 164.115 148.834 164.037 149.628C164.364 149.687 164.639 149.837 164.861 150.078C164.976 150.057 165.077 150.006 165.16 149.928C165.234 150.172 165.259 150.423 165.235 150.678C165.481 150.709 165.706 150.66 165.91 150.528C166.137 150.939 166.462 151.238 166.883 151.427C166.771 151.613 166.721 151.813 166.733 152.027C167.088 152.126 167.388 152.327 167.632 152.627C167.829 152.483 168.029 152.508 168.232 152.702C168.374 152.996 168.575 153.244 168.831 153.451C168.781 153.501 168.73 153.552 168.681 153.601C168.784 153.762 168.859 153.936 168.906 154.126C169.105 154.325 169.306 154.325 169.505 154.126C169.668 154.502 169.843 154.877 170.029 155.25C170.317 155.231 170.616 155.205 170.928 155.175C171.028 155.675 171.127 156.176 171.228 156.675C171.482 156.604 171.707 156.604 171.902 156.675C172.049 157.011 172.123 157.36 172.126 157.724C172.326 157.724 172.526 157.724 172.726 157.724C172.636 158.459 172.961 158.859 173.699 158.924C173.773 159.168 173.798 159.418 173.774 159.673C174.225 159.661 174.55 159.862 174.748 160.273C174.8 160.448 174.777 160.624 174.673 160.798C175.227 161.191 175.576 161.715 175.722 162.372C176.372 162.32 176.746 162.619 176.845 163.272C177.048 163.499 177.272 163.699 177.519 163.871C177.47 163.972 177.419 164.071 177.37 164.171C177.762 164.571 177.937 165.021 177.894 165.521C178.045 165.646 178.221 165.696 178.418 165.67C178.176 166.281 178.4 166.631 179.092 166.72C179.334 167.269 179.584 167.819 179.841 168.369C179.993 168.495 180.168 168.545 180.366 168.519C180.417 169.594 180.791 170.543 181.489 171.368C181.701 171.901 181.85 172.45 181.939 173.017C182.199 173.428 182.475 173.828 182.763 174.216C182.569 174.614 182.644 174.963 182.987 175.266C183.049 176.219 183.323 177.093 183.811 177.89C183.655 178.311 183.756 178.686 184.111 179.014C184.02 179.728 184.169 180.402 184.56 181.038C184.391 181.383 184.442 181.707 184.71 182.013C184.583 182.609 184.608 183.209 184.785 183.812C185.088 184.092 185.261 184.443 185.309 184.861C185.221 185.299 185.172 185.723 185.16 186.136C185.191 186.416 185.29 186.665 185.459 186.885C185.18 187.242 185.08 187.617 185.16 188.01C185.568 188.356 185.618 188.705 185.309 189.059C185.603 189.262 185.628 189.461 185.384 189.659C185.353 190.083 185.327 190.484 185.309 190.858C185.685 191.172 185.636 191.446 185.16 191.683C185.32 191.879 185.42 192.104 185.459 192.358C185.225 193.055 185.076 193.779 185.01 194.532C185.08 195.038 185.13 195.538 185.16 196.031C185.065 196.382 184.915 196.707 184.71 197.005C185.098 197.419 185.074 197.819 184.635 198.205C184.46 199.079 184.286 199.954 184.111 200.829C184.07 201.07 183.946 201.244 183.736 201.353C183.629 201.595 183.654 201.82 183.811 202.028C183.673 202.083 183.549 202.158 183.437 202.253C183.45 202.724 183.426 203.173 183.362 203.602C183.116 203.571 182.891 203.62 182.688 203.752C182.512 204.365 182.412 204.965 182.388 205.551C182.252 205.676 182.151 205.826 182.089 206.001C181.889 205.802 181.689 205.802 181.489 206.001C181.416 206.245 181.39 206.496 181.414 206.751C181.265 206.751 181.115 206.751 180.965 206.751C180.965 206.95 180.965 207.151 180.965 207.35C180.815 207.35 180.665 207.35 180.516 207.35C180.516 207.751 180.516 208.15 180.516 208.55C180.134 208.925 179.659 209.175 179.092 209.299C178.985 209.541 179.01 209.766 179.167 209.974C178.818 210.124 178.568 210.374 178.418 210.724C178.182 210.79 177.982 210.914 177.819 211.099C177.579 210.952 177.331 210.926 177.07 211.024C176.986 211.359 176.836 211.659 176.621 211.923C176.297 212.06 175.997 212.235 175.722 212.448C175.211 211.985 174.911 212.085 174.823 212.748C173.535 213.211 172.237 213.511 170.928 213.647C169.754 213.575 168.555 213.449 167.333 213.273C166.768 212.964 166.169 212.79 165.535 212.748C165.535 212.548 165.535 212.348 165.535 212.148C165.252 212.118 165.027 212.217 164.861 212.448C164.566 211.868 164.116 211.668 163.513 211.848C163.324 211.291 162.975 211.141 162.464 211.398C162.286 211.24 162.211 211.039 162.239 210.799C161.546 210.866 160.996 210.641 160.591 210.124C160.161 209.905 159.712 209.731 159.243 209.599C159.176 209.289 159.026 209.04 158.794 208.85C158.559 208.971 158.308 209.021 158.045 209C158.057 208.785 158.007 208.586 157.895 208.4C157.6 208.275 157.3 208.25 156.996 208.325C156.78 208.061 156.631 207.761 156.547 207.425C155.991 207.346 155.567 207.072 155.273 206.601C155.224 206.65 155.173 206.701 155.124 206.751C155.086 206.461 155.011 206.185 154.899 205.926C154.548 206.01 154.199 205.985 153.85 205.851C153.622 205.397 153.398 204.947 153.176 204.502C153.026 204.602 152.876 204.701 152.727 204.802C152.59 204.478 152.464 204.152 152.352 203.827C152.041 203.799 151.741 203.724 151.453 203.602C151.289 203.298 151.04 203.097 150.704 203.003C150.318 202.241 149.793 201.592 149.131 201.053C149.01 200.763 148.935 200.463 148.907 200.154C148.065 200.125 147.665 199.676 147.708 198.805C147.172 199.038 146.722 198.914 146.36 198.43C146.564 198.139 146.514 197.89 146.21 197.68C146.43 197.148 146.231 196.897 145.611 196.93C145.386 196.706 145.161 196.481 144.937 196.256C144.887 195.956 144.836 195.656 144.787 195.356C144.451 195.272 144.152 195.122 143.888 194.906C143.437 194.35 143.112 193.75 142.914 193.107C142.709 193.131 142.508 193.106 142.315 193.032C142.365 192.983 142.416 192.932 142.465 192.882C142.022 192.627 141.722 192.253 141.566 191.758C141.69 191.615 141.714 191.466 141.641 191.308C141.343 191.2 141.069 191.05 140.817 190.858C140.667 190.46 140.443 190.109 140.143 189.809C140.043 190.008 139.944 190.008 139.843 189.809C139.628 188.786 139.304 187.836 138.87 186.96C138.67 186.96 138.47 186.96 138.27 186.96C138.27 186.71 138.27 186.461 138.27 186.211C137.725 186.254 137.3 186.055 136.997 185.611C136.834 184.887 136.66 184.137 136.473 183.362C135.938 183.323 135.739 183.023 135.874 182.462C135.716 182.485 135.566 182.459 135.424 182.387C135.31 182.077 135.235 181.752 135.199 181.413C135.048 181.287 134.873 181.237 134.675 181.263C134.746 180.495 134.422 179.996 133.701 179.764C133.564 179.374 133.463 178.974 133.402 178.564C132.964 178.189 132.765 177.74 132.803 177.215C132.599 177.083 132.374 177.033 132.128 177.065C132.101 176.657 132.027 176.258 131.904 175.866C131.505 175.494 131.23 175.044 131.08 174.516C130.719 174.57 130.494 174.42 130.406 174.066C130.241 173.023 129.892 172.072 129.357 171.218C129.282 170.922 129.258 170.623 129.282 170.318C129.125 170.341 128.975 170.315 128.833 170.243C128.719 170.017 128.569 169.816 128.383 169.644C128.515 169.44 128.565 169.215 128.533 168.969C128.356 169.002 128.206 168.952 128.084 168.819C127.935 168.311 127.76 167.81 127.559 167.32C127.408 167.194 127.233 167.144 127.035 167.17C127.116 166.613 126.866 166.239 126.286 166.045C126.512 165.919 126.587 165.745 126.511 165.521C126.27 165.423 126.045 165.299 125.837 165.146C125.886 165.096 125.937 165.045 125.986 164.996C125.667 164.717 125.592 164.393 125.762 164.021C125.04 163.607 124.74 163.008 124.863 162.222C124.488 161.801 124.289 161.3 124.264 160.723C123.994 160.601 123.769 160.426 123.589 160.198C123.473 159.706 123.323 159.231 123.14 158.774C122.99 158.774 122.84 158.774 122.691 158.774C122.566 158.137 122.44 157.537 122.316 156.975C121.829 156.64 121.53 156.191 121.417 155.625C121.317 155.726 121.218 155.825 121.118 155.925C121.005 155.417 121.029 154.916 121.193 154.426C120.933 154.166 120.734 153.867 120.593 153.526C120.471 153.393 120.321 153.343 120.144 153.376C120.144 153.076 120.144 152.777 120.144 152.477C119.79 152.501 119.441 152.477 119.095 152.402C118.73 151.892 118.43 151.367 118.196 150.828C117.66 150.94 117.136 151.09 116.624 151.277C116.195 151.198 115.797 151.048 115.425 150.828C115.036 151.082 114.612 151.232 114.152 151.277C114.152 151.427 114.152 151.577 114.152 151.727C113.852 151.727 113.553 151.727 113.253 151.727C113.302 152.177 113.103 152.376 112.654 152.327C112.624 152.61 112.723 152.835 112.953 153.002C112.796 153.075 112.646 153.051 112.504 152.927C112.338 153.109 112.312 153.31 112.429 153.526C112.567 153.591 112.691 153.64 112.803 153.676C112.481 154.135 112.182 154.61 111.905 155.101C112.005 155.651 112.104 156.2 112.204 156.75C112.053 157.42 112.053 158.095 112.204 158.774C112.161 159.141 112.06 159.492 111.905 159.823C111.967 159.999 112.068 160.149 112.204 160.273C111.804 160.85 111.705 161.474 111.905 162.147C111.466 162.429 111.366 162.804 111.605 163.272C111.231 163.856 111.056 164.507 111.081 165.221C110.767 165.585 110.692 165.985 110.856 166.42C110.743 166.757 110.544 167.033 110.257 167.245C110.385 167.348 110.485 167.473 110.556 167.62C110.159 168.042 109.934 168.542 109.882 169.119C109.399 169.566 109.224 170.09 109.358 170.693C109.182 170.943 108.982 171.168 108.759 171.368C108.986 172.068 108.736 172.618 108.01 173.017C107.892 173.519 107.767 174.018 107.635 174.516C107.222 174.857 107.023 175.306 107.036 175.866C106.422 176.638 106.098 177.486 106.062 178.414C105.879 178.764 105.579 178.938 105.163 178.939C105.094 179.197 105.069 179.471 105.089 179.764C104.937 179.89 104.762 179.939 104.564 179.914C104.564 180.213 104.564 180.513 104.564 180.813C103.987 180.843 103.838 181.118 104.115 181.638C103.94 181.939 103.84 182.263 103.815 182.612C103.665 182.612 103.516 182.612 103.366 182.612C103.34 182.81 103.39 182.986 103.516 183.137C103.304 183.444 103.055 183.719 102.767 183.962C102.405 184.717 102.031 185.467 101.643 186.211C101.368 186.585 101.044 186.911 100.669 187.185C100.719 187.235 100.769 187.286 100.819 187.335C100.494 187.56 100.17 187.785 99.8453 188.01C99.2806 189.19 98.7562 190.389 98.2724 191.608C98.0226 191.608 97.7731 191.608 97.5233 191.608C97.4946 192.073 97.3948 192.523 97.2237 192.957C96.5743 193.632 95.9502 194.332 95.3512 195.056C95.1356 195.322 94.9858 195.622 94.9017 195.956C94.2988 196.587 93.7745 197.386 93.3288 198.355C92.9357 198.746 92.4863 199.046 91.9805 199.254C91.9281 199.758 91.7283 200.182 91.3813 200.529C91.5569 200.809 91.5319 201.083 91.3064 201.353C90.9049 201.425 90.5054 201.476 90.108 201.503C90.0338 201.799 90.0088 202.098 90.0331 202.403C89.6836 202.503 89.3339 202.602 88.9844 202.703C89.0803 203.58 88.7557 204.229 88.0107 204.652C87.9383 204.794 87.9135 204.944 87.9358 205.101C87.7301 205.078 87.5303 205.103 87.3366 205.176C87.1369 205.326 87.1369 205.476 87.3366 205.626C87.0048 205.782 86.6553 205.883 86.2879 205.926C86.0761 206.385 85.9013 206.859 85.7636 207.35C85.5286 207.298 85.254 207.274 84.9397 207.275C84.9845 207.721 84.8595 208.147 84.5652 208.55C84.3562 208.689 84.1315 208.689 83.891 208.55C83.6581 208.583 83.4583 208.683 83.2918 208.85C83.0608 209.479 82.7113 210.03 82.2432 210.499C81.9551 210.751 81.6056 210.8 81.1945 210.649C81.1945 210.848 81.1945 211.049 81.1945 211.249C80.9448 211.249 80.6952 211.249 80.4455 211.249C80.5771 212.168 80.2276 212.467 79.3969 212.148C79.4204 212.354 79.3954 212.554 79.322 212.748C78.6832 213.443 77.9092 213.919 77 214.172C76.7861 214.499 76.5363 214.799 76.251 215.072C75.1159 215.802 73.9425 216.427 72.7305 216.946C72.6198 216.785 72.47 216.685 72.2811 216.646C72.0404 217.051 71.7158 217.376 71.3074 217.62C70.7017 217.721 70.1275 217.896 69.5846 218.145C69.0963 217.893 68.6967 217.992 68.3862 218.445C68.3021 218.367 68.2022 218.316 68.0866 218.295C67.8264 218.463 67.5516 218.613 67.2626 218.745C66.6729 218.405 66.0486 218.355 65.3901 218.595C64.961 218.517 64.6364 218.292 64.4163 217.92C64.0754 217.875 63.7508 217.95 63.4426 218.145C62.6738 218.009 62.0996 217.61 61.7198 216.946C61.2487 217.04 60.7993 216.941 60.3716 216.646C60.2103 216.312 60.1103 215.962 60.072 215.596C59.3251 215.649 59.1254 215.349 59.4728 214.697C59.323 214.697 59.1731 214.697 59.0233 214.697C59.0257 214.132 58.7762 213.982 58.2743 214.247C57.9776 214.156 57.9275 214.006 58.1245 213.797C57.3995 212.646 56.7502 211.446 56.177 210.199C56.2485 210.052 56.3483 209.928 56.4767 209.824C56.3519 209.7 56.2269 209.574 56.1021 209.449C55.8899 208.686 55.6401 207.937 55.3531 207.2C55.2622 206.796 55.2872 206.395 55.428 206.001C54.8608 205.057 54.7609 204.057 55.1284 203.003C55.1305 202.686 55.0307 202.412 54.8288 202.178C55.2267 201.781 55.2267 201.382 54.8288 200.978C55.2097 200.668 55.2097 200.343 54.8288 200.004C54.8993 198.89 55.0492 197.791 55.2782 196.706C55.2814 196.391 55.2313 196.065 55.1284 195.731C55.1447 195.106 55.3446 194.506 55.7276 193.932C55.6888 193.743 55.5889 193.593 55.428 193.482C55.8536 193.245 56.0034 192.92 55.8774 192.508C55.9773 192.358 56.0771 192.208 56.177 192.058C56.0233 190.968 56.2731 189.968 56.9261 189.059C56.787 188.869 56.762 188.669 56.8512 188.459C57.0188 188.004 57.2684 187.603 57.6002 187.26C57.7457 186.287 57.9453 185.287 58.1994 184.262C58.6274 183.8 58.8521 183.251 58.8735 182.612C59.0233 182.612 59.1731 182.612 59.323 182.612C59.3555 182.002 59.4304 181.351 59.5477 180.663C59.7113 180.185 59.9858 179.786 60.3716 179.464C60.1908 178.588 60.5403 177.989 61.4202 177.665C61.5649 177.38 61.6148 177.08 61.57 176.765C61.7697 176.765 61.9696 176.765 62.1693 176.765C62.1209 176.137 62.2707 175.561 62.6187 175.041C62.7607 174.969 62.9105 174.943 63.0681 174.966C63.079 174.104 63.3786 173.354 63.9669 172.717C64.0889 172.377 64.1638 172.027 64.1916 171.668C64.6451 171.411 65.0696 171.111 65.465 170.768C65.7253 170.167 66.025 169.593 66.3638 169.044C66.5575 168.97 66.7573 168.945 66.963 168.969C66.9388 168.665 66.9638 168.365 67.0379 168.069C67.5961 167.36 68.0954 166.611 68.536 165.82C68.7731 165.822 69.0227 165.771 69.285 165.67C69.359 165.426 69.3839 165.176 69.3599 164.921C69.5596 164.921 69.7595 164.921 69.9591 164.921C70.0285 164.474 70.0784 164.024 70.1089 163.571C70.4086 163.522 70.7082 163.471 71.0078 163.422C71.0078 163.272 71.0078 163.122 71.0078 162.972C71.2075 162.972 71.4073 162.972 71.607 162.972C71.5609 162.609 71.6109 162.258 71.7568 161.922C71.9919 161.741 72.1166 161.49 72.1313 161.173C72.8977 160.778 73.422 160.179 73.7043 159.373C73.8619 159.396 74.0117 159.37 74.1537 159.299C74.4403 159.03 74.69 158.73 74.9027 158.399C75.1475 158.325 75.3972 158.3 75.6517 158.324C75.6517 158.174 75.6517 158.024 75.6517 157.874C75.8016 157.874 75.9514 157.874 76.1012 157.874C76.1012 157.624 76.1012 157.375 76.1012 157.125C76.3901 157.165 76.6397 157.09 76.8502 156.9C76.8003 156.85 76.7503 156.799 76.7004 156.75C76.8613 156.381 77.0111 156.006 77.1498 155.625C77.505 155.549 77.8545 155.498 78.1984 155.475C78.5291 154.556 79.1033 153.858 79.9212 153.376C79.9832 153.445 80.0581 153.495 80.1459 153.526C80.338 153.274 80.4878 153 80.5953 152.702C81.4053 152.567 81.8049 152.091 81.7938 151.277C82.0483 151.301 82.298 151.276 82.5428 151.202C82.7425 151.052 82.7425 150.903 82.5428 150.753C82.8328 150.631 83.1324 150.556 83.4416 150.528C83.4403 150.256 83.5152 150.006 83.6663 149.778C84.2241 149.469 84.6236 149.019 84.8648 148.429C85.2821 148.199 85.7065 148 86.1381 147.829C86.1158 147.672 86.1407 147.522 86.213 147.379C86.8437 146.753 87.3432 146.052 87.7111 145.28C87.7845 145.087 87.8095 144.886 87.786 144.681C87.5863 144.681 87.3865 144.681 87.1868 144.681C87.3036 144.291 87.5532 143.991 87.9358 143.781C87.8494 143.474 87.6497 143.324 87.3366 143.331C87.3132 142.946 87.3632 142.571 87.4864 142.207C87.1583 141.814 86.9585 141.364 86.8872 140.857C86.1333 140.898 85.4093 140.722 84.715 140.333C84.204 140.406 83.7047 140.505 83.2169 140.632C82.8262 140.124 82.3518 140.049 81.7938 140.408C81.3268 140.767 80.8275 141.093 80.2957 141.382C79.932 142.042 79.3828 142.417 78.6479 142.507C78.2202 143.283 77.6458 143.908 76.9251 144.381C76.6915 144.301 76.4668 144.201 76.251 144.081C75.9773 144.381 75.7275 144.706 75.5019 145.055C75.2584 145.025 75.0086 145.025 74.7529 145.055C74.5836 145.799 74.1342 146.274 73.4047 146.48C73.2582 146.408 73.1334 146.309 73.0302 146.18C72.0952 146.616 71.3462 147.265 70.7831 148.129C70.7107 148.271 70.6858 148.421 70.7082 148.579C70.4619 148.547 70.2372 148.597 70.034 148.729C69.8144 148.456 69.5398 148.381 69.2101 148.504C68.8284 148.87 68.379 149.12 67.8619 149.253C67.625 149.528 67.4252 149.828 67.2626 150.153C66.7699 150.285 66.2705 150.385 65.7646 150.453C65.6148 150.703 65.465 150.952 65.3152 151.202C65.0115 151.127 64.7119 151.153 64.4163 151.277C64.329 151.502 64.2042 151.702 64.0418 151.877C63.8387 151.745 63.614 151.696 63.3677 151.727C63.3187 152.178 63.1189 152.553 62.7685 152.852C62.364 152.889 61.9645 152.889 61.57 152.852C61.1325 153.861 60.3834 154.31 59.323 154.201C59.241 154.339 59.1412 154.465 59.0233 154.576C58.784 154.429 58.5342 154.403 58.2743 154.501C57.8659 154.846 57.4165 155.12 56.9261 155.325C56.817 155.579 56.6672 155.804 56.4767 156C56.2525 156.077 56.0777 156.002 55.9523 155.775C55.6527 156.075 55.3531 156.375 55.0535 156.675C54.6477 156.493 54.3981 156.643 54.3045 157.125C54.1013 156.993 53.8766 156.943 53.6303 156.975C53.6303 157.225 53.6303 157.474 53.6303 157.724C53.0991 157.84 52.5748 157.84 52.0574 157.724C51.7572 158.249 51.3326 158.649 50.784 158.924C50.6061 158.723 50.3814 158.622 50.1099 158.624C49.7549 158.879 49.4303 159.179 49.1362 159.523C48.51 159.159 48.0856 159.36 47.8628 160.123C47.684 159.984 47.4843 159.883 47.2636 159.823C46.9694 160.026 46.6448 160.152 46.2899 160.198C46.129 160.672 45.8294 161.021 45.391 161.248C45.0155 161.261 44.6909 161.387 44.4173 161.622C44.2014 161.508 43.9767 161.408 43.7432 161.323C43.5002 162.095 43.0009 162.369 42.2451 162.147C42.1452 162.347 42.0454 162.547 41.9455 162.747C41.541 162.784 41.1415 162.784 40.7471 162.747C40.6557 163.039 40.5309 163.314 40.3726 163.571C40.2885 163.493 40.1886 163.443 40.073 163.422C39.2475 163.696 38.4236 163.996 37.6012 164.321C37.1526 163.894 36.853 163.994 36.7023 164.621C36.2122 164.224 35.8627 164.348 35.6537 164.996C34.5931 165.342 33.5695 165.766 32.5827 166.27C32.2756 166.077 31.951 166.002 31.6089 166.045C31.4885 166.311 31.3137 166.536 31.0846 166.72C30.692 166.101 30.3924 166.15 30.1858 166.87C30.1018 166.792 30.0018 166.741 29.8862 166.72C29.62 167.026 29.2954 167.251 28.9125 167.395C28.5111 167.371 28.1116 167.296 27.714 167.17C27.7549 167.462 27.6551 167.687 27.4144 167.844C26.3397 168.191 25.2412 168.341 24.1187 168.294C24.0188 168.444 23.919 168.594 23.8191 168.744C23.4854 168.762 23.2109 168.886 22.9951 169.119C22.6948 168.774 22.3701 168.774 22.0214 169.119C21.8644 168.987 21.6896 168.886 21.4971 168.819C21.2984 169.014 21.0986 169.213 20.8979 169.419C20.8358 169.35 20.7609 169.3 20.6732 169.269C20.2516 169.657 19.8272 169.657 19.3998 169.269C19.2109 169.308 19.0611 169.408 18.9504 169.569C18.6547 169.176 18.3801 169.201 18.1265 169.644C17.7184 169.684 17.3189 169.759 16.928 169.868C16.7782 169.768 16.6284 169.669 16.4786 169.569C16.3216 169.701 16.1468 169.801 15.9543 169.868C15.5858 169.704 15.2112 169.554 14.8307 169.419C14.4871 169.6 14.1376 169.75 13.7821 169.868C13.7625 169.246 13.5378 169.146 13.108 169.569C12.9489 169.359 12.7492 169.209 12.5088 169.119C12.259 169.269 12.0095 169.419 11.7597 169.569C11.1628 169.249 10.5385 169 9.88716 168.819C9.77286 168.036 9.32344 167.736 8.53891 167.919C8.32499 167.402 8.2002 166.853 8.1644 166.27C7.81445 166.152 7.73955 165.951 7.93969 165.67C7.61326 165.404 7.61326 165.104 7.93969 164.771C7.49686 163.666 7.59663 162.567 8.2393 161.472C8.20424 160.916 8.20424 160.368 8.2393 159.823C8.45577 159.385 8.73051 158.987 9.06323 158.624C9.32179 157.436 9.64642 156.286 10.037 155.175C10.1868 155.175 10.3366 155.175 10.4864 155.175C10.7725 154.297 11.172 153.448 11.6848 152.627C11.5187 152.408 11.5936 152.258 11.9095 152.177C11.9984 151.603 12.3228 151.303 12.8833 151.277C12.7463 150.645 12.946 150.096 13.4825 149.628C13.6217 149.45 13.6715 149.25 13.6323 149.028C13.7821 149.028 13.9319 149.028 14.0817 149.028C14.2315 148.628 14.3813 148.229 14.5311 147.829C15.1915 147.895 15.4412 147.595 15.2802 146.929C15.4782 146.955 15.653 146.905 15.8045 146.78C16.0158 145.917 16.5153 145.267 17.3025 144.83C17.3524 144.631 17.4024 144.43 17.4523 144.231C17.6197 144.205 17.7945 144.156 17.9767 144.081C17.9964 143.501 18.271 143.102 18.8006 142.881C18.9296 142.228 19.3041 141.778 19.9241 141.532C20.024 141.282 20.1238 141.033 20.2237 140.782C20.5512 140.674 20.8758 140.574 21.1975 140.483C21.0688 139.583 21.4433 139.184 22.321 139.283C22.4013 138.913 22.4762 138.563 22.5457 138.234C22.8952 137.934 23.2449 137.634 23.5944 137.334C24.1371 136.526 24.7363 135.776 25.392 135.085C25.9009 134.817 26.4252 134.617 26.965 134.485C27.1435 134.027 27.3683 133.577 27.6391 133.136C27.9082 133.326 28.1827 133.326 28.463 133.136C28.682 132.295 29.1814 131.695 29.9611 131.337C30.0938 131.214 30.1437 131.064 30.1109 130.887C30.6484 130.565 31.2476 130.34 31.9086 130.212C32.0871 129.926 32.2369 129.626 32.358 129.313C33.0696 129.527 33.419 129.251 33.4066 128.488C33.6123 128.512 33.8121 128.487 34.0058 128.413C34.2622 128.025 34.5369 127.65 34.8298 127.289C35.3316 127.695 35.5813 127.545 35.5788 126.839C36.1359 126.449 36.6104 125.976 37.0019 125.415C37.4 125.389 37.7995 125.413 38.2004 125.49C38.2004 125.34 38.2004 125.19 38.2004 125.04C38.599 124.653 39.0983 124.403 39.6984 124.29C39.8196 124.055 39.8697 123.805 39.8482 123.541C40.3137 123.563 40.7631 123.488 41.1965 123.316C41.7798 122.671 42.3791 122.046 42.9942 121.442C43.1964 121.659 43.446 121.76 43.7432 121.742C43.7432 121.592 43.7432 121.442 43.7432 121.292C43.893 121.292 44.0428 121.292 44.1926 121.292C44.2389 120.397 44.6883 120.046 45.5409 120.242C45.7961 119.89 46.1456 119.74 46.5895 119.792C46.5158 119.224 46.6406 119.124 46.964 119.493C47.1113 119.2 47.2861 118.926 47.4883 118.668C47.7319 118.698 47.9816 118.698 48.2374 118.668C48.437 118.368 48.6369 118.068 48.8366 117.768C49.3781 117.511 49.8774 117.185 50.3346 116.794C50.8921 117.07 51.2416 116.92 51.3833 116.344C51.8646 116.26 52.314 116.085 52.7315 115.819C53.0001 115.4 53.3247 115.025 53.7053 114.695C53.878 114.995 54.1027 115.044 54.3794 114.845C54.634 114.609 54.8339 114.335 54.9786 114.02C55.3303 113.968 55.6049 113.793 55.8025 113.496C56.1499 113.861 56.5244 113.885 56.9261 113.57C57.5635 112.852 58.2626 112.202 59.0233 111.621C60.2115 111.699 60.9605 111.149 61.2704 109.972C61.6165 109.898 61.966 109.873 62.3191 109.897C62.5111 109.214 62.8606 108.614 63.3677 108.098C63.5578 107.769 63.5578 107.444 63.3677 107.124C63.5269 106.945 63.7268 106.871 63.9669 106.899C63.8342 106.566 63.8342 106.241 63.9669 105.924C63.8411 105.749 63.7163 105.574 63.5924 105.399C63.5705 104.651 63.4456 103.926 63.2179 103.225C62.7727 102.904 62.3233 102.605 61.8696 102.326C61.3736 102.358 60.8743 102.358 60.3716 102.326C60.1157 102.02 59.8161 101.77 59.4728 101.576C58.5985 101.349 57.9492 100.849 57.5253 100.077C57.2838 99.969 57.0591 99.9939 56.8512 100.152C56.367 99.8486 55.8427 99.6237 55.2782 99.4773C54.9206 99.0485 54.671 98.5736 54.5292 98.0529C53.8525 97.9601 53.3033 97.6352 52.8813 97.0784C52.5188 96.9754 52.1942 97.0504 51.9076 97.3033C51.8667 97.0291 51.7418 96.8042 51.5331 96.6286C51.6585 96.4771 51.7083 96.3021 51.6829 96.1039C51.4848 96.0784 51.31 96.1283 51.1586 96.2538C50.79 96.0657 50.6152 95.7658 50.6342 95.3542C50.42 95.3424 50.2202 95.3923 50.035 95.5042C49.7612 95.31 49.4616 95.1601 49.1362 95.0544C48.6728 94.4061 48.1735 93.8064 47.6381 93.2553C47.3932 93.0782 47.1435 93.0782 46.8891 93.2553C46.5607 93.0515 46.311 92.7767 46.1401 92.4307C45.9981 92.3582 45.8483 92.3333 45.6907 92.3557C45.748 91.9116 45.5982 91.7617 45.2412 91.9059C45.1319 91.6299 45.032 91.3549 44.9416 91.0813C44.6243 91.0423 44.3748 90.8924 44.1926 90.6315C43.9511 90.5236 43.7264 90.5485 43.5185 90.7065C43.4722 90.5167 43.3973 90.3417 43.2938 90.1817C42.9972 89.8573 42.6477 89.6324 42.2451 89.5071C42.2451 89.2571 42.2451 89.0073 42.2451 88.7574C41.9415 88.7817 41.6419 88.7567 41.3463 88.6825C41.1137 88.2844 40.9388 87.8596 40.822 87.4081C40.6223 87.2082 40.4225 87.2082 40.2228 87.4081C40.1485 86.8518 39.8737 86.652 39.3988 86.8084C38.5045 86.6118 38.155 86.0622 38.3502 85.1591C38.0506 85.1591 37.751 85.1591 37.4514 85.1591C37.3132 84.7654 37.1634 84.3656 37.0019 83.9597C36.3459 83.6315 35.6968 83.3066 35.0545 82.9852C35.1544 82.8852 35.2542 82.7853 35.3541 82.6853C34.8531 82.4014 34.6533 81.9766 34.7549 81.4109C34.0316 81.5111 33.5572 81.2112 33.3317 80.5114C32.4127 79.9724 31.8633 79.1728 31.6839 78.1125C31.136 77.714 30.6366 77.2642 30.1858 76.7632C30.0092 76.2248 29.7346 75.75 29.3619 75.3389C29.4401 75.2548 29.49 75.1548 29.5117 75.039C29.2649 74.7711 28.9903 74.5961 28.6877 74.5143C28.6143 74.3204 28.5893 74.1204 28.6128 73.9146C28.4368 73.9474 28.287 73.8975 28.1634 73.7646C27.9216 72.9967 27.4722 72.3721 26.8152 71.8905C26.9675 71.7333 26.9925 71.5583 26.8901 71.3658C26.2152 70.7647 25.8158 70.0151 25.6916 69.1169C25.5318 69.0133 25.357 68.9383 25.1673 68.892C25.2358 68.8299 25.2858 68.7549 25.3171 68.6671C25.0036 68.3965 24.8288 68.0467 24.7928 67.6176C24.3453 67.5012 24.2205 67.2513 24.4183 66.8679C24.1807 66.6171 24.0808 66.3173 24.1187 65.9684C23.6658 66.0276 23.516 65.8777 23.6693 65.5186C23.4399 65.3517 23.2901 65.1268 23.2198 64.8439C23.1022 64.5755 23.1022 64.3256 23.2198 64.0943C22.7604 63.3664 22.3859 62.5917 22.0963 61.7704C22.2737 61.2362 22.1239 60.7864 21.6469 60.421C21.3567 59.5856 21.0321 58.761 20.6732 57.9472C20.8965 57.6441 20.8466 57.3943 20.5233 57.1976C20.6071 57.0889 20.657 56.964 20.6732 56.8228C20.4842 56.288 20.3593 55.7382 20.2986 55.1736C20.1238 54.9986 19.9491 54.8238 19.7743 54.6488C20.0407 54.3157 20.0657 53.9909 19.8492 53.6743C19.7384 52.826 19.6386 51.9764 19.5496 51.1255C19.4443 50.7837 19.2696 50.4838 19.0253 50.2259C19.2406 49.9979 19.3405 49.7229 19.3249 49.4013C19.1445 48.8499 19.1445 48.3001 19.3249 47.7521C19.0416 47.1544 19.0416 46.5296 19.3249 45.878C19.2463 45.7743 19.1463 45.6993 19.0253 45.6531C19.186 45.4657 19.186 45.2657 19.0253 45.0534C19.1592 44.8441 19.2591 44.6192 19.3249 44.3788C19.225 44.1288 19.1252 43.879 19.0253 43.6291C19.2148 42.763 19.4645 41.9133 19.7743 41.0803C19.7799 40.6082 19.73 40.1335 19.6245 39.656C19.7617 39.6 19.8867 39.525 19.999 39.4311C20.3833 38.4608 20.6829 37.4612 20.8979 36.4326C21.3745 36.0129 21.7242 35.5132 21.9465 34.9333C22.1237 35.1179 22.2984 35.1179 22.4708 34.9333C22.8008 34.6642 22.9755 34.3142 22.9951 33.8838C23.1027 34.0264 23.2275 34.0513 23.3696 33.9588C23.5749 33.7427 23.7247 33.4928 23.8191 33.2091C24.0286 33.1199 24.2283 33.145 24.4183 33.2841C24.6418 33.0358 24.8914 32.8109 25.1673 32.6094C25.471 32.5347 25.7706 32.5598 26.0661 32.6844C26.3676 32.4832 26.692 32.3332 27.0399 32.2346C28.0911 32.6619 29.1647 32.9868 30.2607 33.2091C30.7255 33.4012 31.1249 33.676 31.4591 34.0337C31.5591 33.9838 31.6588 33.9337 31.7588 33.8838C32.0164 34.7747 32.5407 34.9745 33.3317 34.4835C33.7435 34.8468 34.1929 35.1466 34.68 35.3831C34.9546 35.8329 35.2293 36.2826 35.5039 36.7324C35.9049 36.8185 36.3043 36.9185 36.7023 37.0323C36.8235 37.2678 36.8736 37.5178 36.8521 37.7819C37.5495 37.5276 37.949 37.7776 38.0506 38.5316C38.2004 38.5316 38.3502 38.5316 38.5 38.5316C38.4672 38.7077 38.5171 38.8577 38.6498 38.9813C39.6525 39.1343 40.3516 39.6841 40.7471 40.6306C41.7368 40.846 42.4358 41.4208 42.8444 42.3547C42.9864 42.4271 43.1362 42.452 43.2938 42.4297C43.2484 42.8927 43.4481 43.1424 43.893 43.1793C43.89 43.4257 43.9899 43.6255 44.1926 43.779C44.4828 43.8777 44.7574 43.9276 45.0165 43.929C45.4222 44.3333 45.6968 44.808 45.8405 45.3533C46.1992 45.4554 46.5487 45.5804 46.8891 45.7281C47.02 46.065 47.0701 46.4148 47.0389 46.7776C47.4074 46.8074 47.7569 46.9073 48.0875 47.0775C48.359 47.9494 48.9333 48.4991 49.8103 48.7267C49.8843 48.9716 49.9092 49.2216 49.8852 49.4763C50.6672 49.3886 51.1166 49.7384 51.2335 50.5258C51.7828 50.5757 52.0824 50.8756 52.1323 51.4254C52.6385 51.5156 52.9131 51.8155 52.9562 52.3249C53.4161 52.4443 53.6659 52.7441 53.7053 53.2245C53.9768 53.2615 54.2516 53.3115 54.5292 53.3744C54.651 53.5714 54.8008 53.7464 54.9786 53.8992C54.7972 54.066 54.7972 54.241 54.9786 54.4239C55.1697 54.5956 55.3694 54.5956 55.5778 54.4239C55.7105 54.5476 55.7604 54.6975 55.7276 54.8737C55.9257 54.8482 56.1005 54.8981 56.2519 55.0236C56.617 55.4548 56.8167 55.9547 56.8512 56.5229C57.2221 56.5631 57.5966 56.6132 57.9747 56.6728C58.0865 56.8582 58.1363 57.0582 58.1245 57.2726C58.4574 57.2243 58.7321 57.3243 58.9484 57.5724C59.2449 58.2405 59.6695 58.8153 60.2218 59.2966C60.0404 59.4635 60.0404 59.6384 60.2218 59.8213C60.5214 59.8713 60.821 59.9213 61.1206 59.9713C61.2003 60.4758 61.4751 60.8255 61.9446 61.0208C62.1454 61.3989 62.2702 61.7987 62.3191 62.2202C63.0173 62.12 63.3169 62.4199 63.2179 63.1197C63.6967 63.1796 64.1461 63.3295 64.5661 63.5695C64.7655 64.0611 65.0401 64.5609 65.3901 65.0688C65.5024 65.1627 65.6274 65.2376 65.7646 65.2937C65.659 65.5271 65.7587 65.702 66.0642 65.8184C66.152 65.7871 66.2269 65.737 66.2889 65.6685C67.0164 66.2972 67.6406 67.0218 68.1615 67.8425C68.3552 67.9159 68.555 67.941 68.7607 67.9174C68.9492 68.3963 69.0489 68.896 69.0603 69.4167C69.6514 69.4149 69.9012 69.7148 69.8093 70.3163C70.0307 70.277 70.2304 70.3269 70.4086 70.4662C70.4959 70.6914 70.6207 70.8913 70.7831 71.0659C70.833 71.016 70.883 70.9659 70.9329 70.916C71.0954 71.0349 71.2702 71.1349 71.4572 71.2159C71.7481 71.6514 72.0727 72.0513 72.4309 72.4153C72.6917 72.8364 72.8666 73.2862 72.9553 73.7646C73.1051 73.7646 73.2549 73.7646 73.4047 73.7646C73.2932 74.2819 73.4931 74.5317 74.0039 74.5143C73.8541 75.2639 74.1537 75.5638 74.9027 75.4138C74.8804 75.5716 74.9053 75.7215 74.9776 75.8636C75.6877 76.2404 76.0372 76.8401 76.0263 77.6627C76.3982 77.9098 76.6728 78.2347 76.8502 78.6373C77.09 78.6782 77.3147 78.7532 77.5243 78.8622C77.9787 79.3147 78.3032 79.8394 78.4981 80.4364C78.7135 80.4693 78.9132 80.5442 79.0973 80.6613C79.2934 81.4306 79.7179 82.0303 80.3706 82.4604C80.5703 83.0602 80.9698 83.46 81.5691 83.6599C81.7623 84.0035 82.012 84.3034 82.3181 84.5594C82.3904 84.7016 82.4153 84.8515 82.393 85.0092C82.9661 84.9788 83.5404 84.9788 84.1158 85.0092C84.4154 84.9092 84.715 84.8094 85.0146 84.7094C85.2916 84.8684 85.5912 84.9683 85.9134 85.0092C86.3103 84.814 86.7098 84.614 87.1119 84.4095C87.2458 83.7666 87.5205 83.1918 87.9358 82.6853C87.8751 82.5437 87.7752 82.4437 87.6362 82.3855C87.8201 82.2687 87.9699 82.1188 88.0856 81.9357C88.004 81.4579 87.9042 80.9831 87.786 80.5114C87.3968 79.7175 87.0223 78.9179 86.6624 78.1125C86.5883 77.8167 86.5633 77.5169 86.5875 77.213C86.3378 77.213 86.0882 77.213 85.8385 77.213C85.8545 76.8527 85.7047 76.5779 85.3891 76.3884C85.4847 76.1324 85.4847 75.8576 85.3891 75.5638C85.2393 75.5638 85.0895 75.5638 84.9397 75.5638C84.9632 75.3579 84.9382 75.1579 84.8648 74.9641C84.4814 74.7137 84.2319 74.3639 84.1158 73.9146C83.995 73.1343 83.7953 72.3847 83.5165 71.6656C83.3651 71.5401 83.1903 71.4902 82.9922 71.5157C82.9804 71.3013 83.0303 71.1013 83.142 70.916C82.9922 70.7161 82.8424 70.5161 82.6926 70.3163C82.7425 70.2163 82.7925 70.1164 82.8424 70.0164C82.4391 69.6094 82.2144 69.1097 82.1683 68.5172C82.0168 68.3917 81.842 68.3417 81.644 68.3672C81.5328 67.7432 81.333 67.1435 81.0447 66.5681C81.3105 66.0658 81.1607 65.816 80.5953 65.8184C80.4966 65.3754 80.4467 64.9256 80.4455 64.4691C80.1777 64.5118 79.9279 64.4619 79.6965 64.3192C79.7611 64.2003 79.8111 64.0752 79.8463 63.9443C79.6457 63.6437 79.3961 63.3938 79.0973 63.1947C79.3813 62.9236 79.4562 62.5987 79.322 62.2202C78.9722 61.2677 78.5228 60.3681 77.9737 59.5215C77.9105 58.8928 77.8356 58.2432 77.749 57.5724C77.5992 57.5724 77.4494 57.5724 77.2996 57.5724C77.3046 57.0723 77.2046 56.5974 77 56.1481C77.0837 56.0394 77.1336 55.9145 77.1498 55.7733C76.76 55.2926 76.5353 54.743 76.4757 54.1241C76.3509 53.9992 76.226 53.8741 76.1012 53.7492C76.2535 53.592 76.2785 53.417 76.1761 53.2245C75.7656 53.0034 75.6407 52.7035 75.8016 52.3249C75.5333 51.6504 75.3584 50.9508 75.2772 50.2259C75.1524 50.1011 75.0275 49.976 74.9027 49.8511C74.8826 49.6195 74.9327 49.3696 75.0525 49.1015C74.8059 48.8683 74.7561 48.6186 74.9027 48.3518C74.842 48.2102 74.7421 48.1102 74.6031 48.052C74.6813 47.9679 74.7312 47.8679 74.7529 47.7521C74.6281 47.3773 74.5032 47.0025 74.3784 46.6277C74.266 46.5338 74.1411 46.4589 74.0039 46.4028C74.3507 46.0316 74.3008 45.6818 73.8541 45.3533C73.9323 45.2692 73.9822 45.1692 74.0039 45.0534C73.9013 44.6344 73.8264 44.2096 73.7792 43.779C73.5486 43.6222 73.5238 43.4224 73.7043 43.1793C73.6267 42.7703 73.4769 42.3955 73.2549 42.0549C73.3088 41.8072 73.3587 41.5574 73.4047 41.3052C73.052 41.0986 73.052 40.8737 73.4047 40.6306C73.1653 39.1933 72.9656 37.7441 72.8054 36.2826C72.8818 35.8468 72.9818 35.4219 73.1051 35.0083C72.8153 34.6525 72.7654 34.2777 72.9553 33.8838C72.9412 33.5556 72.8412 33.2558 72.6556 32.9842C73.2053 32.7208 73.2053 32.421 72.6556 32.0847C73.005 31.7008 73.0549 31.276 72.8054 30.8103C73.1937 30.3825 73.1937 29.9578 72.8054 29.5359C72.9585 29.4079 73.0833 29.2579 73.18 29.0861C73.3886 27.7125 73.4884 26.3631 73.4796 25.0381C73.4047 24.9631 73.3298 24.8881 73.2549 24.8132C73.8797 24.5958 74.0795 24.1959 73.8541 23.6137C74.0882 23.0133 74.2879 22.3885 74.4533 21.7396C74.3887 21.6207 74.3387 21.4957 74.3035 21.3648C74.4867 21.1069 74.6365 20.8321 74.7529 20.5402C74.4825 20.1864 74.5574 19.9365 74.9776 19.7906C75.0801 19.5981 75.0551 19.4231 74.9027 19.2658C75.3479 19.0948 75.5977 18.7699 75.6517 18.2913C75.694 17.8781 75.694 17.4533 75.6517 17.0169C75.8916 16.976 76.1163 16.901 76.3259 16.792C76.3758 16.4922 76.4258 16.1923 76.4757 15.8924C76.8291 15.1602 77.2036 14.4354 77.5992 13.7185C77.4702 13.3705 77.62 13.1957 78.0486 13.1937C78.0486 13.0438 78.0486 12.8939 78.0486 12.744C78.2467 12.7694 78.4215 12.7195 78.573 12.594C78.8768 12.1348 79.1263 11.6351 79.322 11.0948C79.9759 10.9267 80.3504 10.5019 80.4455 9.82037C80.6903 9.7463 80.94 9.72141 81.1945 9.7454C81.183 9.29427 81.3827 8.96937 81.7938 8.77087C82.4357 9.0139 82.7353 8.78901 82.6926 8.09619C83.0187 8.10909 83.3183 8.20909 83.5914 8.39605C83.8256 8.1794 84.0253 7.92962 84.1907 7.64641C84.4146 7.73817 84.6643 7.73817 84.9397 7.64641C85.3732 7.81793 85.8226 7.96786 86.2879 8.09619C86.4547 8.75558 86.7791 8.90551 87.2617 8.54598C87.8715 8.88197 88.2959 9.38168 88.535 10.0453C88.7606 10.2322 88.9853 10.2322 89.2091 10.0453C89.4514 10.6786 89.8508 11.1783 90.4076 11.5445C90.7737 11.9191 90.9485 12.3688 90.9319 12.8939C91.1299 12.8684 91.3048 12.9183 91.4562 13.0438C91.9062 13.4435 92.2058 13.9432 92.3551 14.5431C92.5279 14.7295 92.7278 14.8794 92.9543 14.9929C92.9815 15.4016 93.0564 15.8014 93.179 16.1923C93.4453 16.2026 93.7199 16.2527 94.0029 16.3422C94.0766 16.4995 94.0518 16.6494 93.928 16.792C94.2326 17.0847 94.2825 17.4094 94.0778 17.7665C94.7629 18.4135 95.2373 19.1882 95.501 20.0904C96.152 20.5675 96.4765 21.2171 96.4747 22.0395C96.7626 22.2211 97.0372 22.4209 97.2986 22.6392C97.3515 22.8149 97.3266 22.9897 97.2237 23.164C97.3496 23.3395 97.4744 23.5145 97.5982 23.6887C97.7639 24.334 97.9137 24.9836 98.0477 25.6378C98.1991 25.7633 98.3739 25.8132 98.572 25.7877C98.5648 26.2063 98.7645 26.4811 99.1712 26.6123C99.0103 26.7231 98.9104 26.873 98.8716 27.0621C99.1519 27.3975 99.3766 27.7723 99.5457 28.1865C100.087 30.1076 100.736 31.9568 101.493 33.7339C101.696 33.9616 101.92 34.1615 102.167 34.3336C102.067 34.4835 101.968 34.6334 101.868 34.7834C102.112 35.2475 102.412 35.6724 102.767 36.0578C102.675 36.2272 102.675 36.427 102.767 36.6575C102.915 36.9458 103.09 37.2206 103.291 37.4821C103.533 38.331 103.608 39.1805 103.516 40.0308C103.665 40.0308 103.815 40.0308 103.965 40.0308C103.83 40.5917 104.03 40.8916 104.564 40.9304C104.629 41.5274 104.778 42.1021 105.014 42.6546C104.978 42.7855 104.928 42.9105 104.864 43.0294C104.971 43.3706 105.046 43.7204 105.089 44.0789C105.195 44.2997 105.37 44.3997 105.613 44.3788C105.588 44.9308 105.613 45.4804 105.688 46.028C105.765 46.331 105.939 46.5559 106.212 46.7026C106.054 46.9107 106.029 47.1356 106.137 47.3773C106.464 48.2145 106.863 49.0142 107.336 49.7762C107.499 50.6961 107.699 51.5957 107.935 52.4749C108.231 52.6312 108.306 52.8312 108.16 53.0746C108.231 53.2212 108.331 53.3461 108.459 53.4494C108.301 53.6575 108.276 53.8824 108.384 54.1241C108.72 54.9725 109.144 55.8472 109.658 56.7478C109.586 57.1264 109.586 57.4763 109.658 57.7973C110.235 59.2591 110.784 60.7584 111.305 62.2951C111.256 62.3451 111.206 62.3951 111.156 62.4451C111.726 62.908 111.926 63.4827 111.755 64.1692C111.989 64.8349 112.189 65.5096 112.354 66.1933C112.522 66.6072 112.747 66.982 113.028 67.3177C113.115 67.5991 113.09 67.8741 112.953 68.1423C113.016 68.4551 113.191 68.68 113.478 68.817C113.512 69.7068 113.713 70.5565 114.077 71.3658C114.376 71.4658 114.576 71.6656 114.676 71.9655C114.761 72.3655 114.836 72.7652 114.901 73.1649C115.122 73.1256 115.322 73.1756 115.5 73.3148C116.026 74.4526 116.875 74.8026 118.047 74.3643C118.415 74.4865 118.764 74.6365 119.095 74.8141C119.253 74.7871 119.402 74.7372 119.545 74.6642C119.725 74.9336 119.973 75.0835 120.294 75.114C120.294 74.9641 120.294 74.8141 120.294 74.6642Z" fill="var(--fill-0, #A7C2E6)"/>
</g>
</svg>
