<svg preserveAspectRatio="none" width="100%" height="100%" overflow="visible" style="display: block;" viewBox="0 0 28.187 22.8723" fill="none" xmlns="http://www.w3.org/2000/svg">
<g id="Group">
<path id="Vector" fill-rule="evenodd" clip-rule="evenodd" d="M22.9438 0C23.2943 0.0878578 23.6194 0.237786 23.9175 0.449784C24.0014 0.371521 24.1018 0.321595 24.2171 0.299856C24.7654 0.528046 25.3407 0.652936 25.9399 0.674676C26.4223 0.920108 26.9211 1.11996 27.4379 1.27439C27.5623 1.39928 27.6881 1.52432 27.8124 1.64921C27.9817 2.31219 28.1061 2.98686 28.187 3.67323C27.8724 4.37775 27.6222 5.1025 27.4379 5.84719C27.5503 6.0325 27.5997 6.2325 27.5877 6.4469C27.1653 6.45275 26.7653 6.5526 26.3893 6.74676C26.2155 7.0733 26.0163 7.37315 25.7901 7.64632C25.4081 7.23387 25.2583 7.33387 25.3407 7.94618C25.0485 7.98711 24.8238 7.88726 24.6665 7.64632C24.6066 8.2072 24.331 8.35713 23.8426 8.09611C23.2644 8.34964 22.8659 8.77438 22.6442 9.37049C22.5018 9.463 22.3775 9.43811 22.2696 9.29553C22.1828 9.68894 21.9835 9.78894 21.6704 9.59539C21.6 9.80993 21.4757 9.98475 21.2959 10.1201C20.7836 10.2985 20.3342 10.5735 19.9477 10.9447C19.6151 10.6276 19.2903 10.6777 18.9739 11.0947C18.8428 11.7552 18.4683 12.0052 17.8504 11.8443C17.7389 12.0678 17.6392 12.2927 17.5508 12.519C17.0067 12.6945 16.5072 12.9194 16.0527 13.1937C16.0006 13.8649 15.701 13.9649 15.1539 13.4935C15.0041 13.5685 14.8543 13.6434 14.7045 13.7184C14.4064 14.1658 14.0817 14.5907 13.7307 14.9928C13.6573 15.1866 13.6323 15.3867 13.6558 15.5925C13.506 15.5925 13.3562 15.5925 13.2064 15.5925C13.2283 15.9586 13.1035 16.0586 12.8319 15.8924C12.7595 16.0345 12.7347 16.1844 12.757 16.3421C12.4574 16.3921 12.1578 16.4421 11.8582 16.4921C11.9584 17.1182 11.7337 17.318 11.184 17.0918C10.9312 17.2155 10.9062 17.3654 11.1091 17.5416C10.9855 17.6744 10.8357 17.7243 10.6597 17.6915C10.7024 18.2219 10.4527 18.4968 9.91069 18.5161C9.80418 18.7043 9.67939 18.8791 9.53618 19.0408C9.48629 18.9909 9.43626 18.9408 9.38637 18.8909C9.22548 19.0585 9.05081 19.2085 8.86206 19.3407C8.9792 19.6149 8.87943 19.8398 8.56244 20.0154C8.4053 20.0891 8.25549 20.0643 8.11303 19.9404C7.59545 20.6593 6.94619 21.2091 6.16556 21.5896C5.87179 21.852 5.6721 22.1769 5.56634 22.5642C3.95443 23.0201 2.30657 22.9702 0.622756 22.4142C0.0425593 21.6968 -0.132264 20.8722 0.0984367 19.9404C0.210791 19.8466 0.335729 19.7716 0.47295 19.7155C0.305618 19.2548 0.2806 18.78 0.398048 18.2912C0.618411 17.6686 0.967907 17.1188 1.44669 16.642C1.7463 16.4421 2.04591 16.2421 2.34552 16.0423C2.47091 15.6909 2.67075 15.391 2.94474 15.1427C3.01814 14.9489 3.04316 14.7489 3.01964 14.543C3.16945 14.543 3.31925 14.543 3.46906 14.543C3.46906 14.3931 3.46906 14.2432 3.46906 14.0932C3.62665 14.1156 3.77646 14.0907 3.91848 14.0183C3.77496 13.8463 3.82485 13.6964 4.06828 13.5685C4.72023 13.3286 5.29459 12.9538 5.79104 12.444C5.86445 12.2502 5.88947 12.0502 5.86595 11.8443C6.1338 11.887 6.38352 11.8371 6.61497 11.6944C6.8996 11.3767 7.14918 11.0267 7.364 10.6449C8.58731 10.2459 9.46113 9.44621 9.9856 8.24604C10.0855 8.34604 10.1853 8.44589 10.2852 8.54589C11.3389 7.9093 12.2129 7.08469 12.9068 6.07208C13.0992 5.96953 13.274 5.99457 13.4311 6.14704C13.5375 5.9262 13.7122 5.8262 13.9554 5.84719C14.0922 5.49711 14.2921 5.17236 14.5547 4.87266C14.8895 4.86261 15.2141 4.93758 15.5284 5.09755C15.7416 4.82093 15.9164 4.52108 16.0527 4.19798C16.9035 3.72481 17.8023 3.34999 18.7492 3.07352C18.6993 3.0236 18.6493 2.97352 18.5994 2.92359C18.8592 2.66362 19.1588 2.46362 19.4982 2.32388C19.5926 2.04022 19.7424 1.79029 19.9477 1.57424C20.418 1.57259 20.9184 1.52267 21.4457 1.42432C21.6944 1.20782 21.7933 0.932851 21.7453 0.599712C21.9431 0.574224 22.1183 0.62415 22.2696 0.74964C22.7325 0.705711 22.9573 0.455931 22.9438 0Z" fill="var(--fill-0, #A7C2E6)"/>
</g>
</svg>
