<svg preserveAspectRatio="none" width="100%" height="100%" overflow="visible" style="display: block;" viewBox="0 0 37.6012 29.086" fill="none" xmlns="http://www.w3.org/2000/svg">
<g id="Group">
<path id="Vector" fill-rule="evenodd" clip-rule="evenodd" d="M8.98833 10.9447C9.47864 11.405 9.77825 11.9298 9.88716 12.519C10.1683 13.0842 10.4684 13.6344 10.786 14.1682C10.7246 14.3106 10.6257 14.4096 10.4864 14.468C10.5358 14.9178 10.786 15.1682 11.2354 15.2177C11.1111 15.5295 11.1111 15.8549 11.2354 16.1922C11.3927 16.1697 11.5425 16.1952 11.6848 16.2672C11.8346 16.5176 11.9844 16.7664 12.1342 17.0168C12.0339 17.1173 11.935 17.2162 11.8346 17.3167C12.2346 17.8159 12.6331 18.3167 13.0331 18.816C12.9072 18.9674 12.8578 19.1428 12.8833 19.3407C13.0331 19.3407 13.1829 19.3407 13.3327 19.3407C13.5664 19.9584 13.7911 20.5086 14.0068 20.9899C14.1596 21.1593 14.2585 21.1099 14.3064 20.84C14.278 21.2958 14.4772 21.5461 14.9056 21.5896C15.5094 21.3887 16.1325 21.2628 16.7782 21.2148C17.1318 20.9794 17.3055 20.705 17.3025 20.3902C17.4329 20.4262 17.5587 20.4757 17.677 20.5401C17.9542 20.2268 18.3032 20.0259 18.7257 19.9404C19.0163 19.6166 19.1167 19.2657 19.0253 18.8909C19.3099 18.7815 19.6095 18.7815 19.9241 18.8909C19.9002 18.6855 19.9256 18.4846 19.999 18.2912C20.3121 18.4846 20.5114 18.3842 20.5983 17.9913C20.6477 18.0408 20.6986 18.0918 20.7481 18.1413C20.9473 17.8174 21.172 17.5176 21.4222 17.2417C21.7113 16.9808 21.7622 16.7065 21.572 16.4171C21.8042 16.2357 21.9795 16.0108 22.0963 15.7424C22.1967 15.8429 22.2955 15.9418 22.3959 16.0423C22.5472 15.9703 22.7225 15.9448 22.9202 15.9673C23.1195 15.7169 23.1195 15.4681 22.9202 15.2177C23.0581 15.1757 23.1569 15.1007 23.2198 14.9928C23.4191 14.9433 23.4191 14.8923 23.2198 14.8429C23.2903 14.5115 23.4401 14.2117 23.6693 13.9433C23.903 14.0707 24.1277 14.0198 24.3434 13.7934C24.4932 13.3436 24.643 12.8938 24.7928 12.444C24.9441 12.3721 25.1194 12.3466 25.3171 12.3691C25.4175 12.0692 25.6167 11.8698 25.9163 11.7693C25.7486 11.7319 25.5988 11.6569 25.4669 11.5444C25.7066 11.528 25.9553 11.4785 26.216 11.3945C26.2894 10.9492 26.5141 10.5999 26.8901 10.345C27.0594 9.90274 27.1837 9.45295 27.2646 8.99567C27.7979 9.03016 27.8473 8.90422 27.4144 8.62086C27.6316 8.03464 27.8054 8.01065 27.9387 8.54589C28.0046 8.309 28.129 8.1096 28.3132 7.94618C28.2009 7.76027 28.1514 7.56086 28.1634 7.34647C28.7162 7.24302 28.866 6.94316 28.6128 6.4469C28.9184 6.49938 29.1926 6.49938 29.4368 6.4469C29.4398 6.15604 29.4143 5.85618 29.3619 5.54733C29.8562 4.89215 30.1304 4.14251 30.1858 3.29841C30.421 3.38237 30.6202 3.28192 30.785 2.99856C31.3228 1.56975 32.1707 0.620702 33.3317 0.149928C33.5954 0.221893 33.8455 0.320846 34.0807 0.449784C34.1302 0.349332 34.1811 0.25038 34.2305 0.149928C34.7624 0.259375 35.2867 0.310351 35.8035 0.299856C36.0432 0.535243 36.3428 0.635694 36.7023 0.599712C36.6874 1.22041 36.8866 1.74516 37.3016 2.17395C37.2401 2.31639 37.1413 2.41534 37.0019 2.47381C37.2671 2.78866 37.4663 3.13799 37.6012 3.52331C37.327 3.66274 37.2761 3.83666 37.4514 4.04805C37.3016 4.14851 37.1518 4.24746 37.0019 4.34791C37.1562 4.31792 37.3061 4.39289 37.4514 4.5728C37.309 4.64477 37.1592 4.67025 37.0019 4.64777C37.0514 4.94762 37.1023 5.24748 37.1518 5.54733C36.7473 5.52934 36.6469 5.67927 36.8521 5.99712C36.5825 6.4424 36.4836 6.89219 36.5525 7.34647C36.3413 7.74678 36.1406 8.17107 35.9533 8.62086C36.1406 8.84425 36.1406 9.06914 35.9533 9.29553C35.7106 9.1486 35.5099 9.22357 35.3541 9.52042C35.4754 9.5669 35.5743 9.64186 35.6537 9.74531C35.4005 9.89824 35.2013 10.0976 35.0545 10.345C35.2567 10.8443 35.0575 11.0437 34.4553 10.9447C34.2995 11.7049 34.1002 12.4545 33.856 13.1937C33.6703 12.6224 33.5714 12.6224 33.5564 13.1937C33.3587 13.1682 33.1834 13.2176 33.0321 13.3436C32.6905 14.1247 32.2651 14.8489 31.7588 15.5175C31.8082 15.567 31.8591 15.618 31.9086 15.6675C31.7588 15.8174 31.609 15.9673 31.4591 16.1173C31.5805 16.1637 31.6794 16.2387 31.7588 16.3421C31.609 16.4921 31.4591 16.642 31.3093 16.7919C31.221 16.7604 31.1461 16.711 31.0846 16.642C30.9378 16.8639 30.7626 17.0633 30.5603 17.2417C30.7146 17.2117 30.8644 17.2867 31.0097 17.4666C30.8494 17.6585 30.6487 17.7095 30.4105 17.6165C30.4629 17.8609 30.4629 18.1353 30.4105 18.4411C29.9281 18.2837 29.4787 18.3827 29.0623 18.741C29.0293 19.1863 28.8046 19.5866 28.3881 19.9404C28.2174 20.3302 28.093 20.729 28.0136 21.1398C27.7455 21.0964 27.4968 21.1473 27.2646 21.2898C27.0923 21.5371 26.8931 21.762 26.6654 21.9644C26.7343 22.0259 26.7837 22.1009 26.8152 22.1893C26.3388 22.2943 26.1141 22.5941 26.1411 23.0889C25.8834 23.1579 25.6092 23.1834 25.3171 23.1639C24.9636 23.5402 24.7134 23.9645 24.5681 24.4383C24.4183 24.4383 24.2685 24.4383 24.1187 24.4383C24.1411 24.5957 24.1157 24.7456 24.0438 24.888C23.7412 24.7771 23.5165 24.903 23.3697 25.2629C23.5509 25.3963 23.5509 25.5222 23.3697 25.6377C23.2573 25.5057 23.1824 25.3558 23.1449 25.1879C22.7015 25.5417 22.2266 25.8671 21.7218 26.1624C21.2948 26.4908 20.9952 26.9151 20.823 27.4368C20.7031 27.3678 20.6537 27.2689 20.6732 27.137C20.1593 27.3184 19.6605 27.5433 19.1751 27.8116C19.0717 27.9721 18.9968 28.146 18.9504 28.3364C18.847 28.2074 18.7227 28.1085 18.5759 28.0365C18.1594 28.2809 17.71 28.3814 17.2276 28.3364C17.0598 28.1475 16.9595 28.1984 16.928 28.4863C16.8306 28.4413 16.7303 28.3903 16.6284 28.3364C16.3063 28.5478 15.9812 28.7472 15.6547 28.9361C15.3026 28.5298 15.003 28.5793 14.7558 29.086C14.654 28.8941 14.6779 28.7187 14.8307 28.5613C14.6015 28.4863 14.3768 28.5118 14.1566 28.6362C14.0143 28.5583 13.89 28.4578 13.7821 28.3364C13.5095 28.5238 13.2098 28.6227 12.8833 28.6362C12.8833 28.4863 12.8833 28.3364 12.8833 28.1864C12.4848 28.0875 12.1357 27.8881 11.8346 27.5867C11.5845 27.6872 11.3358 27.7861 11.0856 27.8866C10.5268 26.8026 9.72867 25.9285 8.68872 25.2629C8.44978 25.3558 8.25009 25.3048 8.08949 25.1129C8.18941 25.0125 8.28919 24.9135 8.38911 24.8131C8.07391 24.5072 7.89909 24.1324 7.86479 23.6886C7.75723 23.831 7.63244 23.8565 7.49027 23.7636C7.48922 23.4457 7.3144 23.1714 6.96595 22.939C6.87352 22.7965 6.89839 22.6721 7.04086 22.5642C6.69391 22.2178 6.49407 21.7935 6.44163 21.2898C6.13768 21.4592 6.08764 21.3842 6.29183 21.0649C6.0096 20.726 5.70998 20.4007 5.393 20.0903C5.46445 19.9434 5.56422 19.819 5.69261 19.7155C5.24619 19.2762 4.89669 18.8504 4.64397 18.4411C4.67528 18.3527 4.72531 18.2777 4.79377 18.2162C4.40713 18.0213 4.30721 17.747 4.49416 17.3916C4.13163 17.0303 3.95681 16.5805 3.96984 16.0423C3.5832 15.7484 3.40837 15.3991 3.44553 14.9928C3.19116 14.1337 2.84166 13.4335 2.39689 12.8938C2.54759 12.1142 2.29802 11.489 1.64786 11.0197C1.69775 10.9702 1.74778 10.9192 1.79767 10.8698C1.68321 10.5594 1.60831 10.2341 1.57296 9.89524C1.4618 9.26405 1.23709 8.64035 0.898833 8.02114C0.91621 7.83073 0.966095 7.63133 1.04864 7.42143C0.906473 7.32848 0.781685 7.35396 0.674125 7.4964C0.35444 7.18455 0.379307 6.91018 0.749027 6.67179C0.590234 6.26099 0.465296 5.83669 0.374514 5.3974C0.276541 5.57732 0.201638 5.57732 0.149805 5.3974C0.388745 4.91164 0.33886 4.46185 0 4.04805C0.134375 4.02257 0.284181 3.97309 0.449416 3.89813C0.491811 3.21296 0.791422 2.61324 1.34825 2.09899C1.27814 1.85461 1.12833 1.67919 0.898833 1.57424C1.04265 1.36135 1.16743 1.13645 1.27335 0.899567C1.33537 0.968534 1.41027 1.01801 1.49805 1.0495C1.74958 0.809611 2.04919 0.709159 2.39689 0.74964C2.43808 0.410802 2.58789 0.361326 2.8463 0.599712C2.95072 0.317847 3.10052 0.266872 3.29572 0.449784C3.79892 0.223393 4.32324 0.0734647 4.86868 0C5.30266 0.100452 5.65216 0.25038 5.91732 0.449784C6.30426 1.14245 6.42905 1.8666 6.29183 2.62374C6.51953 3.13949 6.76926 3.64025 7.04086 4.12302C6.96266 4.46635 7.06258 4.7917 7.34047 5.09755C7.30916 5.18601 7.25912 5.26097 7.19066 5.32244C7.55664 5.69426 7.65656 6.11856 7.49027 6.59683C7.71573 6.79773 7.81565 7.04811 7.78988 7.34647C7.94748 7.32398 8.09728 7.34947 8.2393 7.42143C7.98298 7.59085 7.90808 7.81574 8.01459 8.09611C8.21893 7.98216 8.39375 8.05713 8.53891 8.321C8.46071 8.40496 8.41083 8.50541 8.38911 8.62086C8.56438 8.85924 8.71418 9.10812 8.83852 9.37049C8.71883 9.63287 8.81875 9.83227 9.13813 9.97021C9.12944 10.3045 9.07941 10.6299 8.98833 10.9447Z" fill="var(--fill-0, #A7C2E6)"/>
</g>
</svg>
