<svg preserveAspectRatio="none" width="100%" height="100%" overflow="visible" style="display: block;" viewBox="0 0 7.39179 7.12795" fill="none" xmlns="http://www.w3.org/2000/svg">
<g id="Group">
<path id="Vector" fill-rule="evenodd" clip-rule="evenodd" d="M5.89345 1.09738C6.0303 1.08172 6.16415 1.09838 6.29301 1.14726C6.05427 1.21619 6.05427 1.31596 6.29301 1.44654C6.49978 1.51508 6.69956 1.49842 6.89234 1.39666C7.0162 1.547 6.98324 1.66343 6.79245 1.74583C7.00622 1.95194 7.07314 2.18478 6.99223 2.44416C7.03119 2.7216 7.16504 2.93768 7.39179 3.09261C7.31287 3.29094 7.196 3.32416 7.04218 3.19237C7.04417 3.35269 7.06115 3.51899 7.09212 3.69118C7.19201 3.68819 7.25794 3.73807 7.2919 3.84082C7.04717 4.36268 6.86337 4.91137 6.74251 5.48689C6.67558 5.61987 6.60966 5.61987 6.54273 5.48689C6.31798 5.73799 6.13418 5.97074 5.99334 6.18522C5.52286 6.47194 5.05638 6.738 4.59489 6.98332C4.26826 6.97693 3.93563 6.97693 3.596 6.98332C3.38923 7.17616 3.15549 7.17616 2.89678 6.98332C2.70499 7.05794 2.50522 7.05794 2.29745 6.98332C1.92986 6.86091 1.59723 6.66139 1.29856 6.38475C1.01188 6.10501 0.72919 5.80573 0.449501 5.48689C0.37758 5.12326 0.327636 4.75743 0.299667 4.38951C0.211765 4.40258 0.145838 4.36936 0.099889 4.28975C0.22475 4.14001 0.324639 3.97371 0.399556 3.79094C0.232741 3.69118 0.099889 3.5582 0 3.3919C0.0529412 3.32286 0.118868 3.27298 0.199778 3.24225C0.166815 3.20903 0.132852 3.17571 0.099889 3.14249C0.228746 3.09361 0.362597 3.07695 0.499445 3.09261C0.516426 2.89389 0.449501 2.72768 0.299667 2.5938C0.311654 2.53325 0.345616 2.50003 0.399556 2.49404C0.647281 2.28734 0.863041 1.98805 1.04883 1.59619C1.13873 1.47637 1.2556 1.39317 1.39845 1.34678C1.36548 1.31356 1.33152 1.28024 1.29856 1.24702C1.35749 1.09648 1.42442 0.946838 1.49834 0.798093C1.88291 0.955018 2.11565 0.822036 2.19756 0.399047C2.5202 0.526941 2.81987 0.47706 3.09656 0.249404C2.97569 0.160317 2.97569 0.0772155 3.09656 0C3.44317 0.227357 3.82575 0.360339 4.24528 0.399047C4.44107 0.286815 4.62486 0.153733 4.79467 0C4.91754 0.114826 4.91754 0.231148 4.79467 0.349166C5.11632 0.592484 5.48291 0.758787 5.89345 0.847974C6.00333 0.924791 6.00333 1.00789 5.89345 1.09738Z" fill="var(--fill-0, #830B0D)"/>
</g>
</svg>
