<svg preserveAspectRatio="none" width="100%" height="100%" overflow="visible" style="display: block;" viewBox="0 0 7.2919 7.0831" fill="none" xmlns="http://www.w3.org/2000/svg">
<g id="Group">
<path id="Vector" fill-rule="evenodd" clip-rule="evenodd" d="M5.09434 6.78379C4.81665 6.72404 4.54994 6.79058 4.29523 6.98332C4.20333 6.92077 4.10344 6.88745 3.99556 6.88355C3.86271 7.14962 3.72886 7.14962 3.596 6.88355C3.45816 7.00387 3.34129 6.97065 3.24639 6.78379C3.0636 6.89972 2.89778 6.8664 2.74695 6.68403C2.60311 6.74868 2.45327 6.7819 2.29745 6.78379C1.95683 6.67605 1.75705 6.44321 1.69811 6.08546C1.43441 5.91128 1.15172 5.74497 0.849057 5.58665C0.808102 5.63224 0.758158 5.66556 0.699223 5.68641C0.624306 5.50365 0.524417 5.33735 0.399556 5.18761C0.420533 5.12915 0.453496 5.07927 0.499445 5.03796C0.301665 4.71773 0.235738 4.38522 0.299667 4.04035C0.202775 3.92023 0.102886 3.87035 0 3.8907C0.090899 3.63561 0.190788 3.38621 0.299667 3.14249C0.175805 3.15017 0.0759156 3.13361 0 3.09261C0.261709 2.7227 0.428524 2.32365 0.499445 1.89547C0.762153 1.53463 1.09478 1.23535 1.49834 0.997617C1.3475 0.764374 1.38047 0.697933 1.59822 0.798093C1.71609 0.643862 1.81598 0.477559 1.89789 0.299285C2.20655 0.323228 2.50622 0.323228 2.79689 0.299285C3.06459 0.200421 3.3303 0.10066 3.596 0C3.8737 0.226958 4.17336 0.310159 4.49501 0.249404C4.54895 0.459802 4.64883 0.509682 4.79467 0.399047C5.04839 0.433365 5.26415 0.533126 5.44395 0.698332C5.48491 0.652741 5.53485 0.61942 5.59378 0.59857C5.88846 0.743723 6.13818 0.943247 6.34295 1.19714C6.42986 1.1737 6.51376 1.14038 6.59267 1.09738C6.70555 1.32613 6.8384 1.54232 6.99223 1.74583C6.95927 1.77905 6.9253 1.81237 6.89234 1.84559C6.96826 2.052 7.0182 2.26818 7.04217 2.49404C7.1061 2.60837 7.19001 2.70813 7.2919 2.79333C7.15904 2.92631 7.15904 3.05939 7.2919 3.19237C7.21498 3.31318 7.13108 3.31318 7.04217 3.19237C7.02519 3.24225 7.00921 3.29213 6.99223 3.34202C7.09312 3.45854 7.19301 3.57496 7.2919 3.69118C7.15904 3.75772 7.02519 3.82416 6.89234 3.8907C7.02519 3.92393 7.15904 3.95725 7.2919 3.99047C7.10311 4.07137 6.97025 4.20436 6.89234 4.38951C6.95927 4.42273 7.02519 4.45605 7.09212 4.48927C6.76249 5.01113 6.52875 5.57648 6.3929 6.18522C6.16615 6.08107 5.93341 6.06441 5.69367 6.13534C5.57481 6.43642 5.37503 6.65261 5.09434 6.78379Z" fill="var(--fill-0, #830B0D)"/>
</g>
</svg>
