<svg preserveAspectRatio="none" width="100%" height="100%" overflow="visible" style="display: block;" viewBox="0 0 5.59378 5.59607" fill="none" xmlns="http://www.w3.org/2000/svg">
<g id="Group">
<path id="Vector" fill-rule="evenodd" clip-rule="evenodd" d="M3.69589 0.0997616C3.93563 0.251699 4.20133 0.35146 4.49501 0.399047C4.8636 0.699628 5.11332 1.09868 5.24417 1.59619C5.71465 1.86654 5.69767 2.00022 5.19423 1.99523C5.24817 2.11994 5.31509 2.23566 5.39401 2.3444C5.36104 2.37732 5.32708 2.41124 5.29412 2.44416C5.38901 2.49205 5.4889 2.50901 5.59378 2.49404C5.5838 2.84021 5.48391 3.15646 5.29412 3.44178C5.3111 3.49166 5.32708 3.54154 5.34406 3.59142C5.43296 3.47071 5.51687 3.47071 5.59378 3.59142C5.4939 3.65826 5.39401 3.7241 5.29412 3.79094C5.34706 3.85978 5.41299 3.90966 5.4939 3.94059C5.30011 4.03137 5.20022 4.18101 5.19423 4.38951C4.84761 4.44638 4.58191 4.62994 4.39512 4.9382C4.42808 4.97112 4.46204 5.00504 4.49501 5.03796C4.27026 5.16566 4.07048 5.3153 3.89567 5.48689C3.73185 5.50784 3.58202 5.47492 3.44617 5.38713C3.40721 5.47991 3.34129 5.54575 3.24639 5.58665C2.99767 5.46095 2.74795 5.46095 2.49723 5.58665C2.38235 5.55473 2.29945 5.48889 2.2475 5.38713C2.10766 5.55573 1.92486 5.62257 1.69811 5.58665C1.54428 5.52081 1.37747 5.45397 1.19867 5.38713C1.01887 5.26742 0.918979 5.10181 0.899001 4.88832C0.7202 4.91725 0.554384 4.88333 0.399556 4.78856C0.452497 4.71972 0.518424 4.66984 0.599334 4.63892C0.301665 4.53117 0.167814 4.34861 0.199778 4.09023C0.112875 3.89769 0.0469478 3.69816 0 3.49166C0.124861 3.12154 0.124861 2.75542 0 2.39428C0.249723 1.60816 0.733185 0.943246 1.44839 0.399047C1.49634 0.304473 1.51332 0.204711 1.49834 0.0997616C1.7061 0.174383 1.90588 0.174383 2.09767 0.0997616C2.56115 0.349665 3.04362 0.316444 3.54606 0C3.58402 0.0554675 3.63396 0.0886881 3.69589 0.0997616Z" fill="var(--fill-0, #830B0D)"/>
</g>
</svg>
