<svg preserveAspectRatio="none" width="100%" height="100%" overflow="visible" style="display: block;" viewBox="0 0 22.7747 17.884" fill="none" xmlns="http://www.w3.org/2000/svg">
<g id="Group">
<path id="Vector" fill-rule="evenodd" clip-rule="evenodd" d="M9.68923 11.6988C9.94295 11.9023 10.1257 12.1686 10.2386 12.4969C10.2716 12.4639 10.3055 12.43 10.3385 12.3971C10.3895 12.6365 10.5053 12.7034 10.6881 12.5966C10.9978 13.3768 11.4473 13.4765 12.0366 12.8959C12.0186 12.5687 12.1685 12.3692 12.4861 12.2973C12.584 12.3452 12.6669 12.4111 12.7358 12.4969C12.9476 12.425 12.9976 12.3083 12.8857 12.1477C13.0855 12.0479 13.2852 11.9482 13.485 11.8484C13.4521 11.8155 13.4181 11.7816 13.3851 11.7486C13.7477 11.3197 14.1143 10.8867 14.4839 10.4517C14.374 10.3749 14.374 10.2921 14.4839 10.2023C14.6168 10.1694 14.6168 10.1355 14.4839 10.1026C14.6437 9.62572 14.9094 9.20971 15.283 8.85556C15.1881 8.78373 15.1711 8.70093 15.2331 8.60616C15.4159 8.48943 15.5657 8.33979 15.6826 8.15723C15.6496 8.12431 15.6156 8.09039 15.5827 8.05747C15.6686 7.85096 15.8024 7.68436 15.9822 7.55866C15.8804 7.45391 15.8644 7.33719 15.9323 7.20949C16.0562 7.29329 16.173 7.25937 16.2819 7.10973C16.4028 6.98802 16.4028 6.8713 16.2819 6.76057C16.4797 6.69971 16.5127 6.59995 16.3818 6.46128C16.7654 5.98941 17.065 5.47364 17.2808 4.91497C17.2478 4.84813 17.2139 4.78229 17.1809 4.71545C17.2558 4.69151 17.3387 4.65859 17.4306 4.61569C17.4256 4.30044 17.5415 4.05104 17.7802 3.86748C17.6684 3.84254 17.5685 3.79266 17.4806 3.71783C17.6594 3.63603 17.8252 3.53627 17.98 3.41855C17.9371 3.33974 17.9041 3.25594 17.8801 3.16915C18.1378 2.89879 18.2377 2.59951 18.1798 2.27129C18.2547 2.0987 18.3047 1.91514 18.3296 1.7226C18.8261 1.56099 19.2087 1.24474 19.4784 0.774865C19.6801 0.653156 19.8799 0.637194 20.0777 0.724984C20.4573 0.693061 20.8069 0.593299 21.1265 0.425699C21.2963 0.516483 21.4791 0.549404 21.6759 0.525461C21.7978 0.591304 21.9306 0.658144 22.0755 0.724984C22.1844 1.11904 22.3512 1.48517 22.5749 1.82236C22.542 1.8892 22.508 1.95505 22.475 2.02189C22.8956 2.37205 22.8626 2.65437 22.3751 2.86986C22.4311 2.90777 22.464 2.95765 22.475 3.0195C22.5799 3.00454 22.6798 3.0215 22.7747 3.06938C22.6269 3.16715 22.494 3.28387 22.3751 3.41855C22.2503 3.56919 22.2503 3.71883 22.3751 3.86748C22.1953 3.8994 22.1624 3.96524 22.2752 4.067C22.1634 4.17075 22.0295 4.23759 21.8757 4.26652C21.9776 4.3184 22.0435 4.4012 22.0755 4.51593C22.0575 4.77631 21.9576 4.99279 21.7758 5.16438C21.8867 5.34495 21.8198 5.42875 21.576 5.41378C21.579 5.62129 21.5121 5.80485 21.3762 5.96247C21.4691 6.00138 21.5351 6.06722 21.576 6.162C21.2354 6.44931 21.1016 6.79847 21.1765 7.20949C21.0576 7.31125 20.9577 7.42797 20.8768 7.55866C20.9787 7.66341 20.9947 7.78013 20.9267 7.90782C20.8938 7.8749 20.8598 7.84098 20.8269 7.80806C20.5811 8.0006 20.5651 8.18317 20.7769 8.35675C20.4403 8.37371 20.3404 8.52335 20.4772 8.80568C20.1366 9.08701 19.9538 9.45313 19.9279 9.90306C19.777 9.8003 19.6272 9.81627 19.4784 9.95294C19.5113 9.98586 19.5453 10.0198 19.5782 10.0527C19.3685 10.1864 19.3016 10.352 19.3785 10.5515C19.2246 10.76 19.1907 10.9755 19.2786 11.2C19.0948 11.2728 18.912 11.3396 18.7292 11.3995C18.6173 11.7896 18.5344 12.1886 18.4795 12.5966C18.2907 12.6884 18.1408 12.8221 18.03 12.9957C17.989 12.9498 17.9391 12.9169 17.8801 12.8959C17.7892 13.0845 17.6893 13.267 17.5805 13.4446C17.8582 13.6611 17.8412 13.711 17.5305 13.5942C17.2478 13.8476 16.9642 14.097 16.6815 14.3425C16.7624 14.3734 16.8283 14.4233 16.8812 14.4921C16.7614 14.536 16.6455 14.5689 16.5316 14.5919C16.4877 14.7495 16.4048 14.8822 16.2819 14.9909C16.3908 15.1016 16.3908 15.2014 16.2819 15.2902C16.213 15.2373 16.163 15.1715 16.1321 15.0907C15.9633 15.3161 15.8464 15.5655 15.7825 15.8389C15.5507 15.7621 15.3679 15.8459 15.2331 16.0883C15.2011 15.8818 15.1172 15.8489 14.9834 15.9885C14.7166 16.5482 14.2841 16.8973 13.6848 17.036C13.8127 17.1657 13.7967 17.2814 13.6348 17.3852C13.5959 17.2924 13.53 17.2266 13.4351 17.1857C13.1574 17.3153 12.8747 17.4321 12.586 17.5348C12.6699 17.6585 12.636 17.7753 12.4861 17.884C12.2194 17.5997 11.9198 17.466 11.5871 17.4849C11.5751 17.5937 11.5082 17.6595 11.3873 17.6845C11.0677 17.6555 10.768 17.5887 10.4883 17.4849C10.3125 17.5867 10.1467 17.5528 9.9889 17.3852C9.83307 17.4071 9.70022 17.474 9.58934 17.5847C9.50943 17.5388 9.47647 17.473 9.48946 17.3852C9.3576 17.3682 9.24073 17.4011 9.13984 17.4849C9.07192 17.3572 9.0879 17.2405 9.18979 17.1358C9.00699 17.0859 8.89012 16.9692 8.84018 16.7866C8.41765 17.1238 8.18391 17.024 8.14095 16.4873C8.00111 16.2848 7.83529 16.2519 7.64151 16.3876C7.58158 16.1172 7.43174 15.9177 7.19201 15.789C7.30289 15.6184 7.23596 15.5516 6.99223 15.5895C6.99223 15.4897 6.99223 15.3899 6.99223 15.2902C6.84439 15.3161 6.71154 15.2832 6.59267 15.1904C6.61365 15.1316 6.64661 15.0817 6.69256 15.0408C6.50477 14.8283 6.40488 14.5789 6.3929 14.2926C6.2101 14.3474 6.04329 14.3474 5.89345 14.2926C5.96038 14.2257 6.0263 14.1599 6.09323 14.093C5.98036 14.0172 5.86448 13.9504 5.74362 13.8935C5.68169 13.7988 5.69867 13.7159 5.79356 13.6441C5.38502 13.4775 5.26915 13.1952 5.44395 12.7961C5.34107 12.4779 5.12531 12.3442 4.79467 12.3971C4.72775 12.1647 4.66182 11.9312 4.59489 11.6988C4.498 11.4184 4.43108 11.1192 4.39512 10.8009C4.02653 10.7321 3.92664 10.5326 4.09545 10.2023C3.85172 10.2173 3.78479 10.1335 3.89567 9.95294C3.73485 9.81726 3.58502 9.66762 3.44617 9.50401C3.41321 9.53693 3.37925 9.57085 3.34628 9.60377C3.2394 9.24663 3.17247 8.8805 3.1465 8.50639C3.03463 8.2949 2.88479 8.11134 2.697 7.95771C2.92075 7.71528 2.85383 7.53272 2.49723 7.40902C2.21754 6.7027 1.91787 6.00437 1.59822 5.31402C1.55327 4.94191 1.37048 4.60871 1.04883 4.3164C0.981909 4.44909 0.915982 4.44909 0.849057 4.3164C0.84606 3.70187 0.629301 3.15318 0.199778 2.67034C0.464484 2.63941 0.530411 2.52269 0.399556 2.32117C0.466482 2.28825 0.532408 2.25433 0.599334 2.22141C0.521421 1.95704 0.371587 1.8902 0.149834 2.02189C0.099889 1.97201 0.0499445 1.92212 0 1.87224C0.132852 1.83932 0.266704 1.8054 0.399556 1.77248C0.366593 1.73956 0.33263 1.70564 0.299667 1.67272C0.495449 1.33054 0.679245 0.981372 0.849057 0.625223C1.23563 0.330926 1.65117 0.181283 2.09767 0.176295C2.30544 -0.101042 2.48824 -0.0511613 2.64706 0.325938C2.7869 0.157341 2.9697 0.0905002 3.19645 0.126414C3.19645 0.293016 3.19645 0.458621 3.19645 0.625223C3.77281 0.59729 4.17236 0.846694 4.39512 1.37344C4.82963 1.41534 4.8636 1.48218 4.49501 1.57296C4.72475 1.76051 4.84162 2.00991 4.84462 2.32117C4.93352 2.20046 5.01742 2.20046 5.09434 2.32117C5.0414 2.39001 4.97547 2.43989 4.89456 2.47081C5.1333 2.56858 5.24917 2.75114 5.24417 3.0195C5.3111 3.15219 5.37703 3.15219 5.44395 3.0195C5.48091 3.3986 5.63074 3.71384 5.89345 3.96724C5.85449 4.2765 5.95438 4.55883 6.19312 4.81521C6.16016 4.88205 6.12619 4.9479 6.09323 5.01474C6.31299 5.19431 6.42986 5.42675 6.44284 5.71307C6.5707 5.7011 6.68757 5.75098 6.79245 5.86271C6.55372 5.93155 6.55372 6.03131 6.79245 6.162C6.75949 6.19492 6.72553 6.22884 6.69256 6.26176C6.83241 6.38845 6.99922 6.43834 7.19201 6.4114C7.20599 6.57301 7.13907 6.68973 6.99223 6.76057C7.25394 6.81843 7.32087 6.95111 7.19201 7.15961C7.45172 7.53871 7.63552 7.95371 7.7414 8.40663C7.85128 8.59518 7.98413 8.66202 8.14095 8.60616C8.2838 8.82663 8.33374 9.04211 8.29079 9.25461C8.44562 9.45413 8.57847 9.66962 8.69034 9.90306C8.57947 10.0737 8.64639 10.1405 8.89012 10.1026C8.95705 10.3689 9.02297 10.6343 9.0899 10.9007C9.33363 10.8628 9.40055 10.9296 9.28968 11.1002C9.46748 11.2758 9.60033 11.4753 9.68923 11.6988ZM22.3751 2.42093C22.461 2.5167 22.528 2.5167 22.5749 2.42093C22.499 2.29424 22.4331 2.29424 22.3751 2.42093Z" fill="var(--fill-0, #830B0D)"/>
</g>
</svg>
