<svg preserveAspectRatio="none" width="100%" height="100%" overflow="visible" style="display: block;" viewBox="0 0 8.4721 9.47834" fill="none" xmlns="http://www.w3.org/2000/svg">
<g id="Group">
<path id="Vector" fill-rule="evenodd" clip-rule="evenodd" d="M7.52115 1.63717C7.55729 1.69921 7.61486 1.74229 7.69405 1.76642C7.59515 2.05249 7.71039 2.18174 8.03985 2.15417C8.07046 2.32995 8.07046 2.48763 8.03985 2.62809C8.18215 2.76164 8.21094 2.90554 8.1263 3.05892C8.30474 3.14681 8.33361 3.26141 8.21275 3.40359C8.24042 3.54576 8.32687 3.63193 8.4721 3.66209C8.3643 3.78789 8.3643 3.91714 8.4721 4.04984C8.37675 4.09292 8.2903 4.12136 8.21275 4.136C8.41954 4.31351 8.41954 4.50049 8.21275 4.69609C8.39914 4.84171 8.3847 5.00026 8.16953 5.17C8.16987 5.58705 8.06899 5.9748 7.86695 6.33326C7.9368 6.35997 7.99447 6.40305 8.03985 6.46251C7.97294 6.56677 7.90093 6.56677 7.82373 6.46251C7.58495 6.83044 7.41205 7.23284 7.30503 7.66884C7.20881 7.7731 7.10792 7.7731 7.00245 7.66884C6.87883 7.83169 6.73472 7.97473 6.5702 8.09967C6.46058 8.25477 6.40292 8.42711 6.3973 8.61667C6.21973 8.60547 6.07562 8.66234 5.96505 8.78901C5.97214 8.9398 5.90013 9.02597 5.74893 9.04751C5.17888 8.83554 4.73219 8.97944 4.40895 9.47834C4.33996 9.4387 4.31118 9.38183 4.3225 9.30601C4.14251 9.29567 4.01284 9.2095 3.93348 9.04751C3.89993 9.12764 3.84227 9.18451 3.76058 9.21984C3.60203 9.05268 3.42913 9.02338 3.24188 9.13367C3.17989 9.08714 3.13667 9.02941 3.1122 8.96134C2.90282 8.9398 2.70113 8.9398 2.50705 8.96134C2.09849 8.7959 1.7239 8.56584 1.3832 8.27201C1.45876 8.08158 1.40118 7.92389 1.2103 7.79809C1.23909 7.76965 1.26796 7.74036 1.29675 7.71192C1.07544 7.6921 0.931413 7.5775 0.8645 7.36726C0.732664 7.28023 0.588552 7.23714 0.43225 7.23801C0.426717 6.95624 0.426717 6.66931 0.43225 6.37634C0.375712 6.23675 0.332487 6.09371 0.302575 5.94551C0.273787 6.00324 0.244913 6.06011 0.216125 6.11784C0.147657 5.74301 0.0756438 5.3837 0 5.04075C0.0803985 4.93822 0.138061 4.82275 0.1729 4.69609C0.133911 4.32471 0.133911 3.93696 0.1729 3.53284C0.200045 3.2752 0.31537 3.07443 0.5187 2.92967C0.405364 2.86418 0.362139 2.77802 0.389025 2.67117C0.565556 2.73924 0.738456 2.70994 0.907725 2.585C1.16569 2.22396 1.26649 1.86465 1.2103 1.50792C1.30695 1.41572 1.3934 1.3149 1.46965 1.20633C1.67817 1.32007 1.87994 1.30543 2.0748 1.16325C2.04601 1.13482 2.01714 1.10552 1.98835 1.07708C2.0978 1.05037 2.19868 1.00729 2.29093 0.947834C2.35248 0.745342 2.45337 0.573009 2.5935 0.430834C2.92071 0.660899 3.22329 0.632464 3.50123 0.344667C3.53001 0.373102 3.55889 0.402399 3.58768 0.430834C3.71657 0.301584 3.87504 0.229204 4.06315 0.215417C3.95846 0.138728 3.95846 0.0663484 4.06315 0C4.15401 0.11891 4.26925 0.205077 4.40895 0.2585C4.56724 0.135282 4.74014 0.0921984 4.92765 0.12925C5.08689 0.244714 5.23092 0.373964 5.3599 0.517C5.41972 0.471332 5.46295 0.414462 5.48958 0.344667C5.54914 0.41877 5.62115 0.47564 5.7057 0.517C5.84981 0.402399 5.99384 0.402399 6.13795 0.517C6.2244 0.459269 6.31085 0.402399 6.3973 0.344667C6.47978 0.623847 6.65268 0.867699 6.916 1.07708C7.12063 1.10897 7.27909 1.20978 7.39148 1.37867C7.45822 1.3666 7.51588 1.33731 7.56438 1.2925C7.63051 1.42778 7.61607 1.54238 7.52115 1.63717Z" fill="var(--fill-0, #830B0D)"/>
</g>
</svg>
