<svg preserveAspectRatio="none" width="100%" height="100%" overflow="visible" style="display: block;" viewBox="0 0 7.00784 7.22458" fill="none" xmlns="http://www.w3.org/2000/svg">
<g id="Group">
<path id="Vector" fill-rule="evenodd" clip-rule="evenodd" d="M4.55148 0.0722458C4.59967 0.0722458 4.62373 0.0960869 4.62373 0.144492C4.84834 0.197953 5.04095 0.318604 5.20169 0.50572C5.37769 0.405299 5.4258 0.441422 5.34619 0.614089C5.75156 0.798316 6.00442 1.07502 6.10477 1.44492C6.17586 1.27947 6.23604 1.30331 6.28538 1.51716C6.24745 1.56701 6.19926 1.60313 6.14089 1.62553C6.22708 1.77219 6.34751 1.88056 6.50212 1.95064C6.55031 1.92679 6.59842 1.90223 6.64661 1.87839C6.78539 2.02071 6.78539 2.12908 6.64661 2.2035C6.73641 2.28658 6.80866 2.38339 6.86335 2.49248C6.79182 2.77207 6.79182 3.03721 6.86335 3.28718C6.91154 3.31102 6.95965 3.33559 7.00784 3.35943C6.93559 3.43167 6.86335 3.50392 6.7911 3.57617C6.86335 3.69682 6.93559 3.81674 7.00784 3.93739C6.68382 4.01903 6.6357 4.18736 6.86335 4.44311C6.75577 4.64179 6.65947 4.84625 6.57436 5.0572C6.6862 5.08032 6.73439 5.15257 6.71886 5.27394C6.57241 5.26238 6.42792 5.27394 6.28538 5.31006C6.35243 5.33824 6.40061 5.38592 6.42987 5.45456C6.32981 5.57015 6.2817 5.70236 6.28538 5.85191C6.18619 5.84035 6.08981 5.85263 5.9964 5.88803C5.97234 5.96028 5.94821 6.03252 5.92415 6.10477C5.73061 6.05203 5.59818 6.13656 5.5268 6.35763C5.50274 6.33379 5.47861 6.30922 5.45456 6.28538C5.31498 6.52957 5.13436 6.73475 4.91271 6.89947C4.94573 6.92909 4.96986 6.96521 4.98496 7.00784C4.86265 7.06058 4.75428 7.13282 4.65985 7.22458C4.58761 7.15233 4.51536 7.08008 4.44311 7.00784C4.36473 7.06491 4.28042 7.11332 4.19025 7.15233C4.10276 7.08803 4.00639 7.08803 3.90127 7.15233C3.81841 7.12921 3.75815 7.08153 3.72066 7.00784C3.4428 7.17617 3.15382 7.17617 2.85371 7.00784C2.82965 7.03168 2.80552 7.05624 2.78146 7.08008C2.76347 6.99917 2.72735 6.92692 2.67309 6.86335C2.58669 6.88863 2.58669 6.92476 2.67309 6.97172C2.53012 7.02084 2.40969 6.98472 2.31186 6.86335C2.2217 6.90236 2.13739 6.95076 2.059 7.00784C1.98452 6.74775 1.82796 6.67551 1.58941 6.7911C1.5254 6.73186 1.50134 6.65961 1.51716 6.57436C1.37361 6.52668 1.25317 6.44215 1.15593 6.3215C1.17999 6.29766 1.20412 6.2731 1.22818 6.24926C1.09452 6.19941 0.998147 6.11488 0.939195 5.9964C0.763349 5.72403 0.606864 5.41121 0.469597 5.0572C0.44554 5.08104 0.42141 5.10561 0.397352 5.12945C0.32265 4.85997 0.238339 4.57099 0.144492 4.2625C0.419025 4.23938 0.431018 4.16714 0.180614 4.04576C0.128742 4.1144 0.0685612 4.12668 0 4.08189C0.0775197 3.99158 0.0775197 3.89549 0 3.7929C0.084672 3.56822 0.205033 3.42373 0.361229 3.35943C0.29274 3.32475 0.220494 3.31247 0.144492 3.32331C0.143047 3.20482 0.191235 3.10801 0.288983 3.03432C0.190946 2.68537 0.239133 2.36027 0.433475 2.059C0.3751 2.03661 0.326912 2.00049 0.288983 1.95064C0.49445 1.94991 0.675064 1.85383 0.830826 1.66165C0.909574 1.35244 1.03001 1.06346 1.19206 0.794703C1.23258 0.832271 1.28077 0.856835 1.33655 0.866949C1.45192 0.76725 1.58435 0.718845 1.7339 0.722458C1.7339 0.650212 1.7339 0.577966 1.7339 0.50572C1.82941 0.493439 1.91372 0.51728 1.98676 0.577966C2.06948 0.495606 2.15379 0.42336 2.23962 0.361229C2.33592 0.337388 2.33592 0.312824 2.23962 0.288983C2.29648 0.17339 2.39278 0.124985 2.5286 0.144492C2.58488 -0.0310657 2.66919 -0.0310657 2.78146 0.144492C2.83124 0.0823602 2.89142 0.034678 2.96208 0C3.47582 0.330886 4.00559 0.355449 4.55148 0.0722458ZM1.51716 6.57436C1.58384 6.63216 1.65609 6.64444 1.7339 6.61049C1.66144 6.49851 1.58919 6.48695 1.51716 6.57436Z" fill="var(--fill-0, #830B0D)"/>
</g>
</svg>
