<svg preserveAspectRatio="none" width="100%" height="100%" overflow="visible" style="display: block;" viewBox="0 0 34.4549 19.2384" fill="none" xmlns="http://www.w3.org/2000/svg">
<g id="Group">
<path id="Vector" fill-rule="evenodd" clip-rule="evenodd" d="M31.2552 5.1071C31.4004 5.28202 31.5016 5.48279 31.5578 5.71027C31.6624 5.75938 31.7627 5.81712 31.8604 5.8826C31.7886 5.96446 31.7748 6.05063 31.8171 6.1411C31.8457 6.11267 31.8751 6.08337 31.9036 6.05494C32.0246 6.20056 32.1828 6.25829 32.3791 6.22727C32.4353 6.39788 32.4353 6.55557 32.3791 6.70119C32.4223 6.83044 32.4655 6.95969 32.5087 7.08894C32.6289 6.97606 32.7154 7.00449 32.7681 7.1751C32.8251 7.47238 32.8969 7.75931 32.9842 8.03677C33.2626 8.0497 33.2911 8.12121 33.0707 8.25219C33.2289 8.353 33.3585 8.48225 33.4597 8.63994C33.496 8.85363 33.5686 9.0544 33.6758 9.24311C33.6283 9.52659 33.7147 9.78509 33.9352 10.0186C33.8141 10.2668 33.8721 10.4684 34.1081 10.6218C34.0095 10.7019 34.0095 10.7734 34.1081 10.8372C34.038 10.8639 33.981 10.907 33.9352 10.9664C34.1452 11.1836 34.2887 11.4421 34.3674 11.7419C34.2723 11.785 34.1859 11.8135 34.1081 11.8281C34.2161 11.9255 34.3026 12.0401 34.3674 12.1728C34.4322 12.3227 34.4608 12.4666 34.4539 12.6036C34.3095 12.7182 34.166 12.8337 34.0216 12.9483C34.147 12.9629 34.2905 13.0198 34.4539 13.1206C34.4193 13.2869 34.3328 13.4162 34.1945 13.5084C34.2524 13.5368 34.3095 13.5661 34.3674 13.5945C34.0648 13.7677 34.0648 13.8823 34.3674 13.9392C34.1323 14.0254 34.0752 14.1693 34.1945 14.37C34.0925 14.5484 34.006 14.7207 33.9352 14.887C34.0216 14.9155 34.1081 14.9448 34.1945 14.9732C34.0164 15.1507 33.8721 15.3515 33.7623 15.5764C33.802 15.6117 33.8306 15.6548 33.8487 15.7056C33.7856 15.9305 33.7424 16.1606 33.719 16.3949C33.598 16.4423 33.483 16.4708 33.3732 16.4811C33.3966 16.756 33.3101 17.0145 33.1139 17.2566C32.9669 17.1782 32.8087 17.1498 32.6384 17.1704C32.6393 17.3264 32.596 17.4703 32.5087 17.6013C32.2987 17.6469 32.1405 17.7616 32.0333 17.9459C31.9823 17.9279 31.939 17.8994 31.9036 17.8598C31.6901 18.0528 31.5318 18.2829 31.4281 18.5491C31.2846 18.4181 31.1843 18.4466 31.1255 18.6353C30.9371 18.5827 30.7642 18.6405 30.6068 18.8076C30.5783 18.7792 30.5489 18.7499 30.5204 18.7214C30.2792 18.9067 30.0051 19.0067 29.6991 19.023C29.8521 19.0696 29.8807 19.1411 29.7856 19.2384C29.5729 19.1687 29.3715 19.0825 29.1804 18.9799C28.8656 19.0773 28.5486 19.1635 28.2295 19.2384C28.0775 19.1842 27.9478 19.098 27.8404 18.9799C27.754 19.21 27.6675 19.21 27.5811 18.9799C27.5475 19.0601 27.4899 19.117 27.4082 19.1523C26.7488 19.0377 26.086 18.8653 25.4198 18.6353C25.3108 18.6577 25.2244 18.7154 25.1605 18.8076C25.1245 18.631 25.0236 18.5164 24.8579 18.4629C24.66 18.3001 24.4295 18.1855 24.1663 18.1183C24.0355 18.338 23.9491 18.3087 23.907 18.0321C23.8493 17.9744 23.7917 17.9175 23.7341 17.8598C23.753 17.9615 23.7242 18.0476 23.6476 18.1183C23.5833 17.9899 23.5257 17.8606 23.4747 17.7305C23.3454 17.6866 23.2445 17.7297 23.1721 17.8598C23.0135 17.5651 22.855 17.2782 22.6967 16.9981C22.5159 16.9826 22.343 17.011 22.178 17.0843C22.109 17.0446 22.0802 16.9878 22.0915 16.9119C22.3221 16.8835 22.3221 16.8542 22.0915 16.8258C22.0019 16.594 21.829 16.4647 21.5728 16.438C21.6123 16.4027 21.6412 16.3596 21.6593 16.3088C21.4867 16.0511 21.2562 15.8788 20.9677 15.7918C20.9805 15.7013 20.9662 15.6151 20.9244 15.5333C20.8454 15.6324 20.7734 15.6186 20.7083 15.4902C20.7371 15.4618 20.766 15.4325 20.7948 15.404C20.6364 15.3394 20.4923 15.2532 20.3625 15.1455C20.1847 15.1188 20.0118 15.1188 19.8438 15.1455C19.7242 15.0197 19.7531 14.9482 19.9303 14.9301C19.769 14.7552 19.5817 14.6975 19.3683 14.7578C19.3266 14.6759 19.3122 14.5898 19.3251 14.4993C19.4403 14.4708 19.4403 14.4415 19.3251 14.4131C19.2413 14.3433 19.1693 14.2571 19.109 14.1546C19.0318 14.2589 18.9598 14.2589 18.8929 14.1546C18.9382 14.0952 18.9959 14.0521 19.0658 14.0254C18.9619 13.9478 18.8898 13.847 18.8496 13.7238C18.7655 13.9082 18.6358 14.0521 18.4606 14.1546C18.4905 14.258 18.5337 14.258 18.5903 14.1546C18.632 14.2365 18.6464 14.3226 18.6335 14.4131C18.2031 14.3399 18.0302 14.4976 18.1148 14.887C18.0571 14.9155 17.9996 14.9448 17.9419 14.9732C17.9419 15.0594 17.9419 15.1455 17.9419 15.2317C17.851 15.3282 17.7501 15.3713 17.6393 15.3609C17.4767 15.6755 17.347 15.9908 17.2503 16.3088C17.2215 16.1942 17.1926 16.1942 17.1639 16.3088C17.1062 16.3088 17.0774 16.3372 17.0774 16.3949C16.9043 16.631 16.7026 16.8465 16.4723 17.0412C16.6156 17.1041 16.6588 17.2041 16.6019 17.3428C16.5443 17.285 16.4867 17.2282 16.429 17.1704C16.3241 17.304 16.1944 17.4048 16.04 17.472C16.1931 17.5186 16.2219 17.5901 16.1265 17.6874C15.9466 17.6409 15.7593 17.6125 15.5645 17.6013C15.5228 17.6831 15.5084 17.7693 15.5213 17.8598C15.3379 17.8451 15.165 17.8736 15.0026 17.9459C15.0052 18.0321 14.962 18.089 14.8729 18.1183C14.6554 18.0993 14.4393 18.0709 14.2246 18.0321C14.0624 18.263 13.9327 18.2337 13.8355 17.9459C13.8089 18.0157 13.7657 18.0726 13.7059 18.1183C13.4837 18.0106 13.2531 17.9244 13.0143 17.8598C12.7885 17.4884 12.4716 17.3592 12.0633 17.472C11.9481 17.3859 11.9481 17.2997 12.0633 17.2135C11.8699 17.0386 11.7402 16.8232 11.6743 16.5673C11.4648 16.3743 11.2342 16.3165 10.9827 16.3949C10.7864 15.9184 10.5703 15.4583 10.3343 15.0163C10.1079 14.993 9.89176 15.0214 9.68593 15.1024C9.48139 14.8663 9.32284 14.6078 9.21045 14.3269C9.32569 14.2985 9.32569 14.2692 9.21045 14.2408C9.10178 14.0753 9.00098 13.903 8.90788 13.7238C8.79264 13.7238 8.67731 13.7238 8.56208 13.7238C8.4994 13.5127 8.41295 13.3119 8.30273 13.1206C8.19311 13.1309 8.07778 13.1594 7.95693 13.2068C7.90004 13.068 7.94327 12.9681 8.0866 12.9052C7.85604 12.7449 7.65435 12.5579 7.48145 12.3451C7.33907 12.0944 7.13738 11.8936 6.8763 11.7419C6.78985 11.6273 6.7034 11.6273 6.61695 11.7419C6.38077 11.5817 6.29432 11.3809 6.3576 11.1388C6.31221 11.0793 6.25455 11.0362 6.1847 11.0095C6.29994 10.851 6.2855 10.8079 6.14148 10.8803C6.07923 10.7459 5.97834 10.6597 5.8389 10.6218C5.56779 10.4641 5.30844 10.2918 5.06085 10.1048C5.07892 10.0539 5.10779 10.0109 5.1473 9.97552C4.92097 9.69203 4.64719 9.47662 4.32602 9.32927C4.27269 9.24741 4.28704 9.1759 4.36925 9.11386C4.25401 9.05612 4.13869 8.99925 4.02345 8.94152C4.12209 8.87776 4.12209 8.80624 4.02345 8.72611C3.88988 8.55894 3.71698 8.45813 3.50475 8.42452C3.34629 8.03677 3.0725 7.76362 2.68347 7.60594C2.65469 7.66367 2.62581 7.72054 2.59702 7.77827C2.4453 7.25265 2.12829 6.85112 1.64607 6.57194C1.64037 6.13593 1.42424 5.89122 0.997698 5.83952C0.404824 5.34751 0.1166 4.74434 0.133198 4.03002C-0.0577702 3.9473 -0.0434195 3.84734 0.176423 3.72843C0.219216 3.55869 0.233653 3.38635 0.219648 3.21143C0.1351 3.18472 0.0774377 3.12699 0.0467479 3.0391C0.118761 2.8952 0.19086 2.75217 0.262873 2.60827C0.291834 2.84006 0.392635 2.89779 0.565448 2.7806C0.470526 2.70305 0.470526 2.63153 0.565448 2.56518C0.483494 2.52382 0.397043 2.50918 0.306098 2.5221C0.304628 2.18777 0.405429 2.1309 0.608673 2.34977C0.635386 2.24034 0.678611 2.14038 0.738348 2.04818C1.16057 1.9827 1.57838 2.05422 1.99187 2.2636C2.02766 2.22396 2.07089 2.19553 2.12155 2.17743C2.58034 2.21621 3.01259 2.34546 3.4183 2.56518C3.86836 3.08477 4.3294 3.58798 4.8015 4.0731C4.99221 4.26181 5.1939 4.36176 5.40665 4.37469C5.37786 4.40312 5.34899 4.43242 5.3202 4.46085C5.56217 4.81672 5.86475 5.1183 6.22793 5.3656C6.48589 5.17517 6.50024 5.21826 6.27115 5.49485C6.3882 5.60601 6.50353 5.62066 6.61695 5.53794C6.74688 5.63186 6.77567 5.73267 6.7034 5.83952C6.87085 5.84986 6.98609 5.92138 7.0492 6.05494C7.18648 6.15317 7.30172 6.28242 7.395 6.44269C7.47696 6.48405 7.56341 6.4987 7.65435 6.48577C7.66905 6.59951 7.64026 6.70033 7.5679 6.78735C7.86157 6.81148 8.03447 6.96917 8.0866 7.26127C8.21679 7.36898 8.34647 7.36898 8.47563 7.26127C8.55974 7.44567 8.68942 7.58957 8.86465 7.6921C8.7884 7.93509 8.87485 8.10743 9.124 8.2091C9.34756 8.4452 9.59256 8.67527 9.85883 8.89844C10.0064 8.84329 10.1649 8.84329 10.3343 8.89844C10.3528 9.03975 10.3239 9.169 10.2479 9.28619C10.3374 9.42578 10.4383 9.43957 10.5504 9.32927C10.6998 9.40251 10.7142 9.48868 10.5937 9.58777C10.6619 9.68342 10.7052 9.79802 10.7233 9.93244C10.8359 9.98242 10.9368 10.0401 11.0259 10.1048C11.17 10.1048 11.314 10.1048 11.4582 10.1048C11.4948 10.3779 11.6388 10.5787 11.8904 10.7079C11.79 10.8561 11.8044 11 11.9336 11.1388C12.2109 11.237 12.3262 11.4093 12.2794 11.6558C12.5588 11.7661 12.7894 11.9384 12.971 12.1728C13.0778 12.2693 13.1787 12.2693 13.2736 12.1728C13.2904 12.3081 13.2904 12.4373 13.2736 12.5605C13.3422 12.6544 13.3998 12.7544 13.4465 12.8621C13.6698 12.9672 13.8571 13.1111 14.0084 13.2929C14.1665 13.2094 14.325 13.1956 14.4839 13.2499C14.4017 13.1878 14.3873 13.1163 14.4407 13.0344C14.5627 12.7329 14.7643 12.5037 15.0458 12.3451C15.1582 12.1047 15.2879 11.8746 15.4349 11.6558C15.4061 11.598 15.3772 11.5412 15.3484 11.4834C15.6157 11.2043 15.8751 10.9311 16.1265 10.6649C16.0293 10.6433 15.9428 10.6002 15.8671 10.5356C15.8815 10.5072 15.8959 10.4779 15.9103 10.4494C16.0509 10.4193 16.2094 10.4193 16.3858 10.4494C16.3188 10.1323 16.4341 9.91693 16.7316 9.80319C16.6057 9.767 16.5625 9.69462 16.6019 9.58777C16.7172 9.58777 16.8325 9.58777 16.9477 9.58777C17.0031 9.12764 17.1328 8.69681 17.3368 8.29527C17.512 8.30906 17.6849 8.29527 17.8555 8.25219C17.8267 8.22375 17.7978 8.19446 17.769 8.16602C17.8876 8.13155 18.0029 8.08847 18.1148 8.03677C18.3481 7.69383 18.5498 7.33537 18.72 6.95969C18.6455 6.75978 18.732 6.65897 18.9793 6.6581C18.9515 6.19625 19.1676 5.93775 19.6277 5.8826C19.7905 5.47159 19.9778 5.06919 20.1896 4.67627C20.3335 4.73831 20.4776 4.70987 20.6219 4.5901C20.6985 4.51945 20.7272 4.43328 20.7083 4.3316C20.7993 4.34453 20.8857 4.32988 20.9677 4.28852C21.0768 4.08258 21.2354 3.9249 21.4431 3.8146C21.5214 3.49406 21.6798 3.22091 21.9186 2.99602C21.8122 2.89434 21.8122 2.79353 21.9186 2.69443C21.9784 2.7401 22.0217 2.79697 22.0483 2.86677C22.3272 2.5402 22.5145 2.16709 22.6102 1.7466C22.7459 1.76297 22.8756 1.76297 22.9992 1.7466C23.3488 1.23994 23.7954 0.838402 24.3392 0.540265C24.4183 0.331742 24.548 0.159408 24.7282 0.023265C25.0683 -0.00775501 25.4286 -0.00775501 25.8089 0.023265C25.8644 0.307615 25.9652 0.33605 26.1114 0.109432C26.4071 0.168025 26.6953 0.254192 26.9759 0.367932C27.0177 0.44979 27.032 0.535957 27.0192 0.626432C27.1056 0.626432 27.1921 0.626432 27.2785 0.626432C27.2906 0.766022 27.2329 0.866837 27.1056 0.928016C27.2386 1.09432 27.3395 1.2813 27.4082 1.4881C27.444 1.44846 27.4872 1.42003 27.5379 1.40193C27.8118 1.54583 28.0855 1.68887 28.3591 1.83277C28.4346 1.81209 28.5067 1.78365 28.5753 1.7466C28.7572 1.90515 28.8581 2.10678 28.8778 2.34977C29.2262 2.62464 29.5288 2.94087 29.7856 3.2976C29.9031 3.17869 29.9896 3.19334 30.0449 3.34068C30.0112 3.42771 29.9533 3.4708 29.872 3.46993C30.0786 3.62331 30.223 3.82408 30.3043 4.0731C30.4547 4.12136 30.5982 4.14979 30.7365 4.15927C30.6786 4.217 30.6215 4.27387 30.5636 4.3316C30.7486 4.41518 30.8489 4.55908 30.8662 4.76244C30.9924 4.87014 31.1221 4.87014 31.2552 4.76244C31.3209 4.8598 31.3788 4.95976 31.4281 5.06402C31.3771 5.10366 31.3192 5.1183 31.2552 5.1071ZM0.824798 2.09127C0.802148 2.21879 0.830936 2.3334 0.911248 2.43593C0.990869 2.3041 0.962081 2.1895 0.824798 2.09127ZM0.219648 3.21143C0.283535 3.22264 0.341197 3.20799 0.392548 3.16835C0.278261 2.98137 0.220599 2.99602 0.219648 3.21143ZM25.7224 4.76244C26.0235 4.8891 26.0523 5.07522 25.8089 5.32252C25.9656 5.31821 26.1096 5.33286 26.2411 5.3656C26.3982 5.66374 26.5711 5.95154 26.7598 6.22727C26.8444 6.18591 26.9164 6.12904 26.9759 6.05494C27.1633 6.18419 27.1488 6.285 26.9327 6.35652C27.0884 6.38409 27.1172 6.44096 27.0192 6.52885C27.1576 6.55212 27.2872 6.5952 27.4082 6.6581C27.5299 6.883 27.6452 7.11306 27.754 7.34744C27.8462 7.40689 27.9471 7.44998 28.0566 7.47669C28.0114 7.52494 27.9826 7.58267 27.9701 7.64902C28.1355 7.77052 28.2507 7.92906 28.3159 8.12294C28.3938 8.19101 28.4515 8.27718 28.4888 8.38144C28.378 8.4857 28.378 8.6003 28.4888 8.72611C28.604 8.6115 28.7194 8.6115 28.8346 8.72611C28.8865 8.83123 28.9003 8.94583 28.8778 9.07077C28.9651 9.14315 29.0663 9.17159 29.1804 9.15694C29.2513 9.41372 29.3231 9.67222 29.3965 9.93244C29.4354 9.72305 29.5072 9.70841 29.6127 9.88936C29.5841 9.91779 29.5547 9.94709 29.5262 9.97552C29.7406 10.3323 29.8703 10.72 29.9152 11.1388C30.2455 11.2336 30.2887 11.3921 30.0449 11.6127C30.1512 11.6799 30.2377 11.7661 30.3043 11.8712C30.2973 12.1667 30.2688 12.4545 30.2178 12.7329C30.2567 12.844 30.3146 12.944 30.3907 13.0344C30.3103 13.1439 30.2965 13.2585 30.3475 13.3791C30.4037 13.2757 30.4469 13.2757 30.4772 13.3791C30.1409 13.76 29.8668 14.1908 29.6559 14.6716C29.6274 14.7 29.598 14.7293 29.5694 14.7578C29.3991 14.532 29.2401 14.5467 29.094 14.8009C29.1519 14.8293 29.2089 14.8586 29.2669 14.887C29.1242 14.9396 28.9798 14.9827 28.8346 15.0163C28.8101 14.9482 28.7669 14.8905 28.7049 14.8439C28.4421 15.1429 28.1107 15.2575 27.7108 15.1886C27.7236 15.0981 27.7093 15.012 27.6675 14.9301C27.5183 15.0232 27.3599 15.037 27.1921 14.9732C27.381 14.9215 27.3954 14.8207 27.2353 14.6716C27.1472 14.7741 27.0463 14.8603 26.9327 14.9301C26.7202 14.8078 26.4897 14.7216 26.2411 14.6716C25.9881 14.4347 25.6999 14.2477 25.3766 14.1115C25.4876 13.9995 25.4732 13.8996 25.3334 13.8099C25.3054 13.9883 25.2333 14.0167 25.1173 13.8961C25.0792 13.7927 25.0504 13.6928 25.0308 13.5945C24.9444 13.5514 24.8579 13.5084 24.7715 13.4653C24.6618 13.5454 24.5466 13.5592 24.4257 13.5084C24.3392 13.3076 24.1951 13.1637 23.9934 13.0775C24.0981 13.0008 24.0981 12.9285 23.9934 12.8621C23.8101 12.9922 23.666 12.9638 23.5612 12.7759C23.4751 12.7837 23.403 12.7544 23.345 12.6898C23.0331 12.003 22.5576 11.5429 21.9186 11.3111C21.6648 11.0216 21.4343 10.72 21.227 10.4064C21.2847 10.3779 21.3422 10.3486 21.3999 10.3202C21.312 10.2297 21.2975 10.1289 21.3567 10.0186C21.5008 9.81784 21.6737 9.6455 21.8754 9.50161C21.9618 9.53004 22.0483 9.55934 22.1347 9.58777C22.2388 9.50419 22.282 9.41802 22.2644 9.32927C22.355 9.41975 22.4415 9.50591 22.5238 9.58777C22.8788 9.7265 23.0949 9.985 23.1721 10.3633C23.3162 10.564 23.4603 10.7657 23.6044 10.9664C23.6332 10.938 23.662 10.9087 23.6908 10.8803C23.7326 10.9621 23.7469 11.0483 23.7341 11.1388C24.0317 11.1258 24.2046 11.2697 24.2528 11.5696C24.5184 11.7066 24.7058 11.9082 24.8147 12.1728C25.0325 12.5062 25.3351 12.6932 25.7224 12.7329C25.8376 12.8768 25.953 13.0198 26.0682 13.1637C26.3325 13.1861 26.5918 13.2292 26.8463 13.2929C26.9623 13.1723 27.0344 13.2007 27.0624 13.3791C27.3249 13.2688 27.6275 13.1973 27.9701 13.1637C28.1142 12.9914 28.2582 12.819 28.4024 12.6467C28.3308 12.5683 28.2443 12.5105 28.143 12.4744C28.2932 12.3391 28.3796 12.1667 28.4024 11.9574C28.3884 11.7885 28.3597 11.6161 28.3159 11.4404C28.3736 11.3826 28.4311 11.3258 28.4888 11.268C28.3588 11.1396 28.2868 10.982 28.2727 10.7941C28.2078 10.7398 28.1357 10.6967 28.0566 10.6649C28.2571 10.5365 28.2716 10.3788 28.0998 10.1909C28.071 10.2487 28.0421 10.3055 28.0133 10.3633C27.988 10.0703 27.8295 9.89797 27.5379 9.84627C27.5791 9.76183 27.6367 9.69031 27.7108 9.63086C27.3614 9.46886 27.1596 9.19571 27.1056 8.81227C26.3107 8.00661 25.6335 7.11565 25.074 6.1411C24.9428 6.17902 24.8419 6.12215 24.7715 5.96877C24.8023 5.73353 24.9032 5.50433 25.074 5.27944C25.3342 5.20361 25.5504 5.03128 25.7224 4.76244Z" fill="var(--fill-0, #830B0D)"/>
</g>
</svg>
