<svg preserveAspectRatio="none" width="100%" height="100%" overflow="visible" style="display: block;" viewBox="0 0 27.0589 19.4755" fill="none" xmlns="http://www.w3.org/2000/svg">
<g id="Group">
<path id="Vector" fill-rule="evenodd" clip-rule="evenodd" d="M26.3673 3.71711C26.5167 4.08159 26.4447 4.13932 26.1511 3.88944C26.1188 3.96871 26.0756 4.04023 26.0215 4.10486C26.1017 4.13846 26.1593 4.19533 26.1944 4.27719C26.098 4.38318 26.098 4.48399 26.1944 4.57878C26.123 4.65546 26.0366 4.6839 25.935 4.66494C25.9203 4.77868 25.9491 4.8795 26.0215 4.96653C25.8885 5.13283 25.7876 5.31981 25.7189 5.52661C25.6568 5.44475 25.5848 5.4301 25.5028 5.48353C25.5907 5.574 25.6051 5.67482 25.546 5.78511C25.4379 6.01517 25.2795 6.20216 25.0705 6.34519C25.1446 6.40465 25.2022 6.47617 25.2434 6.56061C25.0091 6.76052 24.8362 6.96215 24.7247 7.16378C24.8808 7.47398 24.7944 7.68939 24.4654 7.81003C24.5374 7.98926 24.5374 8.17624 24.4654 8.37011C24.3638 8.35116 24.2773 8.37959 24.206 8.45628C24.3102 8.58467 24.3102 8.70013 24.206 8.80095C24.2268 9.01895 24.1404 9.16285 23.9467 9.23178C24.0469 9.37826 23.9893 9.43599 23.7738 9.40411C23.7913 9.56697 23.7337 9.69622 23.6009 9.79186C23.7627 10.1753 23.6475 10.3192 23.2551 10.2227C23.3481 10.3718 23.3625 10.5295 23.2983 10.6966C22.9789 11.1895 22.734 11.7203 22.5635 12.2907C22.5922 12.3191 22.6211 12.3484 22.6499 12.3769C22.3226 12.4966 22.1929 12.7121 22.2609 13.0231C22.1837 12.9189 22.1117 12.9189 22.0448 13.0231C21.9811 13.2204 21.9668 13.4221 22.0015 13.6263C21.7008 13.7952 21.5567 14.0537 21.5693 14.4018C21.4525 14.5328 21.3228 14.6474 21.1803 14.7465C21.2237 14.8516 21.2524 14.9515 21.2667 15.048C21.2197 15.1101 21.162 15.1532 21.0938 15.1773C20.9935 15.2436 20.9071 15.3298 20.8345 15.4358C20.8525 15.4866 20.8814 15.5297 20.9209 15.565C20.8005 15.7529 20.6564 15.839 20.4887 15.8235C20.4483 15.9976 20.4483 16.1837 20.4887 16.3836C20.3298 16.4991 20.1858 16.6283 20.0564 16.7714C20.0767 16.8463 20.1056 16.9187 20.1429 16.9868C19.9536 17.1169 19.8383 17.2892 19.7971 17.5038C19.415 17.8217 19.0404 18.2095 18.6732 18.667C18.3929 18.6912 18.3641 18.7635 18.5868 18.8825C18.4771 19.016 18.333 19.1022 18.1545 19.141C18.0385 19.0203 17.9664 19.0488 17.9384 19.2271C17.9096 19.1987 17.8807 19.1694 17.8519 19.141C17.8071 19.2288 17.735 19.2857 17.6358 19.3133C17.4138 19.2469 17.2121 19.2469 17.0307 19.3133C16.8319 19.5296 16.6302 19.5296 16.4255 19.3133C15.9813 19.4115 15.5779 19.3254 15.2152 19.0548C15.0711 19.1694 14.9271 19.1694 14.783 19.0548C14.7109 18.8825 14.6388 18.7101 14.5668 18.5378C14.5092 18.5955 14.4516 18.6524 14.3939 18.7101C13.9845 18.2879 13.5955 17.8571 13.2269 17.4176C13.093 17.39 13.0354 17.3039 13.054 17.1591C12.8957 17.1117 12.7516 17.1117 12.6217 17.1591C12.5153 17.06 12.5153 16.9592 12.6217 16.8575C12.4632 16.8145 12.3624 16.7136 12.3191 16.556C12.2925 16.6257 12.2493 16.6826 12.1895 16.7283C11.9647 16.4784 11.8206 16.2199 11.7572 15.9528C11.7065 15.9709 11.6633 15.9993 11.6275 16.039C11.4539 15.646 11.1514 15.416 10.7198 15.3496C10.8165 15.1618 10.802 14.961 10.6766 14.7465C10.5282 14.8369 10.4418 14.7801 10.4172 14.5741C10.3884 14.6026 10.3596 14.6319 10.3308 14.6603C10.2427 14.5577 10.1418 14.4716 10.0282 14.4018C9.92351 14.3354 9.92351 14.2631 10.0282 14.1864C9.77473 14.1631 9.55861 14.0623 9.37983 13.8848C9.13249 13.9201 9.11806 13.8477 9.3366 13.6694C9.11555 13.4341 8.88507 13.2187 8.645 13.0231C8.4721 13.0231 8.38565 12.937 8.38565 12.7646C8.21733 12.681 8.04443 12.5949 7.86695 12.5061C7.69552 12.2924 7.50818 12.0908 7.30503 11.9029C7.27624 11.8168 7.24736 11.7306 7.21858 11.6444C7.16091 11.7591 7.10334 11.7591 7.04568 11.6444C7.00392 11.5626 6.98957 11.4764 7.00245 11.3859C6.82264 11.3394 6.64974 11.267 6.48375 11.1705C6.46413 11.0723 6.43534 10.9723 6.3973 10.8689C6.29572 10.9853 6.20927 10.9715 6.13795 10.8259C6.16674 10.7974 6.19561 10.7681 6.2244 10.7397C6.03732 10.7078 5.86442 10.6363 5.7057 10.5243C5.52217 10.2873 5.34927 10.0435 5.187 9.79186C4.93967 9.65055 4.68032 9.54973 4.40895 9.49028C4.40895 9.40411 4.40895 9.31795 4.40895 9.23178C4.25265 9.23264 4.10854 9.18956 3.9767 9.10253C4.00549 9.07409 4.03436 9.0448 4.06315 9.01636C3.9333 8.96639 3.81807 8.89401 3.71735 8.80095C3.80052 8.59587 3.71407 8.5097 3.458 8.54245C3.43691 8.30463 3.32167 8.11764 3.1122 7.98236C2.84593 7.99098 2.58658 7.9186 2.33415 7.76694C2.33415 7.65234 2.33415 7.53688 2.33415 7.42228C2.2477 7.42228 2.16125 7.42228 2.0748 7.42228C2.07497 7.22151 2.00296 7.04918 1.85868 6.90528C1.65846 6.98024 1.48556 6.92251 1.33998 6.73294C1.31119 6.76138 1.28231 6.79068 1.25353 6.81911C1.06022 6.65884 0.90176 6.42964 0.77805 6.12978C0.576362 6.00053 0.374588 5.87128 0.1729 5.74203C0.26082 5.65155 0.275257 5.55074 0.216125 5.44044C0.187337 5.46888 0.158463 5.49817 0.129675 5.52661C0.0973427 5.44734 0.0541177 5.37582 0 5.31119C0.171603 5.23192 0.344503 5.08888 0.5187 4.88036C0.407698 4.82177 0.306811 4.83555 0.216125 4.92344C0.147138 4.77179 0.161575 4.62789 0.25935 4.49261C0.591837 4.26944 0.851187 4.04023 1.0374 3.80327C1.08685 3.66368 1.11564 3.51979 1.12385 3.37244C1.41199 3.22854 1.70021 3.08551 1.98835 2.94161C2.07506 3.11739 2.19038 3.14668 2.33415 3.02777C2.56203 3.15444 2.77816 3.29834 2.98253 3.45861C3.01832 3.41897 3.06154 3.39054 3.1122 3.37244C3.21689 3.43879 3.21689 3.51117 3.1122 3.58786C3.2232 3.64645 3.32409 3.63266 3.41478 3.54477C3.45869 3.75157 3.55958 3.80931 3.71735 3.71711C3.79645 3.9308 3.92613 3.98853 4.10638 3.88944C4.1458 3.99629 4.10257 4.06867 3.9767 4.10486C4.2957 4.48658 4.65585 4.6727 5.05733 4.66494C5.1953 4.9648 5.42586 5.16557 5.74893 5.26811C5.78904 5.31895 5.80348 5.37668 5.79215 5.44044C5.8703 5.50162 5.89909 5.58779 5.8786 5.69894C5.96955 5.68602 6.056 5.70067 6.13795 5.74203C6.03819 5.82044 6.05263 5.89282 6.18118 5.95744C6.21775 5.83164 6.28976 5.78856 6.3973 5.82819C6.61299 6.14443 6.90113 6.37363 7.2618 6.51753C7.30347 6.60456 7.31782 6.70537 7.30503 6.81911C7.52988 6.71313 7.60198 6.77086 7.52115 6.99144C7.75543 7.07933 7.95712 7.20858 8.1263 7.37919C8.01106 7.43693 8.01106 7.4938 8.1263 7.55153C8.26756 7.59375 8.41167 7.6084 8.55855 7.59461C8.82733 8.01941 9.20191 8.34943 9.6824 8.58553C9.84389 8.86126 10.06 9.07668 10.3308 9.23178C10.427 9.34035 10.4414 9.44116 10.374 9.53336C10.5053 9.64969 10.6206 9.77894 10.7198 9.92111C10.7796 9.87545 10.8229 9.81858 10.8495 9.74878C11.0819 9.95644 11.3268 10.1288 11.5843 10.2658C11.5843 10.3519 11.5843 10.4381 11.5843 10.5243C11.6859 10.5053 11.7723 10.5338 11.8437 10.6104C11.8329 10.663 11.8041 10.6914 11.7572 10.6966C11.9247 10.8397 12.1265 10.8974 12.3624 10.8689C12.3397 10.9965 12.3685 11.1111 12.4488 11.2136C12.6919 11.3842 12.9224 11.5703 13.1404 11.7737C13.0827 11.8314 13.0252 11.8883 12.9675 11.946C13.1025 11.9736 13.2033 12.0451 13.2701 12.1614C13.3322 12.0796 13.4042 12.0649 13.4862 12.1184C13.5453 12.264 13.6318 12.3932 13.7456 12.5061C13.7275 12.557 13.6986 12.6 13.6591 12.6354C13.9376 12.6655 14.1681 12.7801 14.3507 12.98C14.3992 13.1248 14.4857 13.2394 14.6101 13.3247C14.4948 13.4109 14.4948 13.497 14.6101 13.5832C14.7211 13.6418 14.8219 13.628 14.9126 13.5401C15.316 13.8994 15.6762 14.3018 15.9933 14.7465C16.0646 14.8231 16.151 14.8516 16.2526 14.8326C16.3172 15.1506 16.4324 15.1506 16.5984 14.8326C16.6943 14.9265 16.7807 14.9265 16.8578 14.8326C16.8193 14.6129 16.8193 14.3828 16.8578 14.1433C17.0048 14.1838 17.1345 14.1838 17.2468 14.1433C17.145 13.8202 17.2315 13.5332 17.5061 13.2816C17.5638 13.3962 17.6214 13.3962 17.679 13.2816C17.7078 13.3393 17.7367 13.3962 17.7655 13.454C17.8308 13.2549 17.7876 13.0826 17.6358 12.937C17.7248 12.7586 17.869 12.5716 18.0681 12.3769C17.9801 12.2864 17.9657 12.1856 18.0248 12.0753C18.1155 12.1632 18.2164 12.177 18.3274 12.1184C18.2144 11.9512 18.2144 11.7927 18.3274 11.6444C18.5114 11.4781 18.6843 11.2912 18.8461 11.0844C18.7072 10.9939 18.6496 10.8646 18.6732 10.6966C18.7748 10.7156 18.8612 10.6871 18.9326 10.6104C18.8173 10.3804 18.8749 10.3235 19.1055 10.4381C19.1342 10.395 19.1631 10.3519 19.1919 10.3089C19.1227 10.1546 19.0939 10.0116 19.1055 9.87803C19.362 9.76946 19.4485 9.59713 19.3648 9.36103C19.4675 9.12666 19.6116 8.92503 19.7971 8.75786C19.7575 8.72253 19.7287 8.67945 19.7106 8.62861C20.0358 8.12195 20.324 7.63339 20.5751 7.16378C20.5734 7.02246 20.631 6.907 20.748 6.81911C20.6695 6.44687 20.8135 6.17458 21.1803 6.00053C21.1104 5.97381 21.0527 5.93073 21.0074 5.87128C21.2135 5.41287 21.4439 4.96739 21.699 4.53569C21.6413 4.50726 21.5837 4.47796 21.5261 4.44953C21.6754 4.2522 21.8483 4.09452 22.0448 3.97561C22.0035 3.89116 21.9459 3.81965 21.8719 3.76019C22.0091 3.68609 22.1532 3.62836 22.3041 3.58786C22.2464 3.55942 22.1889 3.53013 22.1312 3.50169C22.3141 3.40088 22.3717 3.27163 22.3041 3.11394C22.3436 3.04501 22.4013 3.01657 22.477 3.02777C22.6264 2.85027 22.7416 2.60642 22.8228 2.29536C22.7719 2.13422 22.8295 1.99033 22.9957 1.86452C22.9669 1.83609 22.938 1.80679 22.9093 1.77836C22.9912 1.737 23.0777 1.72235 23.1686 1.73527C23.1824 1.50607 23.2688 1.3053 23.428 1.13211C23.5079 1.23034 23.58 1.23034 23.6441 1.13211C23.7712 0.754695 23.9874 0.453112 24.2925 0.227355C24.4134 0.176516 24.5286 0.190303 24.6383 0.270438C24.7535 0.184271 24.8688 0.0981046 24.9841 0.0119379C25.2951 -0.0233905 25.6121 0.0196929 25.935 0.141188C26.0829 0.36436 26.2415 0.579777 26.4105 0.787439C26.7238 0.996824 26.9399 1.3277 27.0589 1.77836C26.7434 2.27381 26.6281 2.80546 26.7131 3.37244C26.6373 3.43707 26.5509 3.48015 26.4537 3.50169C26.5733 3.62749 26.5444 3.69901 26.3673 3.71711ZM1.5561 3.37244C1.63071 3.45516 1.68837 3.45516 1.729 3.37244C1.66356 3.26301 1.60598 3.26301 1.5561 3.37244Z" fill="var(--fill-0, #830B0D)"/>
</g>
</svg>
