<svg preserveAspectRatio="none" width="100%" height="100%" overflow="visible" style="display: block;" viewBox="0 0 23.0543 17.5557" fill="none" xmlns="http://www.w3.org/2000/svg">
<g id="Group">
<path id="Vector" fill-rule="evenodd" clip-rule="evenodd" d="M21.8182 0.288983C21.8182 0.337388 21.8423 0.361229 21.8905 0.361229C22.1446 0.530284 22.3974 0.530284 22.649 0.361229C22.7706 0.459483 22.7826 0.567852 22.6852 0.686335C22.7727 1.03673 22.8932 1.37411 23.0464 1.69778C23.0749 1.83649 23.0267 1.96942 22.9019 2.09513C22.9249 2.17821 22.973 2.23817 23.0464 2.27574C22.9554 2.34221 22.8591 2.40289 22.7574 2.45636C22.8587 2.55317 22.8346 2.61385 22.6852 2.63697C22.7334 2.68538 22.7815 2.73306 22.8297 2.78146C22.7265 2.93535 22.6302 3.09212 22.5407 3.25106C22.6344 3.34859 22.6223 3.44468 22.5046 3.54004C22.4315 3.47936 22.3472 3.45552 22.2517 3.4678C22.2695 3.6383 22.2214 3.78279 22.1072 3.90127C21.9145 3.92511 21.9145 3.94968 22.1072 3.97352C22.1072 4.04576 22.1072 4.11801 22.1072 4.19025C21.9423 4.1982 21.7978 4.25817 21.6737 4.37087C21.8017 4.40988 21.8257 4.46985 21.746 4.55148C21.6293 4.59844 21.5089 4.63457 21.3847 4.65985C21.4088 4.68369 21.4329 4.70826 21.457 4.7321C21.2401 4.99868 21.0956 5.27611 21.0235 5.56292C20.9812 5.54775 20.9451 5.52391 20.9151 5.49068C20.8794 5.633 20.8673 5.77749 20.879 5.92415C20.8068 5.92415 20.7345 5.92415 20.6623 5.92415C20.6908 6.14234 20.6186 6.21458 20.4456 6.14089C20.3643 6.24276 20.2921 6.35113 20.2288 6.466C20.2625 6.55992 20.2625 6.66828 20.2288 6.7911C20.0849 6.77882 19.9645 6.82723 19.8676 6.93559C19.7039 6.85901 19.5594 6.89514 19.4341 7.04396C19.4823 7.09237 19.5304 7.14005 19.5786 7.18845C19.3911 7.30332 19.2225 7.44782 19.0729 7.62193C19.1154 7.75703 19.0672 7.87768 18.9284 7.98316C19.0131 8.0135 19.0853 8.06191 19.1451 8.12765C19.0055 8.14571 18.873 8.18183 18.7478 8.23602C18.7189 8.43758 18.6587 8.62976 18.5672 8.81398C18.4276 8.74029 18.2831 8.72801 18.1337 8.77786C18.3238 8.89996 18.2996 8.98448 18.0614 9.03072C17.8845 9.30381 17.74 9.59279 17.628 9.89767C17.515 9.84782 17.3945 9.8601 17.2667 9.93379C17.3044 9.97425 17.3285 10.0227 17.339 10.0783C17.2451 10.1744 17.1488 10.2705 17.05 10.3673C17.0877 10.4077 17.1118 10.4561 17.1222 10.5118C17.0441 10.6107 16.9839 10.7191 16.9416 10.8369C16.8125 10.8976 16.6801 10.9098 16.5443 10.873C16.3125 11.1533 16.18 11.4546 16.1469 11.7761C16.0265 11.7761 15.9061 11.7761 15.7857 11.7761C15.6818 11.8772 15.6216 11.9979 15.6051 12.1373C15.4759 12.1163 15.3555 12.1409 15.2439 12.2095C15.259 12.2522 15.2831 12.2883 15.3161 12.3179C15.1457 12.5484 15.0254 12.8012 14.9549 13.0765C14.8865 13.0411 14.8143 13.0172 14.7381 13.0042C14.5861 13.1574 14.4174 13.278 14.2324 13.3655C14.1188 13.6711 13.9623 13.9839 13.7628 14.3047C13.7388 14.2563 13.7146 14.2086 13.6906 14.1602C13.6183 14.3047 13.5461 14.4492 13.4738 14.5936C13.4256 14.4976 13.3775 14.4976 13.3293 14.5936C13.2692 14.8104 13.2089 15.0271 13.1487 15.2439C13.0217 15.2894 12.9134 15.3616 12.8236 15.4606C12.7996 15.4368 12.7754 15.4122 12.7514 15.3883C12.6768 15.4989 12.5925 15.595 12.4985 15.6773C12.2972 15.7936 12.1046 15.9266 11.9206 16.0747C12.0257 16.105 12.0619 16.1657 12.0289 16.2553C11.9248 16.3543 11.8044 16.4265 11.6677 16.472C11.5986 16.6801 11.5023 16.8723 11.3787 17.05C11.2426 16.8997 11.086 16.8759 10.9091 16.9778C10.7479 17.1331 10.5552 17.2415 10.3311 17.3029C10.2899 17.3903 10.2417 17.4741 10.1867 17.5557C10.0442 17.3513 9.86357 17.3036 9.64481 17.4112C9.52401 17.3383 9.42771 17.2422 9.35583 17.1222C9.3153 17.1598 9.26711 17.1844 9.21133 17.1945C8.97979 17.0067 8.75098 17.0067 8.525 17.1945C8.45275 17.0984 8.38051 17.0016 8.30826 16.9055C8.26007 16.9539 8.21196 17.0016 8.16377 17.05C8.07426 16.9409 8.09839 16.8571 8.23602 16.7971C8.04594 16.5486 7.86532 16.2958 7.69417 16.0386C7.67012 16.0624 7.64599 16.087 7.62193 16.1108C7.52844 16.0133 7.51645 15.9165 7.5858 15.8218C7.44478 15.6752 7.2883 15.6506 7.11621 15.7496C7.08131 15.6809 7.06932 15.6087 7.08008 15.5328C7.27276 15.509 7.27276 15.4844 7.08008 15.4606C7.02814 15.2973 7.00408 15.1283 7.00784 14.9549C6.93184 14.9657 6.85959 14.9534 6.7911 14.9188C6.58506 14.6746 6.4285 14.3979 6.3215 14.0879C6.2252 14.0395 6.15295 13.9673 6.10477 13.8712C6.04025 13.9586 5.98007 13.9586 5.92415 13.8712C5.99228 13.7289 5.94409 13.6205 5.77966 13.5461C5.83442 13.4478 5.7983 13.3633 5.67129 13.2932C5.64904 13.3517 5.61292 13.3994 5.56292 13.4377C5.4776 13.3192 5.4776 13.1993 5.56292 13.0765C5.49559 12.9103 5.43541 12.742 5.38231 12.5708C5.33412 12.4747 5.28601 12.4747 5.23782 12.5708C5.15741 12.4797 5.14534 12.3952 5.20169 12.3179C4.90455 12.216 4.73593 12.0116 4.69597 11.7038C4.61109 11.7197 4.53884 11.6959 4.47924 11.6316C4.40287 11.4618 4.2945 11.3173 4.15413 11.1981C4.14351 10.964 4.02315 10.7711 3.7929 10.6201C3.74833 10.5515 3.76032 10.4915 3.82903 10.4395C3.53961 10.0877 3.22657 9.76257 2.88983 9.4642C2.82445 9.21495 2.69202 8.97437 2.49248 8.74174C2.46842 8.76558 2.44429 8.79014 2.42023 8.81398C2.34589 8.60519 2.26165 8.40074 2.16737 8.19989C1.93662 7.94487 1.73195 7.66744 1.55328 7.36907C1.48104 7.27298 1.40879 7.27298 1.33655 7.36907C1.1875 6.90236 0.982759 6.46889 0.722458 6.06864C0.737557 6.02602 0.761687 5.9899 0.794703 5.96028C0.638147 5.85191 0.50572 5.7197 0.397352 5.56292C0.33457 5.32885 0.226201 5.12367 0.0722458 4.94884C0.162336 4.84336 0.162336 4.73499 0.0722458 4.62373C0.169994 4.55004 0.218182 4.45323 0.216737 4.33475C0.140735 4.34558 0.068489 4.3333 0 4.29862C0.24513 4.12018 0.26926 3.91572 0.0722458 3.68453C0.376545 3.66214 0.424661 3.55377 0.216737 3.35943C0.337171 3.33559 0.457532 3.31102 0.577966 3.28718C0.537581 3.23517 0.513523 3.17448 0.50572 3.10657C0.580206 2.97075 0.640459 2.82625 0.686335 2.67309C0.780182 2.70705 0.888551 2.70705 1.01144 2.67309C1.00198 2.61963 1.01404 2.57123 1.04756 2.5286C1.16099 2.54088 1.29342 2.56472 1.44492 2.60085C1.42909 2.5156 1.45315 2.44335 1.51716 2.38411C1.52995 2.5705 1.61419 2.5705 1.77002 2.38411C1.79596 2.60374 1.84415 2.6283 1.91451 2.45636C1.94941 2.52499 1.9614 2.59724 1.95064 2.67309C2.11434 2.6991 2.24677 2.6507 2.34799 2.5286C2.39003 2.79952 2.54659 2.92017 2.81758 2.88983C2.8795 3.07334 2.9758 3.24239 3.10657 3.39555C3.09147 3.43818 3.06734 3.4743 3.03432 3.50392C3.13489 3.70043 3.21913 3.90561 3.28718 4.11801C3.36427 4.16786 3.44858 4.20398 3.54004 4.22638C3.49185 4.25022 3.44374 4.27478 3.39555 4.29862C3.45573 4.4554 3.5641 4.56377 3.72066 4.62373C3.74471 4.71982 3.76884 4.81663 3.7929 4.91271C3.81696 4.88887 3.84109 4.86431 3.86515 4.84047C3.90084 4.95823 3.91283 5.07888 3.90127 5.2017C4.06274 5.18074 4.20723 5.20459 4.33475 5.27394C4.23844 5.32235 4.23844 5.37003 4.33475 5.41843C4.41646 5.61783 4.53689 5.78616 4.69597 5.92415C4.69597 5.97256 4.72003 5.9964 4.76822 5.9964C4.84278 6.15678 4.93915 6.30128 5.0572 6.42987C5.15632 6.54474 5.27676 6.64083 5.41843 6.71886C5.40442 6.88069 5.40442 7.03674 5.41843 7.18845C5.64514 7.33728 5.84988 7.51789 6.03252 7.7303C6.06547 7.81988 6.02934 7.88057 5.92415 7.91091C6.07623 7.99688 6.19666 8.11753 6.28538 8.27214C6.53412 8.28803 6.55818 8.36028 6.35763 8.48888C6.52495 8.52428 6.6935 8.57268 6.86335 8.63337C6.86335 8.77786 6.86335 8.92235 6.86335 9.06684C6.91659 9.27636 7.03695 9.43313 7.22458 9.53644C7.30838 9.59207 7.38063 9.66432 7.44131 9.75318C7.52721 9.82037 7.62352 9.84421 7.7303 9.82542C7.77097 10.1484 7.85528 10.4612 7.98316 10.7646C8.11291 10.8564 8.24534 10.8564 8.38051 10.7646C8.47313 10.8701 8.47313 10.9662 8.38051 11.0536C8.47501 11.1063 8.57138 11.167 8.66949 11.2342C8.62932 11.2617 8.60526 11.2978 8.59725 11.3426C8.70034 11.4618 8.76052 11.6063 8.77786 11.7761C8.85827 11.8635 8.94258 11.8635 9.03072 11.7761C9.13605 11.8945 9.16018 12.0152 9.10297 12.1373C9.18952 12.1691 9.27383 12.1929 9.35583 12.2095C9.40553 12.2695 9.39347 12.3179 9.3197 12.354C9.25497 12.2811 9.20686 12.2811 9.17521 12.354C9.27527 12.4299 9.34752 12.526 9.39195 12.643C9.49793 12.6589 9.6063 12.6835 9.71705 12.7153C9.74111 12.9082 9.76524 13.1003 9.7893 13.2932C9.81697 13.3337 9.85309 13.3575 9.89767 13.3655C10.0222 13.1458 10.2149 13.0129 10.4756 12.9681C10.3069 12.8583 10.319 12.7499 10.5118 12.643C10.5358 12.6669 10.5599 12.6914 10.584 12.7153C10.6291 12.5151 10.7375 12.3706 10.9091 12.2818C10.9332 12.3779 10.9573 12.3779 10.9814 12.2818C11.1479 12.1243 11.3164 11.9198 11.4871 11.6677C11.3981 11.5824 11.3981 11.4979 11.4871 11.4148C11.5371 11.4531 11.5732 11.5008 11.5954 11.5593C11.8975 11.24 12.1624 10.9033 12.3901 10.5479C12.4443 10.5024 12.5046 10.4662 12.5708 10.4395C12.4818 10.3543 12.4818 10.2697 12.5708 10.1867C12.6376 10.269 12.6978 10.269 12.7514 10.1867C12.7193 9.97064 12.7915 9.77846 12.9681 9.60869C13.2151 9.81603 13.3355 9.74379 13.3293 9.39195C13.5232 9.29153 13.5352 9.19472 13.3655 9.10297C13.6954 8.97798 13.9483 8.76124 14.124 8.45275C14.1901 8.53584 14.2503 8.52428 14.3047 8.41663C14.2251 8.25119 14.2853 8.14282 14.4853 8.09153C14.5202 8.02289 14.5322 7.95065 14.5214 7.87479C14.6063 7.89068 14.6785 7.86684 14.7381 7.80254C14.8206 7.63566 14.941 7.50345 15.0994 7.40519C15.0753 7.38135 15.0512 7.35679 15.0271 7.33295C15.2798 7.17617 15.4123 6.94788 15.4245 6.64661C15.4967 6.55052 15.569 6.55052 15.6412 6.64661C15.8322 6.45805 15.9888 6.24131 16.1108 5.9964C16.0867 5.94799 16.0626 5.90031 16.0386 5.85191C16.1273 5.79556 16.2237 5.75943 16.3275 5.74354C16.3698 5.64962 16.4179 5.56509 16.472 5.49068C16.4562 5.40543 16.4803 5.33318 16.5443 5.27394C16.6359 5.34113 16.7322 5.35269 16.8333 5.31006C16.9055 5.18941 17.0018 5.09333 17.1222 5.02108C17.0982 4.99724 17.0741 4.97268 17.05 4.94884C17.2074 4.91705 17.2555 4.8448 17.1945 4.7321C17.2257 4.61289 17.322 4.50452 17.4835 4.40699C17.4164 4.2755 17.4645 4.1787 17.628 4.11801C17.7441 3.90994 17.8404 3.6932 17.9169 3.4678C17.9729 3.38038 18.033 3.38038 18.0976 3.4678C18.1246 3.40133 18.1607 3.34137 18.2059 3.28718C18.1723 3.19326 18.1723 3.08489 18.2059 2.96208C18.3247 2.9469 18.4331 2.97075 18.531 3.03432C18.5669 2.84287 18.579 2.6507 18.5672 2.45636C18.7656 2.47875 18.9583 2.45491 19.1451 2.38411C19.187 2.08935 19.3314 1.86105 19.5786 1.69778C19.5786 1.60169 19.5786 1.50488 19.5786 1.40879C19.7511 1.33799 19.8354 1.20578 19.8315 1.01144C20.0853 0.864782 20.314 0.636485 20.5178 0.325106C20.6382 0.301265 20.7586 0.276701 20.879 0.25286C20.6167 0.237689 20.5926 0.153883 20.8068 0C20.9968 0.275979 21.2617 0.42047 21.6015 0.433475C21.675 0.383625 21.7473 0.33522 21.8182 0.288983ZM22.6852 1.66165C22.6824 1.75268 22.7185 1.82493 22.7935 1.87839C22.9231 1.75124 22.887 1.67899 22.6852 1.66165ZM8.38051 11.0536C8.36006 10.9965 8.32394 10.9481 8.27214 10.9091C8.23399 11.0045 8.27012 11.0522 8.38051 11.0536Z" fill="var(--fill-0, #830B0D)"/>
</g>
</svg>
