<svg preserveAspectRatio="none" width="100%" height="100%" overflow="visible" style="display: block;" viewBox="0 0 8.1263 8.35817" fill="none" xmlns="http://www.w3.org/2000/svg">
<g id="Group">
<path id="Vector" fill-rule="evenodd" clip-rule="evenodd" d="M3.6309 0.2585C3.80812 0.298137 3.98102 0.355869 4.1496 0.430834C4.23605 0.373102 4.3225 0.316232 4.40895 0.2585C4.46661 0.344667 4.52419 0.430834 4.58185 0.517C4.66553 0.431695 4.76642 0.373964 4.88443 0.344667C5.10055 0.38775 5.31668 0.430834 5.5328 0.473917C5.87333 0.604891 6.21913 0.791872 6.5702 1.034C6.91004 0.901304 7.05415 1.00126 7.00245 1.33558C7.17967 1.4769 7.26612 1.66302 7.2618 1.89567C7.34825 1.89567 7.4347 1.89567 7.52115 1.89567C7.49496 2.16192 7.6102 2.30496 7.86695 2.3265C7.88744 2.43766 7.85865 2.52382 7.7805 2.585C7.80834 2.79697 7.89479 2.98309 8.03985 3.14509C7.9209 3.36481 7.94968 3.56558 8.1263 3.74825C8.0185 3.87406 8.0185 4.00331 8.1263 4.136C8.08507 4.22045 8.02749 4.29197 7.9534 4.35142C8.09674 4.41432 8.13996 4.51428 8.08308 4.653C7.97009 4.76244 7.84041 4.8486 7.69405 4.9115C7.76416 4.97354 7.82183 5.04506 7.86695 5.12692C7.81093 5.251 7.78214 5.38025 7.7805 5.51467C7.43911 5.53104 7.43911 5.57413 7.7805 5.64392C7.42632 5.84728 7.21019 6.14886 7.13213 6.54867C7.03124 6.64949 6.93044 6.74944 6.82955 6.85026C6.8994 6.87697 6.95707 6.92005 7.00245 6.97951C6.86344 7.04327 6.71933 7.05792 6.5702 7.02259C6.51747 7.19062 6.44545 7.3483 6.35408 7.49651C6.14824 7.41551 5.93211 7.38708 5.7057 7.41034C5.71858 7.50082 5.70423 7.58698 5.66248 7.66884C5.46667 7.86013 5.27933 8.06176 5.10055 8.27201C4.80403 8.31595 4.51589 8.34439 4.23605 8.35817C4.23605 8.27201 4.23605 8.18584 4.23605 8.09967C4.02546 8.08416 3.83812 8.14103 3.67413 8.27201C3.64058 8.19187 3.58292 8.135 3.50123 8.09967C3.36645 8.14534 3.23678 8.20307 3.1122 8.27201C3.01676 8.17464 3.04555 8.10312 3.19865 8.05659C2.94535 7.91355 2.686 7.88512 2.4206 7.97042C2.35023 7.74381 2.23499 7.54304 2.0748 7.36726C1.70817 7.22077 1.34802 7.06223 0.994175 6.89334C0.990285 6.64949 0.918186 6.43407 0.77805 6.24709C0.873491 6.14972 0.844703 6.0782 0.6916 6.03167C0.508326 6.14972 0.421876 6.09199 0.43225 5.85934C0.662812 5.8309 0.662812 5.80161 0.43225 5.77317C0.307676 5.57757 0.278888 5.37594 0.3458 5.17C0.250273 5.05023 0.134948 4.94942 0 4.86842C0.101838 4.78484 0.217076 4.74176 0.3458 4.73917C0.338192 4.43242 0.222955 4.14548 0 3.8775C0.070889 3.73878 0.186213 3.68104 0.3458 3.70517C0.385394 3.45615 0.327732 3.24073 0.1729 3.05892C0.201688 3.03048 0.230562 3.00119 0.25935 2.97275C0.189498 2.94604 0.131836 2.90296 0.08645 2.8435C0.240936 2.77285 0.385048 2.68668 0.5187 2.585C0.477463 2.50056 0.419888 2.42904 0.3458 2.36959C0.497433 2.12487 0.670333 1.89567 0.8645 1.68025C0.721166 1.61735 0.677941 1.5174 0.734825 1.37867C0.860869 1.55272 1.01933 1.56737 1.2103 1.42175C1.18151 1.39332 1.15264 1.36402 1.12385 1.33558C1.31222 1.17704 1.47069 0.990056 1.59933 0.775501C1.69978 0.834956 1.80058 0.848742 1.9019 0.818584C2.03166 0.710876 2.17577 0.624709 2.33415 0.560084C2.2732 0.425664 2.33078 0.32571 2.50705 0.2585C2.59592 0.437727 2.71125 0.466162 2.85285 0.344667C2.91051 0.459269 2.96809 0.459269 3.02575 0.344667C3.28588 0.35156 3.47322 0.236097 3.58768 0C3.62943 0.0818584 3.64378 0.168025 3.6309 0.2585Z" fill="var(--fill-0, #830B0D)"/>
</g>
</svg>
