<svg preserveAspectRatio="none" width="100%" height="100%" overflow="visible" style="display: block;" viewBox="0 0 13.7456 8.35817" fill="none" xmlns="http://www.w3.org/2000/svg">
<g id="Group">
<path id="Vector" fill-rule="evenodd" clip-rule="evenodd" d="M13.4862 2.41267C13.4672 2.51865 13.4093 2.60482 13.3133 2.67117C13.4499 2.7401 13.5934 2.78319 13.7456 2.80042C13.5727 2.85815 13.3998 2.91502 13.2269 2.97275C12.9986 3.20023 12.7678 3.4303 12.5353 3.66209C11.9016 3.89215 11.267 4.12136 10.6334 4.35142C10.4613 4.45137 10.3169 4.58062 10.2011 4.73917C10.0662 4.69006 9.93657 4.63232 9.81208 4.56684C9.6582 4.74089 9.47147 4.87014 9.25015 4.95459C9.26053 5.06488 9.2173 5.1657 9.12048 5.25617C9.08503 5.21653 9.04181 5.1881 8.9908 5.17C8.88793 5.43885 8.75825 5.46728 8.60178 5.25617C8.56547 5.35699 8.50755 5.44315 8.42888 5.51467C8.36491 5.42247 8.27854 5.36474 8.16953 5.34234C7.96456 5.45349 7.74843 5.53966 7.52115 5.60084C7.47568 5.74991 7.38923 5.86451 7.2618 5.94551C7.08588 5.95757 6.91298 5.95757 6.7431 5.94551C6.30437 6.16695 5.92978 6.46854 5.61925 6.85026C5.45318 6.88128 5.30907 6.95279 5.187 7.06567C5.12147 6.95279 5.03502 6.90971 4.92765 6.93642C4.78734 7.11565 4.65767 7.30263 4.53863 7.49651C4.47906 7.4224 4.40705 7.36553 4.3225 7.32417C4.30582 7.46807 4.21937 7.61197 4.06315 7.75501C3.93676 7.67143 3.82152 7.69986 3.71735 7.84117C3.64836 7.80154 3.61958 7.74467 3.6309 7.66884C3.51229 7.75587 3.39705 7.84204 3.2851 7.92734C3.16986 7.95578 3.16986 7.98507 3.2851 8.01351C3.28769 8.09967 3.24447 8.15654 3.15543 8.18584C3.04434 8.14707 2.94345 8.08933 2.85285 8.01351C2.6375 8.17809 2.40694 8.29355 2.16125 8.35817C1.95654 8.22031 1.72606 8.13414 1.46965 8.09967C1.37049 8.12725 1.29839 8.18412 1.25353 8.27201C1.02512 8.07813 0.765774 7.93423 0.475475 7.84117C0.397238 7.58526 0.267563 7.34141 0.08645 7.10876C0.252521 6.96227 0.252521 6.78994 0.08645 6.59176C0.125353 6.4806 0.183015 6.38065 0.25935 6.29017C0.193475 6.25484 0.107025 6.2402 0 6.24709C0.174024 6.09285 0.174024 5.97825 0 5.90242C0.304563 5.55603 0.592788 5.19672 0.8645 4.82534C1.01899 4.75468 1.1631 4.66851 1.29675 4.56684C1.27868 4.516 1.24981 4.47292 1.2103 4.43759C1.5089 4.34022 1.72502 4.15324 1.85868 3.8775C1.9759 3.95333 2.10558 3.98177 2.2477 3.96367C2.23413 3.84562 2.24857 3.73016 2.29093 3.619C2.31971 3.64744 2.34859 3.67674 2.37738 3.70517C2.52806 3.54835 2.65773 3.37601 2.7664 3.18817C2.89599 3.38635 3.01123 3.35792 3.1122 3.102C3.31562 3.19334 3.51731 3.17955 3.71735 3.05892C3.84469 2.99774 3.90235 2.89693 3.89025 2.75734C4.00454 2.74269 4.10543 2.77112 4.19283 2.8435C4.47984 2.68582 4.75354 2.51348 5.0141 2.3265C5.14144 2.27739 5.25677 2.20501 5.3599 2.11109C5.24466 2.05335 5.24466 1.99648 5.3599 1.93875C5.57145 1.77848 5.7587 1.79313 5.92183 1.98184C6.17219 1.88016 6.30186 1.72247 6.31085 1.50792C6.40396 1.46742 6.49041 1.48207 6.5702 1.551C6.55888 1.47517 6.58767 1.4183 6.65665 1.37867C6.94332 1.50878 7.14501 1.42261 7.2618 1.12017C7.35102 1.25286 7.46626 1.29595 7.6076 1.24942C7.57882 1.22098 7.54994 1.19169 7.52115 1.16325C7.81837 1.17445 8.06337 1.0745 8.25598 0.861667C8.28477 0.890102 8.31364 0.919399 8.34243 0.947834C8.53002 0.841849 8.71676 0.755682 8.90435 0.689334C9.08158 0.697951 9.22595 0.640219 9.3366 0.517C9.50691 0.40326 9.67981 0.40326 9.8553 0.517C10.157 0.236097 10.5175 0.0637634 10.9359 0C11.3284 0.0853051 11.7027 0.0853051 12.0598 0C12.1687 0.0224034 12.2552 0.0801351 12.3191 0.172333C12.3459 0.102538 12.3892 0.0456684 12.4488 0C12.5992 0.184397 12.7721 0.241267 12.9675 0.172333C13.0444 0.24299 13.073 0.329157 13.054 0.430834C13.4611 0.450652 13.692 0.666069 13.7456 1.07708C13.7421 1.23994 13.6842 1.32611 13.5727 1.33558C13.8113 1.58116 13.7974 1.88274 13.5294 2.24034C13.5009 2.2119 13.4715 2.1826 13.443 2.15417C13.379 2.26188 13.3937 2.34804 13.4862 2.41267Z" fill="var(--fill-0, #830B0D)"/>
</g>
</svg>
