<svg preserveAspectRatio="none" width="100%" height="100%" overflow="visible" style="display: block;" viewBox="0 0 17.5929 10.6867" fill="none" xmlns="http://www.w3.org/2000/svg">
<g id="Group">
<path id="Vector" fill-rule="evenodd" clip-rule="evenodd" d="M14.6308 5.27394C14.7615 5.37653 14.8097 5.52102 14.7753 5.70742C15.0456 5.64239 15.1901 5.73848 15.2088 5.9964C15.3021 5.97906 15.3743 6.00362 15.4255 6.06864C15.3292 6.09249 15.3292 6.11705 15.4255 6.14089C15.5877 6.47178 15.8045 6.76076 16.0758 7.00784C16.2239 6.81205 16.3443 6.82361 16.437 7.04396C16.3647 7.0678 16.2925 7.09237 16.2203 7.11621C16.4047 7.17111 16.5853 7.23108 16.7621 7.29682C16.9077 7.74475 17.1365 8.1421 17.4484 8.48888C17.371 8.58135 17.2747 8.60592 17.1594 8.56112C17.2419 8.67816 17.3021 8.81037 17.3401 8.95847C17.4271 8.99965 17.5114 9.04806 17.5929 9.10297C17.4406 9.23373 17.3203 9.38978 17.2317 9.57256C17.3198 9.73728 17.3198 9.90634 17.2317 10.0783C17.098 10.1888 16.9897 10.321 16.9066 10.4756C16.8825 10.4518 16.8584 10.4272 16.8343 10.4034C16.7541 10.5146 16.6458 10.5623 16.5092 10.5479C16.4255 10.6837 16.3051 10.7198 16.148 10.6562C16.1169 10.5898 16.0928 10.5298 16.0758 10.4756C16.005 10.7249 15.8967 10.7494 15.7507 10.5479C15.6101 10.5544 15.4656 10.5782 15.3172 10.6201C15.171 10.5985 15.1348 10.5385 15.2088 10.4395C15.0908 10.4041 14.9703 10.3918 14.8476 10.4034C14.8476 10.3311 14.8476 10.2589 14.8476 10.1867C14.6467 10.1541 14.4541 10.1541 14.2696 10.1867C14.1649 9.76618 13.9482 9.38039 13.6194 9.03072C13.5231 9.07912 13.4267 9.12681 13.3304 9.17521C13.1911 8.88984 13.0587 8.60086 12.9331 8.30826C12.858 8.22085 12.7737 8.1486 12.6802 8.09153C12.393 7.92103 12.104 7.75197 11.8133 7.5858C11.9152 7.47599 11.9031 7.3799 11.7771 7.29682C11.7549 7.35534 11.7188 7.40302 11.6688 7.44131C11.4321 6.97533 11.1792 6.51801 10.9102 6.06864C10.8861 6.09249 10.862 6.11705 10.8379 6.14089C10.7808 5.98917 10.6724 5.89236 10.5128 5.85191C10.5953 5.78472 10.5953 5.72475 10.5128 5.67129C10.3086 5.62072 10.1159 5.54847 9.93487 5.45456C9.98306 5.43071 10.0312 5.40615 10.0794 5.38231C9.94195 5.36786 9.83358 5.3079 9.75425 5.20169C9.72435 5.23493 9.68822 5.25877 9.64589 5.27394C9.52733 5.10994 9.46708 4.94161 9.46527 4.76822C9.35979 4.62951 9.23936 4.5811 9.10404 4.62373C9.0711 4.53414 9.10722 4.47346 9.21241 4.44311C8.9977 4.36075 8.87726 4.20398 8.85118 3.97352C8.75488 3.87743 8.6585 3.87743 8.5622 3.97352C8.52774 4.04432 8.47962 4.10428 8.41771 4.15413C8.47818 4.2271 8.50224 4.31163 8.48995 4.40699C8.36721 4.39543 8.24678 4.40771 8.12873 4.44311C8.15278 4.46696 8.17691 4.49152 8.20097 4.51536C8.11861 4.65768 8.02231 4.79062 7.91199 4.91271C7.78744 4.82891 7.66708 4.84119 7.55076 4.94883C7.68839 5.0088 7.71252 5.0926 7.62301 5.20169C7.53862 5.06443 7.41819 5.05287 7.26178 5.16557C7.12494 5.2436 7.10088 5.33968 7.18953 5.45456C6.97568 5.50729 6.83119 5.6395 6.75606 5.85191C6.67189 5.92993 6.57559 5.99062 6.46707 6.03252C6.51526 6.05636 6.56338 6.08093 6.61156 6.10477C6.11061 6.43565 5.65308 6.86913 5.23889 7.40519C5.26295 7.42903 5.28708 7.4536 5.31114 7.47744C5.21484 7.54968 5.11846 7.62193 5.02216 7.69417C5.08053 7.71657 5.12872 7.75269 5.16665 7.80254C4.98473 7.94414 4.79213 7.99255 4.58868 7.94703C4.56585 8.16883 4.46955 8.33716 4.2997 8.45275C4.44773 8.46793 4.47186 8.52789 4.37195 8.63337C4.2471 8.60808 4.12674 8.5958 4.01072 8.59725C3.64508 8.93897 3.33204 9.32404 3.07152 9.75318C2.87061 9.89333 2.678 10.0501 2.49356 10.2228C2.24655 10.2603 2.00575 10.3203 1.7711 10.4034C1.67725 10.3608 1.61707 10.2885 1.59048 10.1867C1.49273 10.2726 1.40842 10.3687 1.33762 10.4756C1.35879 10.3637 1.32267 10.2437 1.22925 10.1144C1.18107 10.1628 1.13295 10.2105 1.08476 10.2589C0.967436 10.2538 0.835009 10.2177 0.687411 10.1505C0.711469 10.1267 0.735599 10.1021 0.759657 10.0783C0.640018 9.94607 0.495526 9.84999 0.326182 9.7893C0.401246 9.54367 0.304942 9.41146 0.0371993 9.39195C0.0908779 9.23301 0.114936 9.08852 0.109445 8.95847C0.0489031 8.93391 0.024773 8.88551 0.0371993 8.81398C0.133503 8.79014 0.133503 8.76558 0.0371993 8.74174C-0.0424156 8.62687 0.00577237 8.56618 0.181691 8.56112C0.141305 8.50911 0.117248 8.44842 0.109445 8.38051C0.15561 8.16594 0.191733 7.9492 0.217814 7.7303C0.496032 7.47021 0.712769 7.20507 0.868026 6.93559C0.943811 7.00928 1.02812 7.02084 1.12089 6.97172C1.21358 6.70079 1.33401 6.49634 1.48211 6.35763C1.57842 6.30922 1.67479 6.26154 1.7711 6.21314C1.72291 6.18929 1.67479 6.16473 1.62661 6.14089C1.79725 6.08526 1.96587 6.0253 2.13233 5.96028C2.10827 5.93643 2.08414 5.91187 2.06008 5.88803C2.17387 5.71753 2.29423 5.56148 2.42131 5.41843C2.52484 5.32235 2.62121 5.21398 2.71029 5.09333C2.61753 4.99941 2.62959 4.9156 2.74642 4.84047C2.8105 5.07237 2.93086 5.07237 3.10764 4.84047C3.1364 4.64324 3.24477 4.5103 3.43275 4.44311C3.23198 4.43228 3.19586 4.37231 3.32438 4.2625C3.35429 4.29573 3.39041 4.31957 3.43275 4.33475C3.48094 4.19025 3.52905 4.04576 3.57724 3.90127C3.61958 3.91644 3.6557 3.94028 3.68561 3.97352C3.7057 3.90705 3.74182 3.85937 3.79398 3.82903C3.77816 3.74378 3.80222 3.67153 3.86623 3.61229C4.0472 3.65636 4.21575 3.60795 4.37195 3.4678C4.40092 3.32836 4.47316 3.21999 4.58868 3.14269C4.56462 3.11885 4.54049 3.09429 4.51644 3.07044C4.56636 2.99314 4.60248 2.90934 4.62481 2.81758C4.67661 2.8566 4.71273 2.905 4.73317 2.96208C4.92896 2.93101 5.09758 2.84721 5.23889 2.70922C5.19071 2.66081 5.14259 2.61313 5.0944 2.56472C5.43027 2.387 5.63502 2.1103 5.70849 1.7339C5.78645 1.59735 5.88282 1.57279 5.99748 1.66165C6.04566 1.46876 6.09378 1.46876 6.14197 1.66165C6.17686 1.59302 6.18885 1.52077 6.17809 1.44492C6.29852 1.44492 6.41888 1.44492 6.53932 1.44492C6.5235 1.35967 6.54755 1.28742 6.61156 1.22818C6.76978 1.08224 6.93833 0.949309 7.11728 0.830826C7.09323 0.806985 7.0691 0.782422 7.04504 0.75858C7.27355 0.583746 7.51435 0.427695 7.7675 0.288983C7.89133 0.369176 7.93951 0.320771 7.91199 0.144492C8.20653 0.201566 8.48345 0.24997 8.74281 0.288983C8.8233 0.0144492 8.9196 0.0144492 9.0318 0.288983C9.19804 0.264419 9.35459 0.168333 9.50139 0C9.68403 0.0722458 9.68403 0.13221 9.50139 0.180614C9.64545 0.279591 9.78994 0.315714 9.93487 0.288983C9.89232 0.424083 9.9405 0.544733 10.0794 0.650212C10.1275 0.601807 10.1757 0.554125 10.2239 0.50572C10.378 0.620591 10.4983 0.765083 10.5851 0.939195C10.6333 0.915354 10.6814 0.89079 10.7296 0.866949C10.7609 1.19061 10.9174 1.43119 11.1992 1.58941C11.2622 1.57207 11.3225 1.54823 11.3798 1.51716C11.4386 1.68116 11.4747 1.84949 11.4882 2.02288C11.632 2.21578 11.8005 2.38411 11.9939 2.5286C12.0384 2.59724 12.0265 2.6572 11.9578 2.70922C12.1455 2.76485 12.3261 2.75256 12.4996 2.67309C12.6598 2.80964 12.696 2.96569 12.608 3.14269C12.7259 3.54943 12.9907 3.81458 13.4027 3.93739C13.3786 3.96124 13.3545 3.9858 13.3304 4.00964C13.4267 4.05804 13.499 4.13029 13.5472 4.22638C13.779 4.13751 13.9596 4.1982 14.089 4.40699C14.1384 4.49947 14.1264 4.58399 14.0529 4.65985C14.1127 4.7256 14.1849 4.774 14.2696 4.80434C14.2366 4.83396 14.2125 4.87009 14.1974 4.91271C14.388 4.98496 14.5325 5.10489 14.6308 5.27394Z" fill="var(--fill-0, #830B0D)"/>
</g>
</svg>
