<svg preserveAspectRatio="none" width="100%" height="100%" overflow="visible" style="display: block;" viewBox="0 0 5.82847 5.77966" fill="none" xmlns="http://www.w3.org/2000/svg">
<g id="Group">
<path id="Vector" fill-rule="evenodd" clip-rule="evenodd" d="M3.29987 5.63517C3.15596 5.64745 3.0356 5.59905 2.93864 5.49068C2.88865 5.52897 2.85253 5.57665 2.83027 5.63517C2.7594 5.40471 2.6631 5.38086 2.54129 5.56292C2.49209 5.35413 2.38372 5.30645 2.21619 5.41843C1.9548 5.39242 1.726 5.29634 1.52985 5.12945C1.49496 5.06082 1.48296 4.98857 1.49373 4.91271C1.37503 4.91416 1.27872 4.86575 1.20475 4.76822C1.11545 4.8224 1.01907 4.84625 0.915762 4.84047C0.784853 4.41927 0.616304 4.00964 0.410042 3.61229C0.141793 3.47936 0.141793 3.37099 0.410042 3.28718C0.344587 3.16436 0.320529 3.03215 0.337796 2.88983C-0.0729931 2.92595 -0.109116 2.85371 0.229428 2.67309C0.310921 2.53944 0.347044 2.39495 0.337796 2.23962C0.261794 2.25046 0.189548 2.23817 0.121059 2.2035C0.426947 2.02071 0.583432 1.76785 0.590656 1.44492C0.644841 1.3994 0.705094 1.36328 0.771271 1.33655C0.747213 1.31271 0.723083 1.28814 0.699025 1.2643C0.844672 1.19928 0.965106 1.10319 1.06025 0.975318C1.02659 0.881398 1.02659 0.77303 1.06025 0.650212C1.1325 0.650212 1.20475 0.650212 1.27699 0.650212C1.27634 0.519447 1.31246 0.398797 1.38536 0.288983C1.45443 0.389405 1.55073 0.437809 1.67434 0.433475C2.07234 0.351837 2.4697 0.207345 2.8664 0C3.02772 0.0260085 3.16015 0.0982542 3.26375 0.216737C3.286 0.158218 3.32212 0.110536 3.37212 0.0722458C3.46842 0.168333 3.5648 0.168333 3.6611 0.0722458C3.85494 0.310657 4.07167 0.310657 4.31131 0.0722458C4.37836 0.204456 4.4626 0.229019 4.56417 0.144492C4.8158 0.436364 4.98435 0.749189 5.06989 1.08369C5.17761 1.19206 5.31004 1.25274 5.46724 1.2643C5.42686 1.31632 5.4028 1.377 5.395 1.44492C5.5673 1.73968 5.61549 2.02866 5.53949 2.31186C5.61174 2.37183 5.68398 2.43251 5.75623 2.49248C5.70804 2.51632 5.65992 2.54088 5.61174 2.56472C5.71815 2.61602 5.76634 2.70055 5.75623 2.81758C5.67134 2.80169 5.59909 2.82553 5.53949 2.88983C5.56449 2.97653 5.60061 2.97653 5.64786 2.88983C5.67336 2.97436 5.66137 3.05889 5.61174 3.14269C5.66751 3.23083 5.73976 3.30308 5.82847 3.35943C5.63579 3.45551 5.4913 3.60001 5.395 3.7929C5.48249 3.84998 5.55473 3.89766 5.61174 3.93739C5.57287 4.08911 5.50062 4.1498 5.395 4.11801C5.41906 4.16641 5.44319 4.2141 5.46724 4.2625C5.44225 4.34919 5.40612 4.34919 5.35888 4.2625C5.26004 4.37015 5.24798 4.47851 5.32275 4.58761C5.27283 4.66491 5.23671 4.74871 5.21438 4.84047C5.02727 4.77689 4.85872 4.77689 4.70866 4.84047C4.43514 5.17352 4.14616 5.48634 3.84172 5.77966C3.69722 5.68357 3.55273 5.58676 3.40824 5.49068C3.35644 5.52969 3.32032 5.5781 3.29987 5.63517Z" fill="var(--fill-0, #830B0D)"/>
</g>
</svg>
