<svg preserveAspectRatio="none" width="100%" height="100%" overflow="visible" style="display: block;" viewBox="0 0 6.35763 6.71886" fill="none" xmlns="http://www.w3.org/2000/svg">
<g id="Group">
<path id="Vector" fill-rule="evenodd" clip-rule="evenodd" d="M4.55148 0.361229C4.85506 0.399519 5.04774 0.568574 5.12945 0.866949C5.32863 0.85828 5.47312 0.942807 5.56292 1.11981C5.68097 1.15521 5.80141 1.16749 5.92415 1.15593C5.93961 1.27442 5.91548 1.38278 5.85191 1.48104C6.02154 1.65082 6.06966 1.84371 5.9964 2.059C6.05109 2.39928 6.17152 2.71211 6.35763 2.9982C6.31833 3.05022 6.27014 3.08634 6.21314 3.10657C6.41318 3.26262 6.40112 3.40711 6.17701 3.54004C6.06958 3.98652 5.93716 4.39616 5.77966 4.76822C5.82474 4.79856 5.8488 4.84625 5.85191 4.91271C5.75633 5.03336 5.66002 5.15329 5.56292 5.27394C5.65511 5.33824 5.65511 5.41049 5.56292 5.49068C5.42963 5.42638 5.33333 5.47406 5.27394 5.63517C5.17764 5.65901 5.17764 5.68357 5.27394 5.70742C5.28471 5.78327 5.27271 5.85552 5.23782 5.92415C5.1733 5.83674 5.11312 5.83674 5.0572 5.92415C4.98481 6.06937 4.91257 6.21386 4.84047 6.35763C4.65501 6.30417 4.48646 6.30417 4.33475 6.35763C4.09915 6.3952 3.89441 6.49128 3.72066 6.64661C3.5149 6.61555 3.31016 6.5917 3.10657 6.57436C3.03591 6.60904 2.97573 6.65673 2.92595 6.71886C2.66551 6.48261 2.42464 6.48261 2.2035 6.71886C2.00966 6.63361 1.84104 6.51368 1.69778 6.35763C1.66787 6.39086 1.63174 6.4147 1.58941 6.42987C1.49072 6.15028 1.3221 5.92199 1.08369 5.74354C1.14004 5.66624 1.12797 5.58171 1.04756 5.49068C0.860447 5.25516 0.631717 5.07454 0.361229 4.94884C0.565901 4.81663 0.553908 4.70826 0.325106 4.62373C0.270127 4.4395 0.209946 4.25889 0.144492 4.08189C0.227357 3.93161 0.179169 3.82325 0 3.75678C0.08879 3.70043 0.185094 3.66431 0.288983 3.64841C0.232487 3.4584 0.160241 3.26623 0.0722458 3.07045C0.0782422 2.90211 0.150488 2.76918 0.288983 2.67309C0.201493 2.58495 0.201493 2.50043 0.288983 2.42023C0.240795 2.39639 0.192679 2.37183 0.144492 2.34799C0.192679 2.2035 0.288983 2.10741 0.433475 2.059C0.353354 1.92824 0.401542 1.86755 0.577966 1.87839C0.631861 1.53739 0.776353 1.23613 1.01144 0.975318C0.936666 0.866227 0.948731 0.757858 1.04756 0.650212C1.10897 0.583746 1.18122 0.583746 1.2643 0.650212C1.36046 0.541843 1.46883 0.445756 1.58941 0.361229C1.64706 0.394462 1.67112 0.442144 1.66165 0.50572C1.78859 0.448646 1.88496 0.351837 1.95064 0.216737C2.07107 0.265142 2.19143 0.312824 2.31186 0.361229C2.30478 0.280314 2.34091 0.208068 2.42023 0.144492C2.65901 0.127153 2.8998 0.127153 3.14269 0.144492C3.16675 0.0960869 3.19088 0.0484047 3.21494 0C3.36882 0.00650212 3.52538 0.00650212 3.68453 0C3.83025 0.0484047 3.95061 0.132932 4.04576 0.25286C4.2206 0.273811 4.38922 0.309934 4.55148 0.361229ZM5.9964 3.17881C5.98058 3.26406 6.00463 3.33631 6.06864 3.39555C6.15281 3.2973 6.12875 3.22505 5.9964 3.17881Z" fill="var(--fill-0, #830B0D)"/>
</g>
</svg>
